<?xml version="1.0" encoding="UTF-8" standalone="no"?>
<!DOCTYPE svg PUBLIC "-//W3C//DTD SVG 1.1//EN" "http://www.w3.org/Graphics/SVG/1.1/DTD/svg11.dtd">
<svg width="100%" height="100%" viewBox="0 0 88 266" version="1.1" xmlns="http://www.w3.org/2000/svg" xmlns:xlink="http://www.w3.org/1999/xlink" xml:space="preserve" style="fill-rule:evenodd;clip-rule:evenodd;stroke-linejoin:round;stroke-miterlimit:1.41421;">
    <g transform="matrix(1,0,0,1,-1082.72,0)">
        <g id="activity05" transform="matrix(0.673153,0,0,1.91542,902.28,0)">
            <rect x="268.056" y="0" width="130.728" height="138.873" style="fill:none;"/>
            <g transform="matrix(0.825036,0,0,0.28995,-1190.06,-299.109)">
                <path d="M1859.84,1216.22C1859.15,1213.78 1858.29,1210.81 1857.38,1207.82C1854.41,1198.14 1852.86,1194.65 1851.99,1193.3C1851.99,1193.28 1852,1193.24 1852,1193.21C1853.77,1195.45 1858.07,1205.68 1862.04,1216.31L1859.84,1216.22ZM1855.08,1216.03C1854.76,1213.65 1854.35,1210.81 1853.9,1207.94C1852.7,1200.31 1851.81,1196.54 1851.16,1194.63C1851.17,1194.63 1851.18,1194.6 1851.2,1194.6C1852.77,1197.55 1855.69,1206.53 1858.42,1216.16L1855.08,1216.03ZM1850.15,1215.82C1850.26,1213.5 1850.38,1210.77 1850.45,1208.05C1850.64,1200.78 1850.48,1196.99 1850.19,1194.99L1850.22,1194.99C1851.34,1198.37 1852.82,1206.88 1854.06,1215.99L1850.15,1215.82ZM1849.14,1215.79L1837.53,1215.31C1837.08,1213.47 1836.63,1211.54 1836.24,1209.61C1836.08,1206.21 1836.09,1202.54 1836.3,1198.63C1836.42,1198.67 1836.55,1198.69 1836.7,1198.69C1837.02,1198.69 1837.39,1198.61 1837.79,1198.47C1838.93,1198.09 1839.36,1197.64 1839.67,1197.31C1839.96,1197.02 1840.12,1196.83 1840.72,1196.83C1841.13,1196.83 1841.53,1196.89 1841.89,1196.95C1842.27,1196.99 1842.65,1197.04 1843.04,1197.04C1843.62,1197.04 1844.17,1196.93 1844.75,1196.69C1845.39,1196.42 1845.85,1196.14 1846.25,1195.87C1846.92,1195.47 1847.43,1195.13 1848.37,1195.13C1848.64,1195.13 1848.92,1195.11 1849.2,1195.11C1849.65,1198.59 1849.57,1206.92 1849.14,1215.79M1788.07,1160.59C1789.38,1158.53 1795.2,1147.76 1798.4,1141.81C1798.42,1141.85 1798.43,1141.89 1798.44,1141.92C1798.53,1142.18 1798.6,1142.41 1798.66,1142.56L1798.68,1142.56C1799.94,1145.85 1801.8,1149.61 1802.25,1150.3C1802.31,1150.53 1802.74,1152.23 1803.14,1154.9C1803.36,1156.72 1803.56,1158.97 1803.64,1161.47C1797.24,1160.96 1791.19,1160.56 1788.07,1160.59M1853.7,1492.11C1854.51,1492.11 1855.24,1492.01 1855.9,1491.81C1855.57,1491.94 1855.22,1492.01 1854.83,1492.05C1854.23,1492.13 1853.66,1492.13 1853.11,1492.09C1853.31,1492.11 1853.52,1492.11 1853.7,1492.11M1806.04,1478.02C1805.63,1477.27 1805.31,1476.43 1805.07,1475.57L1806.04,1478.02ZM1917.66,1289.9L1884.44,1218.46L1868.85,1217.93L1868.28,1216.57L1863.51,1216.39C1862.54,1213.75 1861.13,1210.04 1859.63,1206.32C1854.3,1193.08 1852.81,1191.85 1852.17,1191.56C1852.23,1190.78 1852.28,1189.9 1852.33,1189.09C1852.4,1187.75 1852.48,1186.5 1852.54,1186.25C1852.56,1186.17 1852.59,1186.1 1852.61,1186.03C1852.79,1185.48 1852.98,1184.85 1851.8,1183.82C1851.07,1183.18 1845.05,1177.44 1839.76,1172.37C1841.07,1165.84 1842.29,1161.3 1842.45,1160.68C1843.21,1160.29 1849.94,1156.68 1851.34,1150.95C1851.61,1150.64 1851.88,1150.3 1852.16,1149.95C1852.07,1153.82 1854.68,1155.77 1856.51,1157.75C1858.56,1159.96 1854.13,1163.64 1854.13,1163.64C1858.13,1161.16 1857.96,1158.68 1857.88,1156.98C1857.79,1155.28 1854.8,1151.52 1857.01,1149.31C1859.24,1147.08 1864.44,1147.67 1866.07,1141.45C1867.5,1135.94 1863.72,1131.56 1862.95,1128.1C1863.44,1126.66 1863.89,1125.18 1864.26,1123.7C1865.84,1121.74 1868.23,1119.24 1868.8,1112.18C1868.99,1109.81 1865.98,1104.2 1868.28,1099.44C1876.25,1082.95 1872.72,1066.45 1866.07,1057.74C1863.75,1054.71 1860.88,1051.72 1856.81,1050.11C1855.34,1049.15 1853.69,1048.57 1851.84,1048.5L1851.83,1048.5C1851.61,1048.48 1851.39,1048.48 1851.16,1048.48C1851.1,1048.48 1851.05,1048.5 1851,1048.5C1850.82,1048.5 1850.64,1048.5 1850.45,1048.53C1850.2,1048.54 1849.93,1048.57 1849.68,1048.61C1849.44,1048.64 1849.12,1048.7 1848.73,1048.81C1846.66,1048.43 1843.39,1048.37 1838.67,1049.81C1829.51,1052.6 1824.93,1057.35 1824.7,1065.43C1824.48,1073.51 1826.64,1078.84 1826.87,1084.75C1827.09,1090.7 1826.64,1093.76 1824.48,1097.51C1823.48,1099.24 1822.66,1101.34 1821.94,1103.36C1821.6,1103.02 1821.26,1102.68 1820.94,1102.35C1820.69,1102.1 1820.47,1101.86 1820.24,1101.63L1820.25,1101.63L1820.34,1101.51L1820.25,1101.41C1820.25,1101.41 1820.18,1101.31 1820.03,1101.15C1818.81,1099.75 1812.37,1092.93 1806.27,1097.63C1799.68,1102.71 1792.48,1112.52 1792.41,1112.63L1792.3,1112.76L1792.45,1112.88C1792.46,1112.88 1792.55,1112.92 1792.68,1113.03C1792.99,1113.78 1793.88,1115.59 1795.62,1117.39C1792.47,1124.36 1789.6,1130.07 1786.67,1135.19C1780.61,1145.83 1772.85,1163.86 1776.32,1169.96C1778.4,1173.62 1783.04,1174.13 1787.74,1174.13C1789.13,1174.13 1790.56,1174.09 1792.08,1174.04L1792.52,1174.02C1795.47,1173.92 1799.07,1173.31 1802.79,1172.58C1802.36,1175.55 1801.66,1178.44 1800.74,1180.99C1797.74,1189.17 1790.81,1199.74 1782.62,1208.58L1782.5,1208.69L1782.62,1208.83C1782.65,1208.84 1782.95,1209.11 1783.63,1209.56C1782.7,1210.9 1781.09,1213.93 1779.55,1220.51C1773.95,1244.28 1776.14,1275.5 1776.17,1275.82L1776.17,1275.89C1776.17,1275.91 1776.18,1275.95 1776.18,1275.96L1776.19,1276.03C1776.21,1276.07 1776.24,1276.14 1776.28,1276.17C1777.01,1277 1782.91,1278.53 1792.42,1279.58C1795.09,1286.76 1798.15,1294.47 1800.1,1297.61C1804.1,1304.06 1812.82,1328.23 1812.82,1338.27C1812.82,1340.14 1812.67,1342.33 1812.5,1344.85C1812.34,1347.22 1812.16,1349.88 1812.08,1352.78C1809.74,1359.54 1808.3,1365.82 1809.57,1379.98C1810.13,1386.06 1810.92,1392.02 1811.69,1397.8C1813.5,1411.5 1815.23,1424.43 1812.82,1434.18C1812.8,1434.28 1809.98,1444.06 1809.64,1445.34C1809.43,1446.1 1809.66,1447.29 1809.85,1448.33C1809.99,1449.11 1810.13,1449.82 1810.04,1450.12C1810.01,1450.19 1809.85,1450.55 1809.65,1451.04C1805.79,1460.09 1803.81,1466.64 1803.75,1470.56L1803.62,1470.83C1803.62,1470.83 1803.7,1481.36 1809.57,1482.53C1815.33,1483.67 1819.93,1477.82 1820.78,1473.63C1824.91,1466.13 1824.06,1457.82 1823.53,1452.56C1823.37,1451.01 1823.24,1449.81 1823.28,1448.96C1823.48,1445.45 1823.11,1441.86 1822.14,1438C1821.37,1434.88 1824.47,1413.27 1825.21,1410.32C1825.3,1409.96 1825.41,1409.02 1825.54,1407.62C1828.44,1413.34 1831.46,1418.64 1834.26,1423.55C1840.93,1435.25 1846.2,1444.49 1845.81,1452.25C1845.38,1460.85 1845.73,1462.8 1845.93,1463.98C1846.06,1464.69 1846.13,1465.12 1845.98,1466.52C1845.92,1467.1 1845.71,1468.05 1845.45,1469.27C1844.91,1471.66 1844.17,1475.07 1843.94,1478.54C1843.64,1478.81 1843.44,1479.11 1843.36,1479.41C1842.74,1482.01 1843.33,1484.72 1843.69,1485.97L1843.68,1485.97C1844.36,1489.43 1849,1494.5 1854.8,1493.53C1859.38,1492.78 1860.4,1487.2 1860.63,1484.88C1860.65,1484.56 1860.67,1484.28 1860.68,1484.12C1860.77,1483.11 1860.78,1482.04 1860.75,1480.94L1860.75,1480.75L1860.75,1480.83C1860.74,1479.5 1860.7,1478.04 1860.56,1476.98C1860.54,1476.84 1860.47,1476.71 1860.35,1476.6C1859.64,1471.55 1858.22,1466.63 1857.52,1464.18C1857.28,1463.33 1857.1,1462.7 1857.07,1462.54C1856.83,1460.29 1855.24,1450.16 1852.62,1445.69C1850,1441.21 1840.72,1402.36 1840.01,1394.45C1839.34,1387.08 1835.6,1362.3 1834.71,1358.75C1833.16,1352.49 1832.06,1343.58 1833.07,1339.43C1833.82,1336.33 1833.23,1331.97 1832.73,1328.11C1832.54,1326.71 1832.36,1325.38 1832.27,1324.24C1832.14,1322.58 1832.14,1320.09 1832.16,1317.45L1832.16,1317.29L1900.43,1317.49C1900.43,1317.49 1898.29,1310.53 1904.03,1303.99L1902.67,1300.68L1914.06,1300.85C1914.06,1300.85 1911.93,1295.22 1917.66,1289.9" style="fill:white;fill-opacity:0.2;fill-rule:nonzero;"/>
            </g>
        </g>
    </g>
</svg>
