<?xml version="1.0" encoding="UTF-8" standalone="no"?>
<!DOCTYPE svg PUBLIC "-//W3C//DTD SVG 1.1//EN" "http://www.w3.org/Graphics/SVG/1.1/DTD/svg11.dtd">
<svg width="100%" height="100%" viewBox="0 0 132 266" version="1.1" xmlns="http://www.w3.org/2000/svg" xmlns:xlink="http://www.w3.org/1999/xlink" xml:space="preserve" style="fill-rule:evenodd;clip-rule:evenodd;stroke-linejoin:round;stroke-miterlimit:1.41421;">
    <g transform="matrix(1,0,0,1,-529.389,-2.20268e-13)">
        <g id="activity02" transform="matrix(1.00973,0,0,1.91542,258.725,2.20268e-13)">
            <rect x="268.056" y="0" width="130.728" height="138.873" style="fill:none;"/>
            <g transform="matrix(0.662873,0,0,0.352561,-622.582,-436.75)">
                <path d="M1465.69,1284.03C1465.69,1284.03 1468.98,1283.56 1466.86,1279.09C1464.75,1274.63 1463.34,1276.04 1463.1,1271.57C1462.87,1267.11 1463.1,1264.53 1461.46,1262.88C1459.82,1261.24 1458.87,1259.83 1458.87,1259.83C1458.87,1259.83 1457.7,1259.36 1456.76,1259.12C1455.82,1258.89 1452.06,1257.01 1452.3,1256.07C1452.53,1255.13 1452.77,1252.55 1449,1252.78C1445.25,1253.02 1441.02,1253.72 1441.02,1253.72C1441.02,1253.72 1441.96,1252.31 1439.38,1252.78C1436.79,1253.25 1434.91,1252.55 1432.09,1254.66C1429.27,1256.77 1425.04,1258.65 1424.58,1260.06C1424.1,1261.47 1424.34,1262.18 1423.63,1262.88C1422.93,1263.59 1419.88,1264.53 1419.88,1264.53L1421.75,1266.64C1421.75,1266.64 1420.35,1267.11 1418.93,1267.11C1417.53,1267.11 1416.59,1267.82 1417.76,1268.99C1418.93,1270.16 1420.11,1270.4 1420.11,1270.4C1420.11,1270.4 1417.53,1272.75 1417.76,1273.92C1418,1275.1 1419.88,1274.39 1419.88,1274.39C1419.88,1274.39 1418.93,1274.39 1418.93,1276.04C1418.93,1277.68 1420.82,1277.92 1420.82,1277.92C1420.82,1277.92 1419.88,1277.45 1419.88,1279.09C1419.88,1280.74 1418.7,1283.09 1419.88,1281.91C1421.05,1280.74 1422.46,1281.44 1422.46,1281.44L1424.34,1282.38C1424.34,1282.38 1424.58,1288.96 1425.75,1289.43C1426.92,1289.9 1429.51,1290.84 1429.51,1291.78C1429.51,1292.72 1429.51,1299.3 1430.68,1299.53C1431.86,1299.77 1433.97,1300 1433.97,1300L1436.32,1302.35L1438.67,1302.58C1438.67,1302.58 1437.96,1304 1438.9,1304.93C1439.84,1305.87 1439.84,1307.99 1441.73,1307.75C1443.6,1307.52 1444.31,1307.28 1444.31,1307.28C1444.31,1307.28 1445.48,1312.69 1446.19,1313.15C1446.89,1313.63 1445.25,1314.57 1446.19,1316.45C1447.13,1318.33 1450.42,1321.38 1450.42,1321.38C1450.42,1321.38 1446.42,1340.64 1445.95,1345.81C1445.48,1350.98 1443.37,1358.03 1443.13,1360.14C1442.9,1362.26 1441.02,1363.9 1441.02,1363.9C1441.02,1363.9 1434.44,1359.67 1428.33,1358.97C1422.23,1358.26 1416.12,1358.03 1416.12,1358.03L1414.24,1358.26L1411.65,1356.62C1411.65,1356.62 1407.19,1353.8 1403.9,1353.8C1400.61,1353.8 1398.73,1353.57 1398.73,1353.57L1396.85,1353.33C1396.85,1353.33 1393.33,1352.39 1391.22,1352.86C1389.1,1353.33 1387.22,1354.27 1387.22,1354.27C1387.22,1354.27 1372.19,1357.32 1366.55,1357.79C1360.91,1358.26 1357.38,1361.08 1355.51,1365.08C1353.62,1369.07 1349.39,1379.64 1348.22,1380.35C1347.05,1381.05 1353.86,1386.69 1355.74,1388.1C1357.62,1389.51 1375.24,1400.08 1380.17,1405.71C1385.11,1411.35 1392.39,1415.58 1395.91,1418.64C1399.44,1421.69 1408.13,1427.56 1412.12,1429.44C1416.12,1431.32 1419.88,1433.91 1419.88,1433.91C1419.88,1433.91 1430.45,1427.09 1434.21,1423.33C1437.96,1419.58 1443.37,1413.7 1443.37,1413.7L1446.89,1420.51C1446.89,1420.51 1445.01,1422.39 1445.72,1423.1C1446.42,1423.8 1448.54,1424.51 1448.54,1424.51C1448.54,1424.51 1453.24,1466.8 1454.88,1476.9C1456.53,1487 1459.11,1513.31 1459.34,1517.54C1459.58,1521.77 1457.46,1522.47 1459.58,1525.06C1461.69,1527.64 1464.75,1530.23 1464.75,1530.23C1464.75,1530.23 1464.75,1532.81 1465.69,1540.09C1466.63,1547.38 1464.04,1561.71 1464.98,1565.7C1465.92,1569.69 1467.1,1569.69 1465.92,1573.22C1464.75,1576.74 1463.57,1581.2 1462.87,1583.55C1462.16,1585.9 1463.1,1589.43 1462.87,1591.54C1462.63,1593.66 1461.22,1593.18 1461.22,1594.59C1461.22,1596.01 1464.28,1597.88 1464.28,1597.88L1462.87,1600.7C1462.87,1600.7 1459.58,1600 1459.34,1600.94C1459.11,1601.88 1457.23,1601.17 1455.82,1602.11C1454.41,1603.06 1451.83,1603.99 1451.59,1604.7C1451.35,1605.4 1447.13,1604.93 1446.89,1606.11C1446.66,1607.28 1443.6,1609.16 1443.6,1609.16C1443.6,1609.16 1443.13,1610.57 1440.79,1611.28C1438.43,1611.98 1435.62,1611.51 1435.62,1614.09C1435.62,1616.68 1441.96,1618.8 1451.12,1618.8C1460.29,1618.8 1472.27,1617.15 1475.79,1617.15C1479.31,1617.15 1483.07,1616.92 1484.48,1615.04C1485.89,1613.16 1485.89,1611.98 1485.89,1611.98C1485.89,1611.98 1492.94,1612.69 1496.93,1612.22C1500.93,1611.75 1502.57,1611.04 1502.81,1608.69C1503.04,1606.34 1503.04,1604.93 1503.04,1604.93C1503.04,1604.93 1502.81,1604.93 1502.1,1603.76C1501.4,1602.59 1502.1,1601.88 1502.1,1601.88L1503.28,1601.17L1503.04,1598.36C1503.04,1598.36 1502.81,1597.65 1503.51,1597.18C1504.22,1596.71 1503.51,1596.01 1503.04,1594.59C1502.57,1593.18 1500.93,1594.36 1501.63,1590.84C1502.34,1587.31 1502.81,1586.14 1502.81,1586.14L1500.93,1581.44C1500.93,1581.44 1497.87,1524.12 1495.52,1518.48C1493.17,1512.84 1493.88,1505.09 1493.88,1497.57C1493.88,1490.05 1494.35,1453.64 1494.35,1453.64C1494.35,1453.64 1498.11,1448.7 1498.58,1443.54C1499.05,1438.37 1499.05,1433.2 1499.05,1433.2C1499.05,1433.2 1506.33,1433.67 1510.8,1430.62C1515.26,1427.56 1533.35,1407.36 1533.35,1407.36L1519.72,1379.41C1519.72,1379.41 1522.31,1376.35 1522.31,1374.24C1522.31,1372.12 1516.9,1362.96 1515.26,1361.32C1513.61,1359.67 1511.74,1360.38 1511.74,1360.38C1511.74,1360.38 1512.44,1361.32 1510.09,1358.26C1507.74,1355.21 1505.86,1355.68 1505.86,1355.68L1499.99,1342.52C1499.99,1342.52 1502.34,1330.54 1497.17,1320.67C1492,1310.81 1486.36,1303.05 1480.49,1298.36C1474.61,1293.66 1473.67,1293.19 1473.67,1293.19C1473.67,1293.19 1472.73,1292.01 1472.27,1289.66C1471.8,1287.31 1470.15,1286.61 1470.15,1286.61L1469.45,1284.03L1465.69,1284.03Z" style="fill:white;fill-opacity:0.2;fill-rule:nonzero;"/>
            </g>
        </g>
    </g>
</svg>
