<?xml version="1.0" encoding="UTF-8" standalone="no"?>
<!DOCTYPE svg PUBLIC "-//W3C//DTD SVG 1.1//EN" "http://www.w3.org/Graphics/SVG/1.1/DTD/svg11.dtd">
<svg width="100%" height="100%" viewBox="0 0 208 266" version="1.1" xmlns="http://www.w3.org/2000/svg" xmlns:xlink="http://www.w3.org/1999/xlink" xml:space="preserve" style="fill-rule:evenodd;clip-rule:evenodd;stroke-linejoin:round;stroke-miterlimit:1.41421;">
    <g transform="matrix(1,0,0,1,-268.056,-2.20268e-13)">
        <g id="activity01" transform="matrix(1.59109,0,0,1.91542,-158.445,2.20268e-13)">
            <rect x="268.056" y="0" width="130.728" height="138.873" style="fill:none;"/>
            <g transform="matrix(0.104783,0,0,0.328602,270.55,-61.8907)">
                <g opacity="0.2">
                    <g transform="matrix(4.16667,0,0,1.10367,-4666.48,-1181.12)">
                        <path d="M1377.02,1603.38L1336.08,1600.7C1336.08,1600.7 1333.63,1623.97 1319.98,1617.48C1306.33,1611 1310.58,1597.35 1313.27,1591.98C1315.96,1586.61 1316.63,1581.91 1316.63,1581.91C1316.63,1581.91 1308.57,1565.13 1299.17,1539.63C1289.78,1514.13 1281.73,1481.25 1286.42,1479.24C1291.12,1477.23 1332.06,1475.88 1332.06,1475.88C1332.06,1475.88 1361.59,1471.19 1363.6,1478.57C1365.61,1485.95 1395.14,1549.03 1395.14,1549.03C1395.14,1549.03 1405.2,1565.13 1402.52,1568.49C1399.84,1571.84 1393.8,1573.86 1393.8,1573.86L1393.8,1583.92C1393.8,1583.92 1408.56,1589.97 1407.89,1602.05C1407.21,1614.12 1397.82,1621.06 1387.76,1616.13C1377.69,1611.22 1377.02,1603.38 1377.02,1603.38" style="fill:white;fill-rule:nonzero;"/>
                    </g>
                    <g transform="matrix(4.16667,0,0,1.10367,-4666.48,-1181.12)">
                        <path d="M1285.75,1445.69C1285.75,1445.69 1288.44,1458.44 1283.74,1458.44C1279.05,1458.44 1270.32,1450.38 1270.32,1450.38C1270.32,1450.38 1266.96,1445.02 1263.61,1443C1260.25,1440.99 1258.24,1432.26 1258.24,1432.26L1253.55,1489.97L1238.11,1491.99C1238.11,1491.99 1234.08,1532.25 1231.4,1547.02C1228.71,1561.78 1224.69,1576.54 1224.69,1576.54C1224.69,1576.54 1228.71,1604.06 1227.37,1607.41C1226.03,1610.77 1197.85,1610.1 1193.15,1608.76C1188.45,1607.41 1187.11,1606.07 1190.46,1603.38C1193.82,1600.7 1204.55,1592.65 1204.55,1592.65L1201.2,1591.31C1201.2,1591.31 1190.46,1555.07 1187.11,1539.63C1183.76,1524.2 1178.38,1495.35 1178.38,1495.35C1178.38,1495.35 1168.32,1498.03 1166.98,1494C1165.63,1489.97 1159.6,1455.08 1158.92,1439.65C1158.25,1424.21 1158.25,1407.44 1158.25,1407.44L1160.27,1374.55C1160.27,1374.55 1150.2,1398.04 1150.2,1402.07C1150.2,1406.09 1147.52,1430.92 1145.5,1433.61C1143.49,1436.29 1138.8,1437.64 1138.8,1437.64C1138.8,1437.64 1139.46,1447.03 1136.78,1447.03C1134.1,1447.03 1127.38,1443 1127.38,1443L1124.7,1436.29C1124.7,1436.29 1120,1434.28 1120,1430.92C1120,1427.57 1134.76,1363.14 1136.78,1357.11C1138.8,1351.07 1152.21,1312.15 1159.6,1308.79C1166.98,1305.43 1177.71,1293.36 1177.71,1293.36L1186.44,1289.33C1186.44,1289.33 1181.74,1277.92 1177.05,1275.91C1172.35,1273.89 1175.03,1267.19 1177.05,1263.83C1179.06,1260.47 1177.71,1255.77 1179.06,1253.76C1180.4,1251.75 1192.48,1253.09 1192.48,1253.09C1192.48,1253.09 1193.82,1248.4 1196.51,1247.05C1199.18,1245.71 1209.93,1247.72 1213.28,1247.72L1216.63,1247.72L1218.65,1252.42C1218.65,1252.42 1227.37,1251.75 1227.37,1258.46C1227.37,1265.17 1224.69,1268.53 1224.69,1268.53C1224.69,1268.53 1230.06,1275.91 1227.37,1277.92C1224.69,1279.93 1225.36,1281.95 1225.36,1281.95C1225.36,1281.95 1238.11,1287.99 1238.11,1292.01L1238.11,1300.74C1238.11,1300.74 1249.52,1308.79 1252.2,1312.15C1254.89,1315.5 1256.9,1329.59 1256.9,1329.59C1256.9,1329.59 1263.61,1347.49 1263.61,1351.96C1263.61,1356.43 1277.03,1398.05 1277.03,1403.85C1277.03,1409.67 1289.56,1433.38 1289.56,1435.62C1289.56,1437.86 1288.77,1444.68 1285.75,1445.69" style="fill:white;fill-rule:nonzero;"/>
                    </g>
                    <g transform="matrix(4.16667,0,0,1.10367,-4666.48,-1181.12)">
                        <path d="M1273.19,1447.71C1266.34,1451.06 1261.41,1456.29 1260.63,1461.02C1259.23,1469.38 1286.22,1515.88 1294.52,1529.93L1299.14,1527.2C1282.38,1498.83 1265.38,1466.65 1265.92,1461.88C1266.34,1459.39 1269.79,1455.36 1275.56,1452.53C1278.78,1450.95 1287.07,1447.72 1294.55,1451.74C1306.62,1458.24 1315.72,1480.68 1315.81,1480.91L1320.79,1478.91C1320.39,1477.92 1310.87,1454.44 1297.09,1447.02C1290.29,1443.35 1281.57,1443.6 1273.19,1447.71" style="fill:white;fill-rule:nonzero;"/>
                    </g>
                    <g transform="matrix(4.16667,0,0,1.10367,-4666.48,-1181.12)">
                        <path d="M1288.02,1466.22C1280.85,1468.61 1269.99,1476.48 1269.53,1476.81L1271.12,1478.99C1271.22,1478.9 1282.09,1471.03 1288.87,1468.77C1295.49,1466.56 1310.85,1469.46 1311,1469.49L1311.51,1466.85C1310.85,1466.72 1295.31,1463.79 1288.02,1466.22" style="fill:white;fill-rule:nonzero;"/>
                    </g>
                </g>
            </g>
        </g>
    </g>
</svg>
