<?xml version="1.0" encoding="UTF-8" standalone="no"?>
<!DOCTYPE svg PUBLIC "-//W3C//DTD SVG 1.1//EN" "http://www.w3.org/Graphics/SVG/1.1/DTD/svg11.dtd">
<svg width="100%" height="100%" viewBox="0 0 132 266" version="1.1" xmlns="http://www.w3.org/2000/svg" xmlns:xlink="http://www.w3.org/1999/xlink" xml:space="preserve" style="fill-rule:evenodd;clip-rule:evenodd;stroke-linejoin:round;stroke-miterlimit:1.41421;">
    <g transform="matrix(1,0,0,1,-710.722,-2.20268e-13)">
        <g id="activity03" transform="matrix(1.00973,0,0,1.91542,440.059,2.20268e-13)">
            <rect x="268.056" y="0" width="130.728" height="138.873" style="fill:none;"/>
            <g transform="matrix(1.0722,0,0,0.565219,-695.943,-653.951)">
                <path d="M979.619,1260.5C979.619,1260.5 979.822,1258.08 979.619,1256.86C979.418,1255.66 978.783,1254.01 978.7,1252.68C978.61,1251.36 978.15,1249.89 978.093,1249.05C978.032,1248.21 977.833,1246.62 977.833,1246.62L976.449,1249.39C976.449,1249.39 975.872,1250 976.39,1251.07C976.908,1252.13 977.227,1252.31 977.543,1252.83C977.864,1253.35 978.581,1256.44 978.581,1257.64C978.581,1258.85 978.783,1259.72 978.962,1260.19C979.127,1260.64 979.359,1261.13 979.359,1261.13L979.619,1260.5ZM924.781,1213.62L927.963,1204.05C927.963,1204.05 927.229,1204.84 926.722,1205.66C926.213,1206.47 925.119,1208.89 925.119,1208.89L925.286,1209.18C925.286,1209.18 924.751,1210.81 924.444,1211.37C924.132,1211.94 922.443,1213.86 922.443,1213.86L924.781,1213.62ZM942.574,1204.89C942.545,1204.78 941.536,1203.06 941.079,1201.74C940.631,1200.42 940.208,1199.54 939.926,1199.15C939.645,1198.75 939.504,1198.5 939.504,1198.5C939.504,1198.5 939.45,1199.15 938.715,1199.15C937.986,1199.15 935.195,1199.49 934.776,1199.52C934.35,1199.54 933.422,1200.28 932.946,1200.67C932.466,1201.06 928.693,1203.68 928.693,1203.68L925.795,1213.43L927.199,1212.73C927.199,1212.73 926.976,1212.1 928.213,1211.37C929.456,1210.63 931.367,1210.44 931.367,1210.44C931.367,1210.44 933.283,1208.98 933.622,1208.36C933.957,1207.74 934.468,1206.83 935.056,1206.97C935.647,1207.12 935.901,1206.95 937.364,1206.36C938.828,1205.77 939.842,1205.38 940.546,1205.26C941.252,1205.15 942.601,1205.01 942.574,1204.89M989.426,1291.75C989.426,1291.52 988.499,1289.35 988.47,1288.15C988.441,1286.93 988.385,1285.47 988.441,1285.04C988.499,1284.62 988.357,1283.33 988.357,1283.33L987.594,1283.41C987.594,1283.41 987.706,1282.88 987.564,1282.62C987.427,1282.37 987.006,1280.82 985.961,1278.54C984.92,1276.25 984.3,1273.33 983.992,1272.6C983.68,1271.87 982.217,1269.84 981.875,1269.02C981.543,1268.2 980.135,1264.6 979.851,1263.92C979.57,1263.25 979.315,1261.86 979.315,1261.86C979.315,1261.86 979.88,1267.92 979.88,1269.5C979.88,1271.08 980.752,1273.25 981.598,1275.36C982.442,1277.48 983.341,1279.75 983.963,1281.16C984.584,1282.57 985.707,1284.85 986.076,1286.4C986.439,1287.94 985.989,1288.17 987.09,1289.21C988.186,1290.26 989.426,1291.97 989.426,1291.75M959.036,1362.42C958.91,1359.44 958.932,1353.76 958.976,1348.86C959.017,1343.96 959.163,1339.05 959.268,1335.48C959.377,1331.91 958.32,1328.96 957.982,1326.93C957.648,1324.9 957.962,1323.63 957.962,1321.86C957.962,1320.09 957.833,1315.32 957.833,1313.1C957.833,1310.88 958.634,1306.69 958.805,1304.6C958.976,1302.52 958.869,1297.93 958.869,1297.93L957.833,1297.24C957.833,1297.24 956.95,1300.99 956.672,1302.34C956.396,1303.69 956.356,1307.37 956.356,1309.21C956.356,1311.05 956.969,1317.09 957.011,1318.71C957.052,1320.34 956.459,1323.45 956.315,1324.08C956.168,1324.71 955.492,1328.2 955.469,1330.01C955.448,1331.83 955.618,1334.54 955.783,1337.39C955.954,1340.24 955.761,1346.3 955.64,1348.88C955.512,1351.45 955.108,1362.18 955.176,1364.4C955.238,1366.62 955.469,1367.46 955.872,1368.29C956.27,1369.11 956.209,1371.67 956.315,1372.62C956.418,1373.57 956.506,1374.54 956.57,1374.87C956.631,1375.22 956.608,1376.12 956.608,1376.67C956.608,1377.22 956.27,1378.35 955.912,1378.96C955.551,1379.57 955.298,1380.35 955.298,1380.35C955.298,1380.35 955.362,1381.52 955.321,1382.32C955.279,1383.12 954.223,1383.86 954.012,1384.75C953.8,1385.63 953.826,1386.24 953.886,1387.59C953.948,1388.94 952.235,1389.24 951.203,1389.87C950.168,1390.51 947.296,1390.26 944.639,1390.07C941.973,1389.87 942.019,1388.5 942.039,1387.76C942.059,1387.02 942.716,1386.56 942.716,1386.56C942.716,1386.56 942.756,1386.2 942.778,1385.95C942.798,1385.69 943.201,1384.24 943.201,1384.24C943.201,1384.24 943.795,1383.22 944.467,1382.38C945.143,1381.54 945.101,1380.07 945.186,1379.92C945.268,1379.78 945.124,1379.28 944.931,1378.97C944.742,1378.67 945.777,1377.98 946.407,1377.1C947.044,1376.21 947.341,1374.87 947.53,1374.41C947.716,1373.95 948.566,1372.85 948.774,1372.4C948.988,1371.97 948.774,1371.33 948.692,1370.55C948.604,1369.77 948.988,1367.93 948.753,1364.91C948.521,1361.89 946.476,1352.81 946.051,1349.57C945.629,1346.35 944.255,1341.27 943.664,1337.81C943.075,1334.34 943.685,1330.29 943.855,1327.23C944.027,1324.16 943.159,1319.18 942.969,1315.94C942.778,1312.72 941.469,1307.03 940.878,1304.68C940.286,1302.31 939.187,1295.92 939.187,1295.92C939.187,1295.92 936.614,1296.3 935.872,1296.3C935.133,1296.3 934.331,1296.24 934.331,1296.24C934.331,1296.24 934.309,1294.21 934.521,1292.69C934.731,1291.17 935.725,1287.14 936.021,1284.94C936.316,1282.74 936.802,1281.08 937.033,1280.61C937.265,1280.15 937.223,1279.11 937.309,1278.16C937.394,1277.2 937.815,1275.1 937.775,1273.66C937.733,1272.22 937.033,1270.94 936.95,1270.32C936.864,1269.71 937.244,1269.14 937.244,1268.4C937.244,1267.66 937.561,1265.36 937.856,1263.86C938.152,1262.36 939.082,1258.94 939.249,1257.48C939.419,1256.03 939.558,1255.43 940.615,1253.72C941.022,1253.05 938.169,1253.74 934.985,1254.17C930.005,1254.86 917.775,1256.6 917.775,1256.6C917.775,1256.6 915.736,1249.52 912.848,1243.28C911.824,1241.08 912.714,1234.77 912.426,1234.77C910.953,1234.8 909.819,1234.9 909.372,1234.88C907.788,1234.8 906.372,1234.29 905.422,1233.44C904.474,1232.6 904.664,1229.43 904.787,1228.37C904.914,1227.32 905.993,1222.99 906.288,1222.25C906.583,1221.51 906.899,1220.96 907.703,1220.2C908.505,1219.44 910.089,1217.01 910.452,1216.82C910.807,1216.63 911.019,1216.31 910.723,1216.14C910.424,1215.98 910.954,1215.91 911.421,1215.57C911.885,1215.24 912.177,1214.08 912.496,1213.57C912.811,1213.06 915.222,1207.9 915.603,1207.36C915.978,1206.81 916.212,1205.14 916.295,1204.91C916.382,1204.68 916.785,1204.84 917.015,1204.99C917.247,1205.14 917.399,1205.03 917.543,1205.12C917.69,1205.2 918.853,1205.88 918.853,1205.88C918.853,1205.88 919.952,1204.65 920.523,1204.06C921.092,1203.47 922.062,1201.72 922.355,1201.46C922.655,1201.21 922.461,1200.53 922.887,1199.6C923.308,1198.67 924.489,1197.66 925.357,1197.26C926.222,1196.86 926.918,1196.8 926.939,1196.69C926.963,1196.58 927.192,1195.17 927.341,1194.84C927.49,1194.49 928.123,1194.05 928.268,1193.97C928.416,1193.88 928.735,1194.2 929.012,1194.47C929.285,1194.74 928.8,1196.81 928.8,1196.81L929.094,1197.16C929.094,1197.16 929.834,1196.88 930.298,1196.69C930.761,1196.5 931.482,1195.99 932.221,1195.89C932.959,1195.78 932.493,1195.21 932.493,1195.21C932.493,1195.21 932.515,1194.84 932.515,1194.6C932.515,1194.36 932.98,1194.01 932.98,1194.01L933.488,1194.45C933.488,1194.45 933.488,1193.56 933.551,1192.93C933.614,1192.3 934.437,1191.56 934.753,1191.54C935.071,1191.52 935.195,1192.17 935.216,1192.68C935.239,1193.18 935.558,1194.53 935.558,1194.53C935.558,1194.53 935.98,1193.92 936.253,1193.63C936.526,1193.33 937.033,1193.52 937.333,1193.54C937.625,1193.56 937.625,1193.86 937.625,1194.09C937.625,1194.33 937.181,1195.53 937.181,1195.53C937.181,1195.53 938.3,1195.89 938.642,1196.04C938.976,1196.19 940.074,1197.17 940.497,1197.64C940.92,1198.1 941.469,1199.56 942.039,1200.64C942.604,1201.72 944.87,1204.89 944.87,1204.89C944.87,1204.89 945.586,1204.71 945.902,1204.53C946.222,1204.33 947.53,1203.71 947.91,1203.45C948.289,1203.2 948.967,1201.72 949.118,1200.01C949.26,1198.29 949.601,1194.01 949.662,1193.56C949.723,1193.12 949.408,1192.04 948.924,1189.82C948.437,1187.61 948.838,1184.55 949.723,1179.75C950.611,1174.95 954.327,1170.9 954.327,1170.9L955.258,1167.79C955.258,1167.79 955.661,1167.75 955.742,1167.73C955.83,1167.71 956.396,1167.41 956.759,1167.35C957.113,1167.29 959.06,1167.12 959.776,1167.18C960.497,1167.25 962.376,1168.01 962.376,1168.01C962.376,1168.01 962.903,1167.98 963.113,1167.92C963.324,1167.86 963.685,1167.82 963.788,1167.82C963.898,1167.82 964.361,1167.92 964.361,1167.92C964.361,1167.92 964.865,1167.9 965.224,1167.9C965.582,1167.9 967.4,1167.94 968.648,1168.37C969.889,1168.78 971.221,1169.78 971.221,1169.78C971.221,1169.78 971.601,1169.89 971.813,1169.93C972.025,1169.97 972.299,1170.39 972.299,1170.39L972.235,1173.24C972.235,1173.24 972.386,1173.73 972.447,1173.9C972.509,1174.07 972.509,1174.56 972.572,1174.79C972.639,1175.02 972.911,1175.27 972.955,1175.65C972.994,1176.04 972.955,1176.39 972.955,1176.65C972.955,1176.9 972.784,1177.64 972.804,1177.82C972.826,1178.02 972.848,1178.63 972.848,1178.86C972.848,1179.1 972.826,1179.89 972.826,1180.3C972.826,1180.7 972.932,1182.18 972.955,1183.15C972.974,1184.12 974.515,1186.55 974.643,1186.98C974.77,1187.39 975.38,1189.05 975.612,1190.51C975.844,1191.96 974.178,1195.57 974.115,1196.65C974.052,1197.73 974.367,1200.49 974.832,1201.36C975.297,1202.23 979.52,1205.31 979.52,1205.31C979.52,1205.31 981.271,1206.43 981.992,1207.25C982.707,1208.07 984.59,1210.08 984.715,1210.29C984.841,1210.51 985.263,1210.77 985.623,1211.02C985.98,1211.25 986.261,1211.92 986.595,1212.8C986.931,1213.69 988.999,1220.98 989.233,1222.4C989.469,1223.81 990.334,1229.58 990.334,1230.28C990.334,1230.97 990.605,1231.67 990.987,1232.83C991.37,1234 992.297,1240.31 992.341,1240.92C992.381,1241.53 992.613,1245.13 992.867,1246.39C993.119,1247.66 993.416,1249.73 993.649,1251C993.88,1252.27 994.095,1256.91 994.135,1258.08C994.173,1259.23 993.858,1263.9 993.69,1264.43C993.519,1264.96 993.816,1265.82 993.838,1266.88C993.858,1267.94 993.351,1269.65 993.185,1269.98C993.015,1270.32 993.311,1270.49 993.351,1270.66C993.395,1270.83 994.135,1275.92 994.173,1276.94C994.216,1277.95 994.934,1281.24 995.104,1281.6C995.276,1281.96 994.89,1281.98 994.577,1281.98C994.26,1281.98 993.267,1282.34 993.267,1282.34C993.267,1282.34 993.858,1284.04 993.925,1284.22C993.986,1284.41 994.999,1286.52 994.999,1286.52C994.999,1286.52 996.776,1290.49 997.007,1291.17C997.239,1291.84 997.262,1292.63 997.045,1292.82C996.836,1293.01 997.045,1293.39 997.045,1293.54C997.045,1293.69 997.28,1294.85 997.514,1295.56C997.747,1296.28 998.146,1298.63 998.146,1298.63C998.146,1298.63 1000.06,1300.8 1001.12,1302.07C1002.18,1303.34 1006.99,1308.62 1008.83,1310.61C1010.67,1312.59 1015.29,1317.57 1015.4,1317.7C1015.5,1317.82 1015.08,1318.76 1014.55,1319.27C1014.02,1319.77 1011.51,1322.14 1011.51,1322.14L1011.79,1322.73C1011.79,1322.73 1011.11,1323.36 1010.96,1323.49C1010.82,1323.61 1008.37,1325.22 1007.84,1325.83C1007.31,1326.44 1004.86,1328.52 1004.86,1328.52C1004.86,1328.52 981.441,1302.12 981.336,1302.05C981.23,1301.98 981.018,1301.31 981.23,1301.06C981.441,1300.8 982.139,1300.06 982.351,1299.77C982.56,1299.47 983.069,1299.13 984.208,1298.01C985.349,1296.89 987.399,1295.25 987.399,1295.25L983.873,1296.35C983.873,1296.35 982.878,1296.89 982.754,1297.06C982.621,1297.24 980.892,1298.06 979.433,1298.46C977.979,1298.86 975.763,1299.01 975.763,1299.01C975.763,1299.01 975.403,1301.37 974.412,1304.5C973.418,1307.63 972.299,1314.91 971.684,1317.24C971.073,1319.56 970.925,1323.55 970.99,1324.31C971.055,1325.07 970.633,1329.21 970.523,1331.66C970.421,1334.11 970.906,1340.93 970.402,1346.68C969.889,1352.42 967.547,1362.59 967.001,1365.73C966.447,1368.88 965.181,1375.76 965.181,1376.02C965.181,1376.27 965.244,1377.84 965.244,1378.26C965.244,1378.67 965.438,1379.51 965.48,1380.04C965.521,1380.57 965.309,1382.38 965.268,1382.55C965.224,1382.72 965.351,1382.9 965.521,1383.03C965.692,1383.16 966.046,1383.35 966.046,1383.35C966.046,1383.35 965.814,1383.71 966.131,1384.02C966.447,1384.34 967.25,1384.98 967.25,1384.98C967.25,1384.98 966.978,1385.11 966.746,1384.98C966.512,1384.85 965.814,1384.22 965.814,1384.22C965.814,1384.22 965.946,1384.79 966.24,1385.33C966.53,1385.88 966.642,1386.26 966.683,1386.35C966.724,1386.44 967.187,1386.92 967.547,1387.28C967.908,1387.64 967.952,1388.31 967.952,1388.31C967.952,1388.31 968.625,1389.07 969.003,1389.58C969.385,1390.09 969.472,1391.55 969.552,1391.59C969.636,1391.63 969.596,1392.01 969.361,1392.33C969.131,1392.64 968.14,1392.43 967.233,1392.43C966.325,1392.43 962.437,1392.2 961.15,1392.31C959.863,1392.41 958.997,1392.37 958.508,1392.07C958.023,1391.78 957.938,1391.12 957.982,1390.87C958.023,1390.62 958.11,1389.35 957.938,1388.96C957.768,1388.59 957.222,1387.81 957.261,1387.43C957.306,1387.05 957.731,1386.16 957.731,1386.16C957.731,1386.16 957.88,1385.57 957.88,1385.04C957.88,1384.52 957.601,1379.82 957.577,1379.46C957.56,1379.1 958.277,1377.35 958.596,1376.63C958.91,1375.91 959.314,1370.84 959.314,1370.84C959.314,1370.84 959.163,1365.39 959.036,1362.42" style="fill:white;fill-opacity:0.2;fill-rule:nonzero;"/>
            </g>
        </g>
    </g>
</svg>
