<?xml version="1.0" encoding="UTF-8" standalone="no"?>
<!DOCTYPE svg PUBLIC "-//W3C//DTD SVG 1.1//EN" "http://www.w3.org/Graphics/SVG/1.1/DTD/svg11.dtd">
<svg width="100%" height="100%" viewBox="0 0 70 266" version="1.1" xmlns="http://www.w3.org/2000/svg" xmlns:xlink="http://www.w3.org/1999/xlink" xml:space="preserve" style="fill-rule:evenodd;clip-rule:evenodd;stroke-linejoin:round;stroke-miterlimit:1.41421;">
    <g transform="matrix(1,0,0,1,-904.056,0)">
        <g id="activity04" transform="matrix(0.535463,0,0,1.91542,760.522,0)">
            <rect x="268.056" y="0" width="130.728" height="138.873" style="fill:none;"/>
            <g transform="matrix(2.47391,0,0,0.691592,-369.062,-57.342)">
                <path d="M285.32,106.792L285.342,104.606C285.32,104.074 284.828,104.126 284.828,104.126C283.448,105.485 281.647,102.901 281.647,102.901C280.664,101.168 274.114,100.661 274.114,100.661C272.758,100.449 273.647,101.221 273.647,101.221C274.372,101.861 275.237,103.859 275.237,103.859C275.285,104.394 276.127,104.713 276.127,104.713C277.342,105.139 283.144,111.616 283.144,111.616C283.705,111.989 283.823,111.749 283.823,111.749L284.502,111.162C285.436,110.258 285.086,109.298 285.086,109.298C284.524,107.938 285.32,106.792 285.32,106.792M293.249,112.948C293.249,110.639 291.605,108.765 289.577,108.765C287.549,108.765 285.904,110.639 285.904,112.948C285.904,115.26 287.549,117.133 289.577,117.133C291.605,117.133 293.249,115.26 293.249,112.948M292.851,108.444C292.851,108.253 292.726,108.098 292.57,108.098C292.416,108.098 292.29,108.253 292.29,108.444C292.29,108.637 292.416,108.791 292.57,108.791C292.726,108.791 292.851,108.637 292.851,108.444M306.676,114.76L306.676,109.804C306.676,109.45 306.425,109.165 306.115,109.165L304.009,109.165C303.699,109.165 303.447,109.45 303.447,109.804L303.447,114.76C303.447,115.114 303.699,115.402 304.009,115.402L306.115,115.402C306.425,115.402 306.676,115.114 306.676,114.76M307.472,109.03C307.472,109.03 307.424,114.815 307.495,115.028C307.495,115.028 307.098,115.773 305.74,116.067C305.74,116.067 304.804,116.173 304.197,115.801C304.197,115.801 303.729,115.375 303.145,115.586L300.712,115.693C300.712,115.693 299.565,119.425 298.817,120.438C298.817,120.438 299.331,121.265 300.454,121.291C300.454,121.291 301.998,121.691 302.418,122.464C302.418,122.464 303.121,123.13 303.541,123.13C303.541,123.13 307.401,124.356 306.746,133.151C306.746,133.151 307.119,140.401 299.986,148.77C299.986,148.77 300.29,153.566 299.331,154.527C299.331,154.527 298.255,155.061 299.05,155.78C299.05,155.78 300.127,157.407 300.127,159.885C300.127,159.885 300.174,161.298 300.314,161.856C300.314,161.856 300.664,165.989 299.94,169C299.94,169 299.495,171.559 300.383,173.131C300.383,173.131 300.898,173.852 300.641,174.998C300.641,174.998 300.501,176.73 299.214,176.864C299.214,176.864 299.168,179.183 299.706,181.099C299.706,181.099 300.477,185.257 299.776,188.989C299.776,188.989 299.424,191.575 299.565,194.642C299.565,194.642 300.992,207.753 300.898,209.673C300.898,209.673 300.968,214.044 300.852,215.058C300.852,215.058 300.852,217.589 301.063,218.229C301.063,218.229 301.834,224.972 301.858,228.622C301.858,228.622 302.957,241.497 303.472,243.682C303.472,243.682 304.197,256.264 303.307,259.834C303.307,259.834 302.98,260.66 303.05,260.98C303.05,260.98 303.658,261.859 303.145,265.805C303.145,265.805 303.214,278.544 294.676,276.387C294.676,276.387 291.003,276.119 292.945,270.016C292.945,270.016 295.448,263.191 294.092,258.022C294.092,258.022 291.097,250.373 290.536,247.708C290.536,247.708 288.664,248.615 287.401,248.667C287.401,248.667 284.08,248.829 282.582,250.585C282.582,250.585 275.659,255.596 272.945,251.545C272.945,251.545 271.822,248.773 275.332,246.694C275.332,246.694 280.01,244.883 281.179,241.417C281.179,241.417 284.22,237.524 282.536,234.646C282.536,234.646 274.91,220.309 274.583,211.352C274.583,211.352 274.396,204.956 272.993,200.958C272.993,200.958 269.764,187.311 270.232,177.076C270.232,177.076 270.981,173.078 269.342,171.53C269.342,171.53 265.741,168.548 267.799,166.148C267.799,166.148 269.016,164.55 268.688,163.271C268.688,163.271 268.735,162.363 268.781,161.085C268.781,161.085 269.998,150.744 270.325,148.505C270.325,148.505 270.232,142.054 270.699,137.204C270.699,137.204 273.273,125.422 269.764,120.571C269.764,120.571 269.436,120.145 268.968,117.852C268.968,117.852 268.033,114.068 265.975,111.67C265.975,111.67 263.214,108.366 263.214,104.153C263.214,104.153 260.969,102.555 262.186,101.541C262.186,101.541 262.606,101.435 261.951,100.475C261.951,100.475 256.805,88.907 265.366,90.08C265.366,90.08 268.406,91.2 269.436,91.2C269.436,91.2 272.711,91.252 277.529,94.718C277.529,94.718 284.734,99.729 287.331,98.982C287.331,98.982 291.518,92.878 297.787,96.317C297.787,96.317 304.453,100.475 303.635,106.045C303.635,106.045 302.325,107.618 302.863,108.312C302.863,108.312 303.612,109.084 303.987,108.312C303.987,108.312 304.735,107.964 305.764,108.018C305.764,108.018 307.401,108.178 307.472,109.03" style="fill:white;fill-opacity:0.2;fill-rule:nonzero;"/>
            </g>
        </g>
    </g>
</svg>
