<?xml version="1.0" encoding="UTF-8" standalone="no"?>
<!DOCTYPE svg PUBLIC "-//W3C//DTD SVG 1.1//EN" "http://www.w3.org/Graphics/SVG/1.1/DTD/svg11.dtd">
<svg width="100%" height="100%" viewBox="0 0 480 600" version="1.1" xmlns="http://www.w3.org/2000/svg" xmlns:xlink="http://www.w3.org/1999/xlink" xml:space="preserve" style="fill-rule:evenodd;clip-rule:evenodd;stroke-linecap:round;stroke-linejoin:round;stroke-miterlimit:1.5;">
    <g transform="matrix(1,0,0,1,-1598,-1217.33)">
        <g id="Banner-01-mobile" transform="matrix(1.17791,0,0,2.54417,1472.36,1153.73)">
            <rect x="106.667" y="25" width="407.5" height="235.833" style="fill:none;"/>
            <clipPath id="_clip1">
                <rect x="106.667" y="25" width="407.5" height="235.833"/>
            </clipPath>
            <g clip-path="url(#_clip1)">
                <g transform="matrix(0.551048,0,0,0.624448,73.3283,11.054)">
                    <rect x="60.5" y="22.333" width="739.5" height="377.667" style="fill:rgb(246,246,246);"/>
                </g>
                <g transform="matrix(2.5,0,0,0.666667,-607.206,83.0139)">
                    <g transform="matrix(0.339583,0,0,0.589583,191.789,-9.19583)">
                        <path d="M418.694,307.136L461.644,259.802" style="fill:none;stroke:rgb(255,99,52);stroke-width:1px;"/>
                    </g>
                    <g transform="matrix(0.339583,0,0,0.589583,191.789,-9.19583)">
                        <path d="M554,292.469L530.525,270.469" style="fill:none;stroke:rgb(255,99,52);stroke-width:1px;"/>
                    </g>
                    <g transform="matrix(0.339583,0,0,0.589583,191.789,-9.19583)">
                        <path d="M673.525,309.445L686.042,299.695" style="fill:none;stroke:rgb(255,209,26);stroke-width:1px;"/>
                    </g>
                    <g transform="matrix(0.339583,0,0,0.589583,191.789,-9.19583)">
                        <path d="M675.025,317.917L713.025,316.306" style="fill:none;stroke:rgb(255,209,26);stroke-width:1px;"/>
                    </g>
                    <g transform="matrix(0.339583,0,0,0.589583,191.789,-9.19583)">
                        <path d="M673.525,325.695L686.042,330.917" style="fill:none;stroke:rgb(255,209,26);stroke-width:1px;"/>
                    </g>
                    <g transform="matrix(0.0536184,0,0,0.0930921,394.802,159.531)">
                        <circle cx="406.667" cy="204.167" r="95" style="fill:rgb(255,209,26);"/>
                    </g>
                    <g transform="matrix(0.0196601,0,0,0.0341338,418.63,159.482)">
                        <circle cx="406.667" cy="204.167" r="95" style="fill:rgb(255,209,26);"/>
                    </g>
                    <g transform="matrix(0.0232346,0,0,0.0403399,417.176,177.671)">
                        <circle cx="406.667" cy="204.167" r="95" style="fill:rgb(255,209,26);"/>
                    </g>
                    <g transform="matrix(0.012511,0,0,0.0217215,429.348,172.629)">
                        <circle cx="406.667" cy="204.167" r="95" style="fill:rgb(255,209,26);"/>
                    </g>
                    <g transform="matrix(0.339583,0,0,0.589583,191.789,-9.19583)">
                        <path d="M685.042,378.945L700.275,375.695" style="fill:none;stroke:rgb(255,209,26);stroke-width:1px;"/>
                    </g>
                    <g transform="matrix(0.339583,0,0,0.589583,191.789,-9.19583)">
                        <path d="M683.025,387.445L718.042,403.917" style="fill:none;stroke:rgb(255,209,26);stroke-width:1px;"/>
                    </g>
                    <g transform="matrix(0.339583,0,0,0.589583,191.789,-9.19583)">
                        <path d="M677.525,391.695L686.042,409.195" style="fill:none;stroke:rgb(255,209,26);stroke-width:1px;"/>
                    </g>
                    <g transform="matrix(0.0232346,0,0,0.0403399,421.591,202.434)">
                        <circle cx="406.667" cy="204.167" r="95" style="fill:rgb(255,209,26);"/>
                    </g>
                    <g transform="matrix(0.0232346,0,0,0.0403399,416.35,226.803)">
                        <circle cx="406.667" cy="204.167" r="95" style="fill:rgb(255,209,26);"/>
                    </g>
                    <g transform="matrix(0.0464693,0,0,0.0806798,401.445,199.209)">
                        <circle cx="406.667" cy="204.167" r="95" style="fill:rgb(255,209,26);"/>
                    </g>
                    <g transform="matrix(0.012511,0,0,0.0217215,431.215,225.298)">
                        <circle cx="406.667" cy="204.167" r="95" style="fill:rgb(255,209,26);"/>
                    </g>
                    <g transform="matrix(0.339583,0,0,0.589583,191.789,-9.19583)">
                        <path d="M592.025,341.945L660.745,376.574" style="fill:none;stroke:rgb(255,99,52);stroke-width:1px;"/>
                    </g>
                    <g transform="matrix(0.339583,0,0,0.589583,191.789,-9.19583)">
                        <path d="M559.525,347.195L550.525,375.695" style="fill:none;stroke:rgb(255,99,52);stroke-width:1px;"/>
                    </g>
                    <g transform="matrix(0.339583,0,0,0.589583,191.789,-9.19583)">
                        <path d="M559.525,403.195L572.775,414.445" style="fill:none;stroke:rgb(255,209,26);stroke-width:1px;"/>
                    </g>
                    <g transform="matrix(0.339583,0,0,0.589583,191.789,-9.19583)">
                        <path d="M550.525,409.195L554.542,434.988" style="fill:none;stroke:rgb(255,209,26);stroke-width:1px;"/>
                    </g>
                    <g transform="matrix(0.339583,0,0,0.589583,191.789,-9.19583)">
                        <path d="M539.275,408.82L523.525,448.945" style="fill:none;stroke:rgb(255,209,26);stroke-width:1px;"/>
                    </g>
                    <g transform="matrix(0.339583,0,0,0.589583,191.789,-9.19583)">
                        <path d="M530.525,398.695L504.643,409.195" style="fill:none;stroke:rgb(255,209,26);stroke-width:1px;"/>
                    </g>
                    <g transform="matrix(0.0679167,0,0,0.117917,349.596,197.797)">
                        <circle cx="406.667" cy="204.167" r="95" style="fill:rgb(255,209,26);"/>
                    </g>
                    <g transform="matrix(0.0232346,0,0,0.0403399,352.132,224.838)">
                        <circle cx="406.667" cy="204.167" r="95" style="fill:rgb(255,209,26);"/>
                    </g>
                    <g transform="matrix(0.0142982,0,0,0.0248246,374.287,243.629)">
                        <circle cx="406.667" cy="204.167" r="95" style="fill:rgb(255,209,26);"/>
                    </g>
                    <g transform="matrix(0.0232346,0,0,0.0403399,378.294,228.67)">
                        <circle cx="406.667" cy="204.167" r="95" style="fill:rgb(255,209,26);"/>
                    </g>
                    <g transform="matrix(0.0142982,0,0,0.0248246,363.591,251.982)">
                        <circle cx="406.667" cy="204.167" r="95" style="fill:rgb(255,209,26);"/>
                    </g>
                    <g transform="matrix(0.12511,0,0,0.217215,334.714,132.421)">
                        <circle cx="406.667" cy="204.167" r="95" style="fill:white;stroke:rgb(255,99,52);stroke-width:2.71px;"/>
                    </g>
                    <g transform="matrix(0.339583,0,0,0.589583,191.789,-9.19583)">
                        <path d="M605.708,315.417L647.042,317.917" style="fill:none;stroke:rgb(255,99,52);stroke-width:1px;"/>
                    </g>
                    <g transform="matrix(0.339583,0,0,0.589583,204.702,-28.4556)">
                        <path d="M354.025,372.917L341.525,394.945" style="fill:none;stroke:rgb(255,99,52);stroke-width:1px;"/>
                    </g>
                    <g transform="matrix(0.339583,0,0,0.589583,204.702,-28.4556)">
                        <path d="M344.025,413.445L352.775,431.445" style="fill:none;stroke:rgb(255,209,26);stroke-width:1px;"/>
                    </g>
                    <g transform="matrix(0.339583,0,0,0.589583,204.702,-28.4556)">
                        <path d="M331.775,415.195L318.275,444.945" style="fill:none;stroke:rgb(255,209,26);stroke-width:1px;"/>
                    </g>
                    <g transform="matrix(0.339583,0,0,0.589583,204.702,-28.4556)">
                        <path d="M325.414,408.695L308.918,416.731" style="fill:none;stroke:rgb(255,209,26);stroke-width:1px;"/>
                    </g>
                    <g transform="matrix(0.339583,0,0,0.589583,204.702,-28.4556)">
                        <path d="M325.025,400.445L277.275,404.417" style="fill:none;stroke:rgb(255,209,26);stroke-width:1px;"/>
                    </g>
                    <g transform="matrix(0.339583,0,0,0.589583,204.702,-28.4556)">
                        <path d="M285.525,353.695L263.775,357.195" style="fill:none;stroke:rgb(255,209,26);stroke-width:1px;"/>
                    </g>
                    <g transform="matrix(0.339583,0,0,0.589583,204.702,-28.4556)">
                        <path d="M290.275,342.445L284.275,328.945" style="fill:none;stroke:rgb(255,209,26);stroke-width:1px;"/>
                    </g>
                    <g transform="matrix(0.339583,0,0,0.589583,204.702,-28.4556)">
                        <path d="M310.271,351.969L338.208,351.969" style="fill:none;stroke:rgb(255,99,52);stroke-width:1px;"/>
                    </g>
                    <g transform="matrix(0.0890662,0,0,0.154636,291.793,147.261)">
                        <circle cx="406.667" cy="204.167" r="95" style="fill:white;stroke:rgb(252,75,40);stroke-width:3.81px;"/>
                    </g>
                    <g transform="matrix(0.0464693,0,0,0.0806798,299.997,193.51)">
                        <circle cx="406.667" cy="204.167" r="95" style="fill:rgb(255,209,26);"/>
                    </g>
                    <g transform="matrix(0.0232346,0,0,0.0403399,316.068,220.023)">
                        <circle cx="406.667" cy="204.167" r="95" style="fill:rgb(255,209,26);"/>
                    </g>
                    <g transform="matrix(0.0142982,0,0,0.0248246,306.458,230.266)">
                        <circle cx="406.667" cy="204.167" r="95" style="fill:rgb(255,209,26);"/>
                    </g>
                    <g transform="matrix(0.0196601,0,0,0.0341338,300.202,210.677)">
                        <circle cx="406.667" cy="204.167" r="95" style="fill:rgb(255,209,26);"/>
                    </g>
                    <g transform="matrix(0.0107237,0,0,0.0186184,293.819,206.181)">
                        <circle cx="406.667" cy="204.167" r="95" style="fill:rgb(255,209,26);"/>
                    </g>
                    <g transform="matrix(0.0464693,0,0,0.0806798,286.753,162.587)">
                        <circle cx="406.667" cy="204.167" r="95" style="fill:rgb(255,209,26);"/>
                    </g>
                    <g transform="matrix(0.0232346,0,0,0.0403399,290.938,154.579)">
                        <circle cx="406.667" cy="204.167" r="95" style="fill:rgb(255,209,26);"/>
                    </g>
                    <g transform="matrix(0.0160855,0,0,0.0279276,286.545,176.569)">
                        <circle cx="406.667" cy="204.167" r="95" style="fill:rgb(255,209,26);"/>
                    </g>
                    <g transform="matrix(0.339583,0,0,0.589583,225.747,14.3875)">
                        <path d="M563.025,57.5L576.625,48.5" style="fill:none;stroke:rgb(255,209,26);stroke-width:1px;"/>
                    </g>
                    <g transform="matrix(0.339583,0,0,0.589583,225.747,14.3875)">
                        <path d="M558.225,50.333L572.625,28.833" style="fill:none;stroke:rgb(255,209,26);stroke-width:1px;"/>
                    </g>
                    <g transform="matrix(0.339583,0,0,0.589583,225.747,14.3875)">
                        <path d="M547.825,50.333L538.225,40.345" style="fill:none;stroke:rgb(255,209,26);stroke-width:1px;"/>
                    </g>
                    <g transform="matrix(0.0428947,0,0,0.0744737,395.994,34.8522)">
                        <circle cx="406.667" cy="204.167" r="95" style="fill:rgb(255,209,26);"/>
                    </g>
                    <g transform="matrix(0.0196601,0,0,0.0341338,399.578,29.1348)">
                        <circle cx="406.667" cy="204.167" r="95" style="fill:rgb(255,209,26);"/>
                    </g>
                    <g transform="matrix(0.0142982,0,0,0.0248246,415.172,25.4344)">
                        <circle cx="406.667" cy="204.167" r="95" style="fill:rgb(255,209,26);"/>
                    </g>
                    <g transform="matrix(0.0142982,0,0,0.0248246,416.53,36.6365)">
                        <circle cx="406.667" cy="204.167" r="95" style="fill:rgb(255,209,26);"/>
                    </g>
                    <g transform="matrix(0.339583,0,0,0.589583,225.747,14.3875)">
                        <path d="M612.425,86.745L617.425,63.545" style="fill:none;stroke:rgb(255,209,26);stroke-width:1px;"/>
                    </g>
                    <g transform="matrix(0.339583,0,0,0.589583,225.747,14.3875)">
                        <path d="M619.875,92.881L638.025,80.145" style="fill:none;stroke:rgb(255,209,26);stroke-width:1px;"/>
                    </g>
                    <g transform="matrix(0.339583,0,0,0.589583,225.747,14.3875)">
                        <path d="M618.104,102.145L631.025,106.083" style="fill:none;stroke:rgb(255,209,26);stroke-width:1px;"/>
                    </g>
                    <g transform="matrix(0.0107237,0,0,0.0186184,431.284,46.7474)">
                        <circle cx="406.667" cy="204.167" r="95" style="fill:rgb(255,209,26);"/>
                    </g>
                    <g transform="matrix(0.0357456,0,0,0.0620614,418.597,58.3658)">
                        <circle cx="406.667" cy="204.167" r="95" style="fill:rgb(255,209,26);"/>
                    </g>
                    <g transform="matrix(0.0196601,0,0,0.0341338,433.366,71.1918)">
                        <circle cx="406.667" cy="204.167" r="95" style="fill:rgb(255,209,26);"/>
                    </g>
                    <g transform="matrix(0.0142982,0,0,0.0248246,437.415,55.3067)">
                        <circle cx="406.667" cy="204.167" r="95" style="fill:rgb(255,209,26);"/>
                    </g>
                    <g transform="matrix(0.339583,0,0,0.589583,225.747,14.3875)">
                        <path d="M545.25,70.145L523.95,101.792" style="fill:none;stroke:rgb(255,99,52);stroke-width:1px;"/>
                    </g>
                    <g transform="matrix(0.339583,0,0,0.589583,225.747,14.3875)">
                        <path d="M600.973,99.945L529.025,121.745" style="fill:none;stroke:rgb(255,99,52);stroke-width:1px;"/>
                    </g>
                    <g transform="matrix(0.339583,0,0,0.589583,225.747,14.3875)">
                        <path d="M560.042,143.745L527.625,128.345" style="fill:none;stroke:rgb(255,99,52);stroke-width:1px;"/>
                    </g>
                    <g transform="matrix(0.339583,0,0,0.589583,225.747,14.3875)">
                        <path d="M588.225,142.745L604.825,138.145" style="fill:none;stroke:rgb(255,209,26);stroke-width:1px;"/>
                    </g>
                    <g transform="matrix(0.339583,0,0,0.589583,225.747,14.3875)">
                        <path d="M587.842,151.545L614.104,160.667" style="fill:none;stroke:rgb(255,209,26);stroke-width:1px;"/>
                    </g>
                    <g transform="matrix(0.339583,0,0,0.589583,225.747,14.3875)">
                        <path d="M596.525,167.545L583.425,156.167" style="fill:none;stroke:rgb(255,209,26);stroke-width:1px;"/>
                    </g>
                    <g transform="matrix(0.0536184,0,0,0.0930921,399.217,81.7552)">
                        <circle cx="406.667" cy="204.167" r="95" style="fill:rgb(255,209,26);"/>
                    </g>
                    <g transform="matrix(0.0232346,0,0,0.0403399,423.48,86.7278)">
                        <circle cx="406.667" cy="204.167" r="95" style="fill:rgb(255,209,26);"/>
                    </g>
                    <g transform="matrix(0.0160855,0,0,0.0279276,428.594,103.412)">
                        <circle cx="406.667" cy="204.167" r="95" style="fill:rgb(255,209,26);"/>
                    </g>
                    <g transform="matrix(0.0178728,0,0,0.0310307,421.925,108.085)">
                        <circle cx="406.667" cy="204.167" r="95" style="fill:rgb(255,209,26);"/>
                    </g>
                    <g transform="matrix(0.339583,0,0,0.589583,225.747,14.3875)">
                        <path d="M508.425,151.945L543.425,204.945" style="fill:none;stroke:rgb(255,99,52);stroke-width:1px;"/>
                    </g>
                    <g transform="matrix(0.339583,0,0,0.589583,225.747,14.3875)">
                        <path d="M559.042,210L570.858,211.667" style="fill:none;stroke:rgb(255,209,26);stroke-width:1px;"/>
                    </g>
                    <g transform="matrix(0.339583,0,0,0.589583,225.747,14.3875)">
                        <path d="M552.825,217.167L566.225,231.545" style="fill:none;stroke:rgb(255,209,26);stroke-width:1px;"/>
                    </g>
                    <g transform="matrix(0.0321711,0,0,0.0558553,399.449,126.796)">
                        <circle cx="406.667" cy="204.167" r="95" style="fill:rgb(255,209,26);"/>
                    </g>
                    <g transform="matrix(0.0196601,0,0,0.0341338,412.991,132.214)">
                        <circle cx="406.667" cy="204.167" r="95" style="fill:rgb(255,209,26);"/>
                    </g>
                    <g transform="matrix(0.0160855,0,0,0.0279276,412.577,146.157)">
                        <circle cx="406.667" cy="204.167" r="95" style="fill:rgb(255,209,26);"/>
                    </g>
                    <g transform="matrix(0.339583,0,0,0.589583,225.747,14.3875)">
                        <path d="M460.542,54.833L441.438,52.033" style="fill:none;stroke:rgb(255,209,26);stroke-width:1px;"/>
                    </g>
                    <g transform="matrix(0.339583,0,0,0.589583,225.747,14.3875)">
                        <path d="M463.325,48.595L433.438,32.395" style="fill:none;stroke:rgb(255,209,26);stroke-width:1px;"/>
                    </g>
                    <g transform="matrix(0.339583,0,0,0.589583,225.747,14.3875)">
                        <path d="M474.542,43.5L473.738,36.833" style="fill:none;stroke:rgb(255,209,26);stroke-width:1px;"/>
                    </g>
                    <g transform="matrix(0.0536184,0,0,0.0930921,365.089,29.2822)">
                        <circle cx="406.667" cy="204.167" r="95" style="fill:rgb(255,209,26);"/>
                    </g>
                    <g transform="matrix(0.0196601,0,0,0.0341338,378.184,25.8921)">
                        <circle cx="406.667" cy="204.167" r="95" style="fill:rgb(255,209,26);"/>
                    </g>
                    <g transform="matrix(0.0089364,0,0,0.0155154,368.792,29.6934)">
                        <circle cx="406.667" cy="204.167" r="95" style="fill:rgb(255,209,26);"/>
                    </g>
                    <g transform="matrix(0.0142982,0,0,0.0248246,368.819,39.2896)">
                        <circle cx="406.667" cy="204.167" r="95" style="fill:rgb(255,209,26);"/>
                    </g>
                    <g transform="matrix(0.339583,0,0,0.589583,225.747,8.49167)">
                        <path d="M442.358,166.095L471.858,146" style="fill:none;stroke:rgb(255,99,52);stroke-width:1px;"/>
                    </g>
                    <g transform="matrix(0.339583,0,0,0.589583,225.747,14.3875)">
                        <path d="M481.691,88.762L477.025,72.262" style="fill:none;stroke:rgb(255,99,52);stroke-width:1px;"/>
                    </g>
                    <g>
                        <g transform="matrix(0.12511,0,0,0.217215,342.807,41.4316)">
                            <circle cx="406.667" cy="204.167" r="95" style="fill:white;stroke:rgb(255,99,52);stroke-width:2.71px;"/>
                        </g>
                        <g>
                            <g transform="matrix(0.339583,0,0,0.589583,105.798,-748.126)">
                                <path d="M868.101,1406.58C868.101,1399.67 862.491,1394.06 855.582,1394.06L839.953,1394.06C833.044,1394.06 827.434,1399.67 827.434,1406.58L827.434,1422.21C827.434,1429.12 833.044,1434.73 839.953,1434.73L855.582,1434.73C862.491,1434.73 868.101,1429.12 868.101,1422.21L868.101,1406.58Z" style="fill:white;"/>
                                <path d="M855.744,1394.07L855.905,1394.07L856.066,1394.07L856.226,1394.08L856.386,1394.09L856.545,1394.1L856.703,1394.11L856.861,1394.13L857.019,1394.15L857.176,1394.16L857.332,1394.19L857.488,1394.21L857.643,1394.23L857.797,1394.26L857.951,1394.29L858.104,1394.32L858.256,1394.35L858.408,1394.38L858.559,1394.42L858.709,1394.46L858.859,1394.5L859.008,1394.54L859.156,1394.58L859.303,1394.63L859.45,1394.67L859.596,1394.72L859.741,1394.77L859.885,1394.82L860.028,1394.88L860.171,1394.93L860.312,1394.99L860.453,1395.05L860.593,1395.11L860.732,1395.17L860.87,1395.23L861.008,1395.3L861.144,1395.37L861.279,1395.43L861.414,1395.5L861.547,1395.58L861.68,1395.65L861.811,1395.72L861.942,1395.8L862.072,1395.88L862.2,1395.96L862.328,1396.04L862.454,1396.12L862.58,1396.2L862.704,1396.29L862.827,1396.38L862.949,1396.46L863.07,1396.55L863.19,1396.64L863.309,1396.74L863.427,1396.83L863.543,1396.92L863.659,1397.02L863.773,1397.12L863.886,1397.22L863.998,1397.32L864.108,1397.42L864.218,1397.52L864.326,1397.63L864.433,1397.73L864.538,1397.84L864.642,1397.95L864.745,1398.06L864.847,1398.17L864.948,1398.28L865.047,1398.39L865.144,1398.51L865.241,1398.62L865.336,1398.74L865.429,1398.86L865.522,1398.98L865.613,1399.1L865.702,1399.22L865.79,1399.34L865.877,1399.46L865.962,1399.59L866.045,1399.71L866.128,1399.84L866.208,1399.96L866.288,1400.09L866.365,1400.22L866.441,1400.35L866.516,1400.49L866.589,1400.62L866.661,1400.75L866.731,1400.89L866.799,1401.02L866.866,1401.16L866.931,1401.3L866.994,1401.43L867.056,1401.57L867.117,1401.71L867.175,1401.85L867.232,1402L867.287,1402.14L867.341,1402.28L867.393,1402.42L867.443,1402.57L867.491,1402.71L867.538,1402.86L867.583,1403.01L867.626,1403.16L867.667,1403.31L867.707,1403.46L867.744,1403.61L867.78,1403.76L867.814,1403.91L867.846,1404.06L867.877,1404.21L867.905,1404.37L867.932,1404.52L867.957,1404.68L867.979,1404.83L868,1404.99L868.019,1405.15L868.036,1405.3L868.051,1405.46L868.064,1405.62L868.076,1405.78L868.085,1405.94L868.092,1406.1L868.097,1406.26L868.1,1406.42L868.101,1406.58L868.101,1422.21L868.1,1422.37L868.097,1422.54L868.092,1422.7L868.085,1422.86L868.076,1423.02L868.064,1423.17L868.051,1423.33L868.036,1423.49L868.019,1423.65L868,1423.81L867.979,1423.96L867.957,1424.12L867.932,1424.27L867.905,1424.43L867.877,1424.58L867.846,1424.73L867.814,1424.89L867.78,1425.04L867.744,1425.19L867.707,1425.34L867.667,1425.49L867.626,1425.64L867.583,1425.79L867.538,1425.93L867.491,1426.08L867.443,1426.23L867.393,1426.37L867.341,1426.52L867.287,1426.66L867.232,1426.8L867.175,1426.94L867.117,1427.08L867.056,1427.22L866.994,1427.36L866.931,1427.5L866.866,1427.64L866.799,1427.77L866.731,1427.91L866.661,1428.04L866.589,1428.18L866.516,1428.31L866.441,1428.44L866.365,1428.57L866.288,1428.7L866.208,1428.83L866.128,1428.96L866.045,1429.08L865.962,1429.21L865.877,1429.33L865.79,1429.46L865.702,1429.58L865.613,1429.7L865.522,1429.82L865.429,1429.94L865.336,1430.06L865.241,1430.17L865.144,1430.29L865.047,1430.4L864.948,1430.52L864.847,1430.63L864.745,1430.74L864.642,1430.85L864.538,1430.96L864.433,1431.06L864.326,1431.17L864.218,1431.27L864.108,1431.38L863.998,1431.48L863.886,1431.58L863.773,1431.68L863.659,1431.77L863.543,1431.87L863.427,1431.97L863.309,1432.06L863.19,1432.15L863.07,1432.24L862.949,1432.33L862.827,1432.42L862.704,1432.51L862.58,1432.59L862.454,1432.67L862.328,1432.76L862.2,1432.84L862.072,1432.92L861.942,1433L861.811,1433.07L861.68,1433.15L861.547,1433.22L861.414,1433.29L861.279,1433.36L861.144,1433.43L861.008,1433.5L860.87,1433.56L860.732,1433.62L860.593,1433.69L860.453,1433.75L860.312,1433.81L860.171,1433.86L860.028,1433.92L859.885,1433.97L859.741,1434.02L859.596,1434.07L859.45,1434.12L859.303,1434.17L859.156,1434.21L859.008,1434.26L858.859,1434.3L858.709,1434.34L858.559,1434.37L858.408,1434.41L858.256,1434.44L858.104,1434.48L857.951,1434.51L857.797,1434.54L857.643,1434.56L857.488,1434.59L857.332,1434.61L857.176,1434.63L857.019,1434.65L856.861,1434.67L856.703,1434.68L856.545,1434.69L856.386,1434.7L856.226,1434.71L856.066,1434.72L855.905,1434.73L855.744,1434.73L855.582,1434.73L839.953,1434.73L839.791,1434.73L839.63,1434.73L839.469,1434.72L839.309,1434.71L839.15,1434.7L838.99,1434.69L838.832,1434.68L838.674,1434.67L838.516,1434.65L838.36,1434.63L838.203,1434.61L838.048,1434.59L837.893,1434.56L837.738,1434.54L837.585,1434.51L837.431,1434.48L837.279,1434.44L837.127,1434.41L836.976,1434.37L836.826,1434.34L836.676,1434.3L836.528,1434.26L836.379,1434.21L836.232,1434.17L836.086,1434.12L835.94,1434.07L835.795,1434.02L835.651,1433.97L835.507,1433.92L835.365,1433.86L835.223,1433.81L835.082,1433.75L834.942,1433.69L834.803,1433.62L834.665,1433.56L834.528,1433.5L834.391,1433.43L834.256,1433.36L834.121,1433.29L833.988,1433.22L833.855,1433.15L833.724,1433.07L833.593,1433L833.464,1432.92L833.335,1432.84L833.208,1432.76L833.081,1432.67L832.956,1432.59L832.831,1432.51L832.708,1432.42L832.586,1432.33L832.465,1432.24L832.345,1432.15L832.226,1432.06L832.108,1431.97L831.992,1431.87L831.877,1431.77L831.762,1431.68L831.649,1431.58L831.538,1431.48L831.427,1431.38L831.318,1431.27L831.21,1431.17L831.103,1431.06L830.997,1430.96L830.893,1430.85L830.79,1430.74L830.688,1430.63L830.588,1430.52L830.489,1430.4L830.391,1430.29L830.294,1430.17L830.199,1430.06L830.106,1429.94L830.014,1429.82L829.923,1429.7L829.833,1429.58L829.745,1429.46L829.659,1429.33L829.574,1429.21L829.49,1429.08L829.408,1428.96L829.327,1428.83L829.248,1428.7L829.17,1428.57L829.094,1428.44L829.019,1428.31L828.946,1428.18L828.875,1428.04L828.805,1427.91L828.736,1427.77L828.67,1427.64L828.604,1427.5L828.541,1427.36L828.479,1427.22L828.419,1427.08L828.36,1426.94L828.303,1426.8L828.248,1426.66L828.194,1426.52L828.143,1426.37L828.093,1426.23L828.044,1426.08L827.998,1425.93L827.953,1425.79L827.91,1425.64L827.868,1425.49L827.829,1425.34L827.791,1425.19L827.755,1425.04L827.721,1424.89L827.689,1424.73L827.658,1424.58L827.63,1424.43L827.603,1424.27L827.579,1424.12L827.556,1423.96L827.535,1423.81L827.516,1423.65L827.499,1423.49L827.484,1423.33L827.471,1423.17L827.46,1423.02L827.451,1422.86L827.443,1422.7L827.438,1422.54L827.435,1422.37L827.434,1422.21L827.434,1406.58L827.435,1406.42L827.438,1406.26L827.443,1406.1L827.451,1405.94L827.46,1405.78L827.471,1405.62L827.484,1405.46L827.499,1405.3L827.516,1405.15L827.535,1404.99L827.556,1404.83L827.579,1404.68L827.603,1404.52L827.63,1404.37L827.658,1404.21L827.689,1404.06L827.721,1403.91L827.755,1403.76L827.791,1403.61L827.829,1403.46L827.868,1403.31L827.91,1403.16L827.953,1403.01L827.998,1402.86L828.044,1402.71L828.093,1402.57L828.143,1402.42L828.194,1402.28L828.248,1402.14L828.303,1402L828.36,1401.85L828.419,1401.71L828.479,1401.57L828.541,1401.43L828.604,1401.3L828.67,1401.16L828.736,1401.02L828.805,1400.89L828.875,1400.75L828.946,1400.62L829.019,1400.49L829.094,1400.35L829.17,1400.22L829.248,1400.09L829.327,1399.96L829.408,1399.84L829.49,1399.71L829.574,1399.59L829.659,1399.46L829.745,1399.34L829.833,1399.22L829.923,1399.1L830.014,1398.98L830.106,1398.86L830.199,1398.74L830.294,1398.62L830.391,1398.51L830.489,1398.39L830.588,1398.28L830.688,1398.17L830.79,1398.06L830.893,1397.95L830.997,1397.84L831.103,1397.73L831.21,1397.63L831.318,1397.52L831.427,1397.42L831.538,1397.32L831.649,1397.22L831.762,1397.12L831.877,1397.02L831.992,1396.92L832.108,1396.83L832.226,1396.74L832.345,1396.64L832.465,1396.55L832.586,1396.46L832.708,1396.38L832.831,1396.29L832.956,1396.2L833.081,1396.12L833.208,1396.04L833.335,1395.96L833.464,1395.88L833.593,1395.8L833.724,1395.72L833.855,1395.65L833.988,1395.58L834.121,1395.5L834.256,1395.43L834.391,1395.37L834.528,1395.3L834.665,1395.23L834.803,1395.17L834.942,1395.11L835.082,1395.05L835.223,1394.99L835.365,1394.93L835.507,1394.88L835.651,1394.82L835.795,1394.77L835.94,1394.72L836.086,1394.67L836.232,1394.63L836.379,1394.58L836.528,1394.54L836.676,1394.5L836.826,1394.46L836.976,1394.42L837.127,1394.38L837.279,1394.35L837.431,1394.32L837.585,1394.29L837.738,1394.26L837.893,1394.23L838.048,1394.21L838.203,1394.19L838.36,1394.16L838.516,1394.15L838.674,1394.13L838.832,1394.11L838.99,1394.1L839.15,1394.09L839.309,1394.08L839.469,1394.07L839.63,1394.07L839.791,1394.07L839.953,1394.06L855.582,1394.06L855.744,1394.07ZM839.956,1395.06L839.804,1395.07L839.656,1395.07L839.508,1395.07L839.36,1395.08L839.213,1395.09L839.067,1395.1L838.92,1395.11L838.775,1395.12L838.63,1395.14L838.486,1395.16L838.342,1395.18L838.199,1395.2L838.056,1395.22L837.914,1395.24L837.773,1395.27L837.632,1395.3L837.492,1395.33L837.352,1395.36L837.214,1395.39L837.076,1395.43L836.938,1395.46L836.801,1395.5L836.665,1395.54L836.529,1395.58L836.395,1395.63L836.261,1395.67L836.127,1395.72L835.995,1395.76L835.863,1395.81L835.732,1395.86L835.601,1395.92L835.472,1395.97L835.343,1396.03L835.215,1396.08L835.088,1396.14L834.962,1396.2L834.837,1396.26L834.712,1396.33L834.588,1396.39L834.466,1396.45L834.343,1396.52L834.223,1396.59L834.102,1396.66L833.983,1396.73L833.865,1396.81L833.748,1396.88L833.631,1396.95L833.516,1397.03L833.401,1397.11L833.288,1397.19L833.175,1397.27L833.064,1397.35L832.953,1397.44L832.844,1397.52L832.736,1397.61L832.628,1397.7L832.522,1397.78L832.417,1397.87L832.313,1397.96L832.21,1398.06L832.109,1398.15L832.008,1398.25L831.908,1398.34L831.81,1398.44L831.713,1398.54L831.617,1398.64L831.522,1398.74L831.428,1398.84L831.336,1398.94L831.245,1399.05L831.154,1399.15L831.066,1399.26L830.978,1399.37L830.892,1399.47L830.807,1399.58L830.723,1399.69L830.641,1399.81L830.56,1399.92L830.48,1400.03L830.402,1400.14L830.325,1400.26L830.249,1400.38L830.175,1400.5L830.102,1400.61L830.031,1400.73L829.961,1400.85L829.892,1400.97L829.825,1401.1L829.759,1401.22L829.695,1401.34L829.632,1401.47L829.57,1401.59L829.511,1401.72L829.452,1401.85L829.395,1401.97L829.339,1402.1L829.286,1402.23L829.234,1402.36L829.183,1402.49L829.133,1402.63L829.086,1402.76L829.04,1402.89L828.995,1403.02L828.952,1403.16L828.911,1403.3L828.872,1403.43L828.834,1403.57L828.797,1403.7L828.762,1403.84L828.729,1403.98L828.698,1404.12L828.669,1404.26L828.641,1404.4L828.614,1404.54L828.59,1404.69L828.567,1404.83L828.546,1404.97L828.527,1405.12L828.51,1405.26L828.494,1405.4L828.48,1405.55L828.468,1405.7L828.458,1405.84L828.449,1405.99L828.443,1406.14L828.438,1406.29L828.435,1406.43L828.434,1406.59L828.434,1422.21L828.435,1422.36L828.438,1422.51L828.443,1422.66L828.449,1422.81L828.458,1422.95L828.468,1423.1L828.48,1423.25L828.494,1423.39L828.51,1423.54L828.527,1423.68L828.546,1423.82L828.567,1423.97L828.59,1424.11L828.614,1424.25L828.641,1424.39L828.669,1424.53L828.698,1424.67L828.729,1424.81L828.762,1424.95L828.797,1425.09L828.834,1425.23L828.872,1425.36L828.911,1425.5L828.952,1425.64L828.995,1425.77L829.04,1425.9L829.086,1426.04L829.134,1426.17L829.183,1426.3L829.234,1426.43L829.286,1426.56L829.34,1426.69L829.395,1426.82L829.452,1426.95L829.511,1427.08L829.57,1427.2L829.632,1427.33L829.695,1427.45L829.759,1427.58L829.825,1427.7L829.892,1427.82L829.961,1427.94L830.031,1428.06L830.102,1428.18L830.175,1428.3L830.249,1428.42L830.325,1428.53L830.402,1428.65L830.48,1428.76L830.56,1428.88L830.641,1428.99L830.723,1429.1L830.807,1429.21L830.892,1429.32L830.978,1429.43L831.066,1429.54L831.154,1429.64L831.245,1429.75L831.336,1429.85L831.428,1429.95L831.522,1430.06L831.617,1430.16L831.713,1430.26L831.81,1430.36L831.908,1430.45L832.008,1430.55L832.109,1430.64L832.21,1430.74L832.313,1430.83L832.417,1430.92L832.522,1431.01L832.629,1431.1L832.736,1431.19L832.844,1431.27L832.953,1431.36L833.064,1431.44L833.176,1431.52L833.288,1431.61L833.401,1431.68L833.516,1431.76L833.631,1431.84L833.748,1431.92L833.865,1431.99L833.983,1432.06L834.102,1432.13L834.222,1432.2L834.343,1432.27L834.466,1432.34L834.589,1432.41L834.712,1432.47L834.836,1432.53L834.962,1432.6L835.088,1432.65L835.215,1432.71L835.343,1432.77L835.472,1432.83L835.601,1432.88L835.731,1432.93L835.863,1432.98L835.995,1433.03L836.127,1433.08L836.26,1433.13L836.394,1433.17L836.529,1433.21L836.665,1433.25L836.801,1433.29L836.938,1433.33L837.075,1433.37L837.214,1433.4L837.353,1433.44L837.492,1433.47L837.632,1433.5L837.773,1433.52L837.914,1433.55L838.056,1433.58L838.199,1433.6L838.342,1433.62L838.486,1433.64L838.63,1433.66L838.775,1433.67L838.921,1433.68L839.066,1433.7L839.213,1433.71L839.36,1433.72L839.507,1433.72L839.655,1433.73L839.804,1433.73L839.956,1433.73L855.579,1433.73L855.731,1433.73L855.88,1433.73L856.028,1433.72L856.175,1433.72L856.322,1433.71L856.469,1433.7L856.615,1433.68L856.76,1433.67L856.905,1433.66L857.05,1433.64L857.193,1433.62L857.336,1433.6L857.479,1433.58L857.621,1433.55L857.762,1433.52L857.903,1433.5L858.043,1433.47L858.183,1433.44L858.322,1433.4L858.46,1433.37L858.597,1433.33L858.734,1433.29L858.87,1433.25L859.006,1433.21L859.141,1433.17L859.275,1433.13L859.408,1433.08L859.54,1433.03L859.672,1432.98L859.804,1432.93L859.934,1432.88L860.063,1432.83L860.192,1432.77L860.32,1432.71L860.447,1432.65L860.573,1432.6L860.699,1432.53L860.823,1432.47L860.947,1432.41L861.07,1432.34L861.192,1432.27L861.313,1432.2L861.433,1432.13L861.552,1432.06L861.671,1431.99L861.788,1431.92L861.904,1431.84L862.02,1431.76L862.134,1431.68L862.247,1431.61L862.36,1431.52L862.471,1431.44L862.582,1431.36L862.691,1431.27L862.799,1431.19L862.907,1431.1L863.013,1431.01L863.118,1430.92L863.222,1430.83L863.325,1430.74L863.427,1430.64L863.528,1430.55L863.627,1430.45L863.725,1430.36L863.823,1430.26L863.919,1430.16L864.013,1430.06L864.108,1429.95L864.199,1429.85L864.291,1429.75L864.381,1429.64L864.47,1429.54L864.557,1429.43L864.643,1429.32L864.728,1429.21L864.812,1429.1L864.894,1428.99L864.975,1428.88L865.055,1428.76L865.133,1428.65L865.21,1428.53L865.286,1428.42L865.36,1428.3L865.433,1428.18L865.505,1428.06L865.575,1427.94L865.643,1427.82L865.71,1427.7L865.776,1427.58L865.841,1427.45L865.903,1427.33L865.965,1427.2L866.025,1427.08L866.083,1426.95L866.14,1426.82L866.196,1426.69L866.25,1426.56L866.302,1426.43L866.353,1426.3L866.402,1426.17L866.449,1426.04L866.496,1425.9L866.54,1425.77L866.583,1425.64L866.624,1425.5L866.664,1425.36L866.702,1425.23L866.738,1425.09L866.773,1424.95L866.806,1424.81L866.837,1424.67L866.867,1424.53L866.895,1424.39L866.921,1424.25L866.945,1424.11L866.968,1423.97L866.989,1423.82L867.008,1423.68L867.026,1423.54L867.041,1423.39L867.055,1423.24L867.067,1423.1L867.078,1422.95L867.086,1422.81L867.093,1422.66L867.097,1422.51L867.1,1422.36L867.101,1422.21L867.101,1406.59L867.1,1406.43L867.097,1406.29L867.093,1406.14L867.086,1405.99L867.078,1405.84L867.067,1405.7L867.055,1405.55L867.041,1405.4L867.026,1405.26L867.008,1405.12L866.989,1404.97L866.968,1404.83L866.945,1404.69L866.921,1404.54L866.895,1404.4L866.867,1404.26L866.837,1404.12L866.806,1403.98L866.773,1403.84L866.738,1403.7L866.702,1403.57L866.664,1403.43L866.624,1403.3L866.583,1403.16L866.54,1403.02L866.496,1402.89L866.449,1402.76L866.402,1402.63L866.353,1402.49L866.302,1402.36L866.25,1402.23L866.196,1402.1L866.14,1401.97L866.083,1401.85L866.025,1401.72L865.965,1401.59L865.903,1401.47L865.841,1401.34L865.776,1401.22L865.711,1401.1L865.643,1400.97L865.574,1400.85L865.505,1400.73L865.433,1400.61L865.36,1400.5L865.286,1400.38L865.21,1400.26L865.133,1400.14L865.055,1400.03L864.975,1399.92L864.894,1399.81L864.812,1399.69L864.728,1399.58L864.643,1399.47L864.557,1399.37L864.47,1399.26L864.381,1399.15L864.291,1399.05L864.199,1398.94L864.107,1398.84L864.014,1398.74L863.919,1398.64L863.823,1398.54L863.726,1398.44L863.627,1398.34L863.527,1398.25L863.427,1398.15L863.325,1398.06L863.222,1397.96L863.118,1397.87L863.013,1397.78L862.907,1397.7L862.799,1397.61L862.691,1397.52L862.582,1397.44L862.471,1397.35L862.36,1397.27L862.247,1397.19L862.134,1397.11L862.02,1397.03L861.904,1396.95L861.788,1396.88L861.671,1396.81L861.552,1396.73L861.433,1396.66L861.313,1396.59L861.192,1396.52L861.07,1396.45L860.947,1396.39L860.823,1396.33L860.699,1396.26L860.573,1396.2L860.447,1396.14L860.32,1396.08L860.192,1396.03L860.063,1395.97L859.934,1395.92L859.803,1395.86L859.672,1395.81L859.541,1395.76L859.408,1395.72L859.275,1395.67L859.141,1395.63L859.006,1395.58L858.87,1395.54L858.734,1395.5L858.597,1395.46L858.46,1395.43L858.322,1395.39L858.183,1395.36L858.043,1395.33L857.903,1395.3L857.762,1395.27L857.621,1395.24L857.479,1395.22L857.336,1395.2L857.193,1395.18L857.049,1395.16L856.905,1395.14L856.76,1395.12L856.615,1395.11L856.469,1395.1L856.322,1395.09L856.176,1395.08L856.027,1395.07L855.879,1395.07L855.731,1395.07L855.579,1395.06L839.956,1395.06Z" style="fill:rgb(59,72,84);"/>
                            </g>
                            <g transform="matrix(0.339583,0,0,0.589583,105.648,-748.533)">
                                <circle cx="840.476" cy="1409.36" r="2.625" style="fill:rgb(59,72,84);"/>
                            </g>
                            <g transform="matrix(0.339583,0,0,0.589583,110.988,-748.533)">
                                <circle cx="840.476" cy="1409.36" r="2.625" style="fill:rgb(59,72,84);"/>
                            </g>
                            <g transform="matrix(0.339583,0,0,0.589583,106.667,-740.869)">
                                <path d="M834.851,1409.36C834.851,1409.36 838.813,1412.84 845.208,1412.84C851.604,1412.84 855.825,1409.36 855.825,1409.36" style="fill:none;stroke:rgb(59,72,84);stroke-width:1px;"/>
                            </g>
                        </g>
                    </g>
                    <g transform="matrix(0.339583,0,0,0.589583,225.747,8.49167)">
                        <path d="M346,63.333L349.642,55.168" style="fill:none;stroke:rgb(255,209,26);stroke-width:1px;"/>
                    </g>
                    <g transform="matrix(0.339583,0,0,0.589583,225.747,8.49167)">
                        <path d="M351.271,72.5L371.295,67.936" style="fill:none;stroke:rgb(255,209,26);stroke-width:1px;"/>
                    </g>
                    <g transform="matrix(0.0196601,0,0,0.0341338,337.038,31.2966)">
                        <circle cx="406.667" cy="204.167" r="95" style="fill:rgb(255,209,26);"/>
                    </g>
                    <g transform="matrix(0.0142982,0,0,0.0248246,347.029,42.3358)">
                        <circle cx="406.667" cy="204.167" r="95" style="fill:rgb(255,209,26);"/>
                    </g>
                    <g transform="matrix(0.339583,0,0,0.589583,225.747,8.49167)">
                        <path d="M260.83,139.345L236.271,144.333" style="fill:none;stroke:rgb(255,99,52);stroke-width:1px;"/>
                    </g>
                    <g transform="matrix(0.339583,0,0,0.589583,225.747,8.49167)">
                        <path d="M214.83,134.845L207.58,126" style="fill:none;stroke:rgb(255,209,26);stroke-width:1px;"/>
                    </g>
                    <g transform="matrix(0.339583,0,0,0.589583,225.747,8.49167)">
                        <path d="M211.205,142.728L194.271,137.234" style="fill:none;stroke:rgb(255,209,26);stroke-width:1px;"/>
                    </g>
                    <g transform="matrix(0.339583,0,0,0.589583,225.747,8.49167)">
                        <path d="M212.316,149.845L199.66,152.944" style="fill:none;stroke:rgb(255,209,26);stroke-width:1px;"/>
                    </g>
                    <g transform="matrix(0.0464693,0,0,0.0806798,282.669,77.1161)">
                        <circle cx="406.667" cy="204.167" r="95" style="fill:rgb(255,209,26);"/>
                    </g>
                    <g transform="matrix(0.0232346,0,0,0.0403399,282.27,91.3462)">
                        <circle cx="406.667" cy="204.167" r="95" style="fill:rgb(255,209,26);"/>
                    </g>
                    <g transform="matrix(0.0142982,0,0,0.0248246,285.055,83.2136)">
                        <circle cx="406.667" cy="204.167" r="95" style="fill:rgb(255,209,26);"/>
                    </g>
                    <g transform="matrix(0.0142982,0,0,0.0248246,289.979,76.1386)">
                        <circle cx="406.667" cy="204.167" r="95" style="fill:rgb(255,209,26);"/>
                    </g>
                    <g transform="matrix(0.339583,0,0,0.589583,225.747,8.49167)">
                        <path d="M229.557,80L205.833,76.5" style="fill:none;stroke:rgb(255,209,26);stroke-width:1px;"/>
                    </g>
                    <g transform="matrix(0.339583,0,0,0.589583,225.747,8.49167)">
                        <path d="M257.087,71.047L266.373,67.619" style="fill:none;stroke:rgb(255,209,26);stroke-width:1px;"/>
                    </g>
                    <g transform="matrix(0.339583,0,0,0.589583,225.747,8.49167)">
                        <path d="M251.516,63.333L260.659,41.047" style="fill:none;stroke:rgb(255,209,26);stroke-width:1px;"/>
                    </g>
                    <g transform="matrix(0.339583,0,0,0.589583,225.747,8.49167)">
                        <path d="M223.659,62.762L231.087,67.619" style="fill:none;stroke:rgb(255,209,26);stroke-width:1px;"/>
                    </g>
                    <g transform="matrix(0.339583,0,0,0.589583,225.747,8.49167)">
                        <path d="M239.516,62.762L234.087,41.047" style="fill:none;stroke:rgb(255,209,26);stroke-width:1px;"/>
                    </g>
                    <g transform="matrix(0.012511,0,0,0.0217215,289.368,49.16)">
                        <circle cx="406.667" cy="204.167" r="95" style="fill:rgb(255,209,26);"/>
                    </g>
                    <g transform="matrix(0.0232346,0,0,0.0403399,290.42,35.3358)">
                        <circle cx="406.667" cy="204.167" r="95" style="fill:rgb(255,209,26);"/>
                    </g>
                    <g transform="matrix(0.0107237,0,0,0.0186184,300.601,27.2911)">
                        <circle cx="406.667" cy="204.167" r="95" style="fill:rgb(255,209,26);"/>
                    </g>
                    <g transform="matrix(0.0142982,0,0,0.0248246,308.934,26.024)">
                        <circle cx="406.667" cy="204.167" r="95" style="fill:rgb(255,209,26);"/>
                    </g>
                    <g transform="matrix(0.0196601,0,0,0.0341338,309.758,40.4352)">
                        <circle cx="406.667" cy="204.167" r="95" style="fill:rgb(255,209,26);"/>
                    </g>
                    <g transform="matrix(0.0536184,0,0,0.0930921,286.553,34.2937)">
                        <circle cx="406.667" cy="204.167" r="95" style="fill:rgb(255,209,26);"/>
                    </g>
                    <g transform="matrix(0.339583,0,0,0.589583,225.747,8.49167)">
                        <path d="M268.435,101.348L254.468,85.714" style="fill:none;stroke:rgb(255,99,52);stroke-width:1px;"/>
                    </g>
                    <g transform="matrix(0.339583,0,0,0.589583,225.747,8.49167)">
                        <path d="M318.694,101.69L333.444,81.5" style="fill:none;stroke:rgb(255,99,52);stroke-width:1px;"/>
                    </g>
                    <g transform="matrix(0.12511,0,0,0.217215,274.459,38.4311)">
                        <circle cx="406.667" cy="204.167" r="95" style="fill:white;stroke:rgb(252,75,40);stroke-width:2.71px;"/>
                    </g>
                    <g transform="matrix(0.0428947,0,0,0.0744737,323.514,36.0314)">
                        <circle cx="406.667" cy="204.167" r="95" style="fill:rgb(255,209,26);"/>
                    </g>
                    <g transform="matrix(0.229138,0,0,0.397829,318.577,71.0432)">
                        <path d="M16.533,43.968C16.277,43.968 16.021,43.87 15.826,43.675C15.435,43.284 15.435,42.652 15.826,42.261L34.644,23.443C35.035,23.052 35.667,23.052 36.058,23.443C36.449,23.834 36.449,24.466 36.058,24.857L17.24,43.675C17.044,43.87 16.789,43.968 16.533,43.968Z" style="fill:white;fill-rule:nonzero;"/>
                    </g>
                    <g transform="matrix(0.339583,0,0,0.589583,225.747,8.49167)">
                        <path d="M359.135,165.167L322.135,146" style="fill:none;stroke:rgb(255,99,52);stroke-width:1px;"/>
                    </g>
                    <g transform="matrix(0.193026,0,0,0.335132,283.083,57.9856)">
                        <circle cx="406.667" cy="204.167" r="95" style="fill:white;stroke:rgb(255,99,52);stroke-width:1.76px;"/>
                    </g>
                    <g transform="matrix(0.171856,0,0,0.122832,244.244,-2.64226)">
                        <ellipse cx="822.477" cy="1586.62" rx="21.286" ry="7.833" style="fill:rgb(51,51,51);fill-opacity:0.1;"/>
                    </g>
                    <g transform="matrix(0.203068,0,0,0.352566,308.396,151.415)">
                        <path d="M357.074,49.508L352.074,44.365" style="fill:none;stroke:rgb(252,75,40);stroke-width:1.67px;stroke-linecap:butt;stroke-linejoin:miter;"/>
                        <path d="M379.9,40.222L379.9,29.079" style="fill:none;stroke:rgb(252,75,40);stroke-width:1.67px;stroke-linecap:butt;stroke-linejoin:miter;"/>
                        <path d="M402.646,49.508L407.646,44.365" style="fill:none;stroke:rgb(252,75,40);stroke-width:1.67px;stroke-linecap:butt;stroke-linejoin:miter;"/>
                        <path d="M412.074,71.936L423.646,71.936" style="fill:none;stroke:rgb(252,75,40);stroke-width:1.67px;stroke-linecap:butt;stroke-linejoin:miter;"/>
                        <path d="M347.217,71.936L336.646,71.936" style="fill:rgb(51,51,51);stroke:rgb(252,75,40);stroke-width:1.67px;stroke-linecap:butt;stroke-linejoin:miter;"/>
                        <path d="M380.228,78.5L379.9,108.7" style="fill:none;stroke:rgb(59,72,84);stroke-width:1.25px;"/>
                        <path d="M405.9,61.972L405.9,94.1L379.9,108.7L353.9,93.5L353.9,62.786" style="fill:none;stroke:rgb(59,72,84);stroke-width:1.25px;"/>
                        <path d="M379.5,46.1L353.9,62.7L380.3,78.5L405.9,61.9L379.5,46.1Z" style="fill:rgb(59,72,84);stroke:rgb(59,72,84);stroke-width:1.25px;"/>
                        <path d="M365.451,55.233L370.411,51.953L396.731,67.713L396.731,99.073L391.691,101.873L391.691,71.153L365.451,55.233Z" style="fill:rgb(255,99,52);"/>
                    </g>
                    <g transform="matrix(0.658851,0,0,1.1439,162.539,78.6553)">
                        <path d="M285.712,56.069L318.495,56.069" style="fill:none;stroke:rgb(59,72,84);stroke-width:0.74px;stroke-miterlimit:1.41421;"/>
                        <path d="M289.159,56.069L289.159,43.417" style="fill:none;stroke:rgb(59,72,84);stroke-width:0.74px;stroke-miterlimit:1.41421;"/>
                        <path d="M297.243,56.069L297.243,43.417" style="fill:none;stroke:rgb(59,72,84);stroke-width:0.74px;stroke-miterlimit:1.41421;"/>
                        <path d="M315.049,56.069L315.049,43.417" style="fill:none;stroke:rgb(59,72,84);stroke-width:0.74px;stroke-miterlimit:1.41421;"/>
                        <path d="M289.39,27.423L314.822,27.423L318.488,35.972C318.526,36.182 318.545,36.398 318.545,36.619C318.545,38.64 316.906,40.279 314.885,40.279C313.512,40.279 312.316,39.522 311.69,38.404C311.064,39.522 309.868,40.279 308.495,40.279C307.121,40.279 305.926,39.522 305.299,38.404C304.673,39.522 303.477,40.279 302.104,40.279C300.731,40.279 299.535,39.522 298.909,38.404C298.282,39.522 297.086,40.279 295.713,40.279C294.34,40.279 293.144,39.522 292.518,38.404C291.892,39.522 290.696,40.279 289.323,40.279C287.301,40.279 285.663,38.64 285.663,36.619C285.663,36.398 285.682,36.182 285.72,35.972L289.39,27.423Z" style="fill:none;stroke:rgb(59,72,84);stroke-width:0.74px;stroke-miterlimit:1.41421;"/>
                        <path d="M292.464,38.117L294.089,27.868" style="fill:none;stroke:rgb(59,72,84);stroke-width:0.74px;stroke-miterlimit:1.41421;"/>
                        <path d="M298.832,38.117C299.012,34.701 299.192,31.285 299.373,27.868" style="fill:none;stroke:rgb(59,72,84);stroke-width:0.74px;stroke-miterlimit:1.41421;"/>
                        <path d="M305.199,38.117C305.019,34.701 304.838,31.285 304.658,27.868" style="fill:none;stroke:rgb(59,72,84);stroke-width:0.74px;stroke-miterlimit:1.41421;"/>
                        <path d="M311.567,38.117L309.941,27.868" style="fill:none;stroke:rgb(59,72,84);stroke-width:0.74px;stroke-miterlimit:1.41421;"/>
                        <path d="M294.553,49.904L294.553,47.516" style="fill:none;stroke:rgb(59,72,84);stroke-width:0.74px;stroke-miterlimit:1.41421;"/>
                        <path d="M303.918,51.605L311.311,44.11" style="fill:none;stroke:rgb(255,99,52);stroke-width:0.74px;stroke-miterlimit:1.41421;"/>
                        <path d="M306.528,53.671L311.529,48.601" style="fill:none;stroke:rgb(255,99,52);stroke-width:0.74px;stroke-miterlimit:1.41421;"/>
                    </g>
                    <g transform="matrix(0.339583,0,0,0.589583,309.441,-55.1828)">
                        <path d="M46.214,219.467L61.267,234.521C61.915,235.169 61.915,236.242 61.267,236.89L49.236,248.922C48.587,249.57 47.518,249.573 46.866,248.922L31.813,233.868C31.496,233.552 30.937,232.562 30.937,232.119L30.937,222.606C30.937,221.816 34.168,218.589 34.954,218.589L44.465,218.591C44.904,218.591 45.898,219.152 46.214,219.467Z" style="fill:none;stroke:rgb(59,72,84);stroke-width:1.44px;stroke-linecap:butt;stroke-linejoin:miter;stroke-miterlimit:1.41421;"/>
                        <path d="M36.127,223.781C37.253,222.655 39.079,222.655 40.205,223.781C41.331,224.908 41.331,226.733 40.205,227.86C39.079,228.986 37.253,228.986 36.127,227.86C35.001,226.733 35.001,224.908 36.127,223.781Z" style="fill:none;stroke:rgb(59,72,84);stroke-width:1.44px;stroke-linecap:butt;stroke-linejoin:miter;stroke-miterlimit:1.41421;"/>
                        <path d="M51.975,231.137L43.483,239.63" style="fill:none;stroke:rgb(59,72,84);stroke-width:1.44px;stroke-miterlimit:1.41421;"/>
                        <path d="M54.806,233.968L46.313,242.46" style="fill:none;stroke:rgb(59,72,84);stroke-width:1.44px;stroke-miterlimit:1.41421;"/>
                        <path d="M55.847,228.897C59.88,228.231 62.685,226.755 62.685,225.041C62.685,222.703 57.467,220.808 51.03,220.808C44.593,220.808 39.375,222.703 39.375,225.041C39.375,225.487 39.565,225.918 39.918,226.321" style="fill:none;stroke:rgb(255,99,52);stroke-width:1.44px;stroke-miterlimit:1.41421;"/>
                    </g>
                    <g transform="matrix(0.339583,0,0,0.589583,312.117,78.095)">
                        <rect x="30.109" y="156.204" width="33.404" height="17.421" style="fill:none;stroke:rgb(59,72,84);stroke-width:1.44px;stroke-miterlimit:1.41421;"/>
                        <path d="M46.811,170.584C49.159,170.584 51.063,168.046 51.063,164.915C51.063,161.783 49.159,159.245 46.811,159.245C44.462,159.245 42.559,161.783 42.559,164.915C42.559,168.046 44.462,170.584 46.811,170.584Z" style="fill:none;stroke:rgb(59,72,84);stroke-width:1.44px;stroke-miterlimit:1.41421;"/>
                        <path d="M36.193,172.858C36.193,169.962 33.845,167.614 30.949,167.614" style="fill:none;stroke:rgb(59,72,84);stroke-width:1.44px;stroke-miterlimit:1.41421;"/>
                        <path d="M57.429,172.858C57.429,169.962 59.776,167.614 62.672,167.614" style="fill:none;stroke:rgb(59,72,84);stroke-width:1.44px;stroke-miterlimit:1.41421;"/>
                        <path d="M36.193,156.972C36.193,159.868 33.845,162.215 30.949,162.215" style="fill:none;stroke:rgb(59,72,84);stroke-width:1.44px;stroke-miterlimit:1.41421;"/>
                        <path d="M57.429,156.972C57.429,159.868 59.776,162.215 62.672,162.215" style="fill:none;stroke:rgb(59,72,84);stroke-width:1.44px;stroke-miterlimit:1.41421;"/>
                        <path d="M38.296,166.014C38.902,166.014 39.395,165.521 39.395,164.915C39.395,164.308 38.902,163.815 38.296,163.815C37.689,163.815 37.196,164.308 37.196,164.915C37.196,165.521 37.689,166.014 38.296,166.014Z" style="fill:rgb(51,77,94);"/>
                        <path d="M38.296,166.014C38.902,166.014 39.395,165.521 39.395,164.915C39.395,164.308 38.902,163.815 38.296,163.815C37.689,163.815 37.196,164.308 37.196,164.915C37.196,165.521 37.689,166.014 38.296,166.014Z" style="fill:none;stroke:rgb(59,72,84);stroke-width:1.44px;stroke-miterlimit:1.41421;"/>
                        <path d="M55.31,166.014C55.917,166.014 56.409,165.521 56.409,164.915C56.409,164.308 55.917,163.815 55.31,163.815C54.703,163.815 54.21,164.308 54.21,164.915C54.21,165.521 54.703,166.014 55.31,166.014Z" style="fill:rgb(51,77,94);"/>
                        <path d="M55.31,166.014C55.917,166.014 56.409,165.521 56.409,164.915C56.409,164.308 55.917,163.815 55.31,163.815C54.703,163.815 54.21,164.308 54.21,164.915C54.21,165.521 54.703,166.014 55.31,166.014Z" style="fill:none;stroke:rgb(59,72,84);stroke-width:1.44px;stroke-miterlimit:1.41421;"/>
                        <path d="M30.228,177.683L63.394,177.683" style="fill:none;stroke:rgb(59,72,84);stroke-width:1.44px;stroke-miterlimit:1.41421;"/>
                        <path d="M30.228,181.601L63.394,181.601" style="fill:none;stroke:rgb(59,72,84);stroke-width:1.44px;stroke-miterlimit:1.41421;"/>
                        <path d="M30.228,185.519L63.394,185.519" style="fill:none;stroke:rgb(59,72,84);stroke-width:1.44px;stroke-miterlimit:1.41421;"/>
                    </g>
                </g>
                <g transform="matrix(0.848958,0,0,0.393056,-44.3065,-294.538)">
                    <text x="203.117px" y="890.877px" style="font-family:'Georgia', serif;font-size:60px;fill:rgb(252,75,40);">design amplies</text>
                    <text x="203.117px" y="960.877px" style="font-family:'Georgia', serif;font-size:60px;fill:rgb(252,75,40);">business</text>
                </g>
            </g>
        </g>
    </g>
</svg>
