<?xml version="1.0" encoding="UTF-8" standalone="no"?>
<!DOCTYPE svg PUBLIC "-//W3C//DTD SVG 1.1//EN" "http://www.w3.org/Graphics/SVG/1.1/DTD/svg11.dtd">
<svg width="100%" height="100%" viewBox="0 0 18 18" version="1.1" xmlns="http://www.w3.org/2000/svg" xmlns:xlink="http://www.w3.org/1999/xlink" xml:space="preserve" style="fill-rule:evenodd;clip-rule:evenodd;stroke-linejoin:round;stroke-miterlimit:1.41421;">
    <g transform="matrix(1,0,0,1,-100,-52.9275)">
        <g id="copyright" transform="matrix(0.857143,0,0,0.857143,14.2857,7.56107)">
            <rect x="100" y="52.927" width="21" height="21" style="fill:none;"/>
            <clipPath id="_clip1">
                <rect x="100" y="52.927" width="21" height="21"/>
            </clipPath>
            <g clip-path="url(#_clip1)">
                <g id="Forma-1" transform="matrix(0.0343137,0,0,0.0343137,100,52.9275)">
                    <path d="M306,0C137.269,0 0,137.269 0,306C0,474.73 137.269,612 306,612C474.73,612 612,474.73 612,306C612,137.269 474.73,0 306,0ZM306,572.192C159.223,572.192 39.81,452.78 39.81,306C39.81,159.22 159.223,39.81 306,39.81C452.777,39.81 572.19,159.223 572.19,306C572.19,452.777 452.78,572.192 306,572.192ZM430.829,355.864C421.566,349.944 409.258,352.649 403.333,361.907C384.105,391.97 351.352,409.917 315.72,409.917C258.42,409.917 211.805,363.3 211.805,306C211.805,248.7 258.42,202.082 315.72,202.082C350.295,202.082 382.513,219.216 401.905,247.915C408.057,257.02 420.427,259.418 429.542,253.263C438.649,247.11 441.045,234.736 434.889,225.626C408.088,185.955 363.537,162.272 315.72,162.272C236.47,162.272 171.995,226.747 171.995,306C171.995,385.253 236.47,449.728 315.72,449.728C364.998,449.728 410.289,424.917 436.871,383.358C442.794,374.097 440.089,361.789 430.829,355.864Z" style="fill:white;"/>
                </g>
            </g>
        </g>
    </g>
</svg>
