<?xml version="1.0" encoding="UTF-8" standalone="no"?>
<!DOCTYPE svg PUBLIC "-//W3C//DTD SVG 1.1//EN" "http://www.w3.org/Graphics/SVG/1.1/DTD/svg11.dtd">
<svg width="100%" height="100%" viewBox="0 0 75 75" version="1.1" xmlns="http://www.w3.org/2000/svg" xmlns:xlink="http://www.w3.org/1999/xlink" xml:space="preserve" style="fill-rule:evenodd;clip-rule:evenodd;stroke-linejoin:round;stroke-miterlimit:1.41421;">
    <g transform="matrix(1,0,0,1,-975.833,-114.333)">
        <g id="evaluate" transform="matrix(1.80723,0,0,2.14286,729.887,114.333)">
            <rect x="136.09" y="0" width="41.5" height="35" style="fill:none;"/>
            <g id="test" transform="matrix(0.685281,0,0,0.577948,156.84,17.5)">
                <g transform="matrix(1,0,0,1,-22.3333,-25)">
                    <clipPath id="_clip1">
                        <rect x="0" y="0" width="44.667" height="50"/>
                    </clipPath>
                    <g clip-path="url(#_clip1)">
                        <g transform="matrix(0.666667,0,0,0.666667,0,0)">
                            <path d="M53.265,68.684C51.324,68.692 49.458,67.928 48.079,66.563C46.702,65.217 45.926,63.369 45.93,61.443L45.93,53.443C45.926,51.516 46.702,49.668 48.079,48.321C50.94,45.51 55.591,45.51 58.452,48.321C59.827,49.669 60.602,51.516 60.6,53.441L60.6,61.441C60.602,63.367 59.827,65.214 58.451,66.562C57.072,67.928 55.206,68.691 53.265,68.684L53.265,68.684ZM53.265,74.999C49.632,75.012 46.139,73.583 43.556,71.029C40.98,68.507 39.53,65.048 39.536,61.443L39.536,53.443C39.53,49.838 40.98,46.379 43.555,43.857C48.912,38.597 57.618,38.597 62.975,43.857C65.552,46.378 67.004,49.836 67,53.441L67,61.441C67.006,65.046 65.556,68.505 62.981,71.027C60.397,73.584 56.901,75.014 53.265,75L53.265,74.999ZM53.265,42.991C50.464,42.981 47.771,44.083 45.779,46.052C43.793,47.996 42.675,50.663 42.679,53.442L42.679,61.442C42.675,64.221 43.793,66.888 45.779,68.832C49.909,72.886 56.62,72.886 60.75,68.832C62.736,66.888 63.854,64.221 63.85,61.442L63.85,53.442C63.855,50.662 62.736,47.995 60.75,46.051C58.759,44.081 56.066,42.98 53.265,42.99L53.265,42.991ZM2.361,74.477L0.009,72.415L64.247,0.989L66.6,3.051L2.361,74.477Z" style="fill:rgb(99,99,99);fill-rule:nonzero;"/>
                        </g>
                        <g id="Color_Fill_27" transform="matrix(0.666667,0,0,0.666667,0,0)">
                            <path d="M13.644,28.978C13.641,28.978 13.638,28.978 13.635,28.978C9.636,28.978 6.346,25.689 6.344,21.69L6.344,13.638C6.344,9.636 9.637,6.344 13.638,6.344C17.64,6.344 20.933,9.636 20.933,13.638L20.933,21.69C20.93,25.687 17.641,28.976 13.644,28.978ZM13.644,35.332C13.641,35.332 13.638,35.332 13.635,35.332C6.15,35.332 -0.009,29.174 -0.01,21.689L-0.01,13.638C-0.004,6.151 6.159,-0.008 13.646,-0.008C17.265,-0.008 20.74,1.431 23.3,3.99C25.868,6.542 27.309,10.018 27.3,13.638L27.3,21.69C27.299,29.174 21.141,35.331 13.657,35.331C13.653,35.331 13.648,35.331 13.644,35.331L13.644,35.332ZM13.644,3.121C13.641,3.121 13.639,3.121 13.636,3.121C7.866,3.121 3.119,7.868 3.118,13.638L3.118,21.69C3.124,27.461 7.875,32.206 13.646,32.206C16.435,32.206 19.113,31.098 21.086,29.127C23.064,27.16 24.175,24.48 24.167,21.69L24.167,13.638C24.167,13.638 24.167,13.638 24.167,13.638C24.167,7.869 19.419,3.121 13.65,3.121C13.648,3.121 13.646,3.121 13.644,3.121L13.644,3.121ZM67,20.856L63.867,20.856L63.867,3.121L46.116,3.121L46.116,0L67,0L67,20.856Z" style="fill:rgb(255,209,26);fill-rule:nonzero;"/>
                        </g>
                    </g>
                </g>
            </g>
        </g>
    </g>
</svg>
