<?xml version="1.0" encoding="UTF-8" standalone="no"?>
<!DOCTYPE svg PUBLIC "-//W3C//DTD SVG 1.1//EN" "http://www.w3.org/Graphics/SVG/1.1/DTD/svg11.dtd">
<svg width="100%" height="100%" viewBox="0 0 204 204" version="1.1" xmlns="http://www.w3.org/2000/svg" xmlns:xlink="http://www.w3.org/1999/xlink" xml:space="preserve" style="fill-rule:evenodd;clip-rule:evenodd;stroke-miterlimit:10;">
    <g transform="matrix(1,0,0,1,-244,-333.8)">
        <g id="existing-product" transform="matrix(0.75081,0,0,1.06771,246.741,-22.6002)">
            <rect x="-3.651" y="333.8" width="271.707" height="191.064" style="fill:none;"/>
            <g transform="matrix(0.311958,0,0,0.708714,-54.9721,142.906)">
                <g transform="matrix(2.66667,0,0,0.825413,-339.556,-543.648)">
                    <path d="M350.417,993.535C350.417,993.535 320.722,1009 311.684,1071L389.15,1071C389.15,1071 380.112,1013.76 350.417,993.535Z" style="fill:white;fill-rule:nonzero;stroke:rgb(255,99,52);stroke-width:1.6px;"/>
                </g>
                <g transform="matrix(2.66667,0,0,0.825413,-339.556,-543.648)">
                    <path d="M311.747,1079L389.212,1079C389.212,1079 391.794,1096.54 381.466,1109.45C381.466,1109.45 404.705,1117.61 404.705,1148.6C404.705,1148.6 403.414,1170 396.959,1180L389.212,1180C389.212,1180 390.934,1151.07 373.719,1141.17L365.973,1157L334.987,1157L327.24,1141.17C327.24,1141.17 306.583,1152 311.747,1180L304,1180C304,1180 294.963,1158.65 296.254,1140.58C296.254,1140.58 297.115,1122.49 319.494,1109.58C319.494,1109.58 310.456,1098 311.747,1079Z" style="fill:white;fill-rule:nonzero;stroke:rgb(59,72,84);stroke-width:1.6px;"/>
                </g>
                <g transform="matrix(2.66667,0,0,0.825413,-339.556,-543.648)">
                    <path d="M334.924,1164L365.91,1164L373.657,1180L327.178,1180L334.924,1164Z" style="fill:white;fill-rule:nonzero;stroke:rgb(59,72,84);stroke-width:1.6px;"/>
                </g>
                <g transform="matrix(2.66667,0,0,0.825413,-339.556,-543.648)">
                    <path d="M362.037,1035.75C362.037,1042.16 356.835,1047.37 350.417,1047.37C344,1047.37 338.797,1042.16 338.797,1035.75C338.797,1029.33 344,1024.13 350.417,1024.13C356.835,1024.13 362.037,1029.33 362.037,1035.75" style="fill:rgb(255,99,52);fill-rule:nonzero;"/>
                </g>
                <g transform="matrix(2.66667,0,0,0.825413,-339.556,-543.648)">
                    <path d="M362.037,1035.75C362.037,1042.16 356.835,1047.37 350.417,1047.37C344,1047.37 338.797,1042.16 338.797,1035.75C338.797,1029.33 344,1024.13 350.417,1024.13C356.835,1024.13 362.037,1029.33 362.037,1035.75Z" style="fill:rgb(255,99,52);fill-rule:nonzero;"/>
                    <path d="M350.594,1021.99L350.77,1022L350.947,1022L351.123,1022.01L351.298,1022.02L351.473,1022.03L351.647,1022.05L351.82,1022.06L351.993,1022.08L352.166,1022.1L352.338,1022.12L352.509,1022.15L352.679,1022.18L352.849,1022.21L353.018,1022.24L353.186,1022.27L353.354,1022.31L353.521,1022.34L353.687,1022.38L353.853,1022.42L354.017,1022.47L354.181,1022.51L354.344,1022.56L354.506,1022.61L354.668,1022.66L354.828,1022.71L354.988,1022.77L355.146,1022.83L355.304,1022.88L355.461,1022.95L355.616,1023.01L355.771,1023.07L355.925,1023.14L356.078,1023.21L356.23,1023.28L356.381,1023.35L356.531,1023.42L356.68,1023.5L356.828,1023.57L356.975,1023.65L357.12,1023.73L357.265,1023.81L357.408,1023.9L357.551,1023.98L357.692,1024.07L357.832,1024.16L357.971,1024.25L358.109,1024.34L358.246,1024.43L358.381,1024.53L358.515,1024.63L358.648,1024.72L358.78,1024.82L358.91,1024.92L359.039,1025.03L359.167,1025.13L359.294,1025.24L359.419,1025.35L359.543,1025.45L359.666,1025.56L359.787,1025.68L359.907,1025.79L360.026,1025.9L360.143,1026.02L360.259,1026.14L360.373,1026.26L360.486,1026.38L360.598,1026.5L360.708,1026.62L360.817,1026.74L360.924,1026.87L361.03,1027L361.134,1027.12L361.237,1027.25L361.338,1027.38L361.438,1027.52L361.536,1027.65L361.633,1027.78L361.728,1027.92L361.821,1028.05L361.913,1028.19L362.003,1028.33L362.092,1028.47L362.179,1028.61L362.264,1028.75L362.348,1028.9L362.43,1029.04L362.51,1029.19L362.589,1029.33L362.666,1029.48L362.741,1029.63L362.814,1029.78L362.886,1029.93L362.955,1030.08L363.023,1030.24L363.09,1030.39L363.154,1030.55L363.217,1030.7L363.277,1030.86L363.336,1031.02L363.393,1031.17L363.448,1031.33L363.501,1031.5L363.553,1031.66L363.602,1031.82L363.649,1031.98L363.695,1032.14L363.738,1032.31L363.78,1032.47L363.819,1032.64L363.857,1032.81L363.892,1032.97L363.925,1033.14L363.957,1033.31L363.986,1033.48L364.013,1033.65L364.038,1033.82L364.061,1034L364.082,1034.17L364.1,1034.34L364.117,1034.52L364.131,1034.69L364.144,1034.86L364.154,1035.04L364.161,1035.21L364.167,1035.39L364.17,1035.57L364.171,1035.75L364.17,1035.92L364.167,1036.1L364.161,1036.28L364.154,1036.45L364.144,1036.63L364.131,1036.8L364.117,1036.97L364.1,1037.15L364.082,1037.32L364.061,1037.49L364.038,1037.67L364.013,1037.84L363.986,1038.01L363.957,1038.18L363.925,1038.35L363.892,1038.52L363.857,1038.68L363.819,1038.85L363.78,1039.02L363.738,1039.18L363.695,1039.35L363.649,1039.51L363.602,1039.67L363.553,1039.83L363.501,1040L363.448,1040.16L363.393,1040.32L363.336,1040.47L363.277,1040.63L363.217,1040.79L363.154,1040.94L363.09,1041.1L363.023,1041.25L362.955,1041.41L362.886,1041.56L362.814,1041.71L362.741,1041.86L362.666,1042.01L362.589,1042.16L362.51,1042.3L362.43,1042.45L362.348,1042.59L362.264,1042.74L362.179,1042.88L362.092,1043.02L362.003,1043.16L361.913,1043.3L361.821,1043.44L361.728,1043.57L361.633,1043.71L361.536,1043.84L361.438,1043.98L361.338,1044.11L361.237,1044.24L361.134,1044.37L361.03,1044.5L360.924,1044.62L360.817,1044.75L360.708,1044.87L360.598,1044.99L360.486,1045.12L360.373,1045.24L360.259,1045.35L360.143,1045.47L360.026,1045.59L359.907,1045.7L359.787,1045.81L359.666,1045.93L359.543,1046.04L359.419,1046.14L359.294,1046.25L359.167,1046.36L359.039,1046.46L358.91,1046.57L358.78,1046.67L358.648,1046.77L358.515,1046.86L358.381,1046.96L358.246,1047.06L358.109,1047.15L357.971,1047.24L357.832,1047.33L357.692,1047.42L357.551,1047.51L357.408,1047.59L357.265,1047.68L357.12,1047.76L356.975,1047.84L356.828,1047.92L356.68,1047.99L356.531,1048.07L356.381,1048.14L356.23,1048.21L356.078,1048.28L355.925,1048.35L355.771,1048.42L355.616,1048.48L355.461,1048.55L355.304,1048.61L355.146,1048.66L354.988,1048.72L354.828,1048.78L354.668,1048.83L354.506,1048.88L354.344,1048.93L354.181,1048.98L354.017,1049.02L353.853,1049.07L353.687,1049.11L353.521,1049.15L353.354,1049.18L353.186,1049.22L353.018,1049.25L352.849,1049.29L352.679,1049.31L352.509,1049.34L352.338,1049.37L352.166,1049.39L351.993,1049.41L351.82,1049.43L351.647,1049.44L351.473,1049.46L351.298,1049.47L351.123,1049.48L350.947,1049.49L350.77,1049.5L350.594,1049.5L350.417,1049.5L350.24,1049.5L350.063,1049.5L349.886,1049.49L349.71,1049.48L349.535,1049.47L349.361,1049.46L349.187,1049.44L349.013,1049.43L348.84,1049.41L348.667,1049.39L348.496,1049.37L348.325,1049.34L348.154,1049.31L347.984,1049.29L347.815,1049.25L347.647,1049.22L347.479,1049.18L347.312,1049.15L347.146,1049.11L346.981,1049.07L346.816,1049.02L346.652,1048.98L346.49,1048.93L346.327,1048.88L346.166,1048.83L346.006,1048.78L345.846,1048.72L345.687,1048.66L345.53,1048.61L345.373,1048.55L345.217,1048.48L345.062,1048.42L344.908,1048.35L344.755,1048.28L344.603,1048.21L344.453,1048.14L344.303,1048.07L344.154,1047.99L344.006,1047.92L343.859,1047.84L343.713,1047.76L343.569,1047.68L343.425,1047.59L343.283,1047.51L343.142,1047.42L343.001,1047.33L342.863,1047.24L342.725,1047.15L342.588,1047.06L342.453,1046.96L342.319,1046.86L342.186,1046.77L342.054,1046.67L341.924,1046.57L341.795,1046.46L341.667,1046.36L341.54,1046.25L341.415,1046.14L341.291,1046.04L341.168,1045.93L341.047,1045.81L340.926,1045.7L340.808,1045.59L340.691,1045.47L340.575,1045.35L340.46,1045.24L340.347,1045.12L340.236,1044.99L340.126,1044.87L340.017,1044.75L339.91,1044.62L339.804,1044.5L339.699,1044.37L339.597,1044.24L339.495,1044.11L339.396,1043.98L339.297,1043.84L339.201,1043.71L339.106,1043.57L339.012,1043.44L338.921,1043.3L338.83,1043.16L338.742,1043.02L338.655,1042.88L338.569,1042.74L338.486,1042.59L338.404,1042.45L338.323,1042.3L338.245,1042.16L338.168,1042.01L338.093,1041.86L338.019,1041.71L337.948,1041.56L337.878,1041.41L337.81,1041.25L337.744,1041.1L337.679,1040.94L337.617,1040.79L337.556,1040.63L337.497,1040.47L337.44,1040.32L337.385,1040.16L337.332,1040L337.281,1039.83L337.231,1039.67L337.184,1039.51L337.139,1039.35L337.095,1039.18L337.054,1039.02L337.014,1038.85L336.977,1038.68L336.941,1038.52L336.908,1038.35L336.877,1038.18L336.847,1038.01L336.82,1037.84L336.795,1037.67L336.772,1037.49L336.751,1037.32L336.733,1037.15L336.716,1036.97L336.702,1036.8L336.69,1036.63L336.68,1036.45L336.672,1036.28L336.666,1036.1L336.663,1035.92L336.662,1035.75L336.663,1035.57L336.666,1035.39L336.672,1035.21L336.68,1035.04L336.69,1034.86L336.702,1034.69L336.716,1034.52L336.733,1034.34L336.751,1034.17L336.772,1034L336.795,1033.82L336.82,1033.65L336.847,1033.48L336.877,1033.31L336.908,1033.14L336.941,1032.97L336.977,1032.81L337.014,1032.64L337.054,1032.47L337.095,1032.31L337.139,1032.14L337.184,1031.98L337.231,1031.82L337.281,1031.66L337.332,1031.5L337.385,1031.33L337.44,1031.17L337.497,1031.02L337.556,1030.86L337.617,1030.7L337.679,1030.55L337.744,1030.39L337.81,1030.24L337.878,1030.08L337.948,1029.93L338.019,1029.78L338.093,1029.63L338.168,1029.48L338.245,1029.33L338.323,1029.19L338.404,1029.04L338.486,1028.9L338.569,1028.75L338.655,1028.61L338.742,1028.47L338.83,1028.33L338.921,1028.19L339.012,1028.05L339.106,1027.92L339.201,1027.78L339.297,1027.65L339.396,1027.51L339.495,1027.38L339.597,1027.25L339.699,1027.12L339.804,1027L339.91,1026.87L340.017,1026.74L340.126,1026.62L340.236,1026.5L340.347,1026.38L340.46,1026.26L340.575,1026.14L340.691,1026.02L340.808,1025.9L340.926,1025.79L341.047,1025.68L341.168,1025.56L341.291,1025.45L341.415,1025.35L341.54,1025.24L341.667,1025.13L341.795,1025.03L341.924,1024.92L342.054,1024.82L342.186,1024.72L342.319,1024.63L342.453,1024.53L342.588,1024.43L342.725,1024.34L342.863,1024.25L343.001,1024.16L343.142,1024.07L343.283,1023.98L343.425,1023.9L343.569,1023.81L343.713,1023.73L343.859,1023.65L344.006,1023.57L344.154,1023.5L344.303,1023.42L344.453,1023.35L344.603,1023.28L344.755,1023.21L344.908,1023.14L345.062,1023.07L345.217,1023.01L345.373,1022.95L345.53,1022.88L345.687,1022.83L345.846,1022.77L346.006,1022.71L346.166,1022.66L346.327,1022.61L346.49,1022.56L346.652,1022.51L346.816,1022.47L346.981,1022.42L347.146,1022.38L347.312,1022.34L347.479,1022.31L347.647,1022.27L347.815,1022.24L347.984,1022.21L348.154,1022.18L348.325,1022.15L348.496,1022.12L348.667,1022.1L348.84,1022.08L349.013,1022.06L349.187,1022.05L349.361,1022.03L349.535,1022.02L349.71,1022.01L349.886,1022L350.063,1022L350.239,1021.99L350.417,1021.99L350.594,1021.99ZM350.294,1026.26L350.171,1026.26L350.049,1026.27L349.927,1026.27L349.806,1026.28L349.685,1026.29L349.564,1026.3L349.444,1026.31L349.325,1026.32L349.206,1026.34L349.087,1026.35L348.97,1026.37L348.852,1026.39L348.735,1026.41L348.619,1026.43L348.503,1026.45L348.388,1026.48L348.273,1026.5L348.158,1026.53L348.045,1026.56L347.932,1026.59L347.819,1026.62L347.707,1026.65L347.596,1026.69L347.485,1026.72L347.374,1026.76L347.265,1026.8L347.155,1026.84L347.047,1026.88L346.939,1026.92L346.832,1026.96L346.725,1027L346.62,1027.05L346.514,1027.1L346.41,1027.14L346.306,1027.19L346.202,1027.25L346.1,1027.3L345.998,1027.35L345.897,1027.4L345.797,1027.46L345.697,1027.52L345.598,1027.57L345.5,1027.63L345.403,1027.69L345.306,1027.75L345.21,1027.82L345.115,1027.88L345.021,1027.94L344.927,1028.01L344.835,1028.08L344.743,1028.14L344.652,1028.21L344.562,1028.28L344.473,1028.35L344.384,1028.42L344.297,1028.5L344.21,1028.57L344.124,1028.65L344.04,1028.72L343.956,1028.8L343.873,1028.88L343.791,1028.96L343.71,1029.04L343.63,1029.12L343.551,1029.2L343.472,1029.28L343.395,1029.37L343.319,1029.45L343.244,1029.54L343.17,1029.63L343.097,1029.71L343.025,1029.8L342.954,1029.89L342.884,1029.98L342.815,1030.07L342.747,1030.16L342.68,1030.26L342.615,1030.35L342.55,1030.44L342.487,1030.54L342.425,1030.63L342.363,1030.73L342.303,1030.83L342.245,1030.93L342.187,1031.03L342.13,1031.13L342.075,1031.23L342.021,1031.33L341.968,1031.43L341.916,1031.53L341.866,1031.63L341.816,1031.74L341.768,1031.84L341.721,1031.95L341.676,1032.05L341.632,1032.16L341.589,1032.27L341.547,1032.38L341.506,1032.48L341.467,1032.59L341.429,1032.7L341.393,1032.81L341.358,1032.92L341.324,1033.04L341.291,1033.15L341.26,1033.26L341.23,1033.37L341.201,1033.49L341.174,1033.6L341.149,1033.72L341.124,1033.83L341.101,1033.95L341.08,1034.06L341.059,1034.18L341.041,1034.3L341.023,1034.42L341.008,1034.53L340.993,1034.65L340.98,1034.77L340.969,1034.89L340.959,1035.01L340.951,1035.13L340.944,1035.26L340.938,1035.38L340.935,1035.5L340.932,1035.62L340.931,1035.75L340.932,1035.87L340.935,1035.99L340.938,1036.11L340.944,1036.24L340.951,1036.36L340.959,1036.48L340.969,1036.6L340.98,1036.72L340.993,1036.84L341.008,1036.96L341.023,1037.07L341.041,1037.19L341.059,1037.31L341.08,1037.43L341.101,1037.54L341.124,1037.66L341.149,1037.77L341.174,1037.89L341.201,1038L341.23,1038.12L341.26,1038.23L341.291,1038.34L341.324,1038.45L341.358,1038.57L341.393,1038.68L341.429,1038.79L341.467,1038.9L341.506,1039.01L341.547,1039.12L341.589,1039.22L341.632,1039.33L341.676,1039.44L341.721,1039.54L341.768,1039.65L341.816,1039.75L341.866,1039.86L341.916,1039.96L341.968,1040.06L342.021,1040.16L342.075,1040.27L342.13,1040.37L342.187,1040.46L342.245,1040.56L342.303,1040.66L342.363,1040.76L342.425,1040.86L342.487,1040.95L342.55,1041.05L342.615,1041.14L342.68,1041.23L342.747,1041.33L342.815,1041.42L342.884,1041.51L342.954,1041.6L343.025,1041.69L343.097,1041.78L343.17,1041.87L343.244,1041.95L343.319,1042.04L343.395,1042.12L343.472,1042.21L343.551,1042.29L343.63,1042.37L343.71,1042.45L343.791,1042.53L343.873,1042.61L343.956,1042.69L344.04,1042.77L344.124,1042.84L344.21,1042.92L344.297,1042.99L344.384,1043.07L344.473,1043.14L344.562,1043.21L344.652,1043.28L344.743,1043.35L344.835,1043.41L344.927,1043.48L345.021,1043.55L345.115,1043.61L345.21,1043.67L345.306,1043.74L345.403,1043.8L345.5,1043.86L345.598,1043.92L345.697,1043.97L345.797,1044.03L345.897,1044.09L345.998,1044.14L346.1,1044.19L346.202,1044.25L346.306,1044.3L346.41,1044.35L346.514,1044.39L346.62,1044.44L346.725,1044.49L346.832,1044.53L346.939,1044.57L347.047,1044.62L347.155,1044.65L347.265,1044.69L347.374,1044.73L347.485,1044.77L347.596,1044.8L347.707,1044.84L347.819,1044.87L347.932,1044.9L348.045,1044.93L348.158,1044.96L348.273,1044.99L348.388,1045.01L348.503,1045.04L348.619,1045.06L348.735,1045.08L348.852,1045.1L348.97,1045.12L349.087,1045.14L349.206,1045.15L349.325,1045.17L349.444,1045.18L349.564,1045.19L349.685,1045.2L349.806,1045.21L349.927,1045.22L350.049,1045.22L350.171,1045.23L350.293,1045.23L350.417,1045.23L350.54,1045.23L350.663,1045.23L350.785,1045.22L350.906,1045.22L351.028,1045.21L351.149,1045.2L351.269,1045.19L351.389,1045.18L351.508,1045.17L351.627,1045.15L351.746,1045.14L351.864,1045.12L351.981,1045.1L352.098,1045.08L352.215,1045.06L352.331,1045.04L352.446,1045.01L352.561,1044.99L352.675,1044.96L352.789,1044.93L352.902,1044.9L353.015,1044.87L353.127,1044.84L353.238,1044.8L353.349,1044.77L353.459,1044.73L353.569,1044.69L353.678,1044.65L353.787,1044.62L353.894,1044.57L354.002,1044.53L354.108,1044.49L354.214,1044.44L354.319,1044.39L354.424,1044.35L354.528,1044.3L354.631,1044.25L354.734,1044.19L354.835,1044.14L354.936,1044.09L355.037,1044.03L355.137,1043.97L355.235,1043.92L355.334,1043.86L355.431,1043.8L355.527,1043.74L355.624,1043.67L355.719,1043.61L355.813,1043.55L355.906,1043.48L355.999,1043.41L356.091,1043.35L356.182,1043.28L356.272,1043.21L356.361,1043.14L356.449,1043.07L356.537,1042.99L356.624,1042.92L356.709,1042.84L356.794,1042.77L356.878,1042.69L356.961,1042.61L357.043,1042.53L357.124,1042.45L357.204,1042.37L357.283,1042.29L357.361,1042.21L357.438,1042.12L357.514,1042.04L357.59,1041.95L357.664,1041.87L357.737,1041.78L357.809,1041.69L357.88,1041.6L357.95,1041.51L358.019,1041.42L358.086,1041.33L358.153,1041.23L358.219,1041.14L358.283,1041.05L358.347,1040.95L358.409,1040.86L358.47,1040.76L358.53,1040.66L358.589,1040.56L358.647,1040.46L358.703,1040.37L358.758,1040.27L358.813,1040.16L358.865,1040.06L358.917,1039.96L358.968,1039.86L359.017,1039.75L359.065,1039.65L359.112,1039.54L359.157,1039.44L359.202,1039.33L359.245,1039.22L359.286,1039.12L359.327,1039.01L359.366,1038.9L359.404,1038.79L359.441,1038.68L359.476,1038.57L359.51,1038.45L359.542,1038.34L359.573,1038.23L359.603,1038.12L359.632,1038L359.659,1037.89L359.685,1037.77L359.709,1037.66L359.732,1037.54L359.754,1037.43L359.774,1037.31L359.792,1037.19L359.81,1037.07L359.826,1036.96L359.84,1036.84L359.853,1036.72L359.864,1036.6L359.874,1036.48L359.883,1036.36L359.889,1036.24L359.895,1036.11L359.899,1035.99L359.901,1035.87L359.902,1035.75L359.901,1035.62L359.899,1035.5L359.895,1035.38L359.889,1035.26L359.883,1035.13L359.874,1035.01L359.864,1034.89L359.853,1034.77L359.84,1034.65L359.826,1034.53L359.81,1034.42L359.792,1034.3L359.774,1034.18L359.754,1034.06L359.732,1033.95L359.709,1033.83L359.685,1033.72L359.659,1033.6L359.632,1033.49L359.603,1033.37L359.573,1033.26L359.542,1033.15L359.51,1033.04L359.476,1032.92L359.441,1032.81L359.404,1032.7L359.366,1032.59L359.327,1032.48L359.286,1032.38L359.245,1032.27L359.202,1032.16L359.157,1032.05L359.112,1031.95L359.065,1031.84L359.017,1031.74L358.968,1031.63L358.917,1031.53L358.865,1031.43L358.813,1031.33L358.758,1031.23L358.703,1031.13L358.647,1031.03L358.589,1030.93L358.53,1030.83L358.47,1030.73L358.409,1030.63L358.347,1030.54L358.283,1030.44L358.219,1030.35L358.153,1030.26L358.086,1030.16L358.019,1030.07L357.95,1029.98L357.88,1029.89L357.809,1029.8L357.737,1029.71L357.664,1029.63L357.59,1029.54L357.514,1029.45L357.438,1029.37L357.361,1029.28L357.283,1029.2L357.204,1029.12L357.124,1029.04L357.043,1028.96L356.961,1028.88L356.878,1028.8L356.794,1028.72L356.709,1028.65L356.624,1028.57L356.537,1028.5L356.449,1028.42L356.361,1028.35L356.272,1028.28L356.182,1028.21L356.091,1028.14L355.999,1028.08L355.906,1028.01L355.813,1027.94L355.719,1027.88L355.624,1027.82L355.527,1027.75L355.431,1027.69L355.334,1027.63L355.235,1027.57L355.137,1027.52L355.037,1027.46L354.936,1027.4L354.835,1027.35L354.734,1027.3L354.631,1027.25L354.528,1027.19L354.424,1027.14L354.319,1027.1L354.214,1027.05L354.108,1027.01L354.002,1026.96L353.894,1026.92L353.787,1026.88L353.678,1026.84L353.569,1026.8L353.459,1026.76L353.349,1026.72L353.238,1026.69L353.127,1026.65L353.015,1026.62L352.902,1026.59L352.789,1026.56L352.675,1026.53L352.561,1026.5L352.446,1026.48L352.331,1026.45L352.215,1026.43L352.098,1026.41L351.981,1026.39L351.864,1026.37L351.746,1026.35L351.627,1026.34L351.508,1026.32L351.389,1026.31L351.269,1026.3L351.149,1026.29L351.028,1026.28L350.906,1026.27L350.785,1026.27L350.663,1026.26L350.54,1026.26L350.417,1026.26L350.294,1026.26Z" style="fill:rgb(255,99,52);"/>
                </g>
                <g transform="matrix(2.66667,0,0,0.825413,-339.556,-543.648)">
                    <path d="M481.155,1303C481.155,1303 476.278,1274.31 449.308,1287.65C449.308,1287.65 444.574,1271.58 424.921,1277.75C425.746,1274.94 422.93,1253.48 401.264,1254.09C401.264,1254.09 395.943,1243.9 386.762,1246.77C383.208,1247.88 376.147,1250.64 377.581,1262.4C377.581,1262.4 367.346,1267.73 371.793,1279.63C371.793,1279.63 350.325,1277.32 352.907,1303L344.156,1303C344.156,1303 345,1285.73 323.912,1287.02C323.828,1284.44 328.527,1275.17 317.617,1265.56C317.617,1265.56 320.2,1254.51 313.027,1250.37C309.295,1248.22 297.677,1245.9 295.382,1257.67C293.796,1256.34 276.876,1257.24 272.429,1275.89C272.429,1275.89 249.764,1265.85 242.575,1289.66C240.583,1288.94 224.803,1284.92 223.512,1303L481.155,1303Z" style="fill:rgb(59,72,84);fill-rule:nonzero;"/>
                </g>
                <g transform="matrix(2.66667,0,0,0.825413,-339.556,-543.648)">
                    <path d="M350.417,1270.01C350.417,1270.01 369.555,1238.7 370.416,1214.31C371.277,1189.92 359.403,1185.94 350.417,1185.94C341.431,1185.94 329.668,1193.69 332.537,1216.64C332.537,1216.64 337.598,1251.36 350.417,1270.01" style="fill:rgb(255,99,52);fill-rule:nonzero;"/>
                </g>
                <g transform="matrix(2.66667,0,0,0.825413,-339.556,-543.648)">
                    <path d="M350.535,1240.17C350.535,1240.17 361.704,1221.9 362.207,1207.66C362.709,1193.43 355.779,1191.11 350.535,1191.11C345.291,1191.11 338.425,1195.63 340.1,1209.02C340.1,1209.02 343.054,1229.28 350.535,1240.17" style="fill:white;fill-rule:nonzero;"/>
                </g>
            </g>
        </g>
    </g>
</svg>
