<?xml version="1.0" encoding="UTF-8" standalone="no"?>
<!DOCTYPE svg PUBLIC "-//W3C//DTD SVG 1.1//EN" "http://www.w3.org/Graphics/SVG/1.1/DTD/svg11.dtd">
<svg width="100%" height="100%" viewBox="0 0 75 75" version="1.1" xmlns="http://www.w3.org/2000/svg" xmlns:xlink="http://www.w3.org/1999/xlink" xml:space="preserve" style="fill-rule:evenodd;clip-rule:evenodd;stroke-linejoin:round;stroke-miterlimit:1.41421;">
    <g transform="matrix(1,0,0,1,-750.833,-114.333)">
        <g id="ideate" transform="matrix(1.80723,0,0,2.14286,504.887,114.333)">
            <rect x="136.09" y="0" width="41.5" height="35" style="fill:none;"/>
            <g id="ideate1" transform="matrix(0.685281,0,0,0.577948,156.84,17.5)">
                <g transform="matrix(1,0,0,1,-17.5676,-25)">
                    <clipPath id="_clip1">
                        <rect x="0" y="0" width="35.135" height="50"/>
                    </clipPath>
                    <g clip-path="url(#_clip1)">
                        <g transform="matrix(0.675676,0,0,0.675676,0,0)">
                            <path d="M33.577,49.584L18.412,49.584L18.412,48.562C18.407,45.172 16.976,41.936 14.471,39.651L14.007,39.251C10.299,35.877 8.182,31.09 8.182,26.076C8.182,16.305 16.223,8.264 25.994,8.264C35.766,8.264 43.806,16.305 43.806,26.076C43.806,31.081 41.697,35.861 38,39.234L37.5,39.666C35.003,41.95 33.578,45.182 33.575,48.566L33.575,49.588L33.577,49.584ZM20.419,47.539L31.57,47.539C31.838,43.938 33.474,40.573 36.141,38.139L36.641,37.706C39.903,34.721 41.763,30.497 41.763,26.075C41.763,17.425 34.646,10.308 25.996,10.308C17.347,10.308 10.229,17.425 10.229,26.075C10.229,30.505 12.097,34.737 15.37,37.723L15.835,38.123C18.509,40.56 20.151,43.931 20.419,47.539L20.419,47.539ZM25.99,74L18.417,60.877L33.571,60.877L25.99,74ZM21.957,62.921L25.991,69.911L30.028,62.919L21.957,62.921ZM25.992,71.956L27.974,68.524L24.01,68.524L25.992,71.956ZM25.992,74.001L22.24,67.5L29.74,67.5L25.992,74.001ZM25.781,69.547L25.992,69.912L26.203,69.547L25.781,69.547L25.781,69.547ZM18.412,53.67L18.412,47.534L33.576,47.54L33.576,53.665L18.412,53.67ZM20.456,49.581L20.456,51.625L31.53,51.625L31.53,49.584L20.456,49.581Z" style="fill:rgb(255,209,26);fill-rule:nonzero;"/>
                        </g>
                        <g id="Color_Fill_24" transform="matrix(0.675676,0,0,0.675676,0,0)">
                            <path d="M29.2,60.873L27.158,60.873L27.158,52.644L29.2,52.644L29.2,60.873ZM31.532,60.873L31.532,52.638L33.576,52.638L33.576,60.873L31.533,60.873L31.532,60.873ZM20.455,60.873L18.412,60.873L18.412,52.642L20.456,52.642L20.456,60.873L20.455,60.873ZM24.825,60.873L22.781,60.873L22.781,52.642L24.83,52.642L24.825,60.873ZM27.987,38.71L24,38.71L22.892,35.8C22.35,35.626 21.823,35.408 21.317,35.146L18.472,36.42L15.653,33.6L16.927,30.755C16.666,30.249 16.447,29.722 16.273,29.179L13.363,28.069L13.363,24.082L16.273,22.972C16.447,22.429 16.666,21.902 16.927,21.396L15.653,18.552L18.473,15.732L21.317,17.006C21.823,16.744 22.35,16.526 22.892,16.352L24,13.441L27.986,13.441L29.095,16.351C29.638,16.525 30.165,16.743 30.671,17.005L33.516,15.731L36.335,18.551L35.061,21.4C35.324,21.906 35.543,22.434 35.717,22.977L38.627,24.087L38.627,28.073L35.718,29.182C35.544,29.725 35.325,30.253 35.062,30.759L36.337,33.6L33.518,36.42L30.673,35.145C30.168,35.407 29.642,35.626 29.1,35.8L27.987,38.71ZM25.41,36.665L26.58,36.665L27.556,34.105L28.065,33.972C28.783,33.783 29.472,33.496 30.112,33.121L30.566,32.856L33.066,33.978L33.892,33.151L32.77,30.646L33.036,30.192C33.412,29.553 33.698,28.865 33.886,28.148L34.019,27.638L36.58,26.661L36.58,25.491L34.019,24.513L33.889,24C33.701,23.283 33.415,22.595 33.039,21.956L32.773,21.501L33.895,19L33.069,18.173L30.569,19.294L30.11,19.03C29.47,18.654 28.781,18.368 28.063,18.18L27.555,18.047L26.579,15.486L25.41,15.486L24.434,18.046L23.925,18.179C23.208,18.367 22.52,18.653 21.88,19.029L21.425,19.295L18.925,18.173L18.094,19L19.215,21.5L18.95,21.954C18.575,22.594 18.289,23.283 18.1,24.001L17.967,24.509L15.407,25.486L15.407,26.656L17.967,27.633L18.1,28.145C18.289,28.863 18.575,29.551 18.95,30.192L19.216,30.646L18.095,33.146L18.923,33.973L21.423,32.851L21.877,33.117C22.517,33.492 23.205,33.778 23.922,33.967L24.434,34.1L25.41,36.665ZM26,32.149C26,32.149 25.999,32.149 25.999,32.149C22.667,32.149 19.926,29.408 19.926,26.076C19.926,22.744 22.667,20.003 25.999,20.003C29.33,20.003 32.071,22.744 32.072,26.075C32.069,29.405 29.33,32.145 26,32.149ZM26,22.049C25.999,22.049 25.999,22.049 25.998,22.049C23.788,22.049 21.969,23.868 21.969,26.078C21.969,28.288 23.788,30.107 25.998,30.107C28.208,30.107 30.027,28.288 30.027,26.078C30.027,26.078 30.027,26.077 30.027,26.077C30.025,23.868 28.209,22.05 26,22.047L26,22.049ZM27.017,4.328L24.973,4.328L24.973,0L27.017,0L27.017,4.328ZM31.508,5.015L29.508,4.59L30.408,0.357L32.408,0.782L31.508,5.015ZM35.76,6.621L33.891,5.79L35.651,1.836L37.52,2.668L35.76,6.621ZM39.583,9.077L37.929,7.877L40.474,4.377L42.128,5.577L39.583,9.077ZM42.813,12.277L41.446,10.757L44.663,7.857L46.03,9.377L42.813,12.277ZM45.313,16.077L44.286,14.3L48.034,12.136L49.056,13.907L45.313,16.077ZM46.963,20.311L46.326,18.36L50.443,17.023L51.074,18.967L46.963,20.311ZM47.698,24.796L47.484,22.763L51.784,22.311L52,24.338L47.698,24.796ZM51.788,29.788L47.488,29.335L47.693,27.3L52,27.748L51.788,29.788ZM50.448,35.069L46.331,33.732L46.963,31.787L51.079,33.124L50.448,35.069ZM48.038,39.956L44.29,37.792L45.312,36.021L49.059,38.184L48.038,39.956ZM44.666,44.235L41.449,41.335L42.817,39.815L46.034,42.715L44.666,44.235ZM40.478,47.719L37.933,44.219L39.587,43.019L42.131,46.519L40.478,47.719ZM20.482,5.014L19.582,0.782L21.582,0.357L22.482,4.589L20.482,5.014ZM16.231,6.62L14.471,2.668L16.339,1.836L18.1,5.789L16.231,6.62ZM12.408,9.076L9.864,5.576L11.518,4.376L14.062,7.876L12.408,9.076ZM9.178,12.276L5.961,9.376L7.328,7.856L10.545,10.756L9.178,12.276ZM6.678,16.076L2.935,13.905L3.957,12.134L7.7,14.3L6.678,16.076ZM5.032,20.3L0.916,18.966L1.548,17.021L5.664,18.358L5.032,20.3ZM4.3,24.788L0,24.336L0.207,22.3L4.507,22.752L4.3,24.788ZM0.207,29.78L-0.006,27.747L4.294,27.295L4.508,29.328L0.207,29.78ZM1.547,35.06L0.916,33.116L5.032,31.779L5.663,33.724L1.547,35.06ZM3.956,39.947L2.934,38.176L6.681,36.013L7.7,37.784L3.956,39.947ZM7.327,44.226L5.96,42.706L9.178,39.806L10.545,41.326L7.327,44.226ZM11.515,47.71L9.862,46.51L12.408,43.01L14.061,44.21L11.515,47.71Z" style="fill:rgb(99,99,99);fill-rule:nonzero;"/>
                        </g>
                    </g>
                </g>
            </g>
        </g>
    </g>
</svg>
