<?xml version="1.0" encoding="UTF-8" standalone="no"?>
<!DOCTYPE svg PUBLIC "-//W3C//DTD SVG 1.1//EN" "http://www.w3.org/Graphics/SVG/1.1/DTD/svg11.dtd">
<svg width="100%" height="100%" viewBox="0 0 75 75" version="1.1" xmlns="http://www.w3.org/2000/svg" xmlns:xlink="http://www.w3.org/1999/xlink" xml:space="preserve" style="fill-rule:evenodd;clip-rule:evenodd;stroke-linejoin:round;stroke-miterlimit:1.5;">
    <g transform="matrix(1,0,0,1,-650.333,-114.333)">
        <g id="learn" transform="matrix(1.80723,0,0,2.14286,404.387,114.333)">
            <rect x="136.09" y="0" width="41.5" height="35" style="fill:none;"/>
            <g transform="matrix(0.48231,0,0,1.21417,-669.455,-213.397)">
                <g transform="matrix(1.09313,0,0,0.366218,-4741.06,90.238)">
                    <path d="M5879.07,309.13L5882.07,290.747C5882.07,290.747 5882.87,287.33 5881.47,283.13C5880.07,278.93 5870.47,262.13 5879.47,247.33C5888.47,232.53 5912.47,235.13 5917.47,242.73C5917.47,242.73 5925.47,250.33 5925.87,264.53L5933.07,280.93L5924.87,280.93L5924.87,296.93L5911.27,295.73L5910.07,307.53" style="fill:none;stroke:rgb(255,209,26);stroke-width:1.05px;"/>
                </g>
                <g transform="matrix(1.09313,0,0,0.366218,-4741.06,90.238)">
                    <path d="M5902.88,249.446C5901.7,249.291 5900.52,249.291 5899.34,249.446L5898.12,251.732L5895.92,250.361C5894.83,250.815 5893.8,251.41 5892.86,252.131L5892.94,254.72L5890.36,254.633C5889.63,255.573 5889.04,256.604 5888.59,257.698L5889.96,259.897L5887.67,261.117C5887.52,262.291 5887.52,263.481 5887.67,264.655L5889.96,265.875L5888.59,268.074C5889.04,269.168 5889.63,270.199 5890.36,271.139L5892.94,271.052L5892.86,273.641C5893.8,274.362 5894.83,274.957 5895.92,275.411L5898.12,274.04L5899.34,276.326C5900.52,276.481 5901.7,276.481 5902.88,276.326L5904.1,274.04L5906.3,275.411C5907.39,274.957 5908.42,274.362 5909.36,273.641L5909.28,271.052L5911.86,271.139C5912.59,270.199 5913.18,269.168 5913.64,268.074L5912.27,265.875L5914.55,264.655C5914.7,263.481 5914.7,262.291 5914.55,261.117L5912.27,259.897L5913.64,257.698C5913.18,256.604 5912.59,255.573 5911.86,254.633L5909.28,254.72L5909.36,252.131C5908.42,251.41 5907.39,250.815 5906.3,250.361L5904.1,251.732L5902.88,249.446ZM5901.11,258.084C5903.76,258.084 5905.91,260.236 5905.91,262.886C5905.91,265.536 5903.76,267.688 5901.11,267.688C5898.46,267.688 5896.31,265.536 5896.31,262.886C5896.31,260.236 5898.46,258.084 5901.11,258.084Z" style="fill:rgb(245,245,245);"/>
                    <path d="M5901.22,249.33L5901.33,249.331L5901.44,249.334L5901.55,249.337L5901.66,249.341L5901.78,249.346L5901.89,249.352L5902,249.359L5902.11,249.366L5902.22,249.375L5902.33,249.384L5902.44,249.395L5902.55,249.406L5902.66,249.418L5902.77,249.431L5902.88,249.446L5904.1,251.732L5906.3,250.361L5906.4,250.404L5906.5,250.448L5906.6,250.493L5906.7,250.538L5906.81,250.584L5906.91,250.631L5907.01,250.679L5907.11,250.728L5907.21,250.777L5907.31,250.827L5907.4,250.879L5907.5,250.93L5907.6,250.983L5907.7,251.037L5907.79,251.091L5907.89,251.146L5907.98,251.202L5908.08,251.258L5908.17,251.316L5908.27,251.374L5908.36,251.433L5908.46,251.492L5908.55,251.553L5908.64,251.614L5908.73,251.676L5908.82,251.739L5908.92,251.802L5909.01,251.866L5909.1,251.931L5909.19,251.997L5909.27,252.064L5909.36,252.131L5909.28,254.72L5911.86,254.633L5911.93,254.722L5912,254.811L5912.07,254.9L5912.13,254.99L5912.19,255.08L5912.26,255.171L5912.32,255.263L5912.38,255.355L5912.44,255.447L5912.5,255.54L5912.56,255.634L5912.62,255.728L5912.68,255.822L5912.74,255.917L5912.8,256.012L5912.85,256.108L5912.9,256.204L5912.96,256.301L5913.01,256.398L5913.07,256.495L5913.12,256.593L5913.17,256.692L5913.22,256.79L5913.27,256.89L5913.32,256.989L5913.36,257.089L5913.41,257.19L5913.46,257.291L5913.5,257.392L5913.55,257.494L5913.59,257.596L5913.64,257.698L5912.27,259.897L5914.55,261.117L5914.57,261.227L5914.58,261.337L5914.59,261.447L5914.6,261.558L5914.61,261.668L5914.62,261.779L5914.63,261.889L5914.64,262L5914.64,262.111L5914.65,262.221L5914.65,262.332L5914.66,262.443L5914.66,262.554L5914.66,262.664L5914.67,262.775L5914.67,262.886L5914.67,262.997L5914.66,263.108L5914.66,263.218L5914.66,263.329L5914.65,263.44L5914.65,263.551L5914.64,263.661L5914.64,263.772L5914.63,263.883L5914.62,263.993L5914.61,264.104L5914.6,264.214L5914.59,264.325L5914.58,264.435L5914.57,264.545L5914.55,264.655L5912.27,265.875L5913.64,268.074L5913.59,268.176L5913.55,268.278L5913.5,268.38L5913.46,268.481L5913.41,268.582L5913.36,268.683L5913.32,268.783L5913.27,268.882L5913.22,268.982L5913.17,269.08L5913.12,269.179L5913.07,269.277L5913.01,269.374L5912.96,269.471L5912.9,269.568L5912.85,269.664L5912.8,269.76L5912.74,269.855L5912.68,269.95L5912.62,270.044L5912.56,270.138L5912.5,270.232L5912.44,270.325L5912.38,270.417L5912.32,270.509L5912.26,270.601L5912.19,270.692L5912.13,270.782L5912.07,270.872L5912,270.961L5911.93,271.05L5911.86,271.139L5909.28,271.052L5909.36,273.641L5909.27,273.708L5909.19,273.775L5909.1,273.841L5909.01,273.906L5908.92,273.97L5908.82,274.033L5908.73,274.096L5908.64,274.158L5908.55,274.219L5908.46,274.28L5908.36,274.339L5908.27,274.398L5908.17,274.456L5908.08,274.514L5907.98,274.57L5907.89,274.626L5907.79,274.681L5907.7,274.735L5907.6,274.789L5907.5,274.842L5907.4,274.893L5907.31,274.945L5907.21,274.995L5907.11,275.044L5907.01,275.093L5906.91,275.141L5906.81,275.188L5906.7,275.234L5906.6,275.279L5906.5,275.324L5906.4,275.368L5906.3,275.411L5904.1,274.04L5902.88,276.326L5902.77,276.341L5902.66,276.354L5902.55,276.366L5902.44,276.377L5902.33,276.388L5902.22,276.397L5902.11,276.406L5902,276.413L5901.89,276.42L5901.78,276.426L5901.66,276.431L5901.55,276.435L5901.44,276.438L5901.33,276.441L5901.22,276.442L5901.11,276.442L5901,276.442L5900.89,276.441L5900.78,276.438L5900.67,276.435L5900.56,276.431L5900.44,276.426L5900.34,276.42L5900.22,276.413L5900.11,276.406L5900,276.397L5899.89,276.388L5899.78,276.377L5899.67,276.366L5899.56,276.354L5899.45,276.341L5899.34,276.326L5898.12,274.04L5895.92,275.411L5895.82,275.368L5895.72,275.324L5895.62,275.279L5895.52,275.234L5895.41,275.188L5895.31,275.141L5895.21,275.093L5895.11,275.044L5895.02,274.995L5894.92,274.945L5894.82,274.893L5894.72,274.842L5894.62,274.789L5894.53,274.735L5894.43,274.681L5894.33,274.626L5894.24,274.57L5894.14,274.514L5894.05,274.456L5893.95,274.398L5893.86,274.339L5893.76,274.28L5893.67,274.219L5893.58,274.158L5893.49,274.096L5893.4,274.033L5893.31,273.97L5893.21,273.906L5893.12,273.841L5893.03,273.775L5892.95,273.708L5892.86,273.641L5892.94,271.052L5890.36,271.139L5890.29,271.05L5890.22,270.961L5890.16,270.872L5890.09,270.782L5890.03,270.692L5889.96,270.601L5889.9,270.509L5889.84,270.417L5889.78,270.325L5889.72,270.232L5889.66,270.138L5889.6,270.044L5889.54,269.95L5889.48,269.855L5889.43,269.76L5889.37,269.664L5889.32,269.568L5889.26,269.471L5889.21,269.374L5889.15,269.277L5889.1,269.179L5889.05,269.08L5889,268.982L5888.95,268.882L5888.9,268.783L5888.86,268.683L5888.81,268.582L5888.76,268.481L5888.72,268.38L5888.67,268.278L5888.63,268.176L5888.59,268.074L5889.96,265.875L5887.67,264.655L5887.66,264.545L5887.64,264.435L5887.63,264.325L5887.62,264.214L5887.61,264.104L5887.6,263.993L5887.59,263.883L5887.58,263.772L5887.58,263.661L5887.57,263.551L5887.57,263.44L5887.56,263.329L5887.56,263.218L5887.56,263.108L5887.55,262.997L5887.55,262.886L5887.55,262.775L5887.56,262.664L5887.56,262.554L5887.56,262.443L5887.57,262.332L5887.57,262.221L5887.58,262.111L5887.58,262L5887.59,261.889L5887.6,261.779L5887.61,261.668L5887.62,261.558L5887.63,261.447L5887.64,261.337L5887.66,261.227L5887.67,261.117L5889.96,259.897L5888.59,257.698L5888.63,257.596L5888.67,257.494L5888.72,257.392L5888.76,257.291L5888.81,257.19L5888.86,257.089L5888.9,256.989L5888.95,256.89L5889,256.79L5889.05,256.692L5889.1,256.593L5889.15,256.495L5889.21,256.398L5889.26,256.301L5889.32,256.204L5889.37,256.108L5889.43,256.012L5889.48,255.917L5889.54,255.822L5889.6,255.728L5889.66,255.634L5889.72,255.54L5889.78,255.447L5889.84,255.355L5889.9,255.263L5889.96,255.171L5890.03,255.08L5890.09,254.99L5890.16,254.9L5890.22,254.811L5890.29,254.722L5890.36,254.633L5892.94,254.72L5892.86,252.131L5892.95,252.064L5893.03,251.997L5893.12,251.931L5893.21,251.866L5893.31,251.802L5893.4,251.739L5893.49,251.676L5893.58,251.614L5893.67,251.553L5893.76,251.492L5893.86,251.433L5893.95,251.374L5894.05,251.316L5894.14,251.258L5894.24,251.202L5894.33,251.146L5894.43,251.091L5894.53,251.037L5894.62,250.983L5894.72,250.93L5894.82,250.879L5894.92,250.827L5895.02,250.777L5895.11,250.728L5895.21,250.679L5895.31,250.631L5895.41,250.584L5895.52,250.538L5895.62,250.493L5895.72,250.448L5895.82,250.404L5895.92,250.361L5898.12,251.732L5899.34,249.446L5899.45,249.431L5899.56,249.418L5899.67,249.406L5899.78,249.395L5899.89,249.384L5900,249.375L5900.11,249.366L5900.22,249.359L5900.34,249.352L5900.44,249.346L5900.56,249.341L5900.67,249.337L5900.78,249.334L5900.89,249.331L5901,249.33L5901.11,249.33L5901.22,249.33ZM5901.01,250.379L5900.91,250.381L5900.8,250.383L5900.7,250.386L5900.6,250.39L5900.5,250.394L5900.4,250.4L5900.29,250.406L5900.19,250.413L5900.09,250.421L5900.01,250.428L5899.05,252.226L5899,252.312L5898.94,252.394L5898.87,252.469L5898.79,252.537L5898.71,252.598L5898.63,252.651L5898.54,252.696L5898.44,252.731L5898.34,252.757L5898.24,252.774L5898.14,252.781L5898.04,252.778L5897.94,252.766L5897.84,252.744L5897.75,252.712L5897.65,252.672L5897.57,252.622L5895.84,251.545L5895.76,251.58L5895.67,251.624L5895.58,251.669L5895.49,251.715L5895.4,251.761L5895.31,251.808L5895.21,251.856L5895.12,251.905L5895.03,251.954L5894.95,252.004L5894.86,252.055L5894.77,252.106L5894.68,252.158L5894.59,252.211L5894.51,252.265L5894.42,252.319L5894.33,252.374L5894.25,252.43L5894.16,252.487L5894.08,252.544L5893.99,252.602L5893.93,252.649L5893.99,254.685L5893.99,254.786L5893.98,254.887L5893.96,254.986L5893.93,255.082L5893.89,255.175L5893.84,255.264L5893.79,255.348L5893.72,255.426L5893.65,255.497L5893.57,255.562L5893.49,255.618L5893.4,255.666L5893.31,255.706L5893.21,255.736L5893.11,255.757L5893.01,255.768L5892.91,255.769L5890.87,255.701L5890.83,255.769L5890.77,255.853L5890.71,255.938L5890.65,256.023L5890.6,256.109L5890.54,256.195L5890.49,256.282L5890.44,256.369L5890.38,256.456L5890.33,256.544L5890.28,256.633L5890.23,256.721L5890.18,256.811L5890.13,256.9L5890.08,256.99L5890.03,257.08L5889.98,257.171L5889.94,257.262L5889.89,257.354L5889.85,257.446L5889.8,257.538L5889.77,257.613L5890.85,259.342L5890.9,259.43L5890.94,259.523L5890.97,259.619L5890.99,259.718L5891,259.818L5891.01,259.919L5891,260.02L5890.98,260.12L5890.95,260.217L5890.92,260.312L5890.88,260.403L5890.82,260.489L5890.76,260.57L5890.69,260.644L5890.62,260.711L5890.54,260.771L5890.45,260.823L5888.65,261.782L5888.65,261.864L5888.64,261.966L5888.63,262.069L5888.62,262.171L5888.62,262.273L5888.61,262.375L5888.61,262.477L5888.61,262.579L5888.61,262.682L5888.6,262.784L5888.6,262.886L5888.6,262.988L5888.61,263.09L5888.61,263.193L5888.61,263.295L5888.61,263.397L5888.62,263.499L5888.62,263.601L5888.63,263.703L5888.64,263.806L5888.65,263.908L5888.65,263.99L5890.45,264.949L5890.54,265.001L5890.62,265.061L5890.69,265.128L5890.76,265.202L5890.82,265.283L5890.88,265.369L5890.92,265.46L5890.95,265.555L5890.98,265.652L5891,265.752L5891.01,265.853L5891,265.954L5890.99,266.054L5890.97,266.153L5890.94,266.249L5890.9,266.342L5890.85,266.43L5889.77,268.159L5889.8,268.234L5889.85,268.326L5889.89,268.418L5889.94,268.51L5889.98,268.601L5890.03,268.692L5890.08,268.782L5890.13,268.872L5890.18,268.961L5890.23,269.051L5890.28,269.139L5890.33,269.228L5890.38,269.316L5890.44,269.403L5890.49,269.49L5890.54,269.577L5890.6,269.663L5890.65,269.749L5890.71,269.834L5890.77,269.919L5890.83,270.003L5890.87,270.071L5892.91,270.003L5893.01,270.004L5893.11,270.015L5893.21,270.036L5893.31,270.066L5893.4,270.106L5893.49,270.154L5893.57,270.21L5893.65,270.275L5893.72,270.346L5893.79,270.424L5893.84,270.508L5893.89,270.597L5893.93,270.69L5893.96,270.786L5893.98,270.885L5893.99,270.986L5893.99,271.087L5893.93,273.123L5893.99,273.17L5894.08,273.228L5894.16,273.285L5894.25,273.342L5894.33,273.398L5894.42,273.453L5894.51,273.507L5894.59,273.561L5894.68,273.614L5894.77,273.666L5894.86,273.717L5894.95,273.768L5895.03,273.818L5895.12,273.867L5895.21,273.916L5895.31,273.964L5895.4,274.011L5895.49,274.057L5895.58,274.103L5895.67,274.148L5895.76,274.192L5895.84,274.227L5897.57,273.15L5897.65,273.1L5897.75,273.06L5897.84,273.028L5897.94,273.006L5898.04,272.994L5898.14,272.991L5898.24,272.998L5898.34,273.015L5898.44,273.041L5898.54,273.076L5898.63,273.121L5898.71,273.174L5898.79,273.235L5898.87,273.303L5898.94,273.378L5899,273.46L5899.05,273.546L5900.01,275.344L5900.09,275.351L5900.19,275.359L5900.29,275.366L5900.4,275.372L5900.5,275.378L5900.6,275.382L5900.7,275.386L5900.8,275.389L5900.91,275.391L5901.01,275.393L5901.11,275.393L5901.21,275.393L5901.32,275.391L5901.42,275.389L5901.52,275.386L5901.62,275.382L5901.72,275.378L5901.83,275.372L5901.93,275.366L5902.03,275.359L5902.13,275.351L5902.21,275.344L5903.17,273.546L5903.23,273.46L5903.28,273.378L5903.35,273.303L5903.43,273.235L5903.51,273.174L5903.59,273.121L5903.68,273.076L5903.78,273.041L5903.88,273.015L5903.98,272.998L5904.08,272.991L5904.18,272.994L5904.28,273.006L5904.38,273.028L5904.47,273.06L5904.57,273.1L5904.65,273.15L5906.38,274.227L5906.46,274.192L5906.55,274.148L5906.64,274.103L5906.73,274.057L5906.82,274.011L5906.92,273.964L5907.01,273.916L5907.1,273.867L5907.19,273.818L5907.28,273.768L5907.36,273.717L5907.45,273.666L5907.54,273.614L5907.63,273.561L5907.72,273.507L5907.8,273.453L5907.89,273.398L5907.97,273.342L5908.06,273.285L5908.14,273.228L5908.23,273.17L5908.3,273.123L5908.23,271.087L5908.23,270.986L5908.24,270.885L5908.26,270.786L5908.29,270.69L5908.33,270.597L5908.38,270.508L5908.44,270.424L5908.5,270.346L5908.57,270.275L5908.65,270.21L5908.73,270.154L5908.82,270.106L5908.91,270.066L5909.01,270.036L5909.11,270.015L5909.21,270.004L5909.31,270.003L5911.35,270.071L5911.4,270.003L5911.45,269.919L5911.51,269.834L5911.57,269.749L5911.62,269.663L5911.68,269.577L5911.73,269.49L5911.78,269.403L5911.84,269.316L5911.89,269.228L5911.94,269.139L5911.99,269.051L5912.04,268.961L5912.09,268.872L5912.14,268.782L5912.19,268.691L5912.23,268.601L5912.28,268.51L5912.33,268.418L5912.37,268.326L5912.42,268.234L5912.45,268.159L5911.37,266.43L5911.32,266.342L5911.28,266.249L5911.25,266.153L5911.23,266.054L5911.22,265.954L5911.22,265.853L5911.22,265.752L5911.24,265.652L5911.27,265.555L5911.3,265.46L5911.35,265.369L5911.4,265.283L5911.46,265.202L5911.53,265.128L5911.6,265.061L5911.68,265.001L5911.77,264.949L5913.57,263.99L5913.57,263.908L5913.58,263.805L5913.59,263.704L5913.6,263.602L5913.6,263.499L5913.61,263.397L5913.61,263.295L5913.61,263.193L5913.61,263.091L5913.62,262.988L5913.62,262.886L5913.62,262.784L5913.61,262.681L5913.61,262.579L5913.61,262.477L5913.61,262.375L5913.6,262.273L5913.6,262.17L5913.59,262.068L5913.58,261.967L5913.57,261.864L5913.57,261.782L5911.77,260.823L5911.68,260.771L5911.6,260.711L5911.53,260.644L5911.46,260.57L5911.4,260.489L5911.35,260.403L5911.3,260.312L5911.27,260.217L5911.24,260.12L5911.22,260.02L5911.22,259.919L5911.22,259.818L5911.23,259.718L5911.25,259.619L5911.28,259.523L5911.32,259.43L5911.37,259.342L5912.45,257.613L5912.42,257.538L5912.37,257.446L5912.33,257.354L5912.28,257.262L5912.23,257.171L5912.19,257.081L5912.14,256.99L5912.09,256.9L5912.04,256.811L5911.99,256.721L5911.94,256.633L5911.89,256.544L5911.84,256.456L5911.78,256.369L5911.73,256.282L5911.68,256.195L5911.62,256.109L5911.57,256.023L5911.51,255.938L5911.45,255.853L5911.4,255.769L5911.35,255.701L5909.31,255.769L5909.21,255.768L5909.11,255.757L5909.01,255.736L5908.91,255.706L5908.82,255.666L5908.73,255.618L5908.65,255.562L5908.57,255.497L5908.5,255.426L5908.44,255.348L5908.38,255.264L5908.33,255.175L5908.29,255.082L5908.26,254.986L5908.24,254.887L5908.23,254.786L5908.23,254.685L5908.3,252.649L5908.23,252.602L5908.14,252.544L5908.06,252.487L5907.97,252.43L5907.89,252.374L5907.8,252.319L5907.72,252.265L5907.63,252.211L5907.54,252.158L5907.45,252.106L5907.36,252.055L5907.28,252.004L5907.19,251.954L5907.1,251.905L5907.01,251.856L5906.92,251.808L5906.82,251.761L5906.73,251.715L5906.64,251.669L5906.55,251.624L5906.46,251.58L5906.38,251.545L5904.65,252.622L5904.57,252.672L5904.47,252.712L5904.38,252.744L5904.28,252.766L5904.18,252.778L5904.08,252.781L5903.98,252.774L5903.88,252.757L5903.78,252.731L5903.68,252.696L5903.59,252.651L5903.51,252.598L5903.43,252.537L5903.35,252.469L5903.28,252.394L5903.23,252.312L5903.17,252.226L5902.21,250.428L5902.13,250.421L5902.03,250.413L5901.93,250.406L5901.83,250.4L5901.72,250.394L5901.62,250.39L5901.52,250.386L5901.42,250.383L5901.32,250.381L5901.21,250.379L5901.11,250.379L5901.01,250.379ZM5901.26,257.037L5901.41,257.042L5901.56,257.052L5901.71,257.065L5901.85,257.082L5902,257.102L5902.14,257.126L5902.29,257.154L5902.43,257.185L5902.57,257.219L5902.71,257.257L5902.85,257.298L5902.99,257.343L5903.12,257.39L5903.26,257.441L5903.39,257.495L5903.52,257.552L5903.65,257.613L5903.77,257.676L5903.9,257.742L5904.02,257.811L5904.15,257.883L5904.26,257.958L5904.38,258.035L5904.5,258.115L5904.61,258.198L5904.72,258.284L5904.83,258.372L5904.94,258.462L5905.04,258.556L5905.15,258.651L5905.25,258.749L5905.35,258.849L5905.44,258.952L5905.53,259.057L5905.62,259.164L5905.71,259.274L5905.8,259.385L5905.88,259.499L5905.96,259.614L5906.04,259.732L5906.11,259.852L5906.19,259.973L5906.25,260.097L5906.32,260.222L5906.38,260.349L5906.44,260.478L5906.5,260.609L5906.56,260.741L5906.61,260.875L5906.65,261.01L5906.7,261.147L5906.74,261.285L5906.78,261.425L5906.81,261.566L5906.84,261.708L5906.87,261.852L5906.89,261.997L5906.91,262.142L5906.93,262.289L5906.94,262.437L5906.95,262.586L5906.96,262.736L5906.96,262.886L5906.96,263.036L5906.95,263.186L5906.94,263.335L5906.93,263.483L5906.91,263.63L5906.89,263.776L5906.87,263.92L5906.84,264.064L5906.81,264.206L5906.78,264.347L5906.74,264.487L5906.7,264.625L5906.65,264.762L5906.61,264.897L5906.56,265.031L5906.5,265.163L5906.44,265.294L5906.38,265.423L5906.32,265.55L5906.25,265.675L5906.19,265.799L5906.11,265.92L5906.04,266.04L5905.96,266.158L5905.88,266.273L5905.8,266.387L5905.71,266.498L5905.62,266.608L5905.53,266.715L5905.44,266.82L5905.35,266.923L5905.25,267.023L5905.15,267.121L5905.04,267.216L5904.94,267.31L5904.83,267.4L5904.72,267.488L5904.61,267.574L5904.5,267.657L5904.38,267.737L5904.26,267.814L5904.15,267.889L5904.02,267.961L5903.9,268.03L5903.77,268.096L5903.65,268.159L5903.52,268.22L5903.39,268.277L5903.26,268.331L5903.12,268.382L5902.99,268.429L5902.85,268.474L5902.71,268.515L5902.57,268.553L5902.43,268.587L5902.29,268.618L5902.14,268.646L5902,268.67L5901.85,268.69L5901.71,268.707L5901.56,268.72L5901.41,268.73L5901.26,268.735L5901.11,268.737L5900.96,268.735L5900.81,268.73L5900.66,268.72L5900.51,268.707L5900.37,268.69L5900.22,268.67L5900.08,268.646L5899.93,268.618L5899.79,268.587L5899.65,268.553L5899.51,268.515L5899.37,268.474L5899.23,268.429L5899.1,268.382L5898.97,268.331L5898.83,268.277L5898.7,268.22L5898.57,268.159L5898.45,268.096L5898.32,268.03L5898.2,267.961L5898.08,267.889L5897.96,267.814L5897.84,267.737L5897.72,267.657L5897.61,267.574L5897.5,267.488L5897.39,267.4L5897.28,267.309L5897.18,267.216L5897.07,267.121L5896.97,267.023L5896.88,266.923L5896.78,266.82L5896.69,266.715L5896.6,266.608L5896.51,266.498L5896.42,266.387L5896.34,266.273L5896.26,266.158L5896.18,266.04L5896.11,265.92L5896.03,265.799L5895.97,265.675L5895.9,265.55L5895.84,265.423L5895.78,265.294L5895.72,265.163L5895.67,265.031L5895.61,264.897L5895.57,264.762L5895.52,264.625L5895.48,264.487L5895.44,264.347L5895.41,264.206L5895.38,264.064L5895.35,263.92L5895.33,263.776L5895.31,263.63L5895.29,263.483L5895.28,263.335L5895.27,263.186L5895.26,263.037L5895.26,262.886L5895.26,262.735L5895.27,262.586L5895.28,262.437L5895.29,262.289L5895.31,262.142L5895.33,261.997L5895.35,261.852L5895.38,261.708L5895.41,261.566L5895.44,261.425L5895.48,261.285L5895.52,261.147L5895.57,261.01L5895.61,260.875L5895.67,260.741L5895.72,260.609L5895.78,260.478L5895.84,260.349L5895.9,260.222L5895.97,260.097L5896.03,259.973L5896.11,259.852L5896.18,259.732L5896.26,259.614L5896.34,259.499L5896.42,259.385L5896.51,259.274L5896.6,259.164L5896.69,259.057L5896.78,258.952L5896.88,258.849L5896.97,258.749L5897.07,258.651L5897.18,258.556L5897.28,258.463L5897.39,258.372L5897.5,258.284L5897.61,258.198L5897.72,258.115L5897.84,258.035L5897.96,257.958L5898.08,257.883L5898.2,257.811L5898.32,257.742L5898.45,257.676L5898.57,257.613L5898.7,257.552L5898.83,257.495L5898.97,257.441L5899.1,257.39L5899.23,257.343L5899.37,257.298L5899.51,257.257L5899.65,257.219L5899.79,257.185L5899.93,257.154L5900.08,257.126L5900.22,257.102L5900.37,257.082L5900.51,257.065L5900.66,257.052L5900.81,257.042L5900.96,257.037L5901.11,257.035L5901.26,257.037ZM5900.99,258.086L5900.86,258.09L5900.74,258.098L5900.62,258.109L5900.5,258.123L5900.38,258.14L5900.26,258.159L5900.14,258.182L5900.03,258.207L5899.91,258.236L5899.8,258.267L5899.68,258.3L5899.57,258.337L5899.46,258.376L5899.35,258.418L5899.24,258.462L5899.14,258.509L5899.03,258.558L5898.93,258.61L5898.82,258.664L5898.72,258.721L5898.62,258.78L5898.52,258.841L5898.43,258.905L5898.33,258.971L5898.24,259.039L5898.15,259.109L5898.06,259.181L5897.97,259.256L5897.88,259.332L5897.8,259.411L5897.72,259.491L5897.64,259.574L5897.56,259.658L5897.48,259.744L5897.4,259.832L5897.33,259.922L5897.26,260.014L5897.19,260.107L5897.13,260.202L5897.07,260.299L5897,260.397L5896.94,260.497L5896.89,260.598L5896.83,260.701L5896.78,260.805L5896.73,260.911L5896.69,261.018L5896.64,261.126L5896.6,261.236L5896.56,261.347L5896.52,261.459L5896.49,261.572L5896.46,261.687L5896.43,261.802L5896.41,261.919L5896.38,262.036L5896.36,262.155L5896.35,262.275L5896.33,262.395L5896.32,262.517L5896.32,262.639L5896.31,262.762L5896.31,262.886L5896.31,263.01L5896.32,263.133L5896.32,263.255L5896.33,263.377L5896.35,263.497L5896.36,263.617L5896.38,263.736L5896.41,263.853L5896.43,263.97L5896.46,264.085L5896.49,264.2L5896.52,264.313L5896.56,264.425L5896.6,264.536L5896.64,264.646L5896.69,264.754L5896.73,264.861L5896.78,264.967L5896.83,265.071L5896.89,265.174L5896.94,265.275L5897,265.375L5897.07,265.473L5897.13,265.57L5897.19,265.665L5897.26,265.758L5897.33,265.85L5897.4,265.94L5897.48,266.028L5897.56,266.114L5897.64,266.198L5897.72,266.281L5897.8,266.361L5897.88,266.44L5897.97,266.516L5898.06,266.591L5898.15,266.663L5898.24,266.733L5898.33,266.801L5898.43,266.867L5898.52,266.931L5898.62,266.992L5898.72,267.051L5898.82,267.108L5898.93,267.162L5899.03,267.214L5899.14,267.263L5899.24,267.31L5899.35,267.354L5899.46,267.396L5899.57,267.435L5899.68,267.472L5899.8,267.505L5899.91,267.536L5900.03,267.565L5900.14,267.59L5900.26,267.613L5900.38,267.632L5900.5,267.649L5900.62,267.663L5900.74,267.674L5900.86,267.682L5900.99,267.686L5901.11,267.688L5901.23,267.686L5901.36,267.682L5901.48,267.674L5901.6,267.663L5901.72,267.649L5901.84,267.632L5901.96,267.613L5902.08,267.59L5902.19,267.565L5902.31,267.536L5902.42,267.505L5902.54,267.472L5902.65,267.435L5902.76,267.396L5902.87,267.354L5902.98,267.31L5903.09,267.263L5903.19,267.214L5903.3,267.162L5903.4,267.108L5903.5,267.051L5903.6,266.992L5903.7,266.931L5903.79,266.867L5903.89,266.801L5903.98,266.733L5904.07,266.663L5904.16,266.591L5904.25,266.516L5904.34,266.44L5904.42,266.361L5904.51,266.281L5904.59,266.198L5904.66,266.114L5904.74,266.028L5904.82,265.94L5904.89,265.85L5904.96,265.758L5905.03,265.665L5905.09,265.57L5905.15,265.473L5905.22,265.375L5905.28,265.275L5905.33,265.174L5905.39,265.071L5905.44,264.967L5905.49,264.861L5905.53,264.754L5905.58,264.646L5905.62,264.536L5905.66,264.425L5905.7,264.313L5905.73,264.2L5905.76,264.085L5905.79,263.97L5905.81,263.853L5905.84,263.736L5905.86,263.617L5905.87,263.497L5905.89,263.377L5905.9,263.255L5905.91,263.133L5905.91,263.01L5905.91,262.886L5905.91,262.762L5905.91,262.639L5905.9,262.517L5905.89,262.395L5905.87,262.275L5905.86,262.155L5905.84,262.036L5905.81,261.919L5905.79,261.802L5905.76,261.687L5905.73,261.572L5905.7,261.459L5905.66,261.347L5905.62,261.236L5905.58,261.126L5905.53,261.018L5905.49,260.911L5905.44,260.805L5905.39,260.701L5905.33,260.598L5905.28,260.497L5905.22,260.397L5905.15,260.299L5905.09,260.202L5905.03,260.107L5904.96,260.014L5904.89,259.922L5904.82,259.832L5904.74,259.744L5904.66,259.658L5904.59,259.574L5904.51,259.491L5904.42,259.411L5904.34,259.332L5904.25,259.256L5904.16,259.181L5904.07,259.109L5903.98,259.039L5903.89,258.971L5903.79,258.905L5903.7,258.841L5903.6,258.78L5903.5,258.721L5903.4,258.664L5903.3,258.61L5903.19,258.558L5903.09,258.509L5902.98,258.462L5902.87,258.418L5902.76,258.376L5902.65,258.337L5902.54,258.3L5902.42,258.267L5902.31,258.236L5902.19,258.207L5902.08,258.182L5901.96,258.159L5901.84,258.14L5901.72,258.123L5901.6,258.109L5901.48,258.098L5901.36,258.09L5901.23,258.086L5901.11,258.084L5900.99,258.086Z" style="fill:rgb(59,72,84);"/>
                </g>
            </g>
        </g>
    </g>
</svg>
