<?xml version="1.0" encoding="UTF-8" standalone="no"?>
<!DOCTYPE svg PUBLIC "-//W3C//DTD SVG 1.1//EN" "http://www.w3.org/Graphics/SVG/1.1/DTD/svg11.dtd">
<svg width="100%" height="100%" viewBox="0 0 413 80" version="1.1" xmlns="http://www.w3.org/2000/svg" xmlns:xlink="http://www.w3.org/1999/xlink" xml:space="preserve" style="fill-rule:evenodd;clip-rule:evenodd;stroke-linecap:round;stroke-linejoin:round;stroke-miterlimit:1.5;">
    <g transform="matrix(1,0,0,1,0,-123)">
        <g id="Logo--Footer" transform="matrix(4.48913,0,0,0.869565,0,123)">
            <rect x="0" y="0" width="92" height="92" style="fill:none;"/>
            <g id="logo" transform="matrix(0.152445,0,0,2.56442,-28.5232,-0.48754)">
                <g transform="matrix(0.211582,0,0,0.0654911,171.563,-75.5387)">
                    <path d="M487.421,1524.19C487.421,1524.19 462.921,1533.69 408.365,1524.85C356.503,1516.46 308.143,1501.52 299.769,1496.2C292.839,1491.8 286.225,1485.15 290.365,1463.85C293.916,1445.59 305.865,1390.35 318.365,1352.85C330.865,1315.35 353.754,1264.33 359.532,1254.85C364.477,1246.74 371.532,1242.42 382.199,1244.04C400.059,1246.73 484.365,1265.85 530.865,1279.85C570.994,1291.93 631.41,1317.14 639.865,1321.91C647.643,1326.3 653.699,1337.3 647.31,1349.91C639.119,1366.08 589.865,1460.35 537.365,1520.35C509.085,1552.67 474.953,1588.51 429.344,1607.59C391.356,1623.48 343.902,1627.02 299.246,1613.97C197.652,1584.3 162.425,1489.39 161.425,1444.39L162.428,1444.29C162.428,1444.29 165.603,1489.88 196.604,1530.66C220.845,1562.54 251.935,1582.2 283.715,1593.23C330.813,1607.38 363.917,1603.18 399.644,1591.97C440.643,1576.69 469.954,1550.73 487.421,1524.19Z" style="fill:none;stroke:rgb(255,99,52);stroke-width:6.88px;"/>
                </g>
                <g transform="matrix(0.211582,0,0,0.0654911,167.563,-76.7768)">
                    <path d="M487.421,1524.19C487.421,1524.19 462.921,1533.69 408.365,1524.85C356.503,1516.46 308.143,1501.52 299.769,1496.2C292.839,1491.8 286.225,1485.15 290.365,1463.85C293.916,1445.59 305.865,1390.35 318.365,1352.85C330.865,1315.35 353.754,1264.33 359.532,1254.85C364.477,1246.74 371.532,1242.42 382.199,1244.04C400.059,1246.73 484.365,1265.85 530.865,1279.85C570.994,1291.93 631.41,1317.14 639.865,1321.91C647.643,1326.3 653.699,1337.3 647.31,1349.91C639.119,1366.08 589.865,1460.35 537.365,1520.35C509.085,1552.67 474.953,1588.51 429.344,1607.59C391.356,1623.48 343.902,1627.02 299.246,1613.97C197.652,1584.3 162.425,1489.39 161.425,1444.39L162.428,1444.29C162.428,1444.29 165.603,1489.88 196.604,1530.66C220.845,1562.54 251.935,1582.2 283.715,1593.23C330.813,1607.38 363.917,1603.18 399.644,1591.97C440.643,1576.69 469.954,1550.73 487.421,1524.19Z" style="fill:white;"/>
                </g>
            </g>
            <g transform="matrix(0.887941,0,0,4.584,-157.604,-699.247)">
                <text x="202.079px" y="161.993px" style="font-family:'Georgia', serif;font-size:7.526px;fill:white;">apostrofe design studio</text>
            </g>
            <g transform="matrix(0.887941,0,0,4.584,-157.529,-673.384)">
                <text x="202.079px" y="161.993px" style="font-family:'Raleway-Medium', 'Raleway', sans-serif;font-weight:500;font-size:3.512px;fill:white;">a User Experience Company</text>
            </g>
        </g>
    </g>
</svg>
