<?xml version="1.0" encoding="UTF-8" standalone="no"?>
<!DOCTYPE svg PUBLIC "-//W3C//DTD SVG 1.1//EN" "http://www.w3.org/Graphics/SVG/1.1/DTD/svg11.dtd">
<svg width="100%" height="100%" viewBox="0 0 800 204" version="1.1" xmlns="http://www.w3.org/2000/svg" xmlns:xlink="http://www.w3.org/1999/xlink" xml:space="preserve" style="fill-rule:evenodd;clip-rule:evenodd;stroke-linejoin:round;stroke-miterlimit:1.5;">
    <g transform="matrix(1,0,0,1,-505.333,-333.8)">
        <g id="process" transform="matrix(2.94435,0,0,1.06771,516.083,-22.6002)">
            <rect x="-3.651" y="333.8" width="271.707" height="191.064" style="fill:none;"/>
            <g id="process-diagram" transform="matrix(0.296039,0,0,2.4368,-476.533,-34.0849)">
                <g transform="matrix(1.06939,0,0,1.06939,-110.933,41.2515)">
                    <g transform="matrix(1.03914,0,0,1.12471,1286.75,-470.568)">
                        <g transform="matrix(1,0,0,0.30953,-1397,-8.04778)">
                            <path d="M1706.22,1756.35C1715.32,1712.12 1754.5,1678.81 1801.41,1678.81C1848.41,1678.81 1887.67,1712.26 1896.65,1756.63" style="fill:white;stroke:rgb(59,72,84);stroke-width:1.03px;"/>
                        </g>
                        <g transform="matrix(0.943718,-0.102378,0.330752,0.292109,-1867.97,222.565)">
                            <path d="M1890.02,1730.63L1899.65,1739.63L1909.73,1730.63" style="fill:rgb(59,72,84);"/>
                        </g>
                    </g>
                    <g transform="matrix(-1.03914,0,0,-1.12471,2127.32,749.087)">
                        <g transform="matrix(1,0,0,0.30953,-1397,-8.04778)">
                            <path d="M1706.22,1756.35C1715.32,1712.12 1754.5,1678.81 1801.41,1678.81C1848.41,1678.81 1887.67,1712.26 1896.65,1756.63" style="fill:white;"/>
                            <path d="M1797.57,1678.37L1798.11,1678.35L1798.65,1678.34L1799.2,1678.32L1799.75,1678.31L1800.16,1678.31L1800.17,1679.34L1799.77,1679.34L1799.23,1679.35L1798.68,1679.37L1798.14,1679.38L1797.6,1679.4L1797.57,1678.37ZM1805.23,1679.4L1804.68,1679.38L1804.14,1679.37L1803.6,1679.35L1803.05,1679.34L1802.74,1679.34L1802.75,1678.31L1803.07,1678.31L1803.62,1678.32L1804.17,1678.34L1804.72,1678.35L1805.27,1678.37L1805.35,1678.38L1805.3,1679.41L1805.23,1679.4ZM1792.39,1678.71L1792.66,1678.68L1793.2,1678.64L1793.75,1678.59L1794.29,1678.55L1794.83,1678.52L1794.97,1678.51L1795.04,1679.54L1794.9,1679.55L1794.36,1679.58L1793.83,1679.62L1793.29,1679.67L1792.76,1679.71L1792.48,1679.74L1792.39,1678.71ZM1810.08,1679.71L1809.54,1679.67L1809.01,1679.63L1808.47,1679.58L1807.93,1679.55L1807.87,1679.54L1807.94,1678.51L1808,1678.52L1808.54,1678.56L1809.09,1678.6L1809.63,1678.64L1810.17,1678.69L1810.52,1678.72L1810.43,1679.75L1810.08,1679.71ZM1787.23,1679.32L1787.31,1679.31L1787.84,1679.23L1788.37,1679.16L1788.9,1679.09L1789.44,1679.03L1789.81,1678.98L1789.93,1680.01L1789.56,1680.05L1789.04,1680.12L1788.51,1680.18L1787.98,1680.26L1787.45,1680.33L1787.38,1680.34L1787.23,1679.32ZM1815.39,1680.34L1814.87,1680.26L1814.34,1680.19L1813.81,1680.12L1813.28,1680.05L1812.98,1680.02L1813.1,1678.99L1813.4,1679.03L1813.94,1679.1L1814.47,1679.16L1815.01,1679.24L1815.54,1679.31L1815.68,1679.33L1815.53,1680.36L1815.39,1680.34ZM1782.12,1680.2L1782.56,1680.12L1783.08,1680.02L1783.61,1679.92L1784.13,1679.82L1784.66,1679.73L1784.67,1679.73L1784.85,1680.75L1784.84,1680.75L1784.32,1680.84L1783.8,1680.93L1783.28,1681.03L1782.76,1681.13L1782.32,1681.22L1782.12,1680.2ZM1820.1,1681.14L1819.58,1681.04L1819.06,1680.94L1818.54,1680.85L1818.06,1680.76L1818.24,1679.75L1818.72,1679.83L1819.25,1679.92L1819.77,1680.02L1820.3,1680.13L1820.79,1680.22L1820.59,1681.24L1820.1,1681.14ZM1777.06,1681.36L1777.38,1681.28L1777.9,1681.15L1778.41,1681.03L1778.93,1680.9L1779.44,1680.78L1779.59,1680.75L1779.81,1681.76L1779.67,1681.79L1779.16,1681.91L1778.65,1682.03L1778.14,1682.15L1777.64,1682.28L1777.32,1682.36L1777.06,1681.36ZM1825.23,1682.29L1824.72,1682.16L1824.21,1682.04L1823.7,1681.92L1823.19,1681.8L1823.09,1681.78L1823.32,1680.77L1823.42,1680.79L1823.94,1680.91L1824.45,1681.04L1824.97,1681.16L1825.48,1681.29L1825.85,1681.38L1825.59,1682.38L1825.23,1682.29ZM1772.07,1682.79L1772.31,1682.71L1772.82,1682.56L1773.32,1682.4L1773.82,1682.25L1774.33,1682.11L1774.56,1682.04L1774.84,1683.03L1774.61,1683.1L1774.11,1683.24L1773.62,1683.39L1773.12,1683.54L1772.62,1683.7L1772.38,1683.77L1772.07,1682.79ZM1830.25,1683.71L1829.76,1683.56L1829.26,1683.41L1828.76,1683.26L1828.26,1683.11L1828.07,1683.06L1828.35,1682.07L1828.54,1682.12L1829.05,1682.27L1829.55,1682.42L1830.06,1682.57L1830.56,1682.73L1830.83,1682.82L1830.52,1683.8L1830.25,1683.71ZM1767.17,1684.48L1767.36,1684.4L1767.85,1684.22L1768.34,1684.05L1768.83,1683.87L1769.33,1683.7L1769.61,1683.6L1769.95,1684.58L1769.66,1684.67L1769.18,1684.84L1768.69,1685.02L1768.2,1685.19L1767.72,1685.37L1767.53,1685.44L1767.17,1684.48ZM1835.16,1685.4L1834.68,1685.22L1834.19,1685.04L1833.7,1684.87L1833.21,1684.69L1832.96,1684.61L1833.3,1683.63L1833.55,1683.72L1834.05,1683.89L1834.54,1684.07L1835.03,1684.25L1835.53,1684.43L1835.74,1684.51L1835.37,1685.48L1835.16,1685.4ZM1762.36,1686.43L1762.53,1686.35L1763,1686.15L1763.48,1685.94L1763.96,1685.74L1764.44,1685.54L1764.75,1685.42L1765.14,1686.38L1764.84,1686.5L1764.36,1686.7L1763.88,1686.89L1763.41,1687.1L1762.94,1687.3L1762.77,1687.37L1762.36,1686.43ZM1839.95,1687.33L1839.48,1687.13L1839.01,1686.92L1838.53,1686.73L1838.05,1686.53L1837.77,1686.41L1838.15,1685.45L1838.44,1685.57L1838.93,1685.77L1839.41,1685.97L1839.89,1686.18L1840.37,1686.39L1840.55,1686.47L1840.13,1687.41L1839.95,1687.33ZM1757.66,1688.63L1757.83,1688.55L1758.29,1688.32L1758.76,1688.09L1759.22,1687.86L1759.69,1687.64L1760,1687.5L1760.43,1688.43L1760.13,1688.57L1759.67,1688.8L1759.21,1689.02L1758.75,1689.24L1758.29,1689.47L1758.13,1689.55L1757.66,1688.63ZM1844.61,1689.51L1844.15,1689.28L1843.69,1689.06L1843.23,1688.83L1842.76,1688.61L1842.47,1688.47L1842.91,1687.54L1843.21,1687.68L1843.67,1687.9L1844.14,1688.13L1844.61,1688.36L1845.07,1688.59L1845.24,1688.67L1844.78,1689.6L1844.61,1689.51ZM1753.09,1691.08L1753.27,1690.98L1753.72,1690.73L1754.17,1690.48L1754.62,1690.23L1755.07,1689.98L1755.36,1689.83L1755.85,1690.74L1755.56,1690.89L1755.12,1691.13L1754.67,1691.38L1754.22,1691.63L1753.78,1691.88L1753.6,1691.98L1753.09,1691.08ZM1849.13,1691.93L1848.68,1691.68L1848.24,1691.43L1847.79,1691.18L1847.34,1690.93L1847.05,1690.78L1847.54,1689.87L1847.83,1690.03L1848.29,1690.27L1848.74,1690.52L1849.19,1690.78L1849.64,1691.03L1849.81,1691.13L1849.3,1692.03L1849.13,1691.93ZM1748.65,1693.77L1748.85,1693.64L1749.29,1693.37L1749.72,1693.09L1750.16,1692.82L1750.6,1692.55L1750.85,1692.4L1751.39,1693.28L1751.14,1693.43L1750.7,1693.7L1750.27,1693.97L1749.84,1694.24L1749.41,1694.51L1749.21,1694.64L1748.65,1693.77ZM1853.5,1694.57L1853.07,1694.3L1852.64,1694.03L1852.2,1693.76L1851.77,1693.49L1851.51,1693.33L1852.05,1692.45L1852.31,1692.61L1852.75,1692.88L1853.19,1693.15L1853.62,1693.43L1854.06,1693.7L1854.25,1693.82L1853.68,1694.69L1853.5,1694.57ZM1744.36,1696.69L1744.6,1696.53L1745.01,1696.23L1745.43,1695.93L1745.86,1695.64L1746.28,1695.35L1746.49,1695.21L1747.07,1696.06L1746.86,1696.2L1746.44,1696.49L1746.03,1696.78L1745.61,1697.07L1745.2,1697.37L1744.97,1697.53L1744.36,1696.69ZM1857.72,1697.44L1857.3,1697.14L1856.89,1696.85L1856.47,1696.56L1856.05,1696.27L1855.82,1696.11L1856.41,1695.26L1856.64,1695.41L1857.06,1695.71L1857.48,1696L1857.9,1696.3L1858.32,1696.6L1858.53,1696.75L1857.92,1697.59L1857.72,1697.44ZM1740.24,1699.84L1740.5,1699.63L1740.9,1699.31L1741.31,1698.99L1741.71,1698.67L1742.12,1698.36L1742.28,1698.24L1742.9,1699.06L1742.75,1699.18L1742.34,1699.49L1741.94,1699.8L1741.54,1700.12L1741.15,1700.43L1740.88,1700.64L1740.24,1699.84ZM1861.77,1700.52L1861.38,1700.2L1860.98,1699.88L1860.58,1699.57L1860.17,1699.26L1859.99,1699.12L1860.61,1698.3L1860.8,1698.44L1861.21,1698.76L1861.61,1699.07L1862.02,1699.39L1862.42,1699.71L1862.65,1699.9L1862.01,1700.7L1861.77,1700.52ZM1736.28,1703.2L1736.58,1702.93L1736.96,1702.59L1737.35,1702.25L1737.74,1701.92L1738.13,1701.59L1738.24,1701.49L1738.9,1702.28L1738.8,1702.37L1738.41,1702.7L1738.03,1703.03L1737.64,1703.37L1737.27,1703.7L1736.97,1703.97L1736.28,1703.2ZM1865.66,1703.8L1865.28,1703.46L1864.9,1703.13L1864.51,1702.79L1864.13,1702.46L1863.98,1702.34L1864.65,1701.55L1864.8,1701.68L1865.19,1702.01L1865.57,1702.35L1865.96,1702.69L1866.35,1703.03L1866.61,1703.26L1865.92,1704.03L1865.66,1703.8ZM1732.51,1706.76L1732.84,1706.43L1733.2,1706.07L1733.57,1705.72L1733.94,1705.36L1734.31,1705.01L1734.37,1704.95L1735.08,1705.7L1735.02,1705.76L1734.65,1706.11L1734.29,1706.46L1733.92,1706.81L1733.56,1707.17L1733.24,1707.49L1732.51,1706.76ZM1869.36,1707.28L1869,1706.92L1868.64,1706.57L1868.27,1706.21L1867.9,1705.86L1867.81,1705.77L1868.51,1705.02L1868.62,1705.11L1868.99,1705.47L1869.36,1705.82L1869.72,1706.18L1870.09,1706.54L1870.38,1706.83L1869.65,1707.56L1869.36,1707.28ZM1728.93,1710.52L1728.94,1710.51L1729.28,1710.13L1729.63,1709.75L1729.98,1709.37L1730.33,1709L1730.68,1708.63L1730.69,1708.61L1731.44,1709.33L1731.43,1709.34L1731.08,1709.71L1730.73,1710.08L1730.39,1710.45L1730.04,1710.82L1729.7,1711.2L1729.69,1711.21L1728.93,1710.52ZM1872.88,1710.94L1872.54,1710.57L1872.19,1710.19L1871.85,1709.82L1871.5,1709.45L1871.44,1709.39L1872.19,1708.68L1872.25,1708.74L1872.6,1709.12L1872.95,1709.49L1873.3,1709.87L1873.65,1710.25L1873.95,1710.58L1873.19,1711.28L1872.88,1710.94ZM1725.55,1714.45L1725.6,1714.4L1725.92,1714L1726.25,1713.61L1726.58,1713.21L1726.91,1712.82L1727.21,1712.46L1728,1713.13L1727.7,1713.49L1727.37,1713.88L1727.04,1714.26L1726.72,1714.66L1726.4,1715.05L1726.35,1715.11L1725.55,1714.45ZM1876.21,1714.79L1875.88,1714.4L1875.56,1714.01L1875.23,1713.62L1874.9,1713.23L1874.88,1713.21L1875.66,1712.53L1875.69,1712.56L1876.02,1712.95L1876.35,1713.35L1876.68,1713.74L1877.01,1714.14L1877.33,1714.53L1876.52,1715.18L1876.21,1714.79ZM1722.39,1718.57L1722.46,1718.46L1722.77,1718.05L1723.07,1717.63L1723.38,1717.23L1723.69,1716.82L1723.94,1716.49L1724.76,1717.12L1724.51,1717.44L1724.21,1717.85L1723.9,1718.25L1723.6,1718.66L1723.3,1719.07L1723.22,1719.17L1722.39,1718.57ZM1879.63,1719.22L1879.33,1718.81L1879.03,1718.4L1878.72,1717.99L1878.41,1717.59L1878.11,1717.19L1878.93,1716.57L1879.24,1716.96L1879.55,1717.37L1879.86,1717.79L1880.16,1718.2L1880.47,1718.61L1880.49,1718.64L1879.65,1719.25L1879.63,1719.22ZM1719.44,1722.84L1719.54,1722.69L1719.82,1722.26L1720.11,1721.83L1720.39,1721.41L1720.68,1720.98L1720.89,1720.68L1721.74,1721.27L1721.54,1721.56L1721.25,1721.98L1720.97,1722.41L1720.68,1722.83L1720.41,1723.26L1720.31,1723.4L1719.44,1722.84ZM1882.52,1723.42L1882.24,1723L1881.96,1722.57L1881.67,1722.14L1881.39,1721.72L1881.13,1721.35L1881.98,1720.76L1882.24,1721.14L1882.53,1721.57L1882.82,1722L1883.1,1722.43L1883.38,1722.86L1883.42,1722.92L1882.56,1723.48L1882.52,1723.42ZM1716.73,1727.26L1716.84,1727.08L1717.1,1726.63L1717.36,1726.19L1717.63,1725.75L1717.89,1725.31L1718.06,1725.04L1718.94,1725.57L1718.78,1725.84L1718.51,1726.28L1718.25,1726.72L1717.99,1727.16L1717.73,1727.6L1717.63,1727.78L1716.73,1727.26ZM1885.19,1727.78L1884.93,1727.34L1884.67,1726.89L1884.41,1726.45L1884.15,1726.02L1883.93,1725.65L1884.81,1725.12L1885.03,1725.48L1885.3,1725.92L1885.56,1726.37L1885.82,1726.81L1886.08,1727.26L1886.13,1727.35L1885.24,1727.86L1885.19,1727.78ZM1714.26,1731.83L1714.37,1731.61L1714.6,1731.15L1714.84,1730.7L1715.08,1730.24L1715.33,1729.78L1715.47,1729.53L1716.37,1730.02L1716.24,1730.27L1716,1730.72L1715.76,1731.17L1715.52,1731.63L1715.29,1732.08L1715.18,1732.29L1714.26,1731.83ZM1887.63,1732.28L1887.4,1731.82L1887.16,1731.37L1886.92,1730.91L1886.68,1730.46L1886.49,1730.1L1887.4,1729.61L1887.59,1729.98L1887.84,1730.43L1888.08,1730.89L1888.32,1731.35L1888.55,1731.81L1888.6,1731.91L1887.68,1732.38L1887.63,1732.28ZM1712.03,1736.51L1712.13,1736.29L1712.34,1735.82L1712.56,1735.35L1712.78,1734.87L1713,1734.4L1713.12,1734.15L1714.05,1734.6L1713.93,1734.84L1713.71,1735.31L1713.5,1735.78L1713.28,1736.24L1713.07,1736.71L1712.98,1736.93L1712.03,1736.51ZM1889.84,1736.92L1889.63,1736.45L1889.41,1735.98L1889.2,1735.52L1888.98,1735.05L1888.81,1734.68L1889.74,1734.24L1889.92,1734.61L1890.14,1735.08L1890.36,1735.56L1890.57,1736.03L1890.78,1736.51L1890.82,1736.6L1889.88,1737.02L1889.84,1736.92ZM1710.06,1741.31L1710.14,1741.1L1710.33,1740.61L1710.52,1740.13L1710.71,1739.64L1710.91,1739.16L1711.01,1738.9L1711.97,1739.29L1711.86,1739.55L1711.67,1740.03L1711.48,1740.51L1711.29,1740.99L1711.1,1741.47L1711.02,1741.68L1710.06,1741.31ZM1891.8,1741.7L1891.62,1741.21L1891.43,1740.73L1891.24,1740.25L1891.05,1739.77L1890.88,1739.38L1891.84,1738.99L1892,1739.38L1892.2,1739.87L1892.39,1740.36L1892.58,1740.84L1892.77,1741.33L1892.79,1741.4L1891.83,1741.77L1891.8,1741.7ZM1708.35,1746.21L1708.4,1746.04L1708.56,1745.54L1708.73,1745.04L1708.89,1744.54L1709.07,1744.05L1709.17,1743.75L1710.14,1744.09L1710.04,1744.38L1709.87,1744.87L1709.71,1745.37L1709.54,1745.86L1709.38,1746.35L1709.33,1746.52L1708.35,1746.21ZM1893.51,1746.6L1893.35,1746.1L1893.19,1745.61L1893.03,1745.11L1892.86,1744.62L1892.7,1744.18L1893.68,1743.84L1893.83,1744.29L1894,1744.78L1894.17,1745.28L1894.33,1745.78L1894.5,1746.28L1894.5,1746.3L1893.52,1746.61L1893.51,1746.6ZM1706.89,1751.19L1706.92,1751.09L1707.06,1750.58L1707.2,1750.07L1707.34,1749.56L1707.48,1749.05L1707.59,1748.69L1708.58,1748.98L1708.48,1749.34L1708.33,1749.84L1708.19,1750.34L1708.06,1750.84L1707.92,1751.35L1707.89,1751.45L1706.89,1751.19ZM1894.83,1751.1L1894.69,1750.6L1894.56,1750.09L1894.41,1749.59L1894.27,1749.09L1894.27,1749.07L1895.26,1748.78L1895.26,1748.8L1895.41,1749.31L1895.55,1749.82L1895.69,1750.33L1895.83,1750.84L1895.94,1751.28L1894.95,1751.55L1894.83,1751.1ZM1705.72,1756.24L1705.82,1755.72L1705.93,1755.2L1706.05,1754.69L1706.16,1754.17L1706.27,1753.71L1707.28,1753.94L1707.17,1754.4L1707.06,1754.91L1706.94,1755.42L1706.83,1755.94L1706.73,1756.45L1705.72,1756.24ZM1896.04,1756.21L1895.93,1755.7L1895.82,1755.18L1895.71,1754.67L1895.59,1754.15L1895.56,1754.04L1896.57,1753.8L1896.6,1753.92L1896.71,1754.44L1896.83,1754.96L1896.94,1755.48L1897.05,1756L1897.12,1756.34L1896.11,1756.55L1896.04,1756.21Z" style="fill:rgb(59,72,84);"/>
                        </g>
                        <g transform="matrix(0.943718,-0.102378,0.330752,0.292109,-1867.97,222.342)">
                            <path d="M1890.02,1730.63L1899.65,1739.63L1909.73,1730.63" style="fill:rgb(59,72,84);"/>
                        </g>
                    </g>
                </g>
                <g transform="matrix(-1.06939,0,0,1.06939,3767.38,41.2515)">
                    <g transform="matrix(1.03914,0,0,1.12471,1286.75,-470.568)">
                        <g transform="matrix(1,0,0,0.30953,-1397,-8.04778)">
                            <path d="M1706.22,1756.35C1715.32,1712.12 1754.5,1678.81 1801.41,1678.81C1848.41,1678.81 1887.67,1712.26 1896.65,1756.63" style="fill:white;stroke:rgb(59,72,84);stroke-width:1.03px;stroke-dasharray:5.16,5.16,0,0;"/>
                        </g>
                        <g transform="matrix(0.943718,-0.102378,0.330752,0.292109,-1867.97,222.565)">
                            <path d="M1890.02,1730.63L1899.65,1739.63L1909.73,1730.63" style="fill:rgb(59,72,84);"/>
                        </g>
                    </g>
                    <g transform="matrix(-1.03914,0,0,-1.12471,2127.32,749.087)">
                        <g transform="matrix(1,0,0,0.30953,-1397,-8.04778)">
                            <path d="M1706.22,1756.35C1715.32,1712.12 1754.5,1678.81 1801.41,1678.81C1848.41,1678.81 1887.67,1712.26 1896.65,1756.63" style="fill:white;stroke:rgb(59,72,84);stroke-width:1.03px;"/>
                        </g>
                        <g transform="matrix(0.943718,-0.102378,0.330752,0.292109,-1867.97,222.342)">
                            <path d="M1890.02,1730.63L1899.65,1739.63L1909.73,1730.63" style="fill:rgb(59,72,84);"/>
                        </g>
                    </g>
                </g>
                <g transform="matrix(1.06939,0,0,1.06939,345.154,41.2515)">
                    <g transform="matrix(1.03914,0,0,1.12471,1286.75,-470.568)">
                        <g transform="matrix(1,0,0,0.30953,-1397,-8.04778)">
                            <path d="M1706.22,1756.35C1715.32,1712.12 1754.5,1678.81 1801.41,1678.81C1848.41,1678.81 1887.67,1712.26 1896.65,1756.63" style="fill:white;stroke:rgb(59,72,84);stroke-width:1.03px;"/>
                        </g>
                        <g transform="matrix(0.943718,-0.102378,0.330752,0.292109,-1867.97,222.565)">
                            <path d="M1890.02,1730.63L1899.65,1739.63L1909.73,1730.63" style="fill:rgb(59,72,84);"/>
                        </g>
                    </g>
                    <g transform="matrix(-1.03914,0,0,-1.12471,2127.32,749.087)">
                        <g transform="matrix(1,0,0,0.30953,-1397,-8.04778)">
                            <path d="M1706.22,1756.35C1715.32,1712.12 1754.5,1678.81 1801.41,1678.81C1848.41,1678.81 1887.67,1712.26 1896.65,1756.63" style="fill:white;"/>
                            <path d="M1797.57,1678.37L1798.11,1678.35L1798.65,1678.34L1799.2,1678.32L1799.75,1678.31L1800.16,1678.31L1800.17,1679.34L1799.77,1679.34L1799.23,1679.35L1798.68,1679.37L1798.14,1679.38L1797.6,1679.4L1797.57,1678.37ZM1805.23,1679.4L1804.68,1679.38L1804.14,1679.37L1803.6,1679.35L1803.05,1679.34L1802.74,1679.34L1802.75,1678.31L1803.07,1678.31L1803.62,1678.32L1804.17,1678.34L1804.72,1678.35L1805.27,1678.37L1805.35,1678.38L1805.3,1679.41L1805.23,1679.4ZM1792.39,1678.71L1792.66,1678.68L1793.2,1678.64L1793.75,1678.59L1794.29,1678.55L1794.83,1678.52L1794.97,1678.51L1795.04,1679.54L1794.9,1679.55L1794.36,1679.58L1793.83,1679.62L1793.29,1679.67L1792.76,1679.71L1792.48,1679.74L1792.39,1678.71ZM1810.08,1679.71L1809.54,1679.67L1809.01,1679.63L1808.47,1679.58L1807.93,1679.55L1807.87,1679.54L1807.94,1678.51L1808,1678.52L1808.54,1678.56L1809.09,1678.6L1809.63,1678.64L1810.17,1678.69L1810.52,1678.72L1810.43,1679.75L1810.08,1679.71ZM1787.23,1679.32L1787.31,1679.31L1787.84,1679.23L1788.37,1679.16L1788.9,1679.09L1789.44,1679.03L1789.81,1678.98L1789.93,1680.01L1789.56,1680.05L1789.04,1680.12L1788.51,1680.18L1787.98,1680.26L1787.45,1680.33L1787.38,1680.34L1787.23,1679.32ZM1815.39,1680.34L1814.87,1680.26L1814.34,1680.19L1813.81,1680.12L1813.28,1680.05L1812.98,1680.02L1813.1,1678.99L1813.4,1679.03L1813.94,1679.1L1814.47,1679.16L1815.01,1679.24L1815.54,1679.31L1815.68,1679.33L1815.53,1680.36L1815.39,1680.34ZM1782.12,1680.2L1782.56,1680.12L1783.08,1680.02L1783.61,1679.92L1784.13,1679.82L1784.66,1679.73L1784.67,1679.73L1784.85,1680.75L1784.84,1680.75L1784.32,1680.84L1783.8,1680.93L1783.28,1681.03L1782.76,1681.13L1782.32,1681.22L1782.12,1680.2ZM1820.1,1681.14L1819.58,1681.04L1819.06,1680.94L1818.54,1680.85L1818.06,1680.76L1818.24,1679.75L1818.72,1679.83L1819.25,1679.92L1819.77,1680.02L1820.29,1680.13L1820.79,1680.22L1820.59,1681.24L1820.1,1681.14ZM1777.06,1681.36L1777.38,1681.28L1777.9,1681.15L1778.41,1681.03L1778.93,1680.9L1779.44,1680.78L1779.59,1680.75L1779.81,1681.76L1779.67,1681.79L1779.16,1681.91L1778.65,1682.03L1778.14,1682.15L1777.64,1682.28L1777.32,1682.36L1777.06,1681.36ZM1825.23,1682.29L1824.72,1682.16L1824.21,1682.04L1823.7,1681.92L1823.19,1681.8L1823.09,1681.78L1823.32,1680.77L1823.42,1680.79L1823.94,1680.91L1824.45,1681.04L1824.97,1681.16L1825.48,1681.29L1825.85,1681.38L1825.59,1682.38L1825.23,1682.29ZM1772.07,1682.79L1772.31,1682.71L1772.82,1682.56L1773.32,1682.4L1773.82,1682.25L1774.33,1682.11L1774.56,1682.04L1774.84,1683.03L1774.61,1683.1L1774.11,1683.24L1773.62,1683.39L1773.12,1683.54L1772.62,1683.7L1772.38,1683.77L1772.07,1682.79ZM1830.25,1683.71L1829.76,1683.56L1829.26,1683.41L1828.76,1683.26L1828.26,1683.11L1828.07,1683.06L1828.35,1682.07L1828.54,1682.12L1829.05,1682.27L1829.55,1682.42L1830.06,1682.57L1830.56,1682.73L1830.83,1682.82L1830.52,1683.8L1830.25,1683.71ZM1767.17,1684.48L1767.36,1684.4L1767.85,1684.22L1768.34,1684.05L1768.83,1683.87L1769.33,1683.7L1769.61,1683.6L1769.95,1684.58L1769.66,1684.67L1769.18,1684.84L1768.69,1685.02L1768.2,1685.19L1767.72,1685.37L1767.53,1685.44L1767.17,1684.48ZM1835.16,1685.4L1834.68,1685.22L1834.19,1685.04L1833.7,1684.87L1833.21,1684.69L1832.96,1684.61L1833.3,1683.63L1833.55,1683.72L1834.05,1683.89L1834.54,1684.07L1835.03,1684.25L1835.53,1684.43L1835.74,1684.51L1835.37,1685.48L1835.16,1685.4ZM1762.36,1686.43L1762.53,1686.35L1763,1686.15L1763.48,1685.94L1763.96,1685.74L1764.44,1685.54L1764.75,1685.42L1765.14,1686.38L1764.84,1686.5L1764.36,1686.7L1763.88,1686.89L1763.41,1687.1L1762.94,1687.3L1762.77,1687.37L1762.36,1686.43ZM1839.95,1687.33L1839.48,1687.13L1839.01,1686.92L1838.53,1686.73L1838.05,1686.53L1837.77,1686.41L1838.15,1685.45L1838.44,1685.57L1838.93,1685.77L1839.41,1685.97L1839.89,1686.18L1840.37,1686.39L1840.55,1686.47L1840.13,1687.41L1839.95,1687.33ZM1757.66,1688.63L1757.83,1688.55L1758.29,1688.32L1758.76,1688.09L1759.22,1687.86L1759.69,1687.64L1760,1687.5L1760.43,1688.43L1760.13,1688.57L1759.67,1688.8L1759.21,1689.02L1758.75,1689.24L1758.29,1689.47L1758.13,1689.55L1757.66,1688.63ZM1844.61,1689.51L1844.15,1689.28L1843.69,1689.06L1843.23,1688.83L1842.76,1688.61L1842.47,1688.47L1842.91,1687.54L1843.21,1687.68L1843.67,1687.9L1844.14,1688.13L1844.61,1688.36L1845.07,1688.59L1845.24,1688.67L1844.78,1689.6L1844.61,1689.51ZM1753.09,1691.08L1753.27,1690.98L1753.72,1690.73L1754.17,1690.48L1754.62,1690.23L1755.07,1689.98L1755.36,1689.83L1755.85,1690.74L1755.56,1690.89L1755.12,1691.13L1754.67,1691.38L1754.22,1691.63L1753.78,1691.88L1753.6,1691.98L1753.09,1691.08ZM1849.13,1691.93L1848.68,1691.68L1848.24,1691.43L1847.79,1691.18L1847.34,1690.93L1847.05,1690.78L1847.54,1689.87L1847.83,1690.03L1848.29,1690.27L1848.74,1690.52L1849.19,1690.78L1849.64,1691.03L1849.81,1691.13L1849.3,1692.03L1849.13,1691.93ZM1748.65,1693.77L1748.85,1693.64L1749.29,1693.37L1749.72,1693.09L1750.16,1692.82L1750.6,1692.55L1750.85,1692.4L1751.39,1693.28L1751.14,1693.43L1750.7,1693.7L1750.27,1693.97L1749.84,1694.24L1749.41,1694.51L1749.21,1694.64L1748.65,1693.77ZM1853.5,1694.57L1853.07,1694.3L1852.64,1694.03L1852.2,1693.76L1851.77,1693.49L1851.51,1693.33L1852.05,1692.45L1852.31,1692.61L1852.75,1692.88L1853.19,1693.15L1853.62,1693.43L1854.06,1693.7L1854.25,1693.82L1853.68,1694.69L1853.5,1694.57ZM1744.36,1696.69L1744.6,1696.53L1745.01,1696.23L1745.43,1695.93L1745.86,1695.64L1746.28,1695.35L1746.49,1695.21L1747.07,1696.06L1746.86,1696.2L1746.44,1696.49L1746.03,1696.78L1745.61,1697.07L1745.2,1697.37L1744.97,1697.53L1744.36,1696.69ZM1857.72,1697.44L1857.3,1697.14L1856.89,1696.85L1856.47,1696.56L1856.05,1696.27L1855.82,1696.11L1856.41,1695.26L1856.64,1695.41L1857.06,1695.71L1857.48,1696L1857.9,1696.3L1858.32,1696.6L1858.53,1696.75L1857.92,1697.59L1857.72,1697.44ZM1740.24,1699.84L1740.5,1699.63L1740.9,1699.31L1741.31,1698.99L1741.71,1698.67L1742.12,1698.36L1742.28,1698.24L1742.9,1699.06L1742.75,1699.18L1742.34,1699.49L1741.94,1699.8L1741.54,1700.12L1741.15,1700.43L1740.88,1700.64L1740.24,1699.84ZM1861.77,1700.52L1861.38,1700.2L1860.98,1699.88L1860.58,1699.57L1860.17,1699.26L1859.99,1699.12L1860.61,1698.3L1860.8,1698.44L1861.21,1698.76L1861.61,1699.07L1862.02,1699.39L1862.42,1699.71L1862.65,1699.9L1862.01,1700.7L1861.77,1700.52ZM1736.28,1703.2L1736.58,1702.93L1736.96,1702.59L1737.35,1702.25L1737.74,1701.92L1738.13,1701.59L1738.24,1701.49L1738.9,1702.28L1738.8,1702.37L1738.41,1702.7L1738.03,1703.03L1737.64,1703.37L1737.27,1703.7L1736.97,1703.97L1736.28,1703.2ZM1865.66,1703.8L1865.28,1703.46L1864.9,1703.13L1864.51,1702.79L1864.13,1702.46L1863.98,1702.34L1864.65,1701.55L1864.8,1701.68L1865.19,1702.01L1865.57,1702.35L1865.96,1702.69L1866.35,1703.03L1866.61,1703.26L1865.92,1704.03L1865.66,1703.8ZM1732.51,1706.76L1732.84,1706.43L1733.2,1706.07L1733.57,1705.72L1733.94,1705.36L1734.31,1705.01L1734.37,1704.95L1735.08,1705.7L1735.02,1705.76L1734.65,1706.11L1734.29,1706.46L1733.92,1706.81L1733.56,1707.17L1733.24,1707.49L1732.51,1706.76ZM1869.36,1707.28L1869,1706.92L1868.64,1706.57L1868.27,1706.21L1867.9,1705.86L1867.81,1705.77L1868.51,1705.02L1868.62,1705.11L1868.99,1705.47L1869.36,1705.82L1869.72,1706.18L1870.09,1706.54L1870.38,1706.83L1869.65,1707.56L1869.36,1707.28ZM1728.93,1710.52L1728.94,1710.51L1729.28,1710.13L1729.63,1709.75L1729.98,1709.37L1730.33,1709L1730.68,1708.63L1730.69,1708.61L1731.44,1709.33L1731.43,1709.34L1731.08,1709.71L1730.73,1710.08L1730.39,1710.45L1730.04,1710.82L1729.7,1711.2L1729.69,1711.21L1728.93,1710.52ZM1872.88,1710.94L1872.54,1710.57L1872.19,1710.19L1871.85,1709.82L1871.5,1709.45L1871.44,1709.39L1872.19,1708.68L1872.25,1708.74L1872.6,1709.12L1872.95,1709.49L1873.3,1709.87L1873.65,1710.25L1873.95,1710.58L1873.19,1711.28L1872.88,1710.94ZM1725.55,1714.45L1725.6,1714.4L1725.92,1714L1726.25,1713.61L1726.58,1713.21L1726.91,1712.82L1727.21,1712.46L1728,1713.13L1727.7,1713.49L1727.37,1713.88L1727.04,1714.26L1726.72,1714.66L1726.4,1715.05L1726.35,1715.11L1725.55,1714.45ZM1876.21,1714.79L1875.88,1714.4L1875.56,1714.01L1875.23,1713.62L1874.9,1713.23L1874.88,1713.21L1875.66,1712.53L1875.69,1712.56L1876.02,1712.95L1876.35,1713.35L1876.68,1713.74L1877.01,1714.14L1877.32,1714.53L1876.52,1715.18L1876.21,1714.79ZM1722.39,1718.57L1722.46,1718.46L1722.77,1718.05L1723.07,1717.63L1723.38,1717.23L1723.69,1716.82L1723.94,1716.49L1724.76,1717.12L1724.51,1717.44L1724.21,1717.85L1723.9,1718.25L1723.6,1718.66L1723.3,1719.07L1723.22,1719.17L1722.39,1718.57ZM1879.63,1719.22L1879.33,1718.81L1879.03,1718.4L1878.72,1717.99L1878.41,1717.59L1878.11,1717.19L1878.93,1716.57L1879.24,1716.96L1879.55,1717.37L1879.86,1717.79L1880.16,1718.2L1880.47,1718.61L1880.49,1718.64L1879.65,1719.25L1879.63,1719.22ZM1719.44,1722.84L1719.54,1722.69L1719.82,1722.26L1720.11,1721.83L1720.39,1721.41L1720.68,1720.98L1720.89,1720.68L1721.74,1721.27L1721.54,1721.56L1721.25,1721.98L1720.97,1722.41L1720.68,1722.83L1720.41,1723.26L1720.31,1723.4L1719.44,1722.84ZM1882.52,1723.42L1882.24,1723L1881.96,1722.57L1881.67,1722.14L1881.39,1721.72L1881.13,1721.35L1881.98,1720.76L1882.24,1721.14L1882.53,1721.57L1882.82,1722L1883.1,1722.43L1883.38,1722.86L1883.42,1722.92L1882.56,1723.48L1882.52,1723.42ZM1716.73,1727.26L1716.84,1727.08L1717.1,1726.63L1717.36,1726.19L1717.63,1725.75L1717.89,1725.31L1718.06,1725.04L1718.94,1725.57L1718.78,1725.84L1718.51,1726.28L1718.25,1726.72L1717.99,1727.16L1717.73,1727.6L1717.63,1727.78L1716.73,1727.26ZM1885.19,1727.78L1884.93,1727.34L1884.67,1726.89L1884.41,1726.45L1884.15,1726.02L1883.93,1725.65L1884.81,1725.12L1885.03,1725.48L1885.3,1725.92L1885.56,1726.37L1885.82,1726.81L1886.08,1727.26L1886.13,1727.35L1885.24,1727.86L1885.19,1727.78ZM1714.26,1731.83L1714.37,1731.61L1714.6,1731.15L1714.84,1730.7L1715.08,1730.24L1715.33,1729.78L1715.47,1729.53L1716.37,1730.02L1716.24,1730.27L1716,1730.72L1715.76,1731.17L1715.52,1731.63L1715.29,1732.08L1715.18,1732.29L1714.26,1731.83ZM1887.63,1732.28L1887.4,1731.82L1887.16,1731.37L1886.92,1730.91L1886.68,1730.46L1886.49,1730.1L1887.4,1729.61L1887.59,1729.98L1887.84,1730.43L1888.08,1730.89L1888.32,1731.35L1888.55,1731.81L1888.6,1731.91L1887.68,1732.38L1887.63,1732.28ZM1712.03,1736.51L1712.13,1736.29L1712.34,1735.82L1712.56,1735.35L1712.78,1734.87L1713,1734.4L1713.12,1734.15L1714.05,1734.6L1713.93,1734.84L1713.71,1735.31L1713.5,1735.78L1713.28,1736.24L1713.07,1736.71L1712.98,1736.93L1712.03,1736.51ZM1889.84,1736.92L1889.63,1736.45L1889.41,1735.98L1889.2,1735.52L1888.98,1735.05L1888.81,1734.68L1889.74,1734.24L1889.92,1734.61L1890.14,1735.08L1890.36,1735.56L1890.57,1736.03L1890.78,1736.51L1890.82,1736.6L1889.88,1737.02L1889.84,1736.92ZM1710.06,1741.31L1710.14,1741.1L1710.33,1740.61L1710.52,1740.13L1710.71,1739.64L1710.91,1739.16L1711.01,1738.9L1711.97,1739.29L1711.86,1739.55L1711.67,1740.03L1711.48,1740.51L1711.29,1740.99L1711.1,1741.47L1711.02,1741.68L1710.06,1741.31ZM1891.8,1741.7L1891.62,1741.21L1891.43,1740.73L1891.24,1740.25L1891.05,1739.77L1890.88,1739.38L1891.84,1738.99L1892,1739.38L1892.2,1739.87L1892.39,1740.36L1892.58,1740.84L1892.77,1741.33L1892.79,1741.4L1891.83,1741.77L1891.8,1741.7ZM1708.35,1746.21L1708.4,1746.04L1708.56,1745.54L1708.73,1745.04L1708.89,1744.54L1709.07,1744.05L1709.17,1743.75L1710.14,1744.09L1710.04,1744.38L1709.87,1744.87L1709.71,1745.37L1709.54,1745.86L1709.38,1746.35L1709.33,1746.52L1708.35,1746.21ZM1893.51,1746.6L1893.35,1746.1L1893.19,1745.61L1893.03,1745.11L1892.86,1744.62L1892.7,1744.18L1893.68,1743.84L1893.83,1744.29L1894,1744.78L1894.17,1745.28L1894.33,1745.78L1894.5,1746.28L1894.5,1746.3L1893.52,1746.61L1893.51,1746.6ZM1706.89,1751.19L1706.92,1751.09L1707.06,1750.58L1707.2,1750.07L1707.34,1749.56L1707.48,1749.05L1707.59,1748.69L1708.58,1748.98L1708.48,1749.34L1708.33,1749.84L1708.19,1750.34L1708.06,1750.84L1707.92,1751.35L1707.89,1751.45L1706.89,1751.19ZM1894.83,1751.1L1894.69,1750.6L1894.56,1750.09L1894.41,1749.59L1894.27,1749.09L1894.27,1749.07L1895.26,1748.78L1895.26,1748.8L1895.41,1749.31L1895.55,1749.82L1895.69,1750.33L1895.83,1750.84L1895.94,1751.28L1894.95,1751.55L1894.83,1751.1ZM1705.72,1756.24L1705.82,1755.72L1705.93,1755.2L1706.05,1754.69L1706.16,1754.17L1706.27,1753.71L1707.28,1753.94L1707.17,1754.4L1707.06,1754.91L1706.94,1755.42L1706.83,1755.94L1706.73,1756.45L1705.72,1756.24ZM1896.04,1756.21L1895.93,1755.7L1895.82,1755.18L1895.71,1754.67L1895.59,1754.15L1895.56,1754.04L1896.57,1753.8L1896.6,1753.92L1896.71,1754.44L1896.83,1754.96L1896.94,1755.48L1897.05,1756L1897.12,1756.34L1896.11,1756.55L1896.04,1756.21Z" style="fill:rgb(59,72,84);"/>
                        </g>
                        <g transform="matrix(0.943718,-0.102378,0.330752,0.292109,-1867.97,222.342)">
                            <path d="M1890.02,1730.63L1899.65,1739.63L1909.73,1730.63" style="fill:rgb(59,72,84);"/>
                        </g>
                    </g>
                </g>
                <g transform="matrix(-1.06939,0,0,1.06939,4223.46,41.2515)">
                    <g transform="matrix(1.03914,0,0,1.12471,1286.75,-470.568)">
                        <g transform="matrix(1,0,0,0.30953,-1397,-8.04778)">
                            <path d="M1706.22,1756.35C1715.32,1712.12 1754.5,1678.81 1801.41,1678.81C1848.41,1678.81 1887.67,1712.26 1896.65,1756.63" style="fill:white;stroke:rgb(59,72,84);stroke-width:1.03px;stroke-dasharray:5.16,5.16,0,0;"/>
                        </g>
                        <g transform="matrix(0.943718,-0.102378,0.330752,0.292109,-1867.97,222.565)">
                            <path d="M1890.02,1730.63L1899.65,1739.63L1909.73,1730.63" style="fill:rgb(59,72,84);"/>
                        </g>
                    </g>
                    <g transform="matrix(-1.03914,0,0,-1.12471,2127.32,749.087)">
                        <g transform="matrix(1,0,0,0.30953,-1397,-8.04778)">
                            <path d="M1706.22,1756.35C1715.32,1712.12 1754.5,1678.81 1801.41,1678.81C1848.41,1678.81 1887.67,1712.26 1896.65,1756.63" style="fill:white;stroke:rgb(59,72,84);stroke-width:1.03px;"/>
                        </g>
                        <g transform="matrix(0.943718,-0.102378,0.330752,0.292109,-1867.97,222.342)">
                            <path d="M1890.02,1730.63L1899.65,1739.63L1909.73,1730.63" style="fill:rgb(59,72,84);"/>
                        </g>
                    </g>
                </g>
                <g transform="matrix(1,0,0,1,1.34978,-14.2801)">
                    <g transform="matrix(1.09313,0,0,0.366218,-4741.06,90.238)">
                        <path d="M5879.07,309.13L5882.07,290.747C5882.07,290.747 5882.87,287.33 5881.47,283.13C5880.07,278.93 5870.47,262.13 5879.47,247.33C5888.47,232.53 5912.47,235.13 5917.47,242.73C5917.47,242.73 5925.47,250.33 5925.87,264.53L5933.07,280.93L5924.87,280.93L5924.87,296.93L5911.27,295.73L5910.07,307.53" style="fill:none;stroke:rgb(255,209,26);stroke-width:1.05px;"/>
                    </g>
                    <g transform="matrix(1.09313,0,0,0.366218,-4741.06,90.238)">
                        <path d="M5902.88,249.446C5901.7,249.291 5900.52,249.291 5899.34,249.446L5898.12,251.732L5895.92,250.361C5894.83,250.815 5893.8,251.41 5892.86,252.131L5892.94,254.72L5890.36,254.633C5889.63,255.573 5889.04,256.604 5888.59,257.698L5889.96,259.897L5887.67,261.117C5887.52,262.291 5887.52,263.481 5887.67,264.655L5889.96,265.875L5888.59,268.074C5889.04,269.168 5889.63,270.199 5890.36,271.139L5892.94,271.052L5892.86,273.641C5893.8,274.362 5894.83,274.957 5895.92,275.411L5898.12,274.04L5899.34,276.326C5900.52,276.481 5901.7,276.481 5902.88,276.326L5904.1,274.04L5906.3,275.411C5907.39,274.957 5908.42,274.362 5909.36,273.641L5909.28,271.052L5911.86,271.139C5912.59,270.199 5913.18,269.168 5913.64,268.074L5912.27,265.875L5914.55,264.655C5914.7,263.481 5914.7,262.291 5914.55,261.117L5912.27,259.897L5913.64,257.698C5913.18,256.604 5912.59,255.573 5911.86,254.633L5909.28,254.72L5909.36,252.131C5908.42,251.41 5907.39,250.815 5906.3,250.361L5904.1,251.732L5902.88,249.446ZM5901.11,258.084C5903.76,258.084 5905.91,260.236 5905.91,262.886C5905.91,265.536 5903.76,267.688 5901.11,267.688C5898.46,267.688 5896.31,265.536 5896.31,262.886C5896.31,260.236 5898.46,258.084 5901.11,258.084Z" style="fill:rgb(245,245,245);"/>
                        <path d="M5901.22,249.33L5901.33,249.331L5901.44,249.334L5901.55,249.337L5901.66,249.341L5901.78,249.346L5901.89,249.352L5902,249.359L5902.11,249.366L5902.22,249.375L5902.33,249.384L5902.44,249.395L5902.55,249.406L5902.66,249.418L5902.77,249.431L5902.88,249.446L5904.1,251.732L5906.3,250.361L5906.4,250.404L5906.5,250.448L5906.6,250.493L5906.7,250.538L5906.81,250.584L5906.91,250.631L5907.01,250.679L5907.11,250.728L5907.21,250.777L5907.31,250.827L5907.4,250.879L5907.5,250.93L5907.6,250.983L5907.7,251.037L5907.79,251.091L5907.89,251.146L5907.98,251.202L5908.08,251.258L5908.17,251.316L5908.27,251.374L5908.36,251.433L5908.46,251.492L5908.55,251.553L5908.64,251.614L5908.73,251.676L5908.82,251.739L5908.92,251.802L5909.01,251.866L5909.1,251.931L5909.19,251.997L5909.27,252.064L5909.36,252.131L5909.28,254.72L5911.86,254.633L5911.93,254.722L5912,254.811L5912.07,254.9L5912.13,254.99L5912.19,255.08L5912.26,255.171L5912.32,255.263L5912.38,255.355L5912.44,255.447L5912.5,255.54L5912.56,255.634L5912.62,255.728L5912.68,255.822L5912.74,255.917L5912.8,256.012L5912.85,256.108L5912.9,256.204L5912.96,256.301L5913.01,256.398L5913.07,256.495L5913.12,256.593L5913.17,256.692L5913.22,256.79L5913.27,256.89L5913.32,256.989L5913.36,257.089L5913.41,257.19L5913.46,257.291L5913.5,257.392L5913.55,257.494L5913.59,257.596L5913.64,257.698L5912.27,259.897L5914.55,261.117L5914.57,261.227L5914.58,261.337L5914.59,261.447L5914.6,261.558L5914.61,261.668L5914.62,261.779L5914.63,261.889L5914.64,262L5914.64,262.111L5914.65,262.221L5914.65,262.332L5914.66,262.443L5914.66,262.554L5914.66,262.664L5914.67,262.775L5914.67,262.886L5914.67,262.997L5914.66,263.108L5914.66,263.218L5914.66,263.329L5914.65,263.44L5914.65,263.551L5914.64,263.661L5914.64,263.772L5914.63,263.883L5914.62,263.993L5914.61,264.104L5914.6,264.214L5914.59,264.325L5914.58,264.435L5914.57,264.545L5914.55,264.655L5912.27,265.875L5913.64,268.074L5913.59,268.176L5913.55,268.278L5913.5,268.38L5913.46,268.481L5913.41,268.582L5913.36,268.683L5913.32,268.783L5913.27,268.882L5913.22,268.982L5913.17,269.08L5913.12,269.179L5913.07,269.277L5913.01,269.374L5912.96,269.471L5912.9,269.568L5912.85,269.664L5912.8,269.76L5912.74,269.855L5912.68,269.95L5912.62,270.044L5912.56,270.138L5912.5,270.232L5912.44,270.325L5912.38,270.417L5912.32,270.509L5912.26,270.601L5912.19,270.692L5912.13,270.782L5912.07,270.872L5912,270.961L5911.93,271.05L5911.86,271.139L5909.28,271.052L5909.36,273.641L5909.27,273.708L5909.19,273.775L5909.1,273.841L5909.01,273.906L5908.92,273.97L5908.82,274.033L5908.73,274.096L5908.64,274.158L5908.55,274.219L5908.46,274.28L5908.36,274.339L5908.27,274.398L5908.17,274.456L5908.08,274.514L5907.98,274.57L5907.89,274.626L5907.79,274.681L5907.7,274.735L5907.6,274.789L5907.5,274.842L5907.4,274.893L5907.31,274.945L5907.21,274.995L5907.11,275.044L5907.01,275.093L5906.91,275.141L5906.81,275.188L5906.7,275.234L5906.6,275.279L5906.5,275.324L5906.4,275.368L5906.3,275.411L5904.1,274.04L5902.88,276.326L5902.77,276.341L5902.66,276.354L5902.55,276.366L5902.44,276.377L5902.33,276.388L5902.22,276.397L5902.11,276.406L5902,276.413L5901.89,276.42L5901.78,276.426L5901.66,276.431L5901.55,276.435L5901.44,276.438L5901.33,276.441L5901.22,276.442L5901.11,276.442L5901,276.442L5900.89,276.441L5900.78,276.438L5900.67,276.435L5900.56,276.431L5900.44,276.426L5900.34,276.42L5900.22,276.413L5900.11,276.406L5900,276.397L5899.89,276.388L5899.78,276.377L5899.67,276.366L5899.56,276.354L5899.45,276.341L5899.34,276.326L5898.12,274.04L5895.92,275.411L5895.82,275.368L5895.72,275.324L5895.62,275.279L5895.52,275.234L5895.41,275.188L5895.31,275.141L5895.21,275.093L5895.11,275.044L5895.02,274.995L5894.92,274.945L5894.82,274.893L5894.72,274.842L5894.62,274.789L5894.53,274.735L5894.43,274.681L5894.33,274.626L5894.24,274.57L5894.14,274.514L5894.05,274.456L5893.95,274.398L5893.86,274.339L5893.76,274.28L5893.67,274.219L5893.58,274.158L5893.49,274.096L5893.4,274.033L5893.31,273.97L5893.21,273.906L5893.12,273.841L5893.03,273.775L5892.95,273.708L5892.86,273.641L5892.94,271.052L5890.36,271.139L5890.29,271.05L5890.22,270.961L5890.16,270.872L5890.09,270.782L5890.03,270.692L5889.96,270.601L5889.9,270.509L5889.84,270.417L5889.78,270.325L5889.72,270.232L5889.66,270.138L5889.6,270.044L5889.54,269.95L5889.48,269.855L5889.43,269.76L5889.37,269.664L5889.32,269.568L5889.26,269.471L5889.21,269.374L5889.15,269.277L5889.1,269.179L5889.05,269.08L5889,268.982L5888.95,268.882L5888.9,268.783L5888.86,268.683L5888.81,268.582L5888.76,268.481L5888.72,268.38L5888.67,268.278L5888.63,268.176L5888.59,268.074L5889.96,265.875L5887.67,264.655L5887.66,264.545L5887.64,264.435L5887.63,264.325L5887.62,264.214L5887.61,264.104L5887.6,263.993L5887.59,263.883L5887.58,263.772L5887.58,263.661L5887.57,263.551L5887.57,263.44L5887.56,263.329L5887.56,263.218L5887.56,263.108L5887.55,262.997L5887.55,262.886L5887.55,262.775L5887.56,262.664L5887.56,262.554L5887.56,262.443L5887.57,262.332L5887.57,262.221L5887.58,262.111L5887.58,262L5887.59,261.889L5887.6,261.779L5887.61,261.668L5887.62,261.558L5887.63,261.447L5887.64,261.337L5887.66,261.227L5887.67,261.117L5889.96,259.897L5888.59,257.698L5888.63,257.596L5888.67,257.494L5888.72,257.392L5888.76,257.291L5888.81,257.19L5888.86,257.089L5888.9,256.989L5888.95,256.89L5889,256.79L5889.05,256.692L5889.1,256.593L5889.15,256.495L5889.21,256.398L5889.26,256.301L5889.32,256.204L5889.37,256.108L5889.43,256.012L5889.48,255.917L5889.54,255.822L5889.6,255.728L5889.66,255.634L5889.72,255.54L5889.78,255.447L5889.84,255.355L5889.9,255.263L5889.96,255.171L5890.03,255.08L5890.09,254.99L5890.16,254.9L5890.22,254.811L5890.29,254.722L5890.36,254.633L5892.94,254.72L5892.86,252.131L5892.95,252.064L5893.03,251.997L5893.12,251.931L5893.21,251.866L5893.31,251.802L5893.4,251.739L5893.49,251.676L5893.58,251.614L5893.67,251.553L5893.76,251.492L5893.86,251.433L5893.95,251.374L5894.05,251.316L5894.14,251.258L5894.24,251.202L5894.33,251.146L5894.43,251.091L5894.53,251.037L5894.62,250.983L5894.72,250.93L5894.82,250.879L5894.92,250.827L5895.02,250.777L5895.11,250.728L5895.21,250.679L5895.31,250.631L5895.41,250.584L5895.52,250.538L5895.62,250.493L5895.72,250.448L5895.82,250.404L5895.92,250.361L5898.12,251.732L5899.34,249.446L5899.45,249.431L5899.56,249.418L5899.67,249.406L5899.78,249.395L5899.89,249.384L5900,249.375L5900.11,249.366L5900.22,249.359L5900.34,249.352L5900.44,249.346L5900.56,249.341L5900.67,249.337L5900.78,249.334L5900.89,249.331L5901,249.33L5901.11,249.33L5901.22,249.33ZM5901.01,250.379L5900.91,250.381L5900.8,250.383L5900.7,250.386L5900.6,250.39L5900.5,250.394L5900.4,250.4L5900.29,250.406L5900.19,250.413L5900.09,250.421L5900.01,250.428L5899.05,252.226L5899,252.312L5898.94,252.394L5898.87,252.469L5898.79,252.537L5898.71,252.598L5898.63,252.651L5898.54,252.696L5898.44,252.731L5898.34,252.757L5898.24,252.774L5898.14,252.781L5898.04,252.778L5897.94,252.766L5897.84,252.744L5897.75,252.712L5897.65,252.672L5897.57,252.622L5895.84,251.545L5895.76,251.58L5895.67,251.624L5895.58,251.669L5895.49,251.715L5895.4,251.761L5895.31,251.808L5895.21,251.856L5895.12,251.905L5895.03,251.954L5894.94,252.004L5894.86,252.055L5894.77,252.106L5894.68,252.158L5894.59,252.211L5894.51,252.265L5894.42,252.319L5894.33,252.374L5894.25,252.43L5894.16,252.487L5894.08,252.544L5893.99,252.602L5893.93,252.649L5893.99,254.685L5893.99,254.786L5893.98,254.887L5893.96,254.986L5893.93,255.082L5893.89,255.175L5893.84,255.264L5893.79,255.348L5893.72,255.426L5893.65,255.497L5893.57,255.562L5893.49,255.618L5893.4,255.666L5893.31,255.706L5893.21,255.736L5893.11,255.757L5893.01,255.768L5892.91,255.769L5890.87,255.701L5890.83,255.769L5890.77,255.853L5890.71,255.938L5890.65,256.023L5890.6,256.109L5890.54,256.195L5890.49,256.282L5890.44,256.369L5890.38,256.456L5890.33,256.544L5890.28,256.633L5890.23,256.721L5890.18,256.81L5890.13,256.9L5890.08,256.99L5890.03,257.08L5889.98,257.171L5889.94,257.262L5889.89,257.354L5889.85,257.446L5889.8,257.538L5889.77,257.613L5890.85,259.342L5890.9,259.43L5890.94,259.523L5890.97,259.619L5890.99,259.718L5891,259.818L5891.01,259.919L5891,260.02L5890.98,260.12L5890.95,260.217L5890.92,260.312L5890.88,260.403L5890.82,260.489L5890.76,260.57L5890.69,260.644L5890.62,260.711L5890.54,260.771L5890.45,260.823L5888.65,261.782L5888.65,261.864L5888.64,261.966L5888.63,262.069L5888.62,262.171L5888.62,262.273L5888.61,262.375L5888.61,262.477L5888.61,262.579L5888.61,262.682L5888.6,262.784L5888.6,262.886L5888.6,262.988L5888.61,263.09L5888.61,263.193L5888.61,263.295L5888.61,263.397L5888.62,263.499L5888.62,263.601L5888.63,263.703L5888.64,263.806L5888.65,263.908L5888.65,263.99L5890.45,264.949L5890.54,265.001L5890.62,265.061L5890.69,265.128L5890.76,265.202L5890.82,265.283L5890.88,265.369L5890.92,265.46L5890.95,265.555L5890.98,265.652L5891,265.752L5891.01,265.853L5891,265.954L5890.99,266.054L5890.97,266.153L5890.94,266.249L5890.9,266.342L5890.85,266.43L5889.77,268.159L5889.8,268.234L5889.85,268.326L5889.89,268.418L5889.94,268.51L5889.98,268.601L5890.03,268.692L5890.08,268.782L5890.13,268.872L5890.18,268.962L5890.23,269.051L5890.28,269.139L5890.33,269.228L5890.38,269.316L5890.44,269.403L5890.49,269.49L5890.54,269.577L5890.6,269.663L5890.65,269.749L5890.71,269.834L5890.77,269.919L5890.83,270.003L5890.87,270.071L5892.91,270.003L5893.01,270.004L5893.11,270.015L5893.21,270.036L5893.31,270.066L5893.4,270.106L5893.49,270.154L5893.57,270.21L5893.65,270.275L5893.72,270.346L5893.79,270.424L5893.84,270.508L5893.89,270.597L5893.93,270.69L5893.96,270.786L5893.98,270.885L5893.99,270.986L5893.99,271.087L5893.93,273.123L5893.99,273.17L5894.08,273.228L5894.16,273.285L5894.25,273.342L5894.33,273.398L5894.42,273.453L5894.51,273.507L5894.59,273.561L5894.68,273.614L5894.77,273.666L5894.86,273.717L5894.94,273.768L5895.03,273.818L5895.12,273.868L5895.21,273.916L5895.31,273.964L5895.4,274.011L5895.49,274.057L5895.58,274.103L5895.67,274.148L5895.76,274.192L5895.84,274.227L5897.57,273.15L5897.65,273.1L5897.75,273.06L5897.84,273.028L5897.94,273.006L5898.04,272.994L5898.14,272.991L5898.24,272.998L5898.34,273.015L5898.44,273.041L5898.54,273.076L5898.63,273.121L5898.71,273.174L5898.79,273.235L5898.87,273.303L5898.94,273.378L5899,273.46L5899.05,273.546L5900.01,275.344L5900.09,275.351L5900.19,275.359L5900.29,275.366L5900.4,275.372L5900.5,275.378L5900.6,275.383L5900.7,275.386L5900.8,275.389L5900.91,275.391L5901.01,275.393L5901.11,275.393L5901.21,275.393L5901.32,275.391L5901.42,275.389L5901.52,275.386L5901.62,275.383L5901.72,275.378L5901.83,275.372L5901.93,275.366L5902.03,275.359L5902.13,275.351L5902.21,275.344L5903.17,273.546L5903.23,273.46L5903.28,273.378L5903.35,273.303L5903.43,273.235L5903.51,273.174L5903.59,273.121L5903.68,273.076L5903.78,273.041L5903.88,273.015L5903.98,272.998L5904.08,272.991L5904.18,272.994L5904.28,273.006L5904.38,273.028L5904.47,273.06L5904.57,273.1L5904.65,273.15L5906.38,274.227L5906.46,274.192L5906.55,274.148L5906.64,274.103L5906.73,274.057L5906.82,274.011L5906.92,273.964L5907.01,273.916L5907.1,273.868L5907.19,273.818L5907.28,273.768L5907.36,273.717L5907.45,273.666L5907.54,273.614L5907.63,273.561L5907.72,273.507L5907.8,273.453L5907.89,273.398L5907.97,273.342L5908.06,273.285L5908.14,273.228L5908.23,273.17L5908.3,273.123L5908.23,271.087L5908.23,270.986L5908.24,270.885L5908.26,270.786L5908.29,270.69L5908.33,270.597L5908.38,270.508L5908.44,270.424L5908.5,270.346L5908.57,270.275L5908.65,270.21L5908.73,270.154L5908.82,270.106L5908.91,270.066L5909.01,270.036L5909.11,270.015L5909.21,270.004L5909.31,270.003L5911.35,270.071L5911.4,270.003L5911.45,269.919L5911.51,269.834L5911.57,269.749L5911.62,269.663L5911.68,269.577L5911.73,269.49L5911.78,269.403L5911.84,269.316L5911.89,269.228L5911.94,269.139L5911.99,269.051L5912.04,268.961L5912.09,268.872L5912.14,268.782L5912.19,268.692L5912.23,268.601L5912.28,268.51L5912.33,268.418L5912.37,268.326L5912.42,268.234L5912.45,268.159L5911.37,266.43L5911.32,266.342L5911.28,266.249L5911.25,266.153L5911.23,266.054L5911.22,265.954L5911.22,265.853L5911.22,265.752L5911.24,265.652L5911.27,265.555L5911.3,265.46L5911.35,265.369L5911.4,265.283L5911.46,265.202L5911.53,265.128L5911.6,265.061L5911.68,265.001L5911.77,264.949L5913.57,263.99L5913.57,263.908L5913.58,263.806L5913.59,263.704L5913.6,263.602L5913.6,263.499L5913.61,263.397L5913.61,263.295L5913.61,263.193L5913.61,263.09L5913.62,262.988L5913.62,262.886L5913.62,262.784L5913.61,262.682L5913.61,262.579L5913.61,262.477L5913.61,262.375L5913.6,262.273L5913.6,262.17L5913.59,262.068L5913.58,261.966L5913.57,261.864L5913.57,261.782L5911.77,260.823L5911.68,260.771L5911.6,260.711L5911.53,260.644L5911.46,260.57L5911.4,260.489L5911.35,260.403L5911.3,260.312L5911.27,260.217L5911.24,260.12L5911.22,260.02L5911.22,259.919L5911.22,259.818L5911.23,259.718L5911.25,259.619L5911.28,259.523L5911.32,259.43L5911.37,259.342L5912.45,257.613L5912.42,257.538L5912.37,257.446L5912.33,257.354L5912.28,257.262L5912.23,257.171L5912.19,257.08L5912.14,256.99L5912.09,256.9L5912.04,256.81L5911.99,256.721L5911.94,256.633L5911.89,256.544L5911.84,256.456L5911.78,256.369L5911.73,256.282L5911.68,256.195L5911.62,256.109L5911.57,256.023L5911.51,255.938L5911.45,255.853L5911.4,255.769L5911.35,255.701L5909.31,255.769L5909.21,255.768L5909.11,255.757L5909.01,255.736L5908.91,255.706L5908.82,255.666L5908.73,255.618L5908.65,255.562L5908.57,255.497L5908.5,255.426L5908.44,255.348L5908.38,255.264L5908.33,255.175L5908.29,255.082L5908.26,254.986L5908.24,254.887L5908.23,254.786L5908.23,254.685L5908.3,252.649L5908.23,252.602L5908.14,252.544L5908.06,252.487L5907.97,252.43L5907.89,252.374L5907.8,252.319L5907.71,252.265L5907.63,252.211L5907.54,252.158L5907.45,252.106L5907.36,252.055L5907.28,252.004L5907.19,251.954L5907.1,251.905L5907.01,251.856L5906.92,251.808L5906.82,251.761L5906.73,251.715L5906.64,251.669L5906.55,251.624L5906.46,251.58L5906.38,251.545L5904.65,252.622L5904.57,252.672L5904.47,252.712L5904.38,252.744L5904.28,252.766L5904.18,252.778L5904.08,252.781L5903.98,252.774L5903.88,252.757L5903.78,252.731L5903.68,252.696L5903.59,252.651L5903.51,252.598L5903.43,252.537L5903.35,252.469L5903.28,252.394L5903.23,252.312L5903.17,252.226L5902.21,250.428L5902.13,250.421L5902.03,250.413L5901.93,250.406L5901.83,250.4L5901.72,250.394L5901.62,250.39L5901.52,250.386L5901.42,250.383L5901.32,250.381L5901.21,250.379L5901.11,250.379L5901.01,250.379ZM5901.26,257.037L5901.41,257.042L5901.56,257.052L5901.71,257.065L5901.85,257.082L5902,257.102L5902.14,257.126L5902.29,257.154L5902.43,257.185L5902.57,257.219L5902.71,257.257L5902.85,257.298L5902.99,257.343L5903.12,257.39L5903.26,257.441L5903.39,257.495L5903.52,257.552L5903.65,257.613L5903.77,257.676L5903.9,257.742L5904.02,257.811L5904.14,257.883L5904.26,257.958L5904.38,258.035L5904.5,258.115L5904.61,258.198L5904.72,258.284L5904.83,258.372L5904.94,258.462L5905.04,258.555L5905.15,258.651L5905.25,258.749L5905.35,258.849L5905.44,258.952L5905.53,259.057L5905.62,259.164L5905.71,259.274L5905.8,259.385L5905.88,259.499L5905.96,259.614L5906.04,259.732L5906.11,259.852L5906.19,259.973L5906.25,260.097L5906.32,260.222L5906.38,260.349L5906.44,260.478L5906.5,260.609L5906.56,260.741L5906.61,260.875L5906.65,261.01L5906.7,261.147L5906.74,261.285L5906.78,261.425L5906.81,261.566L5906.84,261.708L5906.87,261.852L5906.89,261.996L5906.91,262.142L5906.93,262.289L5906.94,262.437L5906.95,262.586L5906.96,262.735L5906.96,262.886L5906.96,263.037L5906.95,263.186L5906.94,263.335L5906.93,263.483L5906.91,263.63L5906.89,263.776L5906.87,263.92L5906.84,264.064L5906.81,264.206L5906.78,264.347L5906.74,264.487L5906.7,264.625L5906.65,264.762L5906.61,264.897L5906.56,265.031L5906.5,265.163L5906.44,265.294L5906.38,265.423L5906.32,265.55L5906.25,265.675L5906.19,265.799L5906.11,265.92L5906.04,266.04L5905.96,266.158L5905.88,266.273L5905.8,266.387L5905.71,266.498L5905.62,266.608L5905.53,266.715L5905.44,266.82L5905.35,266.922L5905.25,267.023L5905.15,267.121L5905.04,267.216L5904.94,267.31L5904.83,267.4L5904.72,267.488L5904.61,267.574L5904.5,267.657L5904.38,267.737L5904.26,267.814L5904.14,267.889L5904.02,267.961L5903.9,268.03L5903.77,268.096L5903.65,268.159L5903.52,268.22L5903.39,268.277L5903.26,268.331L5903.12,268.382L5902.99,268.429L5902.85,268.474L5902.71,268.515L5902.57,268.553L5902.43,268.587L5902.29,268.618L5902.15,268.646L5902,268.67L5901.85,268.69L5901.71,268.707L5901.56,268.72L5901.41,268.73L5901.26,268.735L5901.11,268.737L5900.96,268.735L5900.81,268.73L5900.66,268.72L5900.51,268.707L5900.37,268.69L5900.22,268.67L5900.08,268.646L5899.93,268.618L5899.79,268.587L5899.65,268.553L5899.51,268.515L5899.37,268.474L5899.23,268.429L5899.1,268.382L5898.97,268.331L5898.83,268.277L5898.7,268.22L5898.57,268.159L5898.45,268.096L5898.32,268.03L5898.2,267.961L5898.08,267.889L5897.96,267.814L5897.84,267.737L5897.72,267.657L5897.61,267.574L5897.5,267.488L5897.39,267.4L5897.28,267.31L5897.18,267.216L5897.07,267.121L5896.97,267.023L5896.88,266.922L5896.78,266.82L5896.69,266.715L5896.6,266.608L5896.51,266.498L5896.42,266.387L5896.34,266.273L5896.26,266.158L5896.18,266.04L5896.11,265.92L5896.03,265.799L5895.97,265.675L5895.9,265.55L5895.84,265.423L5895.78,265.294L5895.72,265.163L5895.66,265.031L5895.61,264.897L5895.57,264.762L5895.52,264.625L5895.48,264.487L5895.44,264.347L5895.41,264.206L5895.38,264.064L5895.35,263.92L5895.33,263.776L5895.31,263.63L5895.29,263.483L5895.28,263.335L5895.27,263.186L5895.26,263.037L5895.26,262.886L5895.26,262.735L5895.27,262.586L5895.28,262.437L5895.29,262.289L5895.31,262.142L5895.33,261.996L5895.35,261.852L5895.38,261.708L5895.41,261.566L5895.44,261.425L5895.48,261.285L5895.52,261.147L5895.57,261.01L5895.61,260.875L5895.66,260.741L5895.72,260.609L5895.78,260.478L5895.84,260.349L5895.9,260.222L5895.97,260.097L5896.03,259.973L5896.11,259.852L5896.18,259.732L5896.26,259.614L5896.34,259.499L5896.42,259.385L5896.51,259.274L5896.6,259.164L5896.69,259.057L5896.78,258.952L5896.88,258.849L5896.97,258.749L5897.07,258.651L5897.18,258.556L5897.28,258.462L5897.39,258.372L5897.5,258.284L5897.61,258.198L5897.72,258.115L5897.84,258.035L5897.96,257.958L5898.08,257.883L5898.2,257.811L5898.32,257.742L5898.45,257.676L5898.57,257.613L5898.7,257.552L5898.83,257.495L5898.97,257.441L5899.1,257.39L5899.23,257.343L5899.37,257.298L5899.51,257.257L5899.65,257.219L5899.79,257.185L5899.93,257.154L5900.08,257.126L5900.22,257.102L5900.37,257.082L5900.51,257.065L5900.66,257.052L5900.81,257.042L5900.96,257.037L5901.11,257.035L5901.26,257.037ZM5900.99,258.086L5900.86,258.09L5900.74,258.098L5900.62,258.109L5900.5,258.123L5900.38,258.14L5900.26,258.159L5900.14,258.182L5900.03,258.207L5899.91,258.236L5899.8,258.267L5899.68,258.3L5899.57,258.337L5899.46,258.376L5899.35,258.418L5899.24,258.462L5899.14,258.509L5899.03,258.558L5898.93,258.61L5898.82,258.664L5898.72,258.721L5898.62,258.78L5898.52,258.841L5898.43,258.905L5898.33,258.971L5898.24,259.039L5898.15,259.109L5898.06,259.181L5897.97,259.256L5897.88,259.332L5897.8,259.411L5897.72,259.491L5897.64,259.574L5897.56,259.658L5897.48,259.744L5897.4,259.832L5897.33,259.922L5897.26,260.014L5897.19,260.107L5897.13,260.202L5897.07,260.299L5897,260.397L5896.94,260.497L5896.89,260.598L5896.83,260.701L5896.78,260.805L5896.73,260.911L5896.69,261.018L5896.64,261.126L5896.6,261.236L5896.56,261.347L5896.52,261.459L5896.49,261.572L5896.46,261.687L5896.43,261.802L5896.41,261.919L5896.38,262.036L5896.36,262.155L5896.35,262.275L5896.33,262.395L5896.32,262.517L5896.32,262.639L5896.31,262.762L5896.31,262.886L5896.31,263.01L5896.32,263.133L5896.32,263.255L5896.33,263.377L5896.35,263.497L5896.36,263.617L5896.38,263.736L5896.41,263.853L5896.43,263.97L5896.46,264.085L5896.49,264.2L5896.52,264.313L5896.56,264.425L5896.6,264.536L5896.64,264.646L5896.69,264.754L5896.73,264.861L5896.78,264.967L5896.83,265.071L5896.89,265.174L5896.94,265.275L5897,265.375L5897.07,265.473L5897.13,265.57L5897.19,265.665L5897.26,265.758L5897.33,265.85L5897.4,265.94L5897.48,266.028L5897.56,266.114L5897.64,266.198L5897.72,266.281L5897.8,266.361L5897.88,266.44L5897.97,266.516L5898.06,266.591L5898.15,266.663L5898.24,266.733L5898.33,266.801L5898.43,266.867L5898.52,266.931L5898.62,266.992L5898.72,267.051L5898.82,267.108L5898.93,267.162L5899.03,267.214L5899.14,267.263L5899.24,267.31L5899.35,267.354L5899.46,267.396L5899.57,267.435L5899.68,267.472L5899.8,267.505L5899.91,267.536L5900.03,267.565L5900.14,267.59L5900.26,267.613L5900.38,267.632L5900.5,267.649L5900.62,267.663L5900.74,267.674L5900.86,267.682L5900.99,267.686L5901.11,267.688L5901.23,267.686L5901.36,267.682L5901.48,267.674L5901.6,267.663L5901.72,267.649L5901.84,267.632L5901.96,267.613L5902.08,267.59L5902.19,267.565L5902.31,267.536L5902.42,267.505L5902.54,267.472L5902.65,267.435L5902.76,267.396L5902.87,267.354L5902.98,267.31L5903.09,267.263L5903.19,267.214L5903.3,267.162L5903.4,267.108L5903.5,267.051L5903.6,266.992L5903.7,266.931L5903.79,266.867L5903.89,266.801L5903.98,266.733L5904.07,266.663L5904.16,266.591L5904.25,266.516L5904.34,266.44L5904.42,266.361L5904.51,266.281L5904.59,266.198L5904.66,266.114L5904.74,266.028L5904.82,265.94L5904.89,265.85L5904.96,265.758L5905.03,265.665L5905.09,265.57L5905.15,265.473L5905.22,265.375L5905.28,265.275L5905.33,265.174L5905.39,265.071L5905.44,264.967L5905.49,264.861L5905.53,264.754L5905.58,264.646L5905.62,264.536L5905.66,264.425L5905.7,264.313L5905.73,264.2L5905.76,264.085L5905.79,263.97L5905.81,263.853L5905.84,263.736L5905.86,263.617L5905.87,263.497L5905.89,263.377L5905.9,263.255L5905.91,263.133L5905.91,263.01L5905.91,262.886L5905.91,262.762L5905.91,262.639L5905.9,262.517L5905.89,262.395L5905.87,262.275L5905.86,262.155L5905.84,262.036L5905.81,261.919L5905.79,261.802L5905.76,261.687L5905.73,261.572L5905.7,261.459L5905.66,261.347L5905.62,261.236L5905.58,261.126L5905.53,261.018L5905.49,260.911L5905.44,260.805L5905.39,260.701L5905.33,260.598L5905.28,260.497L5905.22,260.397L5905.15,260.299L5905.09,260.202L5905.03,260.107L5904.96,260.014L5904.89,259.922L5904.82,259.832L5904.74,259.744L5904.66,259.658L5904.59,259.574L5904.51,259.491L5904.42,259.411L5904.34,259.332L5904.25,259.256L5904.16,259.181L5904.07,259.109L5903.98,259.039L5903.89,258.971L5903.79,258.905L5903.7,258.841L5903.6,258.78L5903.5,258.721L5903.4,258.664L5903.3,258.61L5903.19,258.558L5903.09,258.509L5902.98,258.462L5902.87,258.418L5902.76,258.376L5902.65,258.337L5902.54,258.3L5902.42,258.267L5902.31,258.236L5902.19,258.207L5902.08,258.182L5901.96,258.159L5901.84,258.14L5901.72,258.123L5901.6,258.109L5901.48,258.098L5901.36,258.09L5901.23,258.086L5901.11,258.084L5900.99,258.086Z" style="fill:rgb(59,72,84);"/>
                    </g>
                </g>
                <g transform="matrix(1.35395,0,0,0.453596,-705.079,-584.688)">
                    <text x="1764.6px" y="1746.16px" style="font-family:'Raleway', sans-serif;font-size:16.947px;fill:rgb(59,72,84);">Learn</text>
                </g>
                <g transform="matrix(1.35395,0,0,0.453596,-477.746,-584.688)">
                    <text x="1762.43px" y="1746.16px" style="font-family:'Raleway', sans-serif;font-size:16.947px;fill:rgb(59,72,84);">I<tspan x="1766.51px 1777.07px 1787.02px 1796.19px 1801.81px " y="1746.16px 1746.16px 1746.16px 1746.16px 1746.16px ">deate</tspan></text>
                </g>
                <g transform="matrix(1.35395,0,0,0.453596,-248.992,-584.688)">
                    <text x="1748.81px" y="1746.16px" style="font-family:'Raleway', sans-serif;font-size:16.947px;fill:rgb(59,72,84);">Pr<tspan x="1764.88px 1774.83px " y="1746.16px 1746.16px ">ot</tspan>ot<tspan x="1795.82px " y="1746.16px ">y</tspan>pe</text>
                </g>
                <g transform="matrix(1.35395,0,0,0.453596,-21.6584,-584.688)">
                    <text x="1753.42px" y="1746.16px" style="font-family:'Raleway', sans-serif;font-size:16.947px;fill:rgb(59,72,84);">E<tspan x="1763.44px 1772.2px 1781.49px " y="1746.16px 1746.16px 1746.16px ">val</tspan>ua<tspan x="1805.19px 1810.82px " y="1746.16px 1746.16px ">te</tspan></text>
                </g>
                <g id="prototype" transform="matrix(1.42083,0,0,0.476003,2170.64,177.869)">
                    <g transform="matrix(1,0,0,1,-25,-23.7342)">
                        <clipPath id="_clip1">
                            <rect x="0" y="0" width="50" height="47.468"/>
                        </clipPath>
                        <g clip-path="url(#_clip1)">
                            <g transform="matrix(0.632911,0,0,0.632911,0,0)">
                                <rect x="6.433" y="6.452" width="66.135" height="41.784" style="fill:none;stroke:rgb(112,112,112);stroke-width:1.58px;stroke-linejoin:miter;stroke-miterlimit:4;"/>
                            </g>
                            <g id="Color_Fill_25" transform="matrix(0.632911,0,0,0.632911,0,0)">
                                <path d="M52.231,75L26.766,75L26.766,66.486L29.926,66.486L29.926,71.83L49.071,71.83L49.071,66.486L52.231,66.486L52.231,75ZM57.017,75L21.983,75L21.983,71.83L57.018,71.83L57.018,75L57.017,75ZM79,54.689L0,54.689L0,4.268C-0.003,3.136 0.446,2.048 1.248,1.249C2.042,0.445 3.127,-0.005 4.257,0L74.742,0C77.079,0.002 79,1.925 79,4.262C79,4.264 79,4.266 79,4.268L79,54.689ZM3.159,51.52L75.841,51.52L75.841,4.268C75.843,3.978 75.729,3.699 75.524,3.494C75.319,3.283 75.036,3.166 74.742,3.169L4.257,3.169C3.969,3.167 3.692,3.28 3.489,3.484C3.278,3.69 3.159,3.973 3.16,4.268L3.16,51.52L3.159,51.52ZM74.742,63.632L4.255,63.632C1.92,63.63 0,61.708 0,59.373C0,59.37 0,59.367 0,59.364L0,51.52L79,51.52L79,59.364C79,59.368 79,59.372 79,59.376C79,61.711 77.079,63.632 74.744,63.632C74.743,63.632 74.743,63.632 74.742,63.632L74.742,63.632ZM3.159,54.689L3.159,59.364C3.158,59.656 3.274,59.937 3.481,60.143C3.685,60.35 3.964,60.466 4.254,60.464L74.742,60.464C74.745,60.464 74.747,60.464 74.75,60.464C75.349,60.464 75.842,59.971 75.842,59.372C75.842,59.369 75.842,59.367 75.842,59.364L75.842,54.689L3.159,54.689Z" style="fill:rgb(255,209,26);fill-rule:nonzero;"/>
                            </g>
                            <g id="Color_Fill_26" transform="matrix(0.632911,0,0,0.632911,0,0)">
                                <path d="M13.777,33.247L10.617,33.247L10.617,26.761L13.777,26.761L13.777,33.247ZM18.741,29.4L15.581,29.4L15.581,20.26L18.741,20.26L18.741,29.4ZM23.706,33.242L20.546,33.242L20.546,30.088L23.706,30.088L23.706,33.247L23.706,33.242ZM28.67,40.557L25.51,40.557L25.51,32.747L28.67,32.747L28.67,40.562L28.67,40.557ZM33.634,42.551L30.474,42.551L30.474,38.732L33.634,38.732L33.634,42.556L33.634,42.551ZM38.599,35.901L35.439,35.901L35.439,16.788L38.6,16.788L38.6,35.906L38.599,35.901ZM43.562,19.943L40.4,19.943L40.4,12.134L43.56,12.134L43.56,19.947L43.562,19.943ZM48.528,31.816L45.368,31.816L45.368,18.784L48.528,18.784L48.528,31.821L48.528,31.816ZM53.491,29.916L50.331,29.916L50.331,26.1L53.491,26.1L53.491,29.92L53.491,29.916ZM58.455,37.232L55.295,37.232L55.295,28.757L58.455,28.757L58.455,37.235L58.455,37.232ZM63.419,31.912L60.259,31.912L60.259,19.447L63.419,19.447L63.419,31.915L63.419,31.912ZM68.383,21.271L65.223,21.271L65.223,16.788L68.383,16.788L68.383,21.273L68.383,21.271Z" style="fill:rgb(99,99,99);fill-rule:nonzero;"/>
                            </g>
                        </g>
                    </g>
                </g>
                <g id="ideate" transform="matrix(1.42083,0,0,0.476003,1941.89,177.267)">
                    <g transform="matrix(1,0,0,1,-17.5676,-25)">
                        <clipPath id="_clip2">
                            <rect x="0" y="0" width="35.135" height="50"/>
                        </clipPath>
                        <g clip-path="url(#_clip2)">
                            <g transform="matrix(0.675676,0,0,0.675676,0,0)">
                                <path d="M33.577,49.584L18.412,49.584L18.412,48.562C18.407,45.172 16.976,41.936 14.471,39.651L14.007,39.251C10.299,35.877 8.182,31.09 8.182,26.076C8.182,16.305 16.223,8.264 25.994,8.264C35.766,8.264 43.806,16.305 43.806,26.076C43.806,31.081 41.697,35.861 38,39.234L37.5,39.666C35.003,41.95 33.578,45.182 33.575,48.566L33.575,49.588L33.577,49.584ZM20.419,47.539L31.57,47.539C31.838,43.938 33.474,40.573 36.141,38.139L36.641,37.706C39.903,34.721 41.763,30.497 41.763,26.075C41.763,17.425 34.646,10.308 25.996,10.308C17.347,10.308 10.229,17.425 10.229,26.075C10.229,30.505 12.097,34.737 15.37,37.723L15.835,38.123C18.509,40.56 20.151,43.931 20.419,47.539L20.419,47.539ZM25.99,74L18.417,60.877L33.571,60.877L25.99,74ZM21.957,62.921L25.991,69.911L30.028,62.919L21.957,62.921ZM25.992,71.956L27.974,68.524L24.01,68.524L25.992,71.956ZM25.992,74.001L22.24,67.5L29.74,67.5L25.992,74.001ZM25.781,69.547L25.992,69.912L26.203,69.547L25.781,69.547L25.781,69.547ZM18.412,53.67L18.412,47.534L33.576,47.54L33.576,53.665L18.412,53.67ZM20.456,49.581L20.456,51.625L31.53,51.625L31.53,49.584L20.456,49.581Z" style="fill:rgb(255,209,26);fill-rule:nonzero;"/>
                            </g>
                            <g id="Color_Fill_24" transform="matrix(0.675676,0,0,0.675676,0,0)">
                                <path d="M29.2,60.873L27.158,60.873L27.158,52.644L29.2,52.644L29.2,60.873ZM31.532,60.873L31.532,52.638L33.576,52.638L33.576,60.873L31.533,60.873L31.532,60.873ZM20.455,60.873L18.412,60.873L18.412,52.642L20.456,52.642L20.456,60.873L20.455,60.873ZM24.825,60.873L22.781,60.873L22.781,52.642L24.83,52.642L24.825,60.873ZM27.987,38.71L24,38.71L22.892,35.8C22.35,35.626 21.823,35.408 21.317,35.146L18.472,36.42L15.653,33.6L16.927,30.755C16.666,30.249 16.447,29.722 16.273,29.179L13.363,28.069L13.363,24.082L16.273,22.972C16.447,22.429 16.666,21.902 16.927,21.396L15.653,18.552L18.473,15.732L21.317,17.006C21.823,16.744 22.35,16.526 22.892,16.352L24,13.441L27.986,13.441L29.095,16.351C29.638,16.525 30.165,16.743 30.671,17.005L33.516,15.731L36.335,18.551L35.061,21.4C35.324,21.906 35.543,22.434 35.717,22.977L38.627,24.087L38.627,28.073L35.718,29.182C35.544,29.725 35.325,30.253 35.062,30.759L36.337,33.6L33.518,36.42L30.673,35.145C30.168,35.407 29.642,35.626 29.1,35.8L27.987,38.71ZM25.41,36.665L26.58,36.665L27.556,34.105L28.065,33.972C28.783,33.783 29.472,33.496 30.112,33.121L30.566,32.856L33.066,33.978L33.892,33.151L32.77,30.646L33.036,30.192C33.412,29.553 33.698,28.865 33.886,28.148L34.019,27.638L36.58,26.661L36.58,25.491L34.019,24.513L33.889,24C33.701,23.283 33.415,22.595 33.039,21.956L32.773,21.501L33.895,19L33.069,18.173L30.569,19.294L30.11,19.03C29.47,18.654 28.781,18.368 28.063,18.18L27.555,18.047L26.579,15.486L25.41,15.486L24.434,18.046L23.925,18.179C23.208,18.367 22.52,18.653 21.88,19.029L21.425,19.295L18.925,18.173L18.094,19L19.215,21.5L18.95,21.954C18.575,22.594 18.289,23.283 18.1,24.001L17.967,24.509L15.407,25.486L15.407,26.656L17.967,27.633L18.1,28.145C18.289,28.863 18.575,29.551 18.95,30.192L19.216,30.646L18.095,33.146L18.923,33.973L21.423,32.851L21.877,33.117C22.517,33.492 23.205,33.778 23.922,33.967L24.434,34.1L25.41,36.665ZM26,32.149C26,32.149 25.999,32.149 25.999,32.149C22.667,32.149 19.926,29.408 19.926,26.076C19.926,22.744 22.667,20.003 25.999,20.003C29.33,20.003 32.071,22.744 32.072,26.075C32.069,29.405 29.33,32.145 26,32.149ZM26,22.049C25.999,22.049 25.999,22.049 25.998,22.049C23.788,22.049 21.969,23.868 21.969,26.078C21.969,28.288 23.788,30.107 25.998,30.107C28.208,30.107 30.027,28.288 30.027,26.078C30.027,26.078 30.027,26.077 30.027,26.077C30.025,23.868 28.209,22.05 26,22.047L26,22.049ZM27.017,4.328L24.973,4.328L24.973,0L27.017,0L27.017,4.328ZM31.508,5.015L29.508,4.59L30.408,0.357L32.408,0.782L31.508,5.015ZM35.76,6.621L33.891,5.79L35.651,1.836L37.52,2.668L35.76,6.621ZM39.583,9.077L37.929,7.877L40.474,4.377L42.128,5.577L39.583,9.077ZM42.813,12.277L41.446,10.757L44.663,7.857L46.03,9.377L42.813,12.277ZM45.313,16.077L44.286,14.3L48.034,12.136L49.056,13.907L45.313,16.077ZM46.963,20.311L46.326,18.36L50.443,17.023L51.074,18.967L46.963,20.311ZM47.698,24.796L47.484,22.763L51.784,22.311L52,24.338L47.698,24.796ZM51.788,29.788L47.488,29.335L47.693,27.3L52,27.748L51.788,29.788ZM50.448,35.069L46.331,33.732L46.963,31.787L51.079,33.124L50.448,35.069ZM48.038,39.956L44.29,37.792L45.312,36.021L49.059,38.184L48.038,39.956ZM44.666,44.235L41.449,41.335L42.817,39.815L46.034,42.715L44.666,44.235ZM40.478,47.719L37.933,44.219L39.587,43.019L42.131,46.519L40.478,47.719ZM20.482,5.014L19.582,0.782L21.582,0.357L22.482,4.589L20.482,5.014ZM16.231,6.62L14.471,2.668L16.339,1.836L18.1,5.789L16.231,6.62ZM12.408,9.076L9.864,5.576L11.518,4.376L14.062,7.876L12.408,9.076ZM9.178,12.276L5.961,9.376L7.328,7.856L10.545,10.756L9.178,12.276ZM6.678,16.076L2.935,13.905L3.957,12.134L7.7,14.3L6.678,16.076ZM5.032,20.3L0.916,18.966L1.548,17.021L5.664,18.358L5.032,20.3ZM4.3,24.788L0,24.336L0.207,22.3L4.507,22.752L4.3,24.788ZM0.207,29.78L-0.006,27.747L4.294,27.295L4.508,29.328L0.207,29.78ZM1.547,35.06L0.916,33.116L5.032,31.779L5.663,33.724L1.547,35.06ZM3.956,39.947L2.934,38.176L6.681,36.013L7.7,37.784L3.956,39.947ZM7.327,44.226L5.96,42.706L9.178,39.806L10.545,41.326L7.327,44.226ZM11.515,47.71L9.862,46.51L12.408,43.01L14.061,44.21L11.515,47.71Z" style="fill:rgb(99,99,99);fill-rule:nonzero;"/>
                            </g>
                        </g>
                    </g>
                </g>
                <g id="test" transform="matrix(1.42083,0,0,0.476003,2397.98,177.267)">
                    <g transform="matrix(1,0,0,1,-22.3333,-25)">
                        <clipPath id="_clip3">
                            <rect x="0" y="0" width="44.667" height="50"/>
                        </clipPath>
                        <g clip-path="url(#_clip3)">
                            <g transform="matrix(0.666667,0,0,0.666667,0,0)">
                                <path d="M53.265,68.684C51.324,68.692 49.458,67.928 48.079,66.563C46.702,65.217 45.926,63.369 45.93,61.443L45.93,53.443C45.926,51.516 46.702,49.668 48.079,48.321C50.94,45.51 55.591,45.51 58.452,48.321C59.827,49.669 60.602,51.516 60.6,53.441L60.6,61.441C60.602,63.367 59.827,65.214 58.451,66.562C57.072,67.928 55.206,68.691 53.265,68.684L53.265,68.684ZM53.265,74.999C49.632,75.012 46.139,73.583 43.556,71.029C40.98,68.507 39.53,65.048 39.536,61.443L39.536,53.443C39.53,49.838 40.98,46.379 43.555,43.857C48.912,38.597 57.618,38.597 62.975,43.857C65.552,46.378 67.004,49.836 67,53.441L67,61.441C67.006,65.046 65.556,68.505 62.981,71.027C60.397,73.584 56.901,75.014 53.265,75L53.265,74.999ZM53.265,42.991C50.464,42.981 47.771,44.083 45.779,46.052C43.793,47.996 42.675,50.663 42.679,53.442L42.679,61.442C42.675,64.221 43.793,66.888 45.779,68.832C49.909,72.886 56.62,72.886 60.75,68.832C62.736,66.888 63.854,64.221 63.85,61.442L63.85,53.442C63.855,50.662 62.736,47.995 60.75,46.051C58.759,44.081 56.066,42.98 53.265,42.99L53.265,42.991ZM2.361,74.477L0.009,72.415L64.247,0.989L66.6,3.051L2.361,74.477Z" style="fill:rgb(99,99,99);fill-rule:nonzero;"/>
                            </g>
                            <g id="Color_Fill_27" transform="matrix(0.666667,0,0,0.666667,0,0)">
                                <path d="M13.644,28.978C13.641,28.978 13.638,28.978 13.635,28.978C9.636,28.978 6.346,25.689 6.344,21.69L6.344,13.638C6.344,9.636 9.637,6.344 13.638,6.344C17.64,6.344 20.933,9.636 20.933,13.638L20.933,21.69C20.93,25.687 17.641,28.976 13.644,28.978ZM13.644,35.332C13.641,35.332 13.638,35.332 13.635,35.332C6.15,35.332 -0.009,29.174 -0.01,21.689L-0.01,13.638C-0.004,6.151 6.159,-0.008 13.646,-0.008C17.265,-0.008 20.74,1.431 23.3,3.99C25.868,6.542 27.309,10.018 27.3,13.638L27.3,21.69C27.299,29.174 21.141,35.331 13.657,35.331C13.653,35.331 13.648,35.331 13.644,35.331L13.644,35.332ZM13.644,3.121C13.641,3.121 13.639,3.121 13.636,3.121C7.866,3.121 3.119,7.868 3.118,13.638L3.118,21.69C3.124,27.461 7.875,32.206 13.646,32.206C16.435,32.206 19.113,31.098 21.086,29.127C23.064,27.16 24.175,24.48 24.167,21.69L24.167,13.638C24.167,13.638 24.167,13.638 24.167,13.638C24.167,7.869 19.419,3.121 13.65,3.121C13.648,3.121 13.646,3.121 13.644,3.121L13.644,3.121ZM67,20.856L63.867,20.856L63.867,3.121L46.116,3.121L46.116,0L67,0L67,20.856Z" style="fill:rgb(255,209,26);fill-rule:nonzero;"/>
                            </g>
                        </g>
                    </g>
                </g>
            </g>
        </g>
    </g>
</svg>
