<?xml version="1.0" encoding="UTF-8" standalone="no"?>
<!DOCTYPE svg PUBLIC "-//W3C//DTD SVG 1.1//EN" "http://www.w3.org/Graphics/SVG/1.1/DTD/svg11.dtd">
<svg width="100%" height="100%" viewBox="0 0 75 75" version="1.1" xmlns="http://www.w3.org/2000/svg" xmlns:xlink="http://www.w3.org/1999/xlink" xml:space="preserve" style="fill-rule:evenodd;clip-rule:evenodd;">
    <g transform="matrix(1,0,0,1,-858.333,-114.333)">
        <g id="prototype" transform="matrix(1.80723,0,0,2.14286,612.387,114.333)">
            <rect x="136.09" y="0" width="41.5" height="35" style="fill:none;"/>
            <g id="prototype1" transform="matrix(0.685281,0,0,0.577948,156.84,17.5)">
                <g transform="matrix(1,0,0,1,-25,-23.7342)">
                    <clipPath id="_clip1">
                        <rect x="0" y="0" width="50" height="47.468"/>
                    </clipPath>
                    <g clip-path="url(#_clip1)">
                        <g transform="matrix(0.632911,0,0,0.632911,0,0)">
                            <rect x="6.433" y="6.452" width="66.135" height="41.784" style="fill:none;stroke:rgb(112,112,112);stroke-width:1.58px;"/>
                        </g>
                        <g id="Color_Fill_25" transform="matrix(0.632911,0,0,0.632911,0,0)">
                            <path d="M52.231,75L26.766,75L26.766,66.486L29.926,66.486L29.926,71.83L49.071,71.83L49.071,66.486L52.231,66.486L52.231,75ZM57.017,75L21.983,75L21.983,71.83L57.018,71.83L57.018,75L57.017,75ZM79,54.689L0,54.689L0,4.268C-0.003,3.136 0.446,2.048 1.248,1.249C2.042,0.445 3.127,-0.005 4.257,0L74.742,0C77.079,0.002 79,1.925 79,4.262C79,4.264 79,4.266 79,4.268L79,54.689ZM3.159,51.52L75.841,51.52L75.841,4.268C75.843,3.978 75.729,3.699 75.524,3.494C75.319,3.283 75.036,3.166 74.742,3.169L4.257,3.169C3.969,3.167 3.692,3.28 3.489,3.484C3.278,3.69 3.159,3.973 3.16,4.268L3.16,51.52L3.159,51.52ZM74.742,63.632L4.255,63.632C1.92,63.63 0,61.708 0,59.373C0,59.37 0,59.367 0,59.364L0,51.52L79,51.52L79,59.364C79,59.368 79,59.372 79,59.376C79,61.711 77.079,63.632 74.744,63.632C74.743,63.632 74.743,63.632 74.742,63.632L74.742,63.632ZM3.159,54.689L3.159,59.364C3.158,59.656 3.274,59.937 3.481,60.143C3.685,60.35 3.964,60.466 4.254,60.464L74.742,60.464C74.745,60.464 74.747,60.464 74.75,60.464C75.349,60.464 75.842,59.971 75.842,59.372C75.842,59.369 75.842,59.367 75.842,59.364L75.842,54.689L3.159,54.689Z" style="fill:rgb(255,209,26);fill-rule:nonzero;"/>
                        </g>
                        <g id="Color_Fill_26" transform="matrix(0.632911,0,0,0.632911,0,0)">
                            <path d="M13.777,33.247L10.617,33.247L10.617,26.761L13.777,26.761L13.777,33.247ZM18.741,29.4L15.581,29.4L15.581,20.26L18.741,20.26L18.741,29.4ZM23.706,33.242L20.546,33.242L20.546,30.088L23.706,30.088L23.706,33.247L23.706,33.242ZM28.67,40.557L25.51,40.557L25.51,32.747L28.67,32.747L28.67,40.562L28.67,40.557ZM33.634,42.551L30.474,42.551L30.474,38.732L33.634,38.732L33.634,42.556L33.634,42.551ZM38.599,35.901L35.439,35.901L35.439,16.788L38.6,16.788L38.6,35.906L38.599,35.901ZM43.562,19.943L40.4,19.943L40.4,12.134L43.56,12.134L43.56,19.947L43.562,19.943ZM48.528,31.816L45.368,31.816L45.368,18.784L48.528,18.784L48.528,31.821L48.528,31.816ZM53.491,29.916L50.331,29.916L50.331,26.1L53.491,26.1L53.491,29.92L53.491,29.916ZM58.455,37.232L55.295,37.232L55.295,28.757L58.455,28.757L58.455,37.235L58.455,37.232ZM63.419,31.912L60.259,31.912L60.259,19.447L63.419,19.447L63.419,31.915L63.419,31.912ZM68.383,21.271L65.223,21.271L65.223,16.788L68.383,16.788L68.383,21.273L68.383,21.271Z" style="fill:rgb(99,99,99);fill-rule:nonzero;"/>
                        </g>
                    </g>
                </g>
            </g>
        </g>
    </g>
</svg>
