<svg id="Layer_1" data-name="Layer 1" xmlns="http://www.w3.org/2000/svg" xmlns:xlink="http://www.w3.org/1999/xlink" viewBox="0 0 666 496"><defs><style>.cls-1,.cls-2{fill:none;}.cls-1{clip-rule:evenodd;}.cls-3{clip-path:url(#clip-path);}.cls-4{clip-path:url(#clip-path-2);}.cls-5{fill:#45c0be;}.cls-6{clip-path:url(#clip-path-3);}.cls-7{fill:#d85c2e;}.cls-8{clip-path:url(#clip-path-5);}.cls-9{fill:#4092db;}.cls-10{clip-path:url(#clip-path-7);}.cls-11{fill:#d5338f;}.cls-12{clip-path:url(#clip-path-9);}.cls-13{fill:#e4a900;}.cls-14{clip-path:url(#clip-path-11);}.cls-15{fill:#8dbf00;}.cls-16,.cls-17,.cls-18,.cls-19,.cls-20,.cls-21{font-size:24px;font-family:Roboto-Regular, Roboto;}.cls-16{fill:#4ea4e2;}.cls-17{fill:#df4fa0;}.cls-18{fill:#9dc700;}.cls-19{fill:#eab600;}.cls-20{fill:#51caca;}.cls-21{fill:#e1723b;}</style><clipPath id="clip-path"><path class="cls-1" d="M113.09,307.36a194,194,0,0,1,0-194.36L281.4,210.18Z"/></clipPath><clipPath id="clip-path-2"><rect class="cls-2" x="-233" y="-506" width="1920" height="1080"/></clipPath><clipPath id="clip-path-3"><path class="cls-1" d="M148,116.83A165.91,165.91,0,0,1,291.46,34V199.66Z"/></clipPath><clipPath id="clip-path-5"><path class="cls-1" d="M302,63a137.38,137.38,0,0,1,118.78,68.58L302,200.17Z"/></clipPath><clipPath id="clip-path-7"><path class="cls-1" d="M489.27,101a215.88,215.88,0,0,1,0,216.26L302,209.13Z"/></clipPath><clipPath id="clip-path-9"><path class="cls-1" d="M291.45,398.51A179.79,179.79,0,0,1,136,308.76L291.45,219Z"/></clipPath><clipPath id="clip-path-11"><path class="cls-1" d="M526.8,350.37A261.15,261.15,0,0,1,301,480.75V220Z"/></clipPath></defs><title>Artboard 1</title><g class="cls-3"><g class="cls-4"><rect class="cls-5" x="82" y="108" width="204.4" height="204.36"/></g></g><g class="cls-6"><g class="cls-4"><rect class="cls-7" x="143" y="29" width="153.46" height="175.66"/></g></g><g class="cls-8"><g class="cls-4"><rect class="cls-9" x="297" y="58" width="128.78" height="147.17"/></g></g><g class="cls-10"><g class="cls-4"><rect class="cls-11" x="297" y="96" width="226.31" height="226.26"/></g></g><g class="cls-12"><g class="cls-4"><rect class="cls-13" x="131" y="214" width="165.45" height="189.51"/></g></g><g class="cls-14"><g class="cls-4"><rect class="cls-15" x="296" y="215" width="235.8" height="270.75"/></g></g><g class="cls-4"><text class="cls-16" transform="translate(355.03 30)">Data Input</text><text class="cls-16" transform="translate(387.73 58)">37%</text><text class="cls-17" transform="translate(540.76 191)">Copywriting</text><text class="cls-17" transform="translate(571.84 219)">55.6%</text><text class="cls-18" transform="translate(470.46 467)">Layout</text><text class="cls-18" transform="translate(474.34 495)">61.1%</text><text class="cls-19" transform="translate(106.14 411)">Navigation</text><text class="cls-19" transform="translate(131.34 439)">46.3%</text><text class="cls-20" transform="translate(6.09 207)">Flow</text><text class="cls-20" transform="translate(-0.66 235)">57.4%</text><text class="cls-21" transform="translate(145.94 18)">Focus</text><text class="cls-21" transform="translate(146.34 46)">44.4%</text></g></svg>