<?xml version="1.0" encoding="UTF-8" standalone="no"?>
<!DOCTYPE svg PUBLIC "-//W3C//DTD SVG 1.1//EN" "http://www.w3.org/Graphics/SVG/1.1/DTD/svg11.dtd">
<svg width="100%" height="100%" viewBox="0 0 246 99" version="1.1" xmlns="http://www.w3.org/2000/svg" xmlns:xlink="http://www.w3.org/1999/xlink" xml:space="preserve" style="fill-rule:evenodd;clip-rule:evenodd;stroke-linejoin:round;stroke-miterlimit:1.41421;">
    <g transform="matrix(1,0,0,1,-3.6509,-96.3333)">
        <g id="curve" transform="matrix(5.91165,0,0,2.80952,-800.867,96.3333)">
            <rect x="136.09" y="0" width="41.5" height="35" style="fill:none;"/>
            <g transform="matrix(0.169158,0,0,1.39061,102.597,-942.806)">
                <g transform="matrix(1,0,0,0.255954,1.78492,18.7699)">
                    <path d="M354.116,2577.01L354.788,2577.01L355.471,2577.01L356.162,2577.02L356.862,2577.04L357.571,2577.05L358.289,2577.07L359.014,2577.09L359.748,2577.11L360.49,2577.14L361.239,2577.16L361.995,2577.2L362.759,2577.23L363.53,2577.27L364.307,2577.3L365.091,2577.35L365.881,2577.39L366.677,2577.44L367.479,2577.49L368.287,2577.55L369.099,2577.61L369.917,2577.66L370.74,2577.73L371.567,2577.8L372.399,2577.87L373.236,2577.94L374.076,2578.01L374.919,2578.09L375.767,2578.18L376.618,2578.26L377.471,2578.35L378.328,2578.44L378.757,2578.49L379.187,2578.54L379.618,2578.59L380.049,2578.64L380.481,2578.69L380.913,2578.74L381.345,2578.79L381.779,2578.84L382.212,2578.9L382.646,2578.95L383.08,2579.01L383.515,2579.06L383.95,2579.12L384.385,2579.18L384.821,2579.24L385.257,2579.3L385.693,2579.36L386.129,2579.42L386.565,2579.48L387.002,2579.55L387.438,2579.61L387.875,2579.68L388.311,2579.74L388.748,2579.81L389.185,2579.88L389.621,2579.95L390.058,2580.01L390.494,2580.09L390.93,2580.16L391.366,2580.23L391.802,2580.3L392.238,2580.38L392.673,2580.45L393.108,2580.53L393.543,2580.61L393.978,2580.68L394.412,2580.76L394.846,2580.84L395.279,2580.92L395.712,2581L396.144,2581.09L396.576,2581.17L397.008,2581.25L397.438,2581.34L397.869,2581.43L398.298,2581.51L398.727,2581.6L399.156,2581.69L399.583,2581.78L400.01,2581.87L400.436,2581.96L400.862,2582.05L401.286,2582.15L401.71,2582.24L402.133,2582.34L402.555,2582.44L402.976,2582.53L403.396,2582.63L403.815,2582.73L404.233,2582.83L404.65,2582.94L405.066,2583.04L405.481,2583.14L405.895,2583.25L406.307,2583.35L406.719,2583.46L407.129,2583.57L407.538,2583.68L407.946,2583.79L408.352,2583.9L408.757,2584.01L409.161,2584.12L409.563,2584.24L409.964,2584.35L410.364,2584.47L410.762,2584.59L411.159,2584.7L411.554,2584.82L411.947,2584.94L412.339,2585.06L412.73,2585.19L413.119,2585.31L413.506,2585.43L413.891,2585.56L414.275,2585.69L414.657,2585.81L415.037,2585.94L415.416,2586.07L415.792,2586.2L416.167,2586.34L416.54,2586.47L416.911,2586.6L417.28,2586.74L417.647,2586.88L418.012,2587.01L418.375,2587.15L418.736,2587.29L419.095,2587.43L419.452,2587.57L419.807,2587.72L420.159,2587.86L420.51,2588.01L420.858,2588.15L421.204,2588.3L421.547,2588.45L421.889,2588.6L422.228,2588.75L422.564,2588.9L422.899,2589.06L423.231,2589.21L423.56,2589.37L423.887,2589.52L424.212,2589.68L424.534,2589.84L424.853,2590L425.17,2590.16L425.484,2590.33L425.796,2590.49L426.105,2590.65L426.411,2590.82L426.715,2590.99L427.016,2591.16L427.314,2591.33L427.609,2591.5L427.901,2591.67L428.191,2591.84L428.478,2592.02L428.761,2592.2L429.042,2592.37L429.32,2592.55L429.595,2592.73L429.867,2592.91L430.136,2593.1L430.401,2593.28L430.664,2593.46L430.924,2593.65L431.18,2593.84L431.433,2594.03L431.683,2594.22L431.929,2594.41L432.052,2594.5L432.173,2594.6L432.293,2594.7L432.413,2594.79L432.532,2594.89L432.65,2594.99L432.767,2595.09L432.883,2595.19L432.998,2595.28L433.113,2595.38L433.227,2595.48L433.339,2595.58L433.451,2595.68L433.562,2595.78L433.673,2595.89L433.782,2595.99L433.89,2596.09L433.998,2596.19L434.105,2596.29L434.211,2596.39L434.315,2596.5L434.419,2596.6L434.523,2596.7L434.625,2596.81L434.726,2596.91L434.826,2597.02L434.926,2597.12L435.024,2597.23L435.122,2597.33L435.219,2597.44L435.314,2597.54L435.409,2597.65L435.503,2597.76L435.596,2597.87L435.688,2597.97L435.779,2598.08L435.869,2598.19L435.958,2598.3L436.046,2598.41L436.133,2598.52L436.22,2598.63L436.305,2598.74L436.389,2598.85L436.472,2598.96L436.555,2599.07L436.636,2599.18L436.716,2599.29L436.795,2599.41L436.874,2599.52L436.951,2599.63L437.027,2599.74L437.102,2599.86L437.176,2599.97L437.249,2600.09L437.322,2600.2L437.393,2600.32L437.463,2600.43L437.532,2600.55L437.6,2600.66L437.666,2600.78L437.732,2600.9L437.797,2601.02L437.861,2601.13L437.923,2601.25L437.985,2601.37L438.045,2601.49L438.105,2601.61L438.163,2601.73L438.22,2601.85L438.276,2601.97L438.331,2602.09L438.385,2602.21L438.438,2602.33L438.489,2602.45L438.54,2602.58L438.589,2602.7L438.637,2602.82L438.684,2602.95L438.73,2603.07L438.775,2603.19L438.819,2603.32L438.861,2603.44L438.903,2603.57L438.943,2603.69L438.982,2603.82L439.02,2603.94L439.057,2604.07L439.092,2604.2L439.126,2604.33L439.16,2604.45L439.191,2604.58L439.222,2604.71L439.252,2604.84L439.28,2604.97L439.307,2605.1L439.333,2605.22L439.358,2605.36L439.381,2605.49L439.404,2605.62L439.425,2605.75L439.445,2605.88L439.463,2606.01L439.481,2606.14L439.497,2606.28L439.526,2606.54L439.551,2606.8L439.563,2606.93L439.574,2607.06L439.584,2607.19L439.594,2607.32L439.602,2607.45L439.61,2607.58L439.617,2607.7L439.623,2607.83L439.629,2607.96L439.633,2608.09L439.637,2608.22L439.64,2608.35L439.643,2608.48L439.644,2608.6L439.645,2608.73L439.645,2608.86L439.644,2608.99L439.643,2609.11L439.64,2609.24L439.637,2609.37L439.633,2609.49L439.629,2609.62L439.623,2609.75L439.617,2609.87L439.61,2610L439.602,2610.13L439.593,2610.25L439.584,2610.38L439.574,2610.5L439.563,2610.63L439.551,2610.76L439.539,2610.88L439.526,2611L439.512,2611.13L439.497,2611.25L439.481,2611.38L439.465,2611.5L439.448,2611.63L439.43,2611.75L439.411,2611.87L439.392,2612L439.371,2612.12L439.35,2612.24L439.329,2612.37L439.306,2612.49L439.283,2612.61L439.259,2612.74L439.234,2612.86L439.208,2612.98L439.182,2613.1L439.155,2613.22L439.127,2613.35L439.098,2613.47L439.069,2613.59L439.039,2613.71L439.008,2613.83L438.976,2613.95L438.943,2614.07L438.91,2614.19L438.876,2614.31L438.841,2614.43L438.806,2614.55L438.769,2614.67L438.732,2614.79L438.695,2614.91L438.656,2615.03L438.617,2615.15L438.576,2615.27L438.536,2615.39L438.494,2615.51L438.452,2615.63L438.408,2615.75L438.32,2615.98L438.228,2616.22L438.134,2616.45L438.036,2616.69L437.936,2616.92L437.832,2617.15L437.725,2617.39L437.616,2617.62L437.503,2617.85L437.388,2618.08L437.269,2618.31L437.148,2618.53L437.024,2618.76L436.896,2618.99L436.766,2619.22L436.633,2619.44L436.496,2619.67L436.357,2619.89L436.35,2619.9L436.382,2619.94L436.526,2620.11L436.667,2620.29L436.804,2620.46L436.937,2620.63L437.066,2620.81L437.19,2620.98L437.251,2621.06L437.311,2621.15L437.37,2621.24L437.428,2621.32L437.485,2621.41L437.541,2621.49L437.596,2621.58L437.65,2621.66L437.703,2621.75L437.755,2621.84L437.806,2621.92L437.856,2622.01L437.905,2622.09L437.954,2622.18L438.001,2622.26L438.047,2622.35L438.092,2622.43L438.137,2622.52L438.18,2622.6L438.223,2622.69L438.264,2622.77L438.305,2622.86L438.345,2622.94L438.383,2623.03L438.421,2623.11L438.458,2623.2L438.494,2623.28L438.529,2623.37L438.563,2623.45L438.596,2623.54L438.628,2623.62L438.659,2623.7L438.69,2623.79L438.719,2623.87L438.748,2623.96L438.775,2624.04L438.802,2624.13L438.828,2624.21L438.853,2624.29L438.877,2624.38L438.9,2624.46L438.922,2624.55L438.943,2624.63L438.963,2624.71L438.983,2624.8L439.001,2624.88L439.019,2624.96L439.036,2625.05L439.052,2625.13L439.067,2625.21L439.081,2625.29L439.094,2625.38L439.106,2625.46L439.118,2625.54L439.129,2625.63L439.138,2625.71L439.147,2625.79L439.155,2625.87L439.162,2625.95L439.169,2626.04L439.174,2626.12L439.179,2626.2L439.182,2626.28L439.185,2626.36L439.187,2626.45L439.189,2626.53L439.189,2626.61L439.189,2626.69L439.187,2626.77L439.185,2626.85L439.182,2626.93L439.179,2627.01L439.174,2627.09L439.169,2627.18L439.162,2627.26L439.155,2627.34L439.148,2627.42L439.139,2627.5L439.13,2627.58L439.119,2627.66L439.097,2627.82L439.071,2627.97L439.042,2628.13L439.01,2628.29L438.975,2628.45L438.937,2628.6L438.897,2628.76L438.853,2628.91L438.806,2629.07L438.757,2629.22L438.704,2629.38L438.649,2629.53L438.591,2629.68L438.531,2629.83L438.468,2629.98L438.402,2630.13L438.333,2630.28L438.262,2630.43L438.188,2630.58L438.112,2630.73L438.033,2630.87L437.952,2631.02L437.869,2631.17L437.783,2631.31L437.694,2631.46L437.604,2631.6L437.511,2631.74L437.415,2631.89L437.318,2632.03L437.218,2632.17L437.116,2632.31L437.012,2632.45L436.906,2632.59L436.798,2632.73L436.687,2632.87L436.575,2633.01L436.46,2633.15L436.344,2633.28L436.225,2633.42L436.105,2633.56L435.982,2633.69L435.858,2633.83L435.732,2633.96L435.604,2634.09L435.474,2634.23L435.342,2634.36L435.209,2634.49L435.074,2634.62L434.937,2634.75L434.799,2634.88L434.658,2635.01L434.517,2635.14L434.373,2635.27L434.228,2635.4L434.081,2635.53L433.933,2635.65L433.784,2635.78L433.632,2635.91L433.48,2636.03L433.326,2636.16L433.17,2636.28L433.013,2636.4L432.855,2636.53L432.696,2636.65L432.535,2636.77L432.373,2636.89L432.209,2637.01L432.044,2637.14L431.878,2637.26L431.711,2637.38L431.543,2637.49L431.374,2637.61L431.203,2637.73L431.031,2637.85L430.859,2637.97L430.685,2638.08L430.51,2638.2L430.334,2638.31L430.158,2638.43L429.98,2638.54L429.801,2638.66L429.622,2638.77L429.441,2638.88L429.26,2639L429.078,2639.11L428.895,2639.22L428.711,2639.33L428.527,2639.44L428.342,2639.55L428.156,2639.66L427.969,2639.77L427.782,2639.88L427.406,2640.09L427.027,2640.3L426.647,2640.52L426.264,2640.72L425.88,2640.93L425.494,2641.14L425.107,2641.34L424.718,2641.54L424.329,2641.74L423.939,2641.93L423.549,2642.13L423.158,2642.32L422.767,2642.51L422.376,2642.7L421.985,2642.89L421.595,2643.07L421.205,2643.25L420.817,2643.43L420.429,2643.61L420.042,2643.79L419.657,2643.96L419.509,2644.03L419.358,2644.09L419.205,2644.16L419.05,2644.22L418.735,2644.36L418.412,2644.49L418.081,2644.62L417.742,2644.76L417.395,2644.89L417.041,2645.02L416.679,2645.16L416.309,2645.29L415.931,2645.43L415.546,2645.56L415.154,2645.69L414.754,2645.83L414.347,2645.96L413.932,2646.1L413.51,2646.23L413.081,2646.36L412.645,2646.5L412.202,2646.63L411.751,2646.77L411.294,2646.9L410.83,2647.03L410.358,2647.17L409.88,2647.3L409.395,2647.44L408.903,2647.57L408.405,2647.71L407.9,2647.84L407.389,2647.98L406.87,2648.11L406.346,2648.25L405.815,2648.38L405.278,2648.51L404.734,2648.65L404.184,2648.78L403.628,2648.92L403.066,2649.05L402.498,2649.18L401.924,2649.32L401.343,2649.45L400.757,2649.59L400.165,2649.72L399.568,2649.85L398.964,2649.99L398.355,2650.12L397.74,2650.25L397.12,2650.38L396.494,2650.52L395.862,2650.65L395.226,2650.78L394.584,2650.91L393.936,2651.05L393.284,2651.18L392.626,2651.31L391.963,2651.44L391.295,2651.57L390.622,2651.7L389.944,2651.83L389.261,2651.96L388.574,2652.09L387.881,2652.22L387.184,2652.35L386.483,2652.48L385.776,2652.61L385.065,2652.73L384.35,2652.86L383.63,2652.99L382.906,2653.12L382.177,2653.24L381.444,2653.37L380.707,2653.49L379.966,2653.62L379.221,2653.75L378.472,2653.87L377.718,2653.99L376.961,2654.12L376.2,2654.24L375.435,2654.37L374.666,2654.49L373.894,2654.61L373.118,2654.73L372.339,2654.85L371.555,2654.97L370.769,2655.1L369.979,2655.22L369.186,2655.33L368.389,2655.45L367.589,2655.57L366.786,2655.69L365.98,2655.81L365.171,2655.92L364.358,2656.04L363.543,2656.15L362.725,2656.27L361.904,2656.38L361.08,2656.5L360.254,2656.61L359.425,2656.72L358.593,2656.84L357.759,2656.95L356.922,2657.06L356.083,2657.17L355.241,2657.28L354.397,2657.38L353.551,2657.49L352.702,2657.6L351.852,2657.71L350.999,2657.81L350.144,2657.92L349.287,2658.02L348.429,2658.13L347.568,2658.23L346.706,2658.33L345.842,2658.43L344.976,2658.53L344.108,2658.63L343.239,2658.73L342.369,2658.83L341.496,2658.93L340.623,2659.03L339.748,2659.12L338.872,2659.22L337.995,2659.31L337.116,2659.4L336.236,2659.5L335.355,2659.59L334.474,2659.68L333.591,2659.77L332.707,2659.86L331.823,2659.95L330.937,2660.03L330.051,2660.12L329.165,2660.21L328.277,2660.29L327.389,2660.37L326.501,2660.46L325.612,2660.54L324.723,2660.62L323.833,2660.7L322.943,2660.78L322.053,2660.86L321.163,2660.93L320.273,2661.01L319.382,2661.08L318.492,2661.16L317.602,2661.23L316.711,2661.3L315.821,2661.37L314.932,2661.44L314.042,2661.51L313.153,2661.58L312.264,2661.64L311.376,2661.71L310.488,2661.77L309.601,2661.84L308.715,2661.9L307.829,2661.96L306.944,2662.02L306.059,2662.08L305.176,2662.13L304.294,2662.19L303.412,2662.24L302.532,2662.3L301.652,2662.35L300.774,2662.4L299.897,2662.45L299.021,2662.5L298.147,2662.55L297.274,2662.6L296.402,2662.64L295.532,2662.69L294.663,2662.73L293.796,2662.77L292.931,2662.81L292.067,2662.85L291.205,2662.89L290.345,2662.92L289.487,2662.96L288.631,2662.99L287.777,2663.02L286.925,2663.05L286.075,2663.09L285.227,2663.11L284.381,2663.14L283.538,2663.16L282.697,2663.19L281.859,2663.21L281.023,2663.23L280.189,2663.25L279.358,2663.27L278.53,2663.29L277.704,2663.3L276.881,2663.32L276.061,2663.33L275.244,2663.34L274.429,2663.35L273.618,2663.36L272.809,2663.37L272.004,2663.37L271.202,2663.38L270.403,2663.38L269.607,2663.38L268.815,2663.38L268.026,2663.38L267.24,2663.37L266.458,2663.37L265.68,2663.36L264.905,2663.35L264.133,2663.34L263.366,2663.33L262.602,2663.32L261.842,2663.3L261.086,2663.28L260.334,2663.27L259.585,2663.25L258.841,2663.22L258.101,2663.2L257.365,2663.18L256.633,2663.15L255.906,2663.12L255.183,2663.09L254.464,2663.06L253.75,2663.03L253.04,2662.99L252.335,2662.95L251.634,2662.92L250.939,2662.88L250.247,2662.83L249.561,2662.79L248.879,2662.74L248.203,2662.7L247.531,2662.65L246.864,2662.6L246.203,2662.54L245.546,2662.49L244.895,2662.43L244.248,2662.37L243.608,2662.31L242.972,2662.25L242.342,2662.19L241.717,2662.12L241.098,2662.05L240.485,2661.98L239.877,2661.91L239.274,2661.84L238.678,2661.76L238.087,2661.69L237.502,2661.61L236.923,2661.53L236.35,2661.44L235.783,2661.36L235.222,2661.27L234.667,2661.18L234.118,2661.09L233.846,2661.04L233.575,2661L233.039,2660.9L232.507,2660.8L231.98,2660.71L231.457,2660.61L230.939,2660.5L230.426,2660.4L229.917,2660.3L229.413,2660.19L228.914,2660.08L228.419,2659.97L227.928,2659.86L227.442,2659.74L226.961,2659.63L226.484,2659.51L226.012,2659.39L225.544,2659.27L225.081,2659.15L224.622,2659.03L224.167,2658.9L223.718,2658.77L223.272,2658.65L222.831,2658.52L222.394,2658.39L221.962,2658.25L221.534,2658.12L221.111,2657.98L220.692,2657.84L220.277,2657.7L219.866,2657.57L219.46,2657.42L219.058,2657.28L218.661,2657.13L218.268,2656.99L217.879,2656.84L217.494,2656.69L217.114,2656.54L216.738,2656.39L216.366,2656.23L215.998,2656.08L215.635,2655.92L215.275,2655.76L214.92,2655.61L214.57,2655.45L214.223,2655.28L213.88,2655.12L213.542,2654.95L213.374,2654.87L213.207,2654.79L213.042,2654.7L212.877,2654.62L212.714,2654.54L212.551,2654.45L212.39,2654.37L212.229,2654.28L212.07,2654.2L211.911,2654.11L211.754,2654.03L211.598,2653.94L211.442,2653.85L211.288,2653.76L211.134,2653.68L210.982,2653.59L210.831,2653.5L210.68,2653.41L210.531,2653.32L210.383,2653.24L210.235,2653.14L210.089,2653.06L209.944,2652.97L209.8,2652.88L209.656,2652.78L209.514,2652.69L209.373,2652.6L209.232,2652.51L209.093,2652.42L208.955,2652.33L208.817,2652.23L208.681,2652.14L208.546,2652.05L208.411,2651.95L208.278,2651.86L208.145,2651.77L208.014,2651.67L207.884,2651.58L207.754,2651.48L207.626,2651.39L207.498,2651.29L207.372,2651.2L207.246,2651.1L207.121,2651L206.998,2650.91L206.875,2650.81L206.754,2650.71L206.633,2650.62L206.513,2650.52L206.394,2650.42L206.277,2650.32L206.16,2650.22L206.044,2650.12L205.929,2650.02L205.815,2649.93L205.702,2649.83L205.59,2649.72L205.479,2649.63L205.369,2649.52L205.26,2649.42L205.151,2649.32L205.044,2649.22L204.938,2649.12L204.832,2649.02L204.728,2648.91L204.625,2648.81L204.522,2648.71L204.42,2648.61L204.32,2648.5L204.22,2648.4L204.121,2648.3L204.024,2648.19L203.927,2648.09L203.831,2647.98L203.736,2647.88L203.642,2647.77L203.548,2647.67L203.456,2647.56L203.365,2647.45L203.275,2647.35L203.185,2647.24L203.097,2647.14L203.009,2647.03L202.923,2646.92L202.837,2646.81L202.752,2646.71L202.668,2646.6L202.585,2646.49L202.503,2646.38L202.422,2646.27L202.342,2646.16L202.263,2646.05L202.184,2645.95L202.107,2645.84L202.03,2645.73L201.955,2645.62L201.88,2645.51L201.806,2645.39L201.734,2645.28L201.662,2645.17L201.59,2645.06L201.52,2644.95L201.451,2644.84L201.383,2644.73L201.315,2644.62L201.249,2644.5L201.183,2644.39L201.118,2644.28L201.055,2644.16L200.992,2644.05L200.93,2643.94L200.868,2643.83L200.808,2643.71L200.749,2643.6L200.69,2643.48L200.633,2643.37L200.576,2643.25L200.52,2643.14L200.465,2643.02L200.411,2642.91L200.358,2642.79L200.306,2642.68L200.254,2642.56L200.204,2642.45L200.154,2642.33L200.105,2642.21L200.058,2642.1L200.011,2641.98L199.964,2641.86L199.919,2641.75L199.875,2641.63L199.831,2641.51L199.789,2641.39L199.747,2641.28L199.706,2641.16L199.666,2641.04L199.627,2640.92L199.588,2640.8L199.551,2640.69L199.514,2640.57L199.479,2640.45L199.444,2640.33L199.41,2640.21L199.376,2640.09L199.344,2639.97L199.313,2639.85L199.282,2639.73L199.252,2639.61L199.223,2639.49L199.195,2639.37L199.168,2639.25L199.142,2639.13L199.116,2639.01L199.091,2638.89L199.067,2638.77L199.044,2638.65L199.022,2638.53L199.001,2638.4L198.98,2638.28L198.96,2638.16L198.942,2638.04L198.923,2637.92L198.906,2637.79L198.89,2637.67L198.874,2637.55L198.859,2637.43L198.845,2637.3L198.832,2637.18L198.82,2637.06L198.809,2636.94L198.798,2636.81L198.788,2636.69L198.779,2636.57L198.771,2636.44L198.763,2636.32L198.756,2636.2L198.751,2636.07L198.746,2635.95L198.741,2635.83L198.738,2635.7L198.735,2635.58L198.733,2635.45L198.732,2635.33L198.732,2635.2L198.733,2635.08L198.734,2634.96L198.736,2634.83L198.739,2634.71L198.742,2634.58L198.747,2634.46L198.752,2634.33L198.758,2634.21L198.772,2633.96L198.79,2633.71L198.81,2633.45L198.834,2633.2L198.86,2632.95L198.89,2632.7L198.923,2632.45L198.958,2632.2L198.997,2631.94L199.038,2631.69L199.083,2631.44L199.13,2631.18L199.181,2630.93L199.234,2630.68L199.274,2630.5L199.254,2630.45L199.191,2630.29L199.13,2630.12L199.07,2629.96L199.011,2629.8L198.954,2629.64L198.898,2629.47L198.844,2629.31L198.79,2629.15L198.738,2628.99L198.688,2628.83L198.639,2628.66L198.591,2628.5L198.544,2628.34L198.499,2628.18L198.455,2628.02L198.413,2627.86L198.372,2627.7L198.332,2627.54L198.293,2627.38L198.256,2627.22L198.22,2627.06L198.185,2626.9L198.151,2626.74L198.119,2626.59L198.088,2626.43L198.059,2626.27L198.03,2626.11L198.003,2625.95L197.977,2625.8L197.953,2625.64L197.929,2625.48L197.907,2625.33L197.886,2625.17L197.867,2625.01L197.848,2624.86L197.831,2624.7L197.815,2624.54L197.8,2624.39L197.787,2624.23L197.774,2624.08L197.763,2623.92L197.753,2623.77L197.744,2623.61L197.737,2623.46L197.73,2623.3L197.725,2623.15L197.721,2623L197.718,2622.84L197.716,2622.69L197.715,2622.54L197.716,2622.38L197.717,2622.23L197.72,2622.08L197.724,2621.93L197.729,2621.78L197.735,2621.63L197.742,2621.47L197.75,2621.32L197.76,2621.17L197.77,2621.02L197.782,2620.87L197.794,2620.72L197.808,2620.57L197.823,2620.42L197.839,2620.27L197.856,2620.12L197.874,2619.97L197.893,2619.83L197.913,2619.68L197.934,2619.53L197.956,2619.38L197.98,2619.24L198.004,2619.09L198.029,2618.94L198.056,2618.79L198.083,2618.65L198.111,2618.5L198.14,2618.36L198.171,2618.21L198.202,2618.07L198.234,2617.92L198.267,2617.78L198.302,2617.63L198.337,2617.49L198.373,2617.34L198.41,2617.2L198.448,2617.05L198.487,2616.91L198.527,2616.77L198.568,2616.63L198.61,2616.48L198.652,2616.34L198.696,2616.2L198.74,2616.06L198.786,2615.92L198.832,2615.78L198.879,2615.64L198.927,2615.5L198.976,2615.36L199.026,2615.22L199.077,2615.08L199.129,2614.94L199.181,2614.8L199.234,2614.66L199.288,2614.52L199.343,2614.38L199.399,2614.24L199.456,2614.11L199.513,2613.97L199.572,2613.83L199.631,2613.7L199.691,2613.56L199.752,2613.42L199.813,2613.29L199.876,2613.15L199.939,2613.02L200.003,2612.88L200.067,2612.75L200.133,2612.61L200.199,2612.48L200.266,2612.34L200.334,2612.21L200.402,2612.08L200.472,2611.94L200.542,2611.81L200.612,2611.68L200.684,2611.55L200.756,2611.41L200.829,2611.28L200.903,2611.15L200.977,2611.02L201.128,2610.76L201.281,2610.5L201.438,2610.24L201.597,2609.99L201.758,2609.73L201.922,2609.47L202.089,2609.22L202.258,2608.97L202.43,2608.72L202.604,2608.47L202.781,2608.22L202.96,2607.97L203.141,2607.72L203.325,2607.48L203.511,2607.23L203.698,2606.99L203.889,2606.75L204.081,2606.51L204.275,2606.27L204.471,2606.03L204.669,2605.79L204.87,2605.56L205.072,2605.32L205.276,2605.09L205.481,2604.86L205.689,2604.63L205.898,2604.4L206.109,2604.17L206.321,2603.94L206.536,2603.72L206.751,2603.49L206.969,2603.27L207.187,2603.05L207.407,2602.83L207.629,2602.61L207.852,2602.39L208.076,2602.17L208.302,2601.96L208.528,2601.74L208.756,2601.53L208.985,2601.32L209.216,2601.11L209.447,2600.9L209.679,2600.69L209.913,2600.48L210.147,2600.28L210.382,2600.08L210.618,2599.87L210.855,2599.67L211.093,2599.47L211.331,2599.27L211.57,2599.08L211.81,2598.88L212.05,2598.68L212.291,2598.49L212.533,2598.3L212.775,2598.11L213.018,2597.92L213.26,2597.73L213.504,2597.55L213.747,2597.36L213.991,2597.18L214.236,2596.99L214.48,2596.81L214.725,2596.63L214.969,2596.45L215.214,2596.28L215.459,2596.1L215.704,2595.93L215.949,2595.75L216.194,2595.58L216.438,2595.41L216.683,2595.24L216.927,2595.08L217.172,2594.91L217.415,2594.75L217.659,2594.58L217.902,2594.42L218.145,2594.26L218.388,2594.1L218.629,2593.95L218.871,2593.79L219.112,2593.64L219.352,2593.48L219.592,2593.33L219.831,2593.18L220.069,2593.03L220.306,2592.88L220.543,2592.74L220.779,2592.59L221.014,2592.45L221.248,2592.31L221.481,2592.17L221.713,2592.03L222.174,2591.76L222.631,2591.49L223.083,2591.23L223.529,2590.97L223.97,2590.73L224.406,2590.48L224.835,2590.25L225.258,2590.02L225.674,2589.79L226.083,2589.57L226.484,2589.36L226.878,2589.16L227.264,2588.96L227.641,2588.76L228.009,2588.58L228.369,2588.4L228.719,2588.22L229.06,2588.05L229.39,2587.89L229.71,2587.74L230.019,2587.59L230.318,2587.45L230.605,2587.31L230.88,2587.18L231.144,2587.06L231.395,2586.95L231.634,2586.84L231.859,2586.74L232.27,2586.55L232.625,2586.4L232.922,2586.27L233.158,2586.17L233.331,2586.1L233.471,2586.04L233.852,2586.97L233.714,2587.02L233.547,2587.09L233.316,2587.19L233.024,2587.32L232.674,2587.47L232.268,2587.65L232.046,2587.75L231.81,2587.86L231.562,2587.97L231.302,2588.09L231.029,2588.22L230.745,2588.35L230.45,2588.49L230.144,2588.64L229.827,2588.79L229.5,2588.95L229.163,2589.12L228.816,2589.29L228.46,2589.47L228.095,2589.66L227.721,2589.85L227.339,2590.04L226.949,2590.25L226.551,2590.46L226.146,2590.67L225.734,2590.89L225.316,2591.12L224.89,2591.36L224.459,2591.6L224.022,2591.85L223.58,2592.1L223.133,2592.36L222.681,2592.62L222.224,2592.89L221.995,2593.03L221.764,2593.16L221.533,2593.3L221.3,2593.45L221.067,2593.59L220.832,2593.73L220.597,2593.88L220.362,2594.03L220.125,2594.18L219.888,2594.33L219.65,2594.48L219.412,2594.63L219.174,2594.78L218.934,2594.94L218.695,2595.1L218.454,2595.26L218.214,2595.41L217.973,2595.58L217.732,2595.74L217.491,2595.9L217.249,2596.07L217.008,2596.24L216.766,2596.4L216.524,2596.57L216.282,2596.74L216.04,2596.91L215.799,2597.09L215.557,2597.26L215.315,2597.44L215.074,2597.62L214.833,2597.8L214.592,2597.98L214.351,2598.16L214.111,2598.34L213.871,2598.52L213.631,2598.71L213.392,2598.9L213.153,2599.08L212.915,2599.27L212.678,2599.46L212.441,2599.66L212.205,2599.85L211.969,2600.04L211.735,2600.24L211.501,2600.43L211.267,2600.63L211.035,2600.83L210.804,2601.03L210.573,2601.24L210.344,2601.44L210.116,2601.64L209.888,2601.85L209.662,2602.05L209.437,2602.26L209.213,2602.47L208.99,2602.68L208.769,2602.89L208.549,2603.11L208.33,2603.32L208.113,2603.53L207.897,2603.75L207.683,2603.97L207.47,2604.19L207.259,2604.41L207.049,2604.63L206.841,2604.85L206.635,2605.07L206.43,2605.3L206.227,2605.52L206.026,2605.75L205.827,2605.98L205.629,2606.21L205.434,2606.44L205.24,2606.67L205.049,2606.9L204.86,2607.13L204.672,2607.37L204.487,2607.6L204.304,2607.84L204.123,2608.08L203.945,2608.32L203.768,2608.56L203.594,2608.8L203.423,2609.04L203.253,2609.28L203.087,2609.53L202.922,2609.77L202.761,2610.02L202.601,2610.27L202.445,2610.51L202.291,2610.76L202.14,2611.01L201.991,2611.26L201.845,2611.52L201.773,2611.64L201.702,2611.77L201.632,2611.9L201.562,2612.03L201.493,2612.15L201.425,2612.28L201.357,2612.41L201.29,2612.54L201.224,2612.66L201.159,2612.79L201.094,2612.92L201.031,2613.05L200.968,2613.18L200.905,2613.31L200.844,2613.44L200.783,2613.57L200.723,2613.7L200.664,2613.83L200.605,2613.96L200.548,2614.1L200.491,2614.23L200.435,2614.36L200.379,2614.49L200.325,2614.62L200.271,2614.76L200.219,2614.89L200.167,2615.02L200.115,2615.15L200.065,2615.29L200.016,2615.42L199.967,2615.55L199.919,2615.69L199.872,2615.82L199.826,2615.96L199.781,2616.09L199.737,2616.23L199.693,2616.36L199.651,2616.5L199.609,2616.63L199.568,2616.77L199.528,2616.91L199.489,2617.04L199.451,2617.18L199.414,2617.32L199.377,2617.45L199.342,2617.59L199.308,2617.73L199.274,2617.86L199.241,2618L199.21,2618.14L199.179,2618.28L199.149,2618.42L199.12,2618.56L199.092,2618.7L199.065,2618.84L199.039,2618.97L199.014,2619.11L198.99,2619.25L198.967,2619.39L198.945,2619.53L198.924,2619.68L198.904,2619.82L198.884,2619.96L198.866,2620.1L198.849,2620.24L198.833,2620.38L198.818,2620.52L198.804,2620.67L198.791,2620.81L198.779,2620.95L198.768,2621.1L198.758,2621.24L198.749,2621.38L198.741,2621.53L198.734,2621.67L198.728,2621.81L198.723,2621.96L198.72,2622.1L198.717,2622.25L198.716,2622.39L198.715,2622.54L198.716,2622.68L198.717,2622.83L198.72,2622.97L198.724,2623.12L198.729,2623.27L198.735,2623.41L198.743,2623.56L198.751,2623.71L198.761,2623.85L198.771,2624L198.783,2624.15L198.796,2624.3L198.81,2624.45L198.825,2624.59L198.842,2624.74L198.859,2624.89L198.878,2625.04L198.898,2625.19L198.919,2625.34L198.941,2625.49L198.965,2625.64L198.989,2625.79L199.015,2625.94L199.042,2626.09L199.071,2626.24L199.1,2626.39L199.131,2626.54L199.163,2626.69L199.196,2626.85L199.23,2627L199.266,2627.15L199.303,2627.3L199.341,2627.46L199.38,2627.61L199.421,2627.76L199.463,2627.91L199.506,2628.07L199.551,2628.22L199.596,2628.38L199.643,2628.53L199.692,2628.69L199.723,2628.78L199.765,2628.64L199.844,2628.39L199.926,2628.13L200.011,2627.88L200.098,2627.62L200.188,2627.37L200.281,2627.11L200.377,2626.86L200.475,2626.6L200.576,2626.35L200.68,2626.09L200.786,2625.84L200.895,2625.58L201.007,2625.33L201.121,2625.07L201.238,2624.82L201.358,2624.56L201.48,2624.31L201.605,2624.05L201.732,2623.8L201.862,2623.54L201.994,2623.29L202.129,2623.03L202.267,2622.78L202.407,2622.52L202.549,2622.27L202.694,2622.01L202.841,2621.76L202.991,2621.5L203.144,2621.25L203.298,2621L203.455,2620.74L203.615,2620.49L203.777,2620.24L203.941,2619.98L204.108,2619.73L204.277,2619.48L204.448,2619.22L204.622,2618.97L204.798,2618.72L204.977,2618.47L205.157,2618.22L205.34,2617.97L205.525,2617.72L205.713,2617.47L205.903,2617.21L206.095,2616.96L206.289,2616.72L206.485,2616.47L206.684,2616.22L206.885,2615.97L207.088,2615.72L207.293,2615.47L207.5,2615.22L207.71,2614.98L207.921,2614.73L208.135,2614.48L208.351,2614.24L208.569,2613.99L208.789,2613.74L209.011,2613.5L209.235,2613.26L209.461,2613.01L209.689,2612.77L209.92,2612.53L210.152,2612.28L210.386,2612.04L210.622,2611.8L210.861,2611.56L211.101,2611.32L211.343,2611.08L211.587,2610.84L211.833,2610.6L212.081,2610.36L212.331,2610.12L212.583,2609.88L212.836,2609.65L213.092,2609.41L213.349,2609.18L213.608,2608.94L213.869,2608.7L214.132,2608.47L214.397,2608.24L214.663,2608.01L214.931,2607.77L215.202,2607.54L215.473,2607.31L215.747,2607.08L216.022,2606.85L216.299,2606.62L216.578,2606.4L216.858,2606.17L217.141,2605.94L217.284,2605.83L217.429,2605.72L217.575,2605.6L217.723,2605.49L217.872,2605.38L218.022,2605.26L218.173,2605.15L218.326,2605.04L218.48,2604.93L218.636,2604.81L218.793,2604.7L218.951,2604.59L219.11,2604.48L219.271,2604.37L219.433,2604.26L219.596,2604.15L219.76,2604.04L219.926,2603.93L220.093,2603.82L220.261,2603.71L220.431,2603.6L220.602,2603.49L220.774,2603.38L220.947,2603.28L221.122,2603.17L221.297,2603.06L221.474,2602.95L221.652,2602.85L221.832,2602.74L222.012,2602.63L222.194,2602.52L222.377,2602.42L222.561,2602.31L222.746,2602.21L222.933,2602.1L223.121,2601.99L223.309,2601.89L223.499,2601.78L223.691,2601.68L223.883,2601.58L224.271,2601.37L224.664,2601.16L225.061,2600.95L225.463,2600.75L225.869,2600.54L226.279,2600.34L226.694,2600.14L227.113,2599.93L227.537,2599.73L227.965,2599.53L228.397,2599.33L228.833,2599.14L229.273,2598.94L229.717,2598.74L230.166,2598.55L230.618,2598.35L231.074,2598.16L231.535,2597.96L231.999,2597.77L232.467,2597.58L232.938,2597.39L233.414,2597.2L233.893,2597.01L234.376,2596.83L234.863,2596.64L235.353,2596.45L235.846,2596.27L236.344,2596.09L236.844,2595.9L237.348,2595.72L237.856,2595.54L238.367,2595.36L238.881,2595.18L239.398,2595L239.919,2594.82L240.443,2594.65L240.97,2594.47L241.5,2594.3L242.033,2594.12L242.569,2593.95L243.108,2593.78L243.65,2593.6L244.195,2593.43L244.743,2593.26L245.294,2593.1L245.847,2592.93L246.403,2592.76L246.962,2592.59L247.523,2592.43L248.088,2592.26L248.654,2592.1L249.224,2591.94L249.795,2591.78L250.369,2591.62L250.946,2591.45L251.525,2591.3L252.106,2591.14L252.69,2590.98L253.275,2590.82L253.863,2590.67L254.454,2590.51L255.046,2590.36L255.64,2590.21L256.237,2590.05L256.835,2589.9L257.435,2589.75L258.037,2589.6L258.642,2589.46L259.247,2589.31L259.855,2589.16L260.465,2589.02L261.076,2588.87L261.689,2588.73L262.303,2588.58L262.919,2588.44L263.537,2588.3L264.156,2588.16L264.776,2588.02L265.398,2587.88L266.022,2587.74L266.646,2587.61L267.272,2587.47L267.9,2587.33L268.528,2587.2L269.158,2587.07L269.788,2586.93L270.42,2586.8L271.053,2586.67L271.687,2586.54L272.322,2586.41L272.958,2586.28L273.594,2586.16L274.232,2586.03L274.87,2585.9L275.509,2585.78L276.149,2585.66L276.789,2585.53L277.43,2585.41L278.072,2585.29L278.714,2585.17L279.357,2585.05L280,2584.93L280.644,2584.81L281.288,2584.7L281.932,2584.58L282.576,2584.47L283.221,2584.35L283.866,2584.24L284.512,2584.13L285.157,2584.01L285.803,2583.9L286.448,2583.79L287.094,2583.68L287.739,2583.58L288.385,2583.47L289.03,2583.36L289.676,2583.26L290.321,2583.15L290.965,2583.05L291.61,2582.95L292.254,2582.84L292.898,2582.74L293.541,2582.64L294.184,2582.54L294.827,2582.45L295.469,2582.35L296.11,2582.25L296.751,2582.16L297.391,2582.06L298.031,2581.97L298.669,2581.87L299.307,2581.78L299.944,2581.69L300.581,2581.6L301.851,2581.42L303.117,2581.25L304.378,2581.08L305.635,2580.91L306.887,2580.74L308.134,2580.58L309.376,2580.43L310.611,2580.27L311.84,2580.12L313.063,2579.97L314.279,2579.83L315.487,2579.69L316.688,2579.56L317.881,2579.42L319.066,2579.3L320.242,2579.17L321.409,2579.05L322.567,2578.93L323.716,2578.82L324.855,2578.7L325.983,2578.6L327.101,2578.49L328.208,2578.39L329.304,2578.29L330.388,2578.2L331.461,2578.11L332.521,2578.02L333.569,2577.94L334.604,2577.86L335.625,2577.78L336.633,2577.71L337.628,2577.64L338.608,2577.58L339.573,2577.51L340.524,2577.46L341.46,2577.4L342.38,2577.35L343.284,2577.3L344.173,2577.26L345.044,2577.22L345.899,2577.18L346.737,2577.15L347.557,2577.12L348.36,2577.09L349.144,2577.07L349.53,2577.06L349.91,2577.05L350.286,2577.04L350.658,2577.03L351.024,2577.03L351.386,2577.02L351.743,2577.01L352.095,2577.01L352.442,2577.01L352.784,2577.01L353.121,2577L353.453,2577L354.116,2577.01ZM435.772,2620.78L435.618,2621.01L435.461,2621.23L435.302,2621.45L435.139,2621.67L434.974,2621.88L434.806,2622.1L434.635,2622.32L434.461,2622.54L434.284,2622.75L434.105,2622.97L433.922,2623.18L433.737,2623.4L433.549,2623.61L433.357,2623.82L433.164,2624.03L432.967,2624.25L432.767,2624.46L432.565,2624.67L432.36,2624.88L432.152,2625.09L431.941,2625.29L431.727,2625.5L431.51,2625.71L431.291,2625.91L431.069,2626.12L430.844,2626.33L430.616,2626.53L430.386,2626.74L430.153,2626.94L429.917,2627.14L429.678,2627.34L429.436,2627.54L429.192,2627.74L428.945,2627.95L428.695,2628.15L428.442,2628.35L428.187,2628.54L427.928,2628.74L427.667,2628.94L427.404,2629.14L427.137,2629.33L426.868,2629.53L426.596,2629.72L426.321,2629.92L426.044,2630.11L425.764,2630.3L425.481,2630.5L425.195,2630.69L424.907,2630.88L424.616,2631.07L424.322,2631.26L424.026,2631.45L423.727,2631.64L423.425,2631.83L423.12,2632.02L422.813,2632.21L422.503,2632.4L422.19,2632.58L421.875,2632.77L421.557,2632.95L421.236,2633.14L420.913,2633.32L420.587,2633.51L420.258,2633.69L419.927,2633.88L419.593,2634.06L419.256,2634.24L418.916,2634.42L418.574,2634.6L418.23,2634.78L417.882,2634.96L417.532,2635.14L417.179,2635.32L416.824,2635.5L416.466,2635.68L416.106,2635.86L415.742,2636.03L415.376,2636.21L415.008,2636.38L414.637,2636.56L414.263,2636.73L413.887,2636.91L413.508,2637.08L413.126,2637.26L412.742,2637.43L412.355,2637.6L411.966,2637.77L411.573,2637.95L411.179,2638.12L410.782,2638.29L410.382,2638.46L409.979,2638.63L409.574,2638.8L409.167,2638.96L408.756,2639.13L408.344,2639.3L407.928,2639.47L407.51,2639.63L407.09,2639.8L406.667,2639.97L406.241,2640.13L405.813,2640.3L405.382,2640.46L404.949,2640.63L404.513,2640.79L404.075,2640.95L403.634,2641.12L403.19,2641.28L402.744,2641.44L402.296,2641.6L401.844,2641.76L401.391,2641.92L400.935,2642.08L400.476,2642.24L400.015,2642.4L399.551,2642.56L399.085,2642.72L398.616,2642.88L398.145,2643.03L397.671,2643.19L397.194,2643.35L396.716,2643.5L396.234,2643.66L395.75,2643.81L395.264,2643.97L394.775,2644.12L394.284,2644.28L393.79,2644.43L393.294,2644.58L392.795,2644.74L392.294,2644.89L391.79,2645.04L391.284,2645.19L390.776,2645.34L390.265,2645.49L389.751,2645.64L389.235,2645.8L388.716,2645.95L388.196,2646.09L387.672,2646.24L387.146,2646.39L386.618,2646.54L386.087,2646.69L385.554,2646.83L385.019,2646.98L384.481,2647.13L383.94,2647.27L383.398,2647.42L382.852,2647.57L382.305,2647.71L381.754,2647.85L381.202,2648L380.647,2648.14L380.09,2648.29L379.53,2648.43L378.968,2648.57L378.403,2648.71L377.836,2648.86L377.267,2649L376.695,2649.14L376.121,2649.28L375.545,2649.42L374.966,2649.56L374.385,2649.7L373.801,2649.84L373.215,2649.98L372.627,2650.12L372.036,2650.26L371.443,2650.39L370.848,2650.53L370.25,2650.67L369.65,2650.81L369.047,2650.94L368.442,2651.08L367.835,2651.22L367.226,2651.35L366.614,2651.49L366,2651.62L365.383,2651.76L364.764,2651.89L364.143,2652.02L363.52,2652.16L362.894,2652.29L362.266,2652.42L361.635,2652.56L361.003,2652.69L360.368,2652.82L359.73,2652.95L359.091,2653.08L358.449,2653.21L357.804,2653.35L357.158,2653.48L356.509,2653.61L355.858,2653.74L354.549,2653.99L353.891,2654.12L353.23,2654.25L352.567,2654.38L351.902,2654.5L351.235,2654.63L350.566,2654.75L349.895,2654.87L349.222,2654.99L348.547,2655.11L347.871,2655.22L347.192,2655.34L346.511,2655.46L345.829,2655.57L345.145,2655.68L344.459,2655.79L343.771,2655.9L343.082,2656.01L342.391,2656.12L341.698,2656.23L341.004,2656.33L340.308,2656.43L339.611,2656.54L338.912,2656.64L338.212,2656.74L337.51,2656.84L336.807,2656.93L336.102,2657.03L335.396,2657.13L334.689,2657.22L333.981,2657.31L333.271,2657.4L332.56,2657.49L331.848,2657.58L331.134,2657.66L330.42,2657.75L329.704,2657.83L328.987,2657.91L328.27,2658L327.551,2658.08L326.831,2658.15L326.111,2658.23L325.389,2658.31L324.667,2658.38L323.943,2658.45L323.219,2658.53L322.494,2658.6L321.769,2658.66L321.042,2658.73L320.315,2658.8L319.587,2658.86L318.859,2658.92L318.13,2658.99L317.4,2659.05L316.67,2659.1L315.939,2659.16L315.208,2659.22L314.477,2659.27L313.745,2659.32L313.012,2659.38L312.279,2659.43L311.546,2659.47L310.813,2659.52L310.079,2659.57L309.346,2659.61L308.611,2659.65L307.877,2659.69L307.143,2659.73L306.408,2659.77L305.674,2659.81L304.939,2659.84L304.204,2659.88L303.47,2659.91L302.735,2659.94L302.001,2659.97L301.266,2659.99L300.532,2660.02L299.798,2660.04L299.064,2660.07L298.331,2660.09L297.597,2660.11L296.864,2660.12L296.131,2660.14L295.399,2660.15L294.667,2660.17L293.935,2660.18L293.204,2660.19L292.474,2660.2L291.744,2660.2L291.014,2660.21L290.285,2660.21L289.556,2660.21L288.829,2660.22L288.102,2660.21L287.375,2660.21L286.65,2660.21L285.925,2660.2L285.201,2660.19L284.477,2660.18L283.755,2660.17L283.033,2660.16L282.313,2660.14L281.593,2660.13L280.874,2660.11L280.156,2660.09L279.44,2660.07L278.724,2660.05L278.01,2660.02L277.296,2659.99L276.584,2659.97L275.873,2659.94L275.163,2659.91L274.455,2659.87L273.748,2659.84L273.042,2659.8L272.337,2659.76L271.634,2659.72L270.932,2659.68L270.232,2659.64L269.533,2659.59L268.836,2659.55L268.14,2659.5L267.446,2659.45L266.753,2659.39L266.062,2659.34L265.373,2659.28L264.685,2659.23L264,2659.17L263.315,2659.11L262.633,2659.04L261.953,2658.98L261.274,2658.91L260.597,2658.84L259.922,2658.77L259.249,2658.7L258.578,2658.63L257.909,2658.55L257.242,2658.47L256.577,2658.39L255.914,2658.31L255.254,2658.23L254.595,2658.14L253.939,2658.06L253.285,2657.97L252.633,2657.88L251.983,2657.78L251.336,2657.69L250.691,2657.59L250.049,2657.5L249.408,2657.4L248.771,2657.29L248.135,2657.19L247.503,2657.08L246.873,2656.98L246.245,2656.87L245.62,2656.76L244.997,2656.64L244.378,2656.53L243.76,2656.41L243.146,2656.29L242.534,2656.17L241.925,2656.05L241.319,2655.92L240.716,2655.79L240.116,2655.66L239.518,2655.53L238.924,2655.4L238.332,2655.26L237.743,2655.13L237.158,2654.99L236.575,2654.85L235.996,2654.7L235.419,2654.56L234.846,2654.41L234.276,2654.26L233.709,2654.11L233.146,2653.96L232.586,2653.8L232.028,2653.65L231.475,2653.49L230.924,2653.33L230.378,2653.16L229.834,2653L229.294,2652.83L229.025,2652.75L228.757,2652.66L228.49,2652.58L228.224,2652.49L227.959,2652.4L227.695,2652.32L227.431,2652.23L227.169,2652.14L226.907,2652.05L226.646,2651.96L226.387,2651.87L226.128,2651.78L225.87,2651.69L225.613,2651.6L225.356,2651.51L225.101,2651.41L224.847,2651.32L224.594,2651.23L224.341,2651.14L224.09,2651.04L223.839,2650.95L223.59,2650.85L223.341,2650.75L223.093,2650.66L222.847,2650.56L222.601,2650.46L222.356,2650.36L222.112,2650.26L221.87,2650.16L221.628,2650.07L221.387,2649.97L221.147,2649.86L220.908,2649.76L220.67,2649.66L220.433,2649.56L220.198,2649.45L219.963,2649.35L219.729,2649.25L219.496,2649.14L219.264,2649.04L219.034,2648.93L218.804,2648.82L218.575,2648.72L218.347,2648.61L218.121,2648.5L217.895,2648.39L217.671,2648.28L217.447,2648.17L217.225,2648.06L217.003,2647.95L216.783,2647.84L216.564,2647.73L216.346,2647.62L216.128,2647.5L215.912,2647.39L215.697,2647.28L215.484,2647.16L215.271,2647.05L215.059,2646.93L214.849,2646.81L214.639,2646.7L214.431,2646.58L214.223,2646.46L214.017,2646.34L213.812,2646.22L213.608,2646.1L213.406,2645.98L213.204,2645.86L213.003,2645.74L212.804,2645.62L212.606,2645.49L212.409,2645.37L212.213,2645.25L212.018,2645.12L211.824,2645L211.632,2644.87L211.44,2644.74L211.25,2644.62L211.061,2644.49L210.873,2644.36L210.687,2644.24L210.501,2644.11L210.317,2643.98L210.134,2643.85L209.952,2643.72L209.771,2643.58L209.592,2643.45L209.414,2643.32L209.237,2643.19L209.061,2643.05L208.886,2642.92L208.713,2642.78L208.541,2642.65L208.37,2642.51L208.2,2642.37L208.032,2642.24L207.865,2642.1L207.699,2641.96L207.534,2641.82L207.371,2641.68L207.208,2641.54L207.047,2641.4L206.888,2641.26L206.729,2641.12L206.572,2640.97L206.417,2640.83L206.262,2640.69L206.109,2640.54L205.957,2640.4L205.806,2640.25L205.657,2640.1L205.509,2639.96L205.362,2639.81L205.217,2639.66L205.073,2639.51L204.93,2639.36L204.789,2639.21L204.649,2639.06L204.51,2638.91L204.373,2638.76L204.237,2638.61L204.102,2638.45L203.969,2638.3L203.837,2638.14L203.706,2637.99L203.577,2637.83L203.449,2637.68L203.323,2637.52L203.198,2637.36L203.074,2637.2L202.952,2637.05L202.831,2636.89L202.711,2636.73L202.593,2636.57L202.476,2636.4L202.361,2636.24L202.247,2636.08L202.135,2635.92L202.024,2635.75L201.914,2635.59L201.806,2635.42L201.699,2635.26L201.594,2635.09L201.49,2634.92L201.388,2634.76L201.287,2634.59L201.188,2634.42L201.091,2634.25L200.995,2634.09L200.901,2633.92L200.808,2633.75L200.716,2633.59L200.626,2633.42L200.538,2633.25L200.451,2633.09L200.365,2632.92L200.281,2632.75L200.199,2632.59L200.117,2632.42L200.038,2632.26L199.979,2632.13L199.948,2632.34L199.913,2632.58L199.882,2632.82L199.854,2633.06L199.829,2633.3L199.806,2633.54L199.787,2633.78L199.77,2634.02L199.757,2634.26L199.751,2634.38L199.746,2634.49L199.742,2634.61L199.738,2634.73L199.736,2634.85L199.734,2634.97L199.732,2635.09L199.732,2635.21L199.732,2635.32L199.733,2635.44L199.735,2635.56L199.738,2635.68L199.741,2635.79L199.745,2635.91L199.75,2636.03L199.755,2636.15L199.762,2636.26L199.769,2636.38L199.776,2636.5L199.785,2636.61L199.794,2636.73L199.804,2636.85L199.815,2636.96L199.827,2637.08L199.839,2637.2L199.853,2637.31L199.867,2637.43L199.881,2637.54L199.897,2637.66L199.913,2637.77L199.93,2637.89L199.948,2638L199.967,2638.12L199.986,2638.23L200.006,2638.35L200.027,2638.46L200.049,2638.58L200.072,2638.69L200.095,2638.8L200.119,2638.92L200.144,2639.03L200.17,2639.15L200.196,2639.26L200.224,2639.37L200.252,2639.49L200.281,2639.6L200.31,2639.71L200.341,2639.83L200.372,2639.94L200.404,2640.05L200.437,2640.16L200.471,2640.28L200.505,2640.39L200.541,2640.5L200.577,2640.61L200.614,2640.72L200.652,2640.83L200.69,2640.95L200.73,2641.06L200.77,2641.17L200.811,2641.28L200.853,2641.39L200.896,2641.5L200.939,2641.61L200.984,2641.72L201.029,2641.83L201.075,2641.94L201.122,2642.05L201.17,2642.16L201.218,2642.27L201.268,2642.38L201.318,2642.49L201.369,2642.6L201.421,2642.7L201.474,2642.81L201.527,2642.92L201.582,2643.03L201.637,2643.14L201.693,2643.25L201.75,2643.35L201.808,2643.46L201.867,2643.57L201.927,2643.68L201.987,2643.78L202.049,2643.89L202.111,2644L202.174,2644.1L202.238,2644.21L202.303,2644.32L202.368,2644.42L202.435,2644.53L202.502,2644.63L202.571,2644.74L202.64,2644.84L202.71,2644.95L202.781,2645.05L202.853,2645.16L202.926,2645.26L202.999,2645.37L203.074,2645.47L203.149,2645.57L203.226,2645.68L203.303,2645.78L203.381,2645.88L203.46,2645.99L203.54,2646.09L203.621,2646.19L203.702,2646.3L203.785,2646.4L203.869,2646.5L203.953,2646.6L204.038,2646.7L204.125,2646.8L204.212,2646.91L204.3,2647.01L204.389,2647.11L204.479,2647.21L204.57,2647.31L204.662,2647.41L204.755,2647.51L204.848,2647.61L204.943,2647.71L205.038,2647.81L205.135,2647.91L205.232,2648.01L205.331,2648.1L205.43,2648.2L205.53,2648.3L205.631,2648.4L205.733,2648.5L205.837,2648.59L205.941,2648.69L206.046,2648.79L206.151,2648.89L206.258,2648.98L206.366,2649.08L206.475,2649.17L206.585,2649.27L206.695,2649.37L206.807,2649.46L206.92,2649.56L207.033,2649.65L207.148,2649.74L207.264,2649.84L207.38,2649.93L207.498,2650.03L207.616,2650.12L207.736,2650.22L207.856,2650.31L207.977,2650.4L208.1,2650.49L208.223,2650.59L208.347,2650.68L208.473,2650.77L208.599,2650.86L208.726,2650.95L208.855,2651.04L208.984,2651.14L209.114,2651.23L209.246,2651.32L209.378,2651.41L209.511,2651.5L209.646,2651.59L209.781,2651.68L209.917,2651.76L210.055,2651.85L210.193,2651.94L210.332,2652.03L210.473,2652.12L210.614,2652.2L210.756,2652.29L210.9,2652.38L211.044,2652.47L211.189,2652.55L211.336,2652.64L211.483,2652.72L211.632,2652.81L211.781,2652.89L211.932,2652.98L212.084,2653.07L212.236,2653.15L212.39,2653.23L212.544,2653.32L212.7,2653.4L212.857,2653.48L213.015,2653.57L213.173,2653.65L213.333,2653.73L213.494,2653.81L213.656,2653.89L213.819,2653.98L213.983,2654.06L214.314,2654.22L214.65,2654.38L214.989,2654.54L215.333,2654.7L215.681,2654.85L216.034,2655.01L216.39,2655.16L216.751,2655.31L217.116,2655.46L217.486,2655.61L217.859,2655.76L218.238,2655.91L218.62,2656.05L219.007,2656.2L219.398,2656.34L219.793,2656.48L220.193,2656.62L220.598,2656.76L221.006,2656.89L221.419,2657.03L221.837,2657.16L222.259,2657.3L222.685,2657.43L223.116,2657.56L223.551,2657.69L223.991,2657.81L224.436,2657.94L224.884,2658.06L225.338,2658.18L225.796,2658.3L226.258,2658.42L226.725,2658.54L227.197,2658.66L227.673,2658.77L228.154,2658.88L228.639,2658.99L229.129,2659.1L229.623,2659.21L230.123,2659.32L230.626,2659.42L231.135,2659.52L231.648,2659.62L232.166,2659.72L232.689,2659.82L233.216,2659.92L233.748,2660.01L234.015,2660.06L234.284,2660.1L234.828,2660.19L235.378,2660.28L235.934,2660.37L236.496,2660.45L237.064,2660.53L237.639,2660.62L238.219,2660.7L238.805,2660.77L239.398,2660.85L239.996,2660.92L240.599,2660.99L241.209,2661.06L241.824,2661.13L242.445,2661.19L243.071,2661.26L243.703,2661.32L244.34,2661.38L244.983,2661.44L245.631,2661.49L246.284,2661.55L246.942,2661.6L247.606,2661.65L248.274,2661.7L248.948,2661.75L249.626,2661.79L250.31,2661.84L250.998,2661.88L251.691,2661.92L252.389,2661.96L253.091,2661.99L253.798,2662.03L254.51,2662.06L255.226,2662.09L255.946,2662.12L256.671,2662.15L257.4,2662.18L258.134,2662.2L258.871,2662.22L259.613,2662.25L260.359,2662.27L261.109,2662.28L261.863,2662.3L262.621,2662.32L263.382,2662.33L264.148,2662.34L264.917,2662.35L265.69,2662.36L266.466,2662.37L267.246,2662.37L268.03,2662.38L268.817,2662.38L269.607,2662.38L270.401,2662.38L271.198,2662.38L271.999,2662.37L272.802,2662.37L273.609,2662.36L274.418,2662.35L275.231,2662.34L276.046,2662.33L276.865,2662.32L277.686,2662.3L278.51,2662.29L279.337,2662.27L280.166,2662.25L280.998,2662.23L281.832,2662.21L282.669,2662.19L283.509,2662.17L284.35,2662.14L285.195,2662.11L286.041,2662.09L286.889,2662.06L287.74,2662.03L288.593,2661.99L289.447,2661.96L290.304,2661.92L291.163,2661.89L292.023,2661.85L292.885,2661.81L293.749,2661.77L294.615,2661.73L295.482,2661.69L296.351,2661.64L297.221,2661.6L298.093,2661.55L298.966,2661.5L299.84,2661.45L300.716,2661.41L301.593,2661.35L302.471,2661.3L303.35,2661.25L304.231,2661.19L305.112,2661.14L305.994,2661.08L306.877,2661.02L307.761,2660.96L308.646,2660.9L309.531,2660.84L310.417,2660.78L311.303,2660.71L312.19,2660.65L313.078,2660.58L313.966,2660.51L314.854,2660.45L315.743,2660.38L316.632,2660.3L317.521,2660.23L318.41,2660.16L319.299,2660.09L320.188,2660.01L321.078,2659.94L321.967,2659.86L322.856,2659.78L323.744,2659.7L324.633,2659.62L325.521,2659.54L326.409,2659.46L327.296,2659.38L328.183,2659.3L329.069,2659.21L329.955,2659.13L330.84,2659.04L331.724,2658.95L332.607,2658.86L333.49,2658.77L334.372,2658.68L335.252,2658.59L336.132,2658.5L337.011,2658.41L337.888,2658.32L338.765,2658.22L339.64,2658.13L340.513,2658.03L341.386,2657.93L342.257,2657.84L343.126,2657.74L343.994,2657.64L344.861,2657.54L345.725,2657.44L346.588,2657.34L347.45,2657.24L348.309,2657.13L349.167,2657.03L350.022,2656.93L350.876,2656.82L351.728,2656.71L352.577,2656.61L353.425,2656.5L354.27,2656.39L355.113,2656.28L355.953,2656.18L356.791,2656.07L357.627,2655.95L358.46,2655.84L359.291,2655.73L360.119,2655.62L360.944,2655.51L361.767,2655.39L362.587,2655.28L363.403,2655.16L364.217,2655.05L365.029,2654.93L365.837,2654.82L366.642,2654.7L367.443,2654.58L368.242,2654.46L369.038,2654.35L369.83,2654.23L370.618,2654.11L371.404,2653.99L372.185,2653.87L372.964,2653.74L373.738,2653.62L374.51,2653.5L375.277,2653.38L376.04,2653.26L376.8,2653.13L377.556,2653.01L378.308,2652.88L379.056,2652.76L379.8,2652.64L380.54,2652.51L381.275,2652.38L382.007,2652.26L382.734,2652.13L383.456,2652L384.175,2651.88L384.889,2651.75L385.598,2651.62L386.303,2651.49L387.003,2651.37L387.699,2651.24L388.389,2651.11L389.075,2650.98L389.756,2650.85L390.433,2650.72L391.104,2650.59L391.77,2650.46L392.431,2650.33L393.087,2650.2L393.738,2650.07L394.383,2649.93L395.024,2649.8L395.658,2649.67L396.288,2649.54L396.912,2649.41L397.53,2649.27L398.143,2649.14L398.75,2649.01L399.351,2648.88L399.946,2648.74L400.536,2648.61L401.12,2648.48L401.698,2648.34L402.27,2648.21L402.835,2648.08L403.395,2647.94L403.948,2647.81L404.496,2647.68L405.037,2647.54L405.571,2647.41L406.099,2647.28L406.621,2647.14L407.136,2647.01L407.644,2646.88L408.146,2646.74L408.641,2646.61L409.13,2646.47L409.611,2646.34L410.086,2646.21L410.553,2646.07L411.014,2645.94L411.467,2645.81L411.914,2645.67L412.353,2645.54L412.785,2645.41L413.21,2645.28L413.627,2645.14L414.037,2645.01L414.439,2644.88L414.834,2644.74L415.221,2644.61L415.6,2644.48L415.972,2644.35L416.336,2644.22L416.692,2644.09L417.04,2643.96L417.38,2643.83L417.712,2643.7L418.035,2643.56L418.351,2643.43L418.659,2643.3L418.809,2643.24L418.957,2643.18L419.104,2643.11L419.248,2643.05L419.63,2642.88L420.014,2642.7L420.398,2642.52L420.784,2642.35L421.17,2642.17L421.557,2641.98L421.944,2641.8L422.331,2641.61L422.718,2641.42L423.105,2641.23L423.491,2641.04L423.877,2640.85L424.262,2640.65L424.645,2640.45L425.028,2640.25L425.408,2640.05L425.788,2639.85L426.165,2639.64L426.54,2639.43L426.913,2639.22L427.283,2639.01L427.467,2638.9L427.65,2638.8L427.833,2638.69L428.015,2638.58L428.196,2638.47L428.377,2638.37L428.556,2638.26L428.735,2638.15L428.912,2638.03L429.089,2637.93L429.265,2637.81L429.44,2637.7L429.614,2637.59L429.787,2637.48L429.959,2637.36L430.13,2637.25L430.3,2637.14L430.468,2637.02L430.636,2636.91L430.802,2636.79L430.967,2636.68L431.131,2636.56L431.294,2636.45L431.456,2636.33L431.616,2636.21L431.775,2636.09L431.932,2635.97L432.088,2635.86L432.243,2635.74L432.396,2635.62L432.548,2635.5L432.699,2635.38L432.848,2635.26L432.995,2635.14L433.141,2635.01L433.285,2634.89L433.428,2634.77L433.569,2634.65L433.708,2634.52L433.846,2634.4L433.982,2634.28L434.116,2634.15L434.249,2634.03L434.38,2633.9L434.509,2633.78L434.636,2633.65L434.761,2633.53L434.885,2633.4L435.007,2633.27L435.126,2633.14L435.244,2633.02L435.36,2632.89L435.473,2632.76L435.585,2632.63L435.695,2632.5L435.803,2632.37L435.908,2632.24L436.012,2632.11L436.113,2631.98L436.212,2631.85L436.309,2631.72L436.404,2631.59L436.497,2631.46L436.587,2631.33L436.675,2631.2L436.761,2631.06L436.844,2630.93L436.926,2630.8L437.004,2630.66L437.081,2630.53L437.155,2630.4L437.227,2630.26L437.296,2630.13L437.363,2629.99L437.427,2629.86L437.489,2629.72L437.548,2629.59L437.605,2629.45L437.66,2629.32L437.711,2629.18L437.761,2629.04L437.807,2628.91L437.851,2628.77L437.893,2628.63L437.932,2628.49L437.968,2628.36L438.001,2628.22L438.032,2628.08L438.06,2627.94L438.086,2627.8L438.108,2627.66L438.128,2627.52L438.137,2627.45L438.145,2627.38L438.153,2627.31L438.16,2627.24L438.166,2627.17L438.171,2627.1L438.176,2627.03L438.18,2626.96L438.183,2626.89L438.186,2626.82L438.188,2626.75L438.189,2626.68L438.189,2626.61L438.189,2626.54L438.188,2626.47L438.186,2626.39L438.183,2626.32L438.18,2626.25L438.176,2626.18L438.171,2626.11L438.166,2626.04L438.159,2625.96L438.152,2625.89L438.145,2625.82L438.136,2625.75L438.127,2625.68L438.117,2625.6L438.106,2625.53L438.094,2625.46L438.082,2625.38L438.069,2625.31L438.055,2625.24L438.04,2625.16L438.024,2625.09L438.008,2625.02L437.991,2624.94L437.973,2624.87L437.954,2624.8L437.934,2624.72L437.914,2624.65L437.893,2624.57L437.87,2624.5L437.847,2624.42L437.824,2624.35L437.799,2624.27L437.774,2624.2L437.747,2624.12L437.72,2624.05L437.692,2623.97L437.663,2623.9L437.634,2623.82L437.603,2623.74L437.572,2623.67L437.539,2623.59L437.506,2623.52L437.472,2623.44L437.437,2623.36L437.401,2623.29L437.364,2623.21L437.326,2623.13L437.288,2623.05L437.248,2622.98L437.208,2622.9L437.166,2622.82L437.124,2622.74L437.081,2622.67L437.037,2622.59L436.992,2622.51L436.946,2622.43L436.899,2622.35L436.851,2622.27L436.802,2622.2L436.752,2622.12L436.701,2622.04L436.649,2621.96L436.597,2621.88L436.543,2621.8L436.488,2621.72L436.433,2621.64L436.376,2621.56L436.26,2621.4L436.139,2621.24L436.015,2621.08L435.887,2620.91L435.777,2620.78L435.772,2620.78ZM353.123,2578L352.789,2578.01L352.449,2578.01L352.105,2578.01L351.755,2578.01L351.401,2578.02L351.041,2578.03L350.677,2578.03L350.308,2578.04L349.934,2578.05L349.555,2578.06L349.172,2578.07L348.391,2578.09L347.592,2578.12L346.775,2578.15L345.941,2578.18L345.089,2578.22L344.221,2578.26L343.336,2578.3L342.434,2578.35L341.517,2578.4L340.584,2578.45L339.636,2578.51L338.673,2578.58L337.696,2578.64L336.704,2578.71L335.698,2578.78L334.679,2578.86L333.647,2578.94L332.601,2579.02L331.543,2579.11L330.473,2579.2L329.391,2579.29L328.298,2579.39L327.193,2579.49L326.077,2579.59L324.951,2579.7L323.814,2579.81L322.668,2579.93L321.512,2580.04L320.347,2580.16L319.173,2580.29L317.99,2580.42L316.799,2580.55L315.601,2580.69L314.394,2580.83L313.181,2580.97L311.96,2581.12L310.733,2581.26L309.5,2581.42L308.261,2581.58L307.016,2581.74L305.766,2581.9L304.512,2582.07L303.252,2582.24L301.988,2582.41L300.721,2582.59L300.086,2582.68L299.45,2582.77L298.813,2582.86L298.175,2582.96L297.537,2583.05L296.898,2583.14L296.259,2583.24L295.618,2583.34L294.978,2583.43L294.336,2583.53L293.694,2583.63L293.052,2583.73L292.41,2583.83L291.767,2583.93L291.123,2584.04L290.48,2584.14L289.836,2584.24L289.192,2584.35L288.548,2584.45L287.904,2584.56L287.26,2584.67L286.615,2584.78L285.971,2584.89L285.327,2585L284.683,2585.11L284.039,2585.22L283.395,2585.34L282.752,2585.45L282.108,2585.56L281.465,2585.68L280.823,2585.8L280.181,2585.91L279.539,2586.03L278.898,2586.15L278.257,2586.27L277.617,2586.39L276.977,2586.51L276.338,2586.64L275.7,2586.76L275.062,2586.89L274.426,2587.01L273.79,2587.14L273.155,2587.26L272.52,2587.39L271.887,2587.52L271.255,2587.65L270.624,2587.78L269.993,2587.91L269.364,2588.04L268.736,2588.18L268.11,2588.31L267.484,2588.45L266.86,2588.58L266.237,2588.72L265.615,2588.86L264.995,2588.99L264.376,2589.13L263.759,2589.27L263.143,2589.41L262.529,2589.56L261.917,2589.7L261.306,2589.84L260.696,2589.99L260.089,2590.13L259.483,2590.28L258.879,2590.43L258.277,2590.58L257.677,2590.72L257.079,2590.87L256.482,2591.02L255.888,2591.18L255.296,2591.33L254.706,2591.48L254.118,2591.64L253.532,2591.79L252.949,2591.95L252.368,2592.1L251.789,2592.26L251.212,2592.42L250.638,2592.58L250.066,2592.74L249.497,2592.9L248.93,2593.06L248.366,2593.22L247.805,2593.39L247.246,2593.55L246.689,2593.72L246.136,2593.88L245.585,2594.05L245.037,2594.22L244.492,2594.39L243.95,2594.56L243.411,2594.73L242.875,2594.9L242.342,2595.07L241.812,2595.24L241.285,2595.42L240.761,2595.59L240.24,2595.77L239.723,2595.95L239.209,2596.12L238.698,2596.3L238.19,2596.48L237.686,2596.66L237.186,2596.84L236.689,2597.02L236.195,2597.21L235.705,2597.39L235.219,2597.57L234.736,2597.76L234.257,2597.95L233.782,2598.13L233.31,2598.32L232.843,2598.51L232.379,2598.7L231.919,2598.89L231.463,2599.08L231.011,2599.27L230.563,2599.46L230.12,2599.66L229.68,2599.85L229.244,2600.05L228.813,2600.24L228.386,2600.44L227.963,2600.64L227.545,2600.84L227.131,2601.03L226.721,2601.24L226.316,2601.44L225.916,2601.64L225.519,2601.84L225.128,2602.05L224.741,2602.25L224.359,2602.45L224.17,2602.56L223.982,2602.66L223.795,2602.76L223.609,2602.87L223.424,2602.97L223.241,2603.08L223.059,2603.18L222.878,2603.28L222.698,2603.39L222.52,2603.49L222.343,2603.6L222.167,2603.7L221.992,2603.81L221.819,2603.91L221.646,2604.02L221.475,2604.13L221.306,2604.23L221.137,2604.34L220.97,2604.44L220.804,2604.55L220.64,2604.66L220.476,2604.76L220.314,2604.87L220.154,2604.98L219.994,2605.09L219.836,2605.19L219.68,2605.3L219.524,2605.41L219.37,2605.52L219.217,2605.63L219.066,2605.74L218.916,2605.85L218.767,2605.95L218.62,2606.06L218.474,2606.17L218.329,2606.28L218.186,2606.39L218.044,2606.5L217.904,2606.61L217.765,2606.72L217.486,2606.95L217.209,2607.17L216.934,2607.4L216.66,2607.62L216.389,2607.85L216.119,2608.08L215.85,2608.3L215.584,2608.53L215.319,2608.76L215.056,2608.99L214.795,2609.22L214.536,2609.45L214.278,2609.68L214.023,2609.91L213.769,2610.15L213.517,2610.38L213.267,2610.61L213.019,2610.85L212.773,2611.08L212.528,2611.32L212.286,2611.55L212.045,2611.79L211.807,2612.03L211.57,2612.26L211.336,2612.5L211.103,2612.74L210.872,2612.97L210.644,2613.21L210.417,2613.45L210.193,2613.69L209.97,2613.93L209.75,2614.17L209.531,2614.41L209.315,2614.66L209.101,2614.9L208.889,2615.14L208.679,2615.38L208.471,2615.62L208.265,2615.87L208.062,2616.11L207.86,2616.35L207.661,2616.6L207.464,2616.84L207.269,2617.09L207.076,2617.33L206.886,2617.58L206.698,2617.82L206.512,2618.07L206.328,2618.31L206.147,2618.56L205.968,2618.8L205.791,2619.05L205.616,2619.3L205.444,2619.54L205.274,2619.79L205.106,2620.04L204.941,2620.28L204.778,2620.53L204.618,2620.78L204.459,2621.03L204.304,2621.27L204.15,2621.52L203.999,2621.77L203.851,2622.01L203.705,2622.26L203.561,2622.51L203.42,2622.76L203.281,2623.01L203.145,2623.25L203.011,2623.5L202.88,2623.75L202.751,2624L202.625,2624.25L202.501,2624.49L202.38,2624.74L202.262,2624.99L202.146,2625.24L202.032,2625.48L201.921,2625.73L201.813,2625.98L201.708,2626.23L201.605,2626.47L201.504,2626.72L201.407,2626.97L201.312,2627.21L201.219,2627.46L201.13,2627.71L201.043,2627.95L200.958,2628.2L200.877,2628.44L200.798,2628.69L200.722,2628.93L200.648,2629.18L200.577,2629.43L200.51,2629.67L200.444,2629.91L200.382,2630.16L200.322,2630.4L200.318,2630.42L200.375,2630.56L200.441,2630.72L200.508,2630.88L200.577,2631.03L200.646,2631.19L200.718,2631.35L200.79,2631.51L200.864,2631.67L200.94,2631.83L201.017,2631.99L201.095,2632.14L201.175,2632.3L201.256,2632.47L201.338,2632.63L201.422,2632.79L201.508,2632.95L201.595,2633.11L201.683,2633.27L201.773,2633.43L201.864,2633.59L201.957,2633.75L202.051,2633.92L202.147,2634.08L202.244,2634.24L202.342,2634.4L202.441,2634.56L202.542,2634.72L202.645,2634.88L202.749,2635.04L202.854,2635.2L202.96,2635.35L203.069,2635.51L203.178,2635.67L203.289,2635.82L203.401,2635.98L203.515,2636.13L203.63,2636.28L203.746,2636.44L203.864,2636.59L203.983,2636.74L204.103,2636.9L204.225,2637.05L204.349,2637.2L204.473,2637.35L204.599,2637.5L204.727,2637.65L204.855,2637.8L204.985,2637.94L205.117,2638.09L205.25,2638.24L205.384,2638.38L205.519,2638.53L205.656,2638.67L205.794,2638.82L205.933,2638.96L206.074,2639.11L206.216,2639.25L206.36,2639.39L206.504,2639.53L206.65,2639.68L206.798,2639.82L206.946,2639.96L207.096,2640.1L207.247,2640.24L207.4,2640.37L207.554,2640.51L207.709,2640.65L207.865,2640.79L208.023,2640.92L208.182,2641.06L208.342,2641.19L208.503,2641.33L208.666,2641.46L208.83,2641.6L208.995,2641.73L209.162,2641.86L209.329,2641.99L209.498,2642.13L209.669,2642.26L209.84,2642.39L210.013,2642.52L210.187,2642.65L210.362,2642.78L210.538,2642.91L210.716,2643.03L210.895,2643.16L211.075,2643.29L211.256,2643.41L211.439,2643.54L211.622,2643.66L211.807,2643.79L211.993,2643.91L212.18,2644.04L212.369,2644.16L212.558,2644.28L212.749,2644.4L212.941,2644.52L213.134,2644.64L213.328,2644.76L213.524,2644.89L213.72,2645L213.918,2645.12L214.117,2645.24L214.317,2645.36L214.518,2645.48L214.721,2645.59L214.924,2645.71L215.129,2645.82L215.334,2645.94L215.541,2646.05L215.749,2646.17L215.958,2646.28L216.169,2646.39L216.38,2646.51L216.592,2646.62L216.806,2646.73L217.02,2646.84L217.236,2646.95L217.453,2647.06L217.671,2647.17L217.89,2647.28L218.11,2647.39L218.331,2647.49L218.553,2647.6L218.776,2647.71L219.001,2647.81L219.226,2647.92L219.452,2648.02L219.68,2648.13L219.908,2648.23L220.138,2648.33L220.368,2648.44L220.6,2648.54L220.833,2648.64L221.066,2648.74L221.301,2648.84L221.537,2648.94L221.773,2649.04L222.011,2649.14L222.25,2649.24L222.49,2649.34L222.73,2649.44L222.972,2649.53L223.215,2649.63L223.458,2649.73L223.703,2649.82L223.949,2649.92L224.195,2650.01L224.443,2650.11L224.692,2650.2L224.941,2650.29L225.192,2650.38L225.443,2650.47L225.696,2650.57L225.949,2650.66L226.203,2650.75L226.458,2650.84L226.715,2650.93L226.972,2651.02L227.23,2651.1L227.489,2651.19L227.748,2651.28L228.009,2651.37L228.271,2651.45L228.533,2651.54L228.797,2651.62L229.061,2651.71L229.327,2651.79L229.592,2651.88L230.128,2652.04L230.666,2652.21L231.208,2652.37L231.754,2652.53L232.303,2652.69L232.855,2652.84L233.41,2653L233.969,2653.15L234.532,2653.3L235.097,2653.45L235.666,2653.59L236.238,2653.74L236.813,2653.88L237.391,2654.02L237.972,2654.16L238.557,2654.29L239.144,2654.43L239.734,2654.56L240.328,2654.69L240.924,2654.82L241.524,2654.94L242.126,2655.07L242.731,2655.19L243.338,2655.31L243.949,2655.43L244.562,2655.54L245.178,2655.66L245.797,2655.77L246.419,2655.88L247.043,2655.99L247.669,2656.1L248.299,2656.2L248.93,2656.31L249.565,2656.41L250.201,2656.51L250.84,2656.61L251.482,2656.7L252.126,2656.8L252.772,2656.89L253.421,2656.98L254.072,2657.07L254.725,2657.15L255.38,2657.24L256.038,2657.32L256.697,2657.4L257.359,2657.48L258.023,2657.56L258.689,2657.63L259.357,2657.71L260.027,2657.78L260.699,2657.85L261.373,2657.92L262.049,2657.98L262.727,2658.05L263.406,2658.11L264.087,2658.17L264.77,2658.23L265.455,2658.29L266.142,2658.34L266.83,2658.4L267.52,2658.45L268.212,2658.5L268.905,2658.55L269.599,2658.59L270.295,2658.64L270.993,2658.68L271.692,2658.72L272.393,2658.76L273.095,2658.8L273.798,2658.84L274.503,2658.87L275.209,2658.91L275.916,2658.94L276.625,2658.97L277.334,2659L278.045,2659.02L278.757,2659.05L279.471,2659.07L280.185,2659.09L280.9,2659.11L281.617,2659.13L282.334,2659.14L283.052,2659.16L283.771,2659.17L284.492,2659.18L285.213,2659.19L285.934,2659.2L286.657,2659.21L287.38,2659.21L288.105,2659.21L288.829,2659.22L289.555,2659.21L290.281,2659.21L291.008,2659.21L291.735,2659.2L292.463,2659.2L293.192,2659.19L293.921,2659.18L294.65,2659.17L295.38,2659.15L296.11,2659.14L296.841,2659.12L297.572,2659.11L298.303,2659.09L299.035,2659.07L299.766,2659.04L300.498,2659.02L301.23,2658.99L301.963,2658.97L302.695,2658.94L303.428,2658.91L304.16,2658.88L304.893,2658.84L305.625,2658.81L306.358,2658.77L307.09,2658.73L307.823,2658.69L308.555,2658.65L309.287,2658.61L310.019,2658.57L310.75,2658.52L311.482,2658.47L312.213,2658.43L312.943,2658.38L313.674,2658.33L314.404,2658.27L315.133,2658.22L315.862,2658.16L316.591,2658.11L317.319,2658.05L318.047,2657.99L318.774,2657.93L319.5,2657.87L320.226,2657.8L320.951,2657.74L321.676,2657.67L322.399,2657.6L323.122,2657.53L323.844,2657.46L324.566,2657.39L325.286,2657.31L326.006,2657.24L326.724,2657.16L327.442,2657.08L328.159,2657L328.874,2656.92L329.589,2656.84L330.302,2656.76L331.015,2656.67L331.726,2656.59L332.436,2656.5L333.145,2656.41L333.853,2656.32L334.559,2656.23L335.265,2656.13L335.968,2656.04L336.671,2655.94L337.372,2655.85L338.072,2655.75L338.77,2655.65L339.467,2655.55L340.162,2655.45L340.856,2655.34L341.548,2655.24L342.238,2655.13L342.927,2655.03L343.614,2654.92L344.3,2654.81L344.983,2654.7L345.665,2654.58L346.346,2654.47L347.024,2654.36L347.7,2654.24L348.375,2654.12L349.048,2654L349.718,2653.88L350.387,2653.76L351.054,2653.64L351.719,2653.52L352.381,2653.39L353.042,2653.27L353.7,2653.14L354.356,2653.01L355.663,2652.76L356.313,2652.63L356.961,2652.49L357.606,2652.37L358.249,2652.24L358.89,2652.1L359.529,2651.97L360.165,2651.84L360.799,2651.71L361.43,2651.58L362.059,2651.45L362.686,2651.31L363.311,2651.18L363.933,2651.05L364.553,2650.91L365.171,2650.78L365.786,2650.64L366.399,2650.51L367.009,2650.37L367.617,2650.24L368.223,2650.1L368.827,2649.97L369.428,2649.83L370.027,2649.69L370.623,2649.56L371.217,2649.42L371.809,2649.28L372.398,2649.14L372.985,2649.01L373.569,2648.87L374.152,2648.73L374.731,2648.59L375.309,2648.45L375.884,2648.31L376.456,2648.17L377.026,2648.03L377.594,2647.89L378.16,2647.74L378.723,2647.6L379.283,2647.46L379.841,2647.32L380.397,2647.17L380.95,2647.03L381.501,2646.89L382.05,2646.74L382.596,2646.6L383.139,2646.45L383.68,2646.31L384.219,2646.16L384.755,2646.02L385.289,2645.87L385.82,2645.72L386.349,2645.58L386.876,2645.43L387.4,2645.28L387.921,2645.13L388.44,2644.98L388.957,2644.84L389.471,2644.68L389.982,2644.53L390.492,2644.39L390.998,2644.24L391.502,2644.08L392.004,2643.93L392.503,2643.78L393,2643.63L393.494,2643.47L393.986,2643.32L394.475,2643.17L394.962,2643.01L395.446,2642.86L395.927,2642.71L396.407,2642.55L396.883,2642.4L397.357,2642.24L397.829,2642.08L398.298,2641.93L398.764,2641.77L399.228,2641.61L399.69,2641.45L400.148,2641.3L400.605,2641.14L401.059,2640.98L401.51,2640.82L401.958,2640.66L402.404,2640.5L402.848,2640.34L403.289,2640.18L403.727,2640.01L404.163,2639.85L404.596,2639.69L405.027,2639.53L405.455,2639.36L405.88,2639.2L406.303,2639.03L406.723,2638.87L407.141,2638.7L407.556,2638.54L407.969,2638.37L408.379,2638.21L408.786,2638.04L409.19,2637.87L409.592,2637.7L409.992,2637.54L410.389,2637.37L410.783,2637.2L411.174,2637.03L411.563,2636.86L411.949,2636.69L412.333,2636.52L412.714,2636.35L413.092,2636.17L413.468,2636L413.841,2635.83L414.211,2635.65L414.579,2635.48L414.944,2635.31L415.306,2635.13L415.666,2634.96L416.023,2634.78L416.377,2634.61L416.729,2634.43L417.078,2634.25L417.424,2634.07L417.768,2633.9L418.109,2633.72L418.447,2633.54L418.782,2633.36L419.115,2633.18L419.445,2633L419.773,2632.82L420.097,2632.64L420.419,2632.45L420.738,2632.27L421.055,2632.09L421.369,2631.91L421.68,2631.72L421.988,2631.54L422.294,2631.35L422.596,2631.17L422.896,2630.98L423.194,2630.8L423.488,2630.61L423.78,2630.42L424.069,2630.24L424.356,2630.05L424.639,2629.86L424.92,2629.67L425.198,2629.48L425.473,2629.29L425.746,2629.1L426.016,2628.91L426.282,2628.72L426.547,2628.53L426.808,2628.33L427.067,2628.14L427.322,2627.95L427.575,2627.75L427.826,2627.56L428.073,2627.36L428.318,2627.17L428.559,2626.97L428.798,2626.77L429.034,2626.58L429.268,2626.38L429.498,2626.18L429.726,2625.98L429.951,2625.78L430.173,2625.59L430.392,2625.39L430.609,2625.18L430.822,2624.98L431.033,2624.78L431.241,2624.58L431.446,2624.38L431.648,2624.17L431.847,2623.97L432.044,2623.77L432.238,2623.56L432.428,2623.36L432.616,2623.15L432.802,2622.95L432.984,2622.74L433.163,2622.53L433.34,2622.32L433.513,2622.12L433.684,2621.91L433.852,2621.7L434.017,2621.49L434.179,2621.28L434.339,2621.07L434.495,2620.86L434.649,2620.64L434.8,2620.43L434.947,2620.22L435.092,2620.01L435.097,2620L435.031,2619.93L434.873,2619.76L434.712,2619.59L434.546,2619.43L434.375,2619.26L434.201,2619.09L434.022,2618.92L433.838,2618.75L433.65,2618.58L433.458,2618.41L433.261,2618.24L433.06,2618.07L432.854,2617.9L432.644,2617.73L432.429,2617.55L432.209,2617.38L431.985,2617.21L431.756,2617.03L431.523,2616.86L431.285,2616.68L431.042,2616.51L430.794,2616.33L430.542,2616.15L430.284,2615.98L430.022,2615.8L429.755,2615.62L429.483,2615.44L429.206,2615.26L428.925,2615.09L428.638,2614.91L428.346,2614.73L428.05,2614.55L427.748,2614.37L427.441,2614.18L427.13,2614L426.813,2613.82L426.491,2613.64L426.163,2613.45L425.831,2613.27L425.494,2613.09L425.151,2612.9L424.803,2612.72L424.449,2612.53L424.091,2612.35L423.727,2612.16L423.358,2611.98L422.983,2611.79L422.603,2611.6L422.218,2611.41L421.827,2611.23L421.43,2611.04L421.028,2610.85L420.621,2610.66L420.208,2610.47L419.79,2610.28L419.366,2610.09L418.936,2609.9L418.501,2609.71L418.06,2609.52L417.613,2609.33L417.161,2609.14L416.703,2608.94L416.239,2608.75L415.769,2608.56L415.293,2608.36L414.812,2608.17L414.325,2607.97L413.832,2607.78L413.333,2607.59L412.828,2607.39L412.317,2607.19L411.8,2607L411.277,2606.8L411.629,2605.87L412.154,2606.06L412.673,2606.26L413.187,2606.46L413.695,2606.65L414.198,2606.85L414.694,2607.05L415.184,2607.24L415.669,2607.44L416.148,2607.63L416.621,2607.83L417.088,2608.02L417.55,2608.21L418.006,2608.41L418.456,2608.6L418.9,2608.79L419.339,2608.99L419.773,2609.18L420.201,2609.37L420.623,2609.56L421.04,2609.75L421.451,2609.94L421.857,2610.13L422.258,2610.32L422.653,2610.51L423.042,2610.7L423.427,2610.89L423.806,2611.08L424.179,2611.27L424.548,2611.46L424.911,2611.65L425.269,2611.83L425.622,2612.02L425.969,2612.21L426.312,2612.39L426.649,2612.58L426.981,2612.77L427.308,2612.95L427.63,2613.14L427.948,2613.32L428.26,2613.51L428.567,2613.69L428.869,2613.87L429.166,2614.06L429.459,2614.24L429.746,2614.42L430.029,2614.61L430.306,2614.79L430.58,2614.97L430.848,2615.15L431.111,2615.33L431.37,2615.51L431.624,2615.69L431.874,2615.87L432.119,2616.05L432.359,2616.23L432.594,2616.41L432.826,2616.59L433.052,2616.77L433.274,2616.95L433.492,2617.13L433.705,2617.31L433.913,2617.48L434.118,2617.66L434.317,2617.84L434.513,2618.01L434.704,2618.19L434.891,2618.37L435.073,2618.54L435.251,2618.72L435.425,2618.89L435.595,2619.07L435.653,2619.13L435.774,2618.93L435.902,2618.71L436.026,2618.5L436.148,2618.28L436.267,2618.06L436.384,2617.84L436.497,2617.62L436.607,2617.4L436.715,2617.18L436.819,2616.96L436.921,2616.74L437.02,2616.52L437.115,2616.3L437.208,2616.07L437.298,2615.85L437.386,2615.63L437.47,2615.4L437.511,2615.29L437.551,2615.18L437.591,2615.06L437.63,2614.95L437.668,2614.84L437.705,2614.72L437.742,2614.61L437.778,2614.49L437.813,2614.38L437.848,2614.27L437.882,2614.15L437.915,2614.04L437.947,2613.93L437.979,2613.81L438.009,2613.7L438.04,2613.58L438.069,2613.47L438.098,2613.35L438.126,2613.24L438.153,2613.12L438.179,2613L438.205,2612.89L438.23,2612.77L438.255,2612.66L438.278,2612.54L438.301,2612.42L438.323,2612.31L438.345,2612.19L438.365,2612.07L438.385,2611.96L438.404,2611.84L438.423,2611.72L438.44,2611.6L438.457,2611.49L438.474,2611.37L438.489,2611.25L438.504,2611.13L438.518,2611.01L438.531,2610.9L438.544,2610.78L438.556,2610.66L438.567,2610.54L438.577,2610.42L438.587,2610.3L438.596,2610.18L438.604,2610.06L438.612,2609.94L438.618,2609.82L438.624,2609.7L438.629,2609.58L438.634,2609.46L438.638,2609.34L438.641,2609.22L438.643,2609.1L438.644,2608.98L438.645,2608.86L438.645,2608.73L438.644,2608.61L438.643,2608.49L438.641,2608.37L438.638,2608.25L438.634,2608.12L438.629,2608L438.624,2607.88L438.618,2607.76L438.612,2607.63L438.604,2607.51L438.596,2607.39L438.587,2607.26L438.577,2607.14L438.567,2607.01L438.556,2606.89L438.531,2606.64L438.503,2606.39L438.488,2606.27L438.472,2606.15L438.455,2606.02L438.437,2605.9L438.417,2605.78L438.396,2605.66L438.375,2605.54L438.352,2605.42L438.328,2605.3L438.302,2605.18L438.276,2605.06L438.249,2604.94L438.22,2604.82L438.19,2604.7L438.16,2604.58L438.128,2604.46L438.095,2604.35L438.061,2604.23L438.026,2604.11L437.989,2603.99L437.952,2603.88L437.913,2603.76L437.874,2603.64L437.833,2603.53L437.792,2603.41L437.749,2603.3L437.705,2603.18L437.66,2603.07L437.614,2602.95L437.567,2602.84L437.519,2602.73L437.469,2602.61L437.419,2602.5L437.368,2602.39L437.315,2602.28L437.262,2602.16L437.207,2602.05L437.152,2601.94L437.095,2601.83L437.038,2601.72L436.979,2601.61L436.919,2601.5L436.858,2601.39L436.797,2601.28L436.734,2601.17L436.67,2601.06L436.605,2600.95L436.539,2600.84L436.472,2600.73L436.405,2600.62L436.336,2600.51L436.266,2600.41L436.195,2600.3L436.123,2600.19L436.05,2600.09L435.976,2599.98L435.901,2599.87L435.825,2599.77L435.748,2599.66L435.67,2599.56L435.591,2599.45L435.512,2599.35L435.431,2599.24L435.349,2599.14L435.266,2599.03L435.182,2598.93L435.098,2598.83L435.012,2598.72L434.925,2598.62L434.838,2598.52L434.749,2598.41L434.66,2598.31L434.569,2598.21L434.478,2598.11L434.385,2598.01L434.292,2597.91L434.198,2597.81L434.103,2597.71L434.007,2597.61L433.91,2597.51L433.812,2597.41L433.713,2597.31L433.613,2597.21L433.513,2597.11L433.411,2597.01L433.309,2596.91L433.205,2596.82L433.101,2596.72L432.996,2596.62L432.89,2596.52L432.783,2596.43L432.675,2596.33L432.566,2596.23L432.456,2596.14L432.346,2596.04L432.235,2595.95L432.122,2595.85L432.009,2595.76L431.895,2595.66L431.78,2595.57L431.665,2595.47L431.548,2595.38L431.431,2595.29L431.313,2595.2L431.074,2595.01L430.831,2594.83L430.586,2594.64L430.337,2594.46L430.085,2594.28L429.829,2594.1L429.571,2593.92L429.309,2593.74L429.044,2593.57L428.776,2593.39L428.505,2593.22L428.231,2593.04L427.954,2592.87L427.673,2592.7L427.39,2592.53L427.104,2592.36L426.815,2592.19L426.523,2592.03L426.228,2591.86L425.931,2591.7L425.631,2591.53L425.327,2591.37L425.022,2591.21L424.713,2591.05L424.402,2590.89L424.088,2590.74L423.771,2590.58L423.452,2590.42L423.13,2590.27L422.806,2590.12L422.479,2589.96L422.15,2589.81L421.818,2589.66L421.484,2589.51L421.148,2589.37L420.809,2589.22L420.468,2589.07L420.124,2588.93L419.778,2588.79L419.43,2588.64L419.08,2588.5L418.728,2588.36L418.373,2588.22L418.016,2588.09L417.657,2587.95L417.296,2587.81L416.934,2587.68L416.569,2587.54L416.202,2587.41L415.833,2587.28L415.462,2587.15L415.089,2587.02L414.714,2586.89L414.338,2586.76L413.96,2586.64L413.58,2586.51L413.198,2586.39L412.814,2586.26L412.429,2586.14L412.042,2586.02L411.653,2585.9L411.263,2585.78L410.871,2585.66L410.478,2585.54L410.083,2585.43L409.687,2585.31L409.289,2585.2L408.89,2585.09L408.489,2584.97L408.087,2584.86L407.684,2584.75L407.279,2584.64L406.873,2584.53L406.466,2584.43L406.057,2584.32L405.648,2584.22L405.237,2584.11L404.825,2584.01L404.411,2583.91L403.997,2583.81L403.582,2583.71L403.165,2583.61L402.748,2583.51L402.33,2583.41L401.91,2583.32L401.49,2583.22L401.069,2583.13L400.647,2583.03L400.224,2582.94L399.8,2582.85L399.376,2582.76L398.951,2582.67L398.525,2582.58L398.098,2582.49L397.671,2582.41L397.243,2582.32L396.815,2582.23L396.385,2582.15L395.956,2582.07L395.526,2581.99L395.095,2581.9L394.664,2581.82L394.232,2581.74L393.8,2581.67L393.368,2581.59L392.935,2581.51L392.502,2581.44L392.069,2581.36L391.635,2581.29L391.202,2581.22L390.768,2581.14L390.333,2581.07L389.899,2581L389.465,2580.93L389.03,2580.87L388.595,2580.8L388.161,2580.73L387.726,2580.66L387.291,2580.6L386.857,2580.54L386.422,2580.47L385.988,2580.41L385.554,2580.35L385.12,2580.29L384.686,2580.23L384.252,2580.17L383.818,2580.11L383.385,2580.05L382.952,2580L382.52,2579.94L382.088,2579.89L381.656,2579.84L381.225,2579.78L380.794,2579.73L380.363,2579.68L379.933,2579.63L379.504,2579.58L379.075,2579.53L378.647,2579.48L378.22,2579.43L377.366,2579.34L376.516,2579.26L375.668,2579.17L374.824,2579.09L373.984,2579.01L373.147,2578.93L372.314,2578.86L371.486,2578.79L370.661,2578.72L369.842,2578.66L369.027,2578.6L368.218,2578.55L367.414,2578.49L366.615,2578.44L365.822,2578.39L365.035,2578.35L364.255,2578.3L363.481,2578.26L362.713,2578.23L361.953,2578.19L361.2,2578.16L360.454,2578.14L359.715,2578.11L358.985,2578.09L358.263,2578.07L357.549,2578.05L356.843,2578.04L356.147,2578.02L355.459,2578.01L354.781,2578.01L354.112,2578.01L353.453,2578L353.123,2578Z" style="fill:rgb(255,99,52);"/>
                </g>
                <g transform="matrix(1,0,0,0.255954,-290.215,35.4069)">
                    <path d="M517.278,2591.38L517.301,2591.47L517.334,2591.61L517.377,2591.81L517.402,2591.92L517.428,2592.05L517.456,2592.19L517.484,2592.34L517.513,2592.5L517.543,2592.67L517.573,2592.85L517.603,2593.04L517.633,2593.24L517.662,2593.45L517.691,2593.66L517.718,2593.89L517.744,2594.12L517.769,2594.36L517.791,2594.61L517.812,2594.86L517.83,2595.12L517.838,2595.26L517.846,2595.39L517.852,2595.53L517.858,2595.66L517.864,2595.8L517.868,2595.94L517.871,2596.08L517.874,2596.22L517.876,2596.37L517.877,2596.51L517.876,2596.66L517.875,2596.81L517.873,2596.95L517.869,2597.1L517.865,2597.25L517.859,2597.4L517.852,2597.55L517.844,2597.71L517.834,2597.86L517.824,2598.01L517.812,2598.17L517.798,2598.33L517.783,2598.48L517.767,2598.64L517.749,2598.8L517.73,2598.95L517.709,2599.11L517.687,2599.27L517.663,2599.43L517.637,2599.59L517.61,2599.75L517.581,2599.91L517.55,2600.07L517.518,2600.23L517.483,2600.39L517.447,2600.55L517.409,2600.71L517.369,2600.87L517.327,2601.03L517.283,2601.19L517.237,2601.35L517.188,2601.51L517.138,2601.67L517.086,2601.83L517.031,2601.99L516.974,2602.14L516.915,2602.3L516.854,2602.46L516.79,2602.62L516.724,2602.77L516.655,2602.93L516.584,2603.08L516.511,2603.24L516.435,2603.39L516.356,2603.54L516.275,2603.7L516.191,2603.85L516.105,2604L516.016,2604.15L515.924,2604.29L515.829,2604.44L515.732,2604.59L515.632,2604.73L515.529,2604.88L515.423,2605.02L515.368,2605.09L515.314,2605.16L515.282,2605.2L515.45,2605.14L515.7,2605.04L515.959,2604.94L516.228,2604.84L516.507,2604.73L516.793,2604.61L517.088,2604.49L517.39,2604.36L517.699,2604.22L517.855,2604.16L518.013,2604.08L518.173,2604.01L518.333,2603.94L518.495,2603.86L518.659,2603.79L518.823,2603.71L518.989,2603.63L519.155,2603.55L519.322,2603.46L519.49,2603.38L519.659,2603.29L519.829,2603.21L519.999,2603.12L520.169,2603.03L520.34,2602.94L520.512,2602.84L520.684,2602.75L520.856,2602.65L521.028,2602.55L521.2,2602.46L521.372,2602.36L521.545,2602.25L521.717,2602.15L521.889,2602.05L522.06,2601.94L522.232,2601.83L522.403,2601.72L522.573,2601.61L522.743,2601.5L522.912,2601.39L523.081,2601.27L523.249,2601.15L523.415,2601.03L523.581,2600.91L523.746,2600.79L523.91,2600.67L524.073,2600.55L524.235,2600.42L524.395,2600.29L524.554,2600.16L524.712,2600.03L524.868,2599.9L525.022,2599.77L525.175,2599.64L525.327,2599.5L525.476,2599.36L525.624,2599.22L525.769,2599.08L525.913,2598.94L526.055,2598.8L526.194,2598.65L526.332,2598.51L526.467,2598.36L526.599,2598.21L526.73,2598.06L526.858,2597.91L526.983,2597.76L527.045,2597.68L527.106,2597.6L527.166,2597.53L527.226,2597.45L527.285,2597.37L527.343,2597.29L527.401,2597.21L527.458,2597.13L527.514,2597.05L527.569,2596.97L527.624,2596.89L527.678,2596.81L527.732,2596.73L527.784,2596.65L527.836,2596.57L527.887,2596.48L527.937,2596.4L527.986,2596.32L528.035,2596.23L528.083,2596.15L528.13,2596.07L528.176,2595.98L528.222,2595.9L528.266,2595.81L528.31,2595.73L528.353,2595.64L528.395,2595.55L528.436,2595.47L528.476,2595.38L528.516,2595.29L528.554,2595.21L528.592,2595.12L528.629,2595.03L528.664,2594.94L528.699,2594.85L528.733,2594.76L528.766,2594.67L528.798,2594.58L528.83,2594.49L528.86,2594.4L528.889,2594.31L528.917,2594.22L528.945,2594.13L528.972,2594.03L529.933,2594.31L529.905,2594.41L529.874,2594.51L529.843,2594.61L529.81,2594.71L529.777,2594.81L529.742,2594.91L529.706,2595.01L529.67,2595.11L529.632,2595.21L529.593,2595.31L529.554,2595.41L529.513,2595.51L529.471,2595.6L529.429,2595.7L529.385,2595.8L529.341,2595.89L529.296,2595.99L529.249,2596.08L529.202,2596.18L529.154,2596.27L529.105,2596.36L529.056,2596.46L529.005,2596.55L528.953,2596.64L528.901,2596.73L528.848,2596.82L528.794,2596.91L528.739,2597.01L528.684,2597.1L528.627,2597.18L528.57,2597.27L528.512,2597.36L528.454,2597.45L528.394,2597.54L528.334,2597.62L528.273,2597.71L528.212,2597.8L528.149,2597.88L528.086,2597.97L528.023,2598.05L527.958,2598.14L527.893,2598.22L527.828,2598.3L527.761,2598.39L527.627,2598.55L527.49,2598.71L527.35,2598.87L527.208,2599.03L527.064,2599.19L526.918,2599.34L526.77,2599.5L526.619,2599.65L526.467,2599.8L526.313,2599.95L526.157,2600.1L525.999,2600.24L525.84,2600.38L525.679,2600.53L525.516,2600.66L525.352,2600.8L525.187,2600.94L525.02,2601.07L524.852,2601.21L524.683,2601.34L524.513,2601.47L524.342,2601.6L524.17,2601.72L523.997,2601.85L523.823,2601.97L523.649,2602.09L523.474,2602.21L523.298,2602.33L523.122,2602.45L522.945,2602.56L522.768,2602.68L522.59,2602.79L522.413,2602.9L522.235,2603.01L522.057,2603.11L521.879,2603.22L521.701,2603.32L521.523,2603.42L521.346,2603.53L521.169,2603.62L520.992,2603.72L520.815,2603.82L520.639,2603.91L520.463,2604L520.288,2604.1L520.114,2604.18L519.94,2604.27L519.768,2604.36L519.596,2604.44L519.425,2604.53L519.255,2604.61L519.087,2604.69L518.919,2604.77L518.753,2604.85L518.588,2604.92L518.424,2605L518.262,2605.07L518.101,2605.14L517.785,2605.28L517.476,2605.41L517.174,2605.53L516.881,2605.65L516.596,2605.77L516.32,2605.88L516.054,2605.98L515.799,2606.07L515.554,2606.16L515.321,2606.25L515.1,2606.33L514.892,2606.4L514.697,2606.46L514.516,2606.53L514.349,2606.58L514.196,2606.63L513.94,2606.71L513.75,2606.77L513.631,2606.8L513.1,2606.95L512.742,2606.27L513.205,2605.89L513.27,2605.84L513.335,2605.78L513.399,2605.73L513.462,2605.67L513.525,2605.61L513.586,2605.56L513.647,2605.5L513.708,2605.44L513.767,2605.39L513.826,2605.33L513.884,2605.27L513.942,2605.21L513.998,2605.15L514.054,2605.09L514.11,2605.03L514.165,2604.97L514.219,2604.91L514.272,2604.85L514.324,2604.79L514.376,2604.73L514.428,2604.66L514.478,2604.6L514.528,2604.54L514.578,2604.48L514.626,2604.41L514.722,2604.28L514.815,2604.16L514.905,2604.03L514.993,2603.89L515.079,2603.76L515.162,2603.63L515.242,2603.49L515.321,2603.36L515.397,2603.22L515.47,2603.08L515.542,2602.94L515.611,2602.8L515.678,2602.66L515.743,2602.52L515.806,2602.38L515.866,2602.23L515.925,2602.09L515.981,2601.94L516.035,2601.8L516.088,2601.65L516.138,2601.51L516.186,2601.36L516.233,2601.21L516.277,2601.07L516.32,2600.92L516.361,2600.77L516.4,2600.62L516.437,2600.47L516.473,2600.32L516.507,2600.17L516.539,2600.02L516.569,2599.87L516.598,2599.72L516.625,2599.57L516.651,2599.42L516.675,2599.28L516.697,2599.13L516.718,2598.98L516.738,2598.83L516.756,2598.68L516.773,2598.53L516.788,2598.38L516.802,2598.24L516.815,2598.09L516.826,2597.94L516.836,2597.8L516.845,2597.65L516.853,2597.51L516.86,2597.36L516.865,2597.22L516.869,2597.08L516.873,2596.93L516.875,2596.79L516.876,2596.65L516.877,2596.51L516.876,2596.38L516.874,2596.24L516.872,2596.1L516.868,2595.97L516.864,2595.84L516.859,2595.7L516.854,2595.57L516.847,2595.44L516.84,2595.31L516.832,2595.19L516.815,2594.94L516.795,2594.69L516.773,2594.46L516.75,2594.23L516.725,2594L516.698,2593.79L516.671,2593.58L516.643,2593.38L516.615,2593.19L516.586,2593.01L516.557,2592.84L516.529,2592.67L516.501,2592.52L516.474,2592.38L516.448,2592.25L516.423,2592.13L516.4,2592.02L516.36,2591.84L516.328,2591.7L516.309,2591.63L516.302,2591.6L517.27,2591.35L517.278,2591.38Z" style="fill:rgb(255,99,52);"/>
                </g>
            </g>
            <g transform="matrix(0.169158,0,0,0.355932,140.855,13.1282)">
                <text id="line" x="0px" y="17.52px" style="font-family:'Raleway', sans-serif;font-size:24px;fill:rgb(51,51,51);">d<tspan x="15.912px 24.72px 39.96px 55.68px 62.784px 78px 90.648px 97.752px 111.864px 118.968px 126.264px 132.36px 147.216px " y="17.52px 17.52px 17.52px 17.52px 17.52px 17.52px 17.52px 17.52px 17.52px 17.52px 17.52px 17.52px 17.52px ">rop us a line</tspan></text>
            </g>
        </g>
    </g>
</svg>
